<?xml version="1.0" encoding="UTF-8" standalone="no"?>
<!DOCTYPE svg PUBLIC "-//W3C//DTD SVG 1.1//EN"
 "http://www.w3.org/Graphics/SVG/1.1/DTD/svg11.dtd">
<!-- Generated by graphviz version 2.43.0 (0)
 -->
<!-- Title: %3 Pages: 1 -->
<svg width="2096pt" height="1124pt"
 viewBox="0.00 0.00 2095.60 1124.09" xmlns="http://www.w3.org/2000/svg" xmlns:xlink="http://www.w3.org/1999/xlink">
<g id="graph0" class="graph" transform="scale(1 1) rotate(0) translate(4 1120.09)">
<title>%3</title>
<polygon fill="white" stroke="transparent" points="-4,4 -4,-1120.09 2091.6,-1120.09 2091.6,4 -4,4"/>
<!-- Vierge -->
<g id="node1" class="node">
<title>Vierge</title>
<text text-anchor="middle" x="1142.6" y="-1094.39" font-family="Times,serif" font-size="14.00">Vierge</text>
</g>
<!-- PoussiereRegolite -->
<g id="node10" class="node">
<title>PoussiereRegolite</title>
<polygon fill="lightgrey" stroke="black" points="1152.15,-993.14 1158.48,-993.24 1164.74,-993.39 1170.91,-993.58 1176.97,-993.83 1182.88,-994.12 1188.63,-994.46 1194.19,-994.84 1199.55,-995.27 1204.68,-995.74 1209.57,-996.25 1214.19,-996.81 1218.53,-997.4 1222.59,-998.03 1226.33,-998.7 1229.77,-999.4 1232.88,-1000.13 1235.66,-1000.89 1238.11,-1001.68 1240.23,-1002.5 1242,-1003.34 1243.44,-1004.2 1244.54,-1005.08 1245.3,-1005.98 1245.74,-1006.89 1245.86,-1007.81 1245.66,-1008.74 1245.16,-1009.68 1244.37,-1010.62 1243.29,-1011.56 1241.94,-1012.5 1240.34,-1013.44 1238.48,-1014.37 1236.4,-1015.29 1234.09,-1016.21 1231.58,-1017.1 1228.88,-1017.98 1226,-1018.84 1222.96,-1019.68 1219.77,-1020.5 1216.45,-1021.29 1213,-1022.05 1209.44,-1022.79 1205.78,-1023.49 1202.03,-1024.15 1198.2,-1024.78 1194.31,-1025.38 1190.35,-1025.93 1186.34,-1026.44 1182.29,-1026.92 1178.2,-1027.34 1174.08,-1027.73 1169.93,-1028.06 1165.76,-1028.36 1161.57,-1028.6 1157.37,-1028.8 1153.15,-1028.94 1148.93,-1029.04 1144.71,-1029.09 1140.49,-1029.09 1136.26,-1029.04 1132.05,-1028.94 1127.83,-1028.8 1123.63,-1028.6 1119.44,-1028.36 1115.27,-1028.06 1111.12,-1027.73 1107,-1027.34 1102.91,-1026.92 1098.86,-1026.44 1094.85,-1025.93 1090.89,-1025.38 1087,-1024.78 1083.17,-1024.15 1079.42,-1023.49 1075.76,-1022.79 1072.2,-1022.05 1068.75,-1021.29 1065.42,-1020.5 1062.23,-1019.68 1059.19,-1018.84 1056.32,-1017.98 1053.62,-1017.1 1051.11,-1016.21 1048.8,-1015.29 1046.72,-1014.37 1044.86,-1013.44 1043.25,-1012.5 1041.91,-1011.56 1040.83,-1010.62 1040.03,-1009.68 1039.53,-1008.74 1039.34,-1007.81 1039.46,-1006.89 1039.9,-1005.98 1040.66,-1005.08 1041.76,-1004.2 1043.2,-1003.34 1044.97,-1002.5 1047.08,-1001.68 1049.53,-1000.89 1052.32,-1000.13 1055.43,-999.4 1058.86,-998.7 1062.61,-998.03 1066.67,-997.4 1071.01,-996.81 1075.63,-996.25 1080.52,-995.74 1085.65,-995.27 1091,-994.84 1096.57,-994.46 1102.32,-994.12 1108.23,-993.83 1114.29,-993.58 1120.46,-993.39 1126.72,-993.24 1133.04,-993.14 1139.41,-993.09 1145.79,-993.09 1152.15,-993.14"/>
<text text-anchor="middle" x="1142.6" y="-1007.39" font-family="Times,serif" font-size="14.00">Poussiere Regolite</text>
</g>
<!-- Vierge&#45;&gt;PoussiereRegolite -->
<g id="edge1" class="edge">
<title>Vierge&#45;&gt;PoussiereRegolite</title>
<path fill="none" stroke="black" d="M1142.6,-1079.89C1142.6,-1068.25 1142.6,-1052.64 1142.6,-1039.33"/>
<polygon fill="black" stroke="black" points="1146.1,-1039.27 1142.6,-1029.27 1139.1,-1039.27 1146.1,-1039.27"/>
</g>
<!-- GisementOr -->
<g id="node2" class="node">
<title>GisementOr</title>
<polygon fill="lightgrey" stroke="transparent" points="1621.1,-1116.09 1514.1,-1116.09 1514.1,-1080.09 1621.1,-1080.09 1621.1,-1116.09"/>
<text text-anchor="middle" x="1567.6" y="-1094.39" font-family="Times,serif" font-size="14.00">Gisement Or</text>
</g>
<!-- MineraiOr -->
<g id="node15" class="node">
<title>MineraiOr</title>
<polygon fill="lightgrey" stroke="black" points="1573.66,-993.14 1577.67,-993.24 1581.65,-993.39 1585.56,-993.58 1589.4,-993.83 1593.15,-994.12 1596.8,-994.46 1600.33,-994.84 1603.73,-995.27 1606.98,-995.74 1610.08,-996.25 1613.02,-996.81 1615.77,-997.4 1618.34,-998.03 1620.72,-998.7 1622.9,-999.4 1624.87,-1000.13 1626.64,-1000.89 1628.19,-1001.68 1629.53,-1002.5 1630.66,-1003.34 1631.57,-1004.2 1632.27,-1005.08 1632.75,-1005.98 1633.03,-1006.89 1633.11,-1007.81 1632.98,-1008.74 1632.67,-1009.68 1632.16,-1010.62 1631.48,-1011.56 1630.62,-1012.5 1629.6,-1013.44 1628.43,-1014.37 1627.11,-1015.29 1625.64,-1016.21 1624.05,-1017.1 1622.34,-1017.98 1620.51,-1018.84 1618.58,-1019.68 1616.56,-1020.5 1614.45,-1021.29 1612.26,-1022.05 1610,-1022.79 1607.68,-1023.49 1605.3,-1024.15 1602.87,-1024.78 1600.4,-1025.38 1597.89,-1025.93 1595.35,-1026.44 1592.78,-1026.92 1590.18,-1027.34 1587.57,-1027.73 1584.94,-1028.06 1582.29,-1028.36 1579.63,-1028.6 1576.97,-1028.8 1574.3,-1028.94 1571.62,-1029.04 1568.94,-1029.09 1566.26,-1029.09 1563.58,-1029.04 1560.9,-1028.94 1558.23,-1028.8 1555.57,-1028.6 1552.91,-1028.36 1550.26,-1028.06 1547.63,-1027.73 1545.02,-1027.34 1542.42,-1026.92 1539.85,-1026.44 1537.31,-1025.93 1534.8,-1025.38 1532.32,-1024.78 1529.9,-1024.15 1527.52,-1023.49 1525.2,-1022.79 1522.94,-1022.05 1520.75,-1021.29 1518.64,-1020.5 1516.62,-1019.68 1514.69,-1018.84 1512.86,-1017.98 1511.15,-1017.1 1509.56,-1016.21 1508.09,-1015.29 1506.77,-1014.37 1505.59,-1013.44 1504.57,-1012.5 1503.72,-1011.56 1503.03,-1010.62 1502.53,-1009.68 1502.21,-1008.74 1502.09,-1007.81 1502.17,-1006.89 1502.44,-1005.98 1502.93,-1005.08 1503.63,-1004.2 1504.54,-1003.34 1505.66,-1002.5 1507,-1001.68 1508.56,-1000.89 1510.32,-1000.13 1512.3,-999.4 1514.48,-998.7 1516.86,-998.03 1519.43,-997.4 1522.18,-996.81 1525.12,-996.25 1528.21,-995.74 1531.47,-995.27 1534.87,-994.84 1538.4,-994.46 1542.05,-994.12 1545.8,-993.83 1549.64,-993.58 1553.55,-993.39 1557.52,-993.24 1561.54,-993.14 1565.58,-993.09 1569.62,-993.09 1573.66,-993.14"/>
<text text-anchor="middle" x="1567.6" y="-1007.39" font-family="Times,serif" font-size="14.00">Minerai Or</text>
</g>
<!-- GisementOr&#45;&gt;MineraiOr -->
<g id="edge2" class="edge">
<title>GisementOr&#45;&gt;MineraiOr</title>
<path fill="none" stroke="grey" stroke-dasharray="1,5" d="M1567.6,-1079.89C1567.6,-1068.25 1567.6,-1052.64 1567.6,-1039.33"/>
<polygon fill="grey" stroke="grey" points="1571.1,-1039.27 1567.6,-1029.27 1564.1,-1039.27 1571.1,-1039.27"/>
<text text-anchor="middle" x="1586.1" y="-1050.89" font-family="Times,serif" font-size="14.00" fill="grey">Mine</text>
</g>
<!-- GisementFer -->
<g id="node3" class="node">
<title>GisementFer</title>
<polygon fill="lightgrey" stroke="transparent" points="150.1,-1116.09 37.1,-1116.09 37.1,-1080.09 150.1,-1080.09 150.1,-1116.09"/>
<text text-anchor="middle" x="93.6" y="-1094.39" font-family="Times,serif" font-size="14.00">Gisement Fer</text>
</g>
<!-- MineraiFer -->
<g id="node14" class="node">
<title>MineraiFer</title>
<polygon fill="lightgrey" stroke="black" points="100.06,-993.14 104.34,-993.24 108.57,-993.39 112.74,-993.58 116.83,-993.83 120.83,-994.12 124.72,-994.46 128.48,-994.84 132.1,-995.27 135.57,-995.74 138.88,-996.25 142,-996.81 144.94,-997.4 147.68,-998.03 150.21,-998.7 152.53,-999.4 154.64,-1000.13 156.52,-1000.89 158.18,-1001.68 159.6,-1002.5 160.8,-1003.34 161.77,-1004.2 162.52,-1005.08 163.04,-1005.98 163.33,-1006.89 163.41,-1007.81 163.28,-1008.74 162.94,-1009.68 162.41,-1010.62 161.68,-1011.56 160.77,-1012.5 159.68,-1013.44 158.43,-1014.37 157.02,-1015.29 155.46,-1016.21 153.76,-1017.1 151.93,-1017.98 149.99,-1018.84 147.93,-1019.68 145.78,-1020.5 143.53,-1021.29 141.2,-1022.05 138.79,-1022.79 136.31,-1023.49 133.78,-1024.15 131.19,-1024.78 128.56,-1025.38 125.88,-1025.93 123.17,-1026.44 120.43,-1026.92 117.67,-1027.34 114.88,-1027.73 112.08,-1028.06 109.26,-1028.36 106.42,-1028.6 103.58,-1028.8 100.74,-1028.94 97.88,-1029.04 95.03,-1029.09 92.17,-1029.09 89.32,-1029.04 86.46,-1028.94 83.62,-1028.8 80.78,-1028.6 77.94,-1028.36 75.12,-1028.06 72.32,-1027.73 69.53,-1027.34 66.77,-1026.92 64.03,-1026.44 61.32,-1025.93 58.64,-1025.38 56.01,-1024.78 53.42,-1024.15 50.88,-1023.49 48.41,-1022.79 46,-1022.05 43.67,-1021.29 41.42,-1020.5 39.27,-1019.68 37.21,-1018.84 35.26,-1017.98 33.44,-1017.1 31.74,-1016.21 30.18,-1015.29 28.77,-1014.37 27.52,-1013.44 26.43,-1012.5 25.52,-1011.56 24.79,-1010.62 24.26,-1009.68 23.92,-1008.74 23.79,-1007.81 23.87,-1006.89 24.16,-1005.98 24.68,-1005.08 25.42,-1004.2 26.39,-1003.34 27.59,-1002.5 29.02,-1001.68 30.68,-1000.89 32.56,-1000.13 34.66,-999.4 36.99,-998.7 39.52,-998.03 42.26,-997.4 45.2,-996.81 48.32,-996.25 51.63,-995.74 55.09,-995.27 58.72,-994.84 62.48,-994.46 66.37,-994.12 70.36,-993.83 74.46,-993.58 78.63,-993.39 82.86,-993.24 87.14,-993.14 91.44,-993.09 95.76,-993.09 100.06,-993.14"/>
<text text-anchor="middle" x="93.6" y="-1007.39" font-family="Times,serif" font-size="14.00">Minerai Fer</text>
</g>
<!-- GisementFer&#45;&gt;MineraiFer -->
<g id="edge3" class="edge">
<title>GisementFer&#45;&gt;MineraiFer</title>
<path fill="none" stroke="grey" stroke-dasharray="1,5" d="M93.6,-1079.89C93.6,-1068.25 93.6,-1052.64 93.6,-1039.33"/>
<polygon fill="grey" stroke="grey" points="97.1,-1039.27 93.6,-1029.27 90.1,-1039.27 97.1,-1039.27"/>
<text text-anchor="middle" x="112.1" y="-1050.89" font-family="Times,serif" font-size="14.00" fill="grey">Mine</text>
</g>
<!-- GisementTitane -->
<g id="node4" class="node">
<title>GisementTitane</title>
<polygon fill="lightgrey" stroke="transparent" points="1857.6,-1116.09 1723.6,-1116.09 1723.6,-1080.09 1857.6,-1080.09 1857.6,-1116.09"/>
<text text-anchor="middle" x="1790.6" y="-1094.39" font-family="Times,serif" font-size="14.00">Gisement Titane</text>
</g>
<!-- MineraiTitane -->
<g id="node12" class="node">
<title>MineraiTitane</title>
<polygon fill="lightgrey" stroke="black" points="1798.41,-993.14 1803.58,-993.24 1808.69,-993.39 1813.74,-993.58 1818.68,-993.83 1823.52,-994.12 1828.22,-994.46 1832.76,-994.84 1837.14,-995.27 1841.33,-995.74 1845.32,-996.25 1849.1,-996.81 1852.65,-997.4 1855.96,-998.03 1859.03,-998.7 1861.83,-999.4 1864.38,-1000.13 1866.65,-1000.89 1868.65,-1001.68 1870.38,-1002.5 1871.83,-1003.34 1873,-1004.2 1873.9,-1005.08 1874.53,-1005.98 1874.89,-1006.89 1874.98,-1007.81 1874.82,-1008.74 1874.42,-1009.68 1873.77,-1010.62 1872.89,-1011.56 1871.78,-1012.5 1870.47,-1013.44 1868.96,-1014.37 1867.25,-1015.29 1865.37,-1016.21 1863.32,-1017.1 1861.11,-1017.98 1858.76,-1018.84 1856.27,-1019.68 1853.67,-1020.5 1850.95,-1021.29 1848.13,-1022.05 1845.22,-1022.79 1842.23,-1023.49 1839.17,-1024.15 1836.04,-1024.78 1832.85,-1025.38 1829.62,-1025.93 1826.35,-1026.44 1823.03,-1026.92 1819.69,-1027.34 1816.32,-1027.73 1812.93,-1028.06 1809.52,-1028.36 1806.1,-1028.6 1802.67,-1028.8 1799.22,-1028.94 1795.78,-1029.04 1792.33,-1029.09 1788.87,-1029.09 1785.42,-1029.04 1781.97,-1028.94 1778.53,-1028.8 1775.1,-1028.6 1771.68,-1028.36 1768.27,-1028.06 1764.88,-1027.73 1761.51,-1027.34 1758.17,-1026.92 1754.85,-1026.44 1751.58,-1025.93 1748.34,-1025.38 1745.16,-1024.78 1742.03,-1024.15 1738.97,-1023.49 1735.98,-1022.79 1733.07,-1022.05 1730.25,-1021.29 1727.53,-1020.5 1724.93,-1019.68 1722.44,-1018.84 1720.09,-1017.98 1717.88,-1017.1 1715.83,-1016.21 1713.95,-1015.29 1712.24,-1014.37 1710.73,-1013.44 1709.41,-1012.5 1708.31,-1011.56 1707.43,-1010.62 1706.78,-1009.68 1706.37,-1008.74 1706.22,-1007.81 1706.31,-1006.89 1706.67,-1005.98 1707.3,-1005.08 1708.2,-1004.2 1709.37,-1003.34 1710.82,-1002.5 1712.54,-1001.68 1714.55,-1000.89 1716.82,-1000.13 1719.36,-999.4 1722.17,-998.7 1725.24,-998.03 1728.55,-997.4 1732.1,-996.81 1735.87,-996.25 1739.87,-995.74 1744.06,-995.27 1748.44,-994.84 1752.98,-994.46 1757.68,-994.12 1762.51,-993.83 1767.46,-993.58 1772.5,-993.39 1777.62,-993.24 1782.79,-993.14 1787.99,-993.09 1793.21,-993.09 1798.41,-993.14"/>
<text text-anchor="middle" x="1790.6" y="-1007.39" font-family="Times,serif" font-size="14.00">Minerai Titane</text>
</g>
<!-- GisementTitane&#45;&gt;MineraiTitane -->
<g id="edge4" class="edge">
<title>GisementTitane&#45;&gt;MineraiTitane</title>
<path fill="none" stroke="grey" stroke-dasharray="1,5" d="M1790.6,-1079.89C1790.6,-1068.25 1790.6,-1052.64 1790.6,-1039.33"/>
<polygon fill="grey" stroke="grey" points="1794.1,-1039.27 1790.6,-1029.27 1787.1,-1039.27 1794.1,-1039.27"/>
<text text-anchor="middle" x="1809.1" y="-1050.89" font-family="Times,serif" font-size="14.00" fill="grey">Mine</text>
</g>
<!-- GisementSilicium -->
<g id="node5" class="node">
<title>GisementSilicium</title>
<polygon fill="lightgrey" stroke="transparent" points="1464.1,-1116.09 1317.1,-1116.09 1317.1,-1080.09 1464.1,-1080.09 1464.1,-1116.09"/>
<text text-anchor="middle" x="1390.6" y="-1094.39" font-family="Times,serif" font-size="14.00">Gisement Silicium</text>
</g>
<!-- MineraiSilicium -->
<g id="node13" class="node">
<title>MineraiSilicium</title>
<polygon fill="lightgrey" stroke="black" points="1399.2,-993.14 1404.9,-993.24 1410.54,-993.39 1416.1,-993.58 1421.55,-993.83 1426.88,-994.12 1432.05,-994.46 1437.07,-994.84 1441.89,-995.27 1446.51,-995.74 1450.91,-996.25 1455.07,-996.81 1458.98,-997.4 1462.63,-998.03 1466.01,-998.7 1469.1,-999.4 1471.91,-1000.13 1474.41,-1000.89 1476.62,-1001.68 1478.52,-1002.5 1480.12,-1003.34 1481.41,-1004.2 1482.4,-1005.08 1483.09,-1005.98 1483.49,-1006.89 1483.6,-1007.81 1483.42,-1008.74 1482.97,-1009.68 1482.26,-1010.62 1481.28,-1011.56 1480.07,-1012.5 1478.62,-1013.44 1476.95,-1014.37 1475.07,-1015.29 1473,-1016.21 1470.74,-1017.1 1468.31,-1017.98 1465.71,-1018.84 1462.98,-1019.68 1460.1,-1020.5 1457.11,-1021.29 1454,-1022.05 1450.8,-1022.79 1447.5,-1023.49 1444.12,-1024.15 1440.68,-1024.78 1437.17,-1025.38 1433.6,-1025.93 1429.99,-1026.44 1426.34,-1026.92 1422.66,-1027.34 1418.95,-1027.73 1415.21,-1028.06 1411.45,-1028.36 1407.68,-1028.6 1403.9,-1028.8 1400.1,-1028.94 1396.31,-1029.04 1392.5,-1029.09 1388.7,-1029.09 1384.89,-1029.04 1381.09,-1028.94 1377.3,-1028.8 1373.52,-1028.6 1369.74,-1028.36 1365.99,-1028.06 1362.25,-1027.73 1358.54,-1027.34 1354.86,-1026.92 1351.21,-1026.44 1347.6,-1025.93 1344.03,-1025.38 1340.52,-1024.78 1337.08,-1024.15 1333.7,-1023.49 1330.4,-1022.79 1327.2,-1022.05 1324.09,-1021.29 1321.1,-1020.5 1318.22,-1019.68 1315.49,-1018.84 1312.89,-1017.98 1310.46,-1017.1 1308.2,-1016.21 1306.13,-1015.29 1304.25,-1014.37 1302.58,-1013.44 1301.13,-1012.5 1299.91,-1011.56 1298.94,-1010.62 1298.23,-1009.68 1297.78,-1008.74 1297.6,-1007.81 1297.71,-1006.89 1298.11,-1005.98 1298.8,-1005.08 1299.79,-1004.2 1301.08,-1003.34 1302.68,-1002.5 1304.58,-1001.68 1306.78,-1000.89 1309.29,-1000.13 1312.09,-999.4 1315.19,-998.7 1318.56,-998.03 1322.21,-997.4 1326.13,-996.81 1330.29,-996.25 1334.69,-995.74 1339.31,-995.27 1344.13,-994.84 1349.14,-994.46 1354.32,-994.12 1359.65,-993.83 1365.1,-993.58 1370.66,-993.39 1376.3,-993.24 1381.99,-993.14 1387.73,-993.09 1393.47,-993.09 1399.2,-993.14"/>
<text text-anchor="middle" x="1390.6" y="-1007.39" font-family="Times,serif" font-size="14.00">Minerai Silicium</text>
</g>
<!-- GisementSilicium&#45;&gt;MineraiSilicium -->
<g id="edge5" class="edge">
<title>GisementSilicium&#45;&gt;MineraiSilicium</title>
<path fill="none" stroke="grey" stroke-dasharray="1,5" d="M1390.6,-1079.89C1390.6,-1068.25 1390.6,-1052.64 1390.6,-1039.33"/>
<polygon fill="grey" stroke="grey" points="1394.1,-1039.27 1390.6,-1029.27 1387.1,-1039.27 1394.1,-1039.27"/>
<text text-anchor="middle" x="1409.1" y="-1050.89" font-family="Times,serif" font-size="14.00" fill="grey">Mine</text>
</g>
<!-- GisementGlace -->
<g id="node6" class="node">
<title>GisementGlace</title>
<polygon fill="lightgrey" stroke="transparent" points="542.1,-1116.09 413.1,-1116.09 413.1,-1080.09 542.1,-1080.09 542.1,-1116.09"/>
<text text-anchor="middle" x="477.6" y="-1094.39" font-family="Times,serif" font-size="14.00">Gisement Glace</text>
</g>
<!-- MineraiGlace -->
<g id="node11" class="node">
<title>MineraiGlace</title>
<polygon fill="lightgrey" stroke="black" points="485.01,-993.14 489.92,-993.24 494.77,-993.39 499.56,-993.58 504.25,-993.83 508.84,-994.12 513.3,-994.46 517.61,-994.84 521.77,-995.27 525.74,-995.74 529.53,-996.25 533.12,-996.81 536.49,-997.4 539.63,-998.03 542.54,-998.7 545.2,-999.4 547.61,-1000.13 549.77,-1000.89 551.67,-1001.68 553.31,-1002.5 554.69,-1003.34 555.8,-1004.2 556.65,-1005.08 557.25,-1005.98 557.59,-1006.89 557.68,-1007.81 557.53,-1008.74 557.14,-1009.68 556.52,-1010.62 555.69,-1011.56 554.64,-1012.5 553.4,-1013.44 551.96,-1014.37 550.34,-1015.29 548.55,-1016.21 546.61,-1017.1 544.51,-1017.98 542.28,-1018.84 539.92,-1019.68 537.45,-1020.5 534.87,-1021.29 532.2,-1022.05 529.43,-1022.79 526.6,-1023.49 523.69,-1024.15 520.72,-1024.78 517.7,-1025.38 514.63,-1025.93 511.52,-1026.44 508.38,-1026.92 505.21,-1027.34 502.01,-1027.73 498.79,-1028.06 495.56,-1028.36 492.31,-1028.6 489.05,-1028.8 485.78,-1028.94 482.51,-1029.04 479.24,-1029.09 475.96,-1029.09 472.69,-1029.04 469.41,-1028.94 466.15,-1028.8 462.89,-1028.6 459.64,-1028.36 456.41,-1028.06 453.19,-1027.73 449.99,-1027.34 446.82,-1026.92 443.68,-1026.44 440.57,-1025.93 437.5,-1025.38 434.48,-1024.78 431.51,-1024.15 428.6,-1023.49 425.76,-1022.79 423,-1022.05 420.33,-1021.29 417.75,-1020.5 415.28,-1019.68 412.92,-1018.84 410.69,-1017.98 408.59,-1017.1 406.65,-1016.21 404.86,-1015.29 403.24,-1014.37 401.8,-1013.44 400.56,-1012.5 399.51,-1011.56 398.68,-1010.62 398.06,-1009.68 397.67,-1008.74 397.52,-1007.81 397.61,-1006.89 397.95,-1005.98 398.55,-1005.08 399.4,-1004.2 400.51,-1003.34 401.89,-1002.5 403.53,-1001.68 405.43,-1000.89 407.59,-1000.13 410,-999.4 412.66,-998.7 415.57,-998.03 418.71,-997.4 422.08,-996.81 425.67,-996.25 429.45,-995.74 433.43,-995.27 437.59,-994.84 441.9,-994.46 446.36,-994.12 450.95,-993.83 455.64,-993.58 460.43,-993.39 465.28,-993.24 470.19,-993.14 475.13,-993.09 480.07,-993.09 485.01,-993.14"/>
<text text-anchor="middle" x="477.6" y="-1007.39" font-family="Times,serif" font-size="14.00">Minerai Glace</text>
</g>
<!-- GisementGlace&#45;&gt;MineraiGlace -->
<g id="edge7" class="edge">
<title>GisementGlace&#45;&gt;MineraiGlace</title>
<path fill="none" stroke="grey" stroke-dasharray="1,5" d="M477.6,-1079.89C477.6,-1068.25 477.6,-1052.64 477.6,-1039.33"/>
<polygon fill="grey" stroke="grey" points="481.1,-1039.27 477.6,-1029.27 474.1,-1039.27 481.1,-1039.27"/>
<text text-anchor="middle" x="496.1" y="-1050.89" font-family="Times,serif" font-size="14.00" fill="grey">Mine</text>
</g>
<!-- GisementAluminium -->
<g id="node7" class="node">
<title>GisementAluminium</title>
<polygon fill="lightgrey" stroke="transparent" points="936.1,-1116.09 769.1,-1116.09 769.1,-1080.09 936.1,-1080.09 936.1,-1116.09"/>
<text text-anchor="middle" x="852.6" y="-1094.39" font-family="Times,serif" font-size="14.00">Gisement Aluminium</text>
</g>
<!-- MineraiAluminium -->
<g id="node16" class="node">
<title>MineraiAluminium</title>
<polygon fill="lightgrey" stroke="black" points="862.47,-993.14 869.01,-993.24 875.48,-993.39 881.85,-993.58 888.1,-993.83 894.21,-994.12 900.16,-994.46 905.9,-994.84 911.44,-995.27 916.74,-995.74 921.78,-996.25 926.56,-996.81 931.05,-997.4 935.24,-998.03 939.11,-998.7 942.66,-999.4 945.87,-1000.13 948.75,-1000.89 951.28,-1001.68 953.46,-1002.5 955.29,-1003.34 956.78,-1004.2 957.91,-1005.08 958.71,-1005.98 959.16,-1006.89 959.28,-1007.81 959.08,-1008.74 958.56,-1009.68 957.74,-1010.62 956.63,-1011.56 955.24,-1012.5 953.58,-1013.44 951.66,-1014.37 949.5,-1015.29 947.12,-1016.21 944.53,-1017.1 941.74,-1017.98 938.77,-1018.84 935.63,-1019.68 932.33,-1020.5 928.9,-1021.29 925.33,-1022.05 921.65,-1022.79 917.87,-1023.49 914,-1024.15 910.04,-1024.78 906.02,-1025.38 901.93,-1025.93 897.79,-1026.44 893.6,-1026.92 889.38,-1027.34 885.12,-1027.73 880.83,-1028.06 876.52,-1028.36 872.2,-1028.6 867.86,-1028.8 863.5,-1028.94 859.14,-1029.04 854.78,-1029.09 850.42,-1029.09 846.05,-1029.04 841.7,-1028.94 837.34,-1028.8 833,-1028.6 828.68,-1028.36 824.37,-1028.06 820.08,-1027.73 815.82,-1027.34 811.59,-1026.92 807.41,-1026.44 803.27,-1025.93 799.18,-1025.38 795.15,-1024.78 791.2,-1024.15 787.33,-1023.49 783.55,-1022.79 779.87,-1022.05 776.3,-1021.29 772.87,-1020.5 769.57,-1019.68 766.43,-1018.84 763.46,-1017.98 760.67,-1017.1 758.08,-1016.21 755.69,-1015.29 753.54,-1014.37 751.62,-1013.44 749.96,-1012.5 748.57,-1011.56 747.46,-1010.62 746.64,-1009.68 746.12,-1008.74 745.92,-1007.81 746.04,-1006.89 746.49,-1005.98 747.29,-1005.08 748.42,-1004.2 749.91,-1003.34 751.74,-1002.5 753.92,-1001.68 756.45,-1000.89 759.33,-1000.13 762.54,-999.4 766.09,-998.7 769.96,-998.03 774.15,-997.4 778.64,-996.81 783.41,-996.25 788.46,-995.74 793.76,-995.27 799.29,-994.84 805.04,-994.46 810.98,-994.12 817.09,-993.83 823.35,-993.58 829.72,-993.39 836.19,-993.24 842.73,-993.14 849.3,-993.09 855.89,-993.09 862.47,-993.14"/>
<text text-anchor="middle" x="852.6" y="-1007.39" font-family="Times,serif" font-size="14.00">Minerai Aluminium</text>
</g>
<!-- GisementAluminium&#45;&gt;MineraiAluminium -->
<g id="edge6" class="edge">
<title>GisementAluminium&#45;&gt;MineraiAluminium</title>
<path fill="none" stroke="grey" stroke-dasharray="1,5" d="M852.6,-1079.89C852.6,-1068.25 852.6,-1052.64 852.6,-1039.33"/>
<polygon fill="grey" stroke="grey" points="856.1,-1039.27 852.6,-1029.27 849.1,-1039.27 856.1,-1039.27"/>
<text text-anchor="middle" x="871.1" y="-1050.89" font-family="Times,serif" font-size="14.00" fill="grey">Mine</text>
</g>
<!-- Montage -->
<g id="node8" class="node">
<title>Montage</title>
<polygon fill="lightgrey" stroke="transparent" points="1955.6,-1116.09 1875.6,-1116.09 1875.6,-1080.09 1955.6,-1080.09 1955.6,-1116.09"/>
<text text-anchor="middle" x="1915.6" y="-1094.39" font-family="Times,serif" font-size="14.00">Montage</text>
</g>
<!-- Trou -->
<g id="node9" class="node">
<title>Trou</title>
<polygon fill="lightgrey" stroke="transparent" points="2027.6,-1116.09 1973.6,-1116.09 1973.6,-1080.09 2027.6,-1080.09 2027.6,-1116.09"/>
<text text-anchor="middle" x="2000.6" y="-1094.39" font-family="Times,serif" font-size="14.00">Trou</text>
</g>
<!-- LingotRegolite -->
<g id="node17" class="node">
<title>LingotRegolite</title>
<polygon fill="lightgrey" stroke="black" points="1172.6,-631 1046.6,-631 1046.6,-595 1172.6,-595 1172.6,-631"/>
<text text-anchor="middle" x="1109.6" y="-609.3" font-family="Times,serif" font-size="14.00">Lingot Regolite</text>
</g>
<!-- PoussiereRegolite&#45;&gt;LingotRegolite -->
<g id="edge8" class="edge">
<title>PoussiereRegolite&#45;&gt;LingotRegolite</title>
<path fill="none" stroke="blue" stroke-dasharray="5,2" d="M1133.58,-993.12C1123.81,-973.12 1109.6,-938.6 1109.6,-907.05 1109.6,-907.05 1109.6,-907.05 1109.6,-699 1109.6,-679.75 1109.6,-658.05 1109.6,-641.4"/>
<polygon fill="blue" stroke="blue" points="1113.1,-641.26 1109.6,-631.26 1106.1,-641.26 1113.1,-641.26"/>
<text text-anchor="middle" x="1141.6" y="-783.3" font-family="Times,serif" font-size="14.00" fill="blue">Fonderie</text>
</g>
<!-- Helium3 -->
<g id="node23" class="node">
<title>Helium3</title>
<ellipse fill="lightgrey" stroke="black" cx="1187.6" cy="-906.05" rx="50.09" ry="50.09"/>
<polyline fill="none" stroke="black" points="1220.7,-943.58 1154.5,-943.58 "/>
<polyline fill="none" stroke="black" points="1220.7,-868.51 1154.5,-868.51 "/>
<text text-anchor="middle" x="1187.6" y="-902.35" font-family="Times,serif" font-size="14.00">Helium3</text>
</g>
<!-- PoussiereRegolite&#45;&gt;Helium3 -->
<g id="edge9" class="edge">
<title>PoussiereRegolite&#45;&gt;Helium3</title>
<path fill="none" stroke="black" d="M1150.03,-993.08C1153.89,-984.23 1158.85,-972.89 1163.88,-961.35"/>
<polygon fill="black" stroke="black" points="1167.13,-962.67 1167.92,-952.1 1160.71,-959.87 1167.13,-962.67"/>
</g>
<!-- Eau -->
<g id="node27" class="node">
<title>Eau</title>
<ellipse fill="none" stroke="black" cx="477.6" cy="-906.05" rx="28.7" ry="18"/>
<text text-anchor="middle" x="477.6" y="-902.35" font-family="Times,serif" font-size="14.00">Eau</text>
</g>
<!-- MineraiGlace&#45;&gt;Eau -->
<g id="edge15" class="edge">
<title>MineraiGlace&#45;&gt;Eau</title>
<path fill="none" stroke="black" d="M477.6,-993.08C477.6,-977.11 477.6,-952.98 477.6,-934.33"/>
<polygon fill="black" stroke="black" points="481.1,-934.09 477.6,-924.09 474.1,-934.09 481.1,-934.09"/>
</g>
<!-- LingotTitane -->
<g id="node18" class="node">
<title>LingotTitane</title>
<polygon fill="lightgrey" stroke="black" points="1846.6,-631 1734.6,-631 1734.6,-595 1846.6,-595 1846.6,-631"/>
<text text-anchor="middle" x="1790.6" y="-609.3" font-family="Times,serif" font-size="14.00">Lingot Titane</text>
</g>
<!-- MineraiTitane&#45;&gt;LingotTitane -->
<g id="edge10" class="edge">
<title>MineraiTitane&#45;&gt;LingotTitane</title>
<path fill="none" stroke="blue" stroke-dasharray="5,2" d="M1790.6,-992.95C1790.6,-972.5 1790.6,-937.28 1790.6,-907.05 1790.6,-907.05 1790.6,-907.05 1790.6,-699 1790.6,-679.75 1790.6,-658.05 1790.6,-641.4"/>
<polygon fill="blue" stroke="blue" points="1794.1,-641.26 1790.6,-631.26 1787.1,-641.26 1794.1,-641.26"/>
<text text-anchor="middle" x="1822.6" y="-783.3" font-family="Times,serif" font-size="14.00" fill="blue">Fonderie</text>
</g>
<!-- LingotSilicium -->
<g id="node19" class="node">
<title>LingotSilicium</title>
<polygon fill="lightgrey" stroke="black" points="1454.1,-631 1329.1,-631 1329.1,-595 1454.1,-595 1454.1,-631"/>
<text text-anchor="middle" x="1391.6" y="-609.3" font-family="Times,serif" font-size="14.00">Lingot Silicium</text>
</g>
<!-- MineraiSilicium&#45;&gt;LingotSilicium -->
<g id="edge11" class="edge">
<title>MineraiSilicium&#45;&gt;LingotSilicium</title>
<path fill="none" stroke="blue" stroke-dasharray="5,2" d="M1390.6,-992.95C1390.6,-972.5 1390.6,-937.28 1390.6,-907.05 1390.6,-907.05 1390.6,-907.05 1390.6,-699 1390.6,-679.75 1390.86,-658.05 1391.11,-641.4"/>
<polygon fill="blue" stroke="blue" points="1394.62,-641.31 1391.28,-631.26 1387.62,-641.2 1394.62,-641.31"/>
<text text-anchor="middle" x="1422.6" y="-783.3" font-family="Times,serif" font-size="14.00" fill="blue">Fonderie</text>
</g>
<!-- LingotFer -->
<g id="node20" class="node">
<title>LingotFer</title>
<polygon fill="lightgrey" stroke="black" points="139.1,-631 48.1,-631 48.1,-595 139.1,-595 139.1,-631"/>
<text text-anchor="middle" x="93.6" y="-609.3" font-family="Times,serif" font-size="14.00">Lingot Fer</text>
</g>
<!-- MineraiFer&#45;&gt;LingotFer -->
<g id="edge12" class="edge">
<title>MineraiFer&#45;&gt;LingotFer</title>
<path fill="none" stroke="blue" stroke-dasharray="5,2" d="M93.6,-992.95C93.6,-972.5 93.6,-937.28 93.6,-907.05 93.6,-907.05 93.6,-907.05 93.6,-699 93.6,-679.75 93.6,-658.05 93.6,-641.4"/>
<polygon fill="blue" stroke="blue" points="97.1,-641.26 93.6,-631.26 90.1,-641.26 97.1,-641.26"/>
<text text-anchor="middle" x="125.6" y="-783.3" font-family="Times,serif" font-size="14.00" fill="blue">Fonderie</text>
</g>
<!-- LingotOr -->
<g id="node21" class="node">
<title>LingotOr</title>
<polygon fill="lightgrey" stroke="black" points="1601.1,-631 1516.1,-631 1516.1,-595 1601.1,-595 1601.1,-631"/>
<text text-anchor="middle" x="1558.6" y="-609.3" font-family="Times,serif" font-size="14.00">Lingot Or</text>
</g>
<!-- MineraiOr&#45;&gt;LingotOr -->
<g id="edge13" class="edge">
<title>MineraiOr&#45;&gt;LingotOr</title>
<path fill="none" stroke="blue" stroke-dasharray="5,2" d="M1565.46,-992.98C1563.09,-972.56 1559.6,-937.37 1559.6,-907.05 1559.6,-907.05 1559.6,-907.05 1559.6,-699 1559.6,-679.75 1559.34,-658.05 1559.09,-641.4"/>
<polygon fill="blue" stroke="blue" points="1562.58,-641.2 1558.92,-631.26 1555.58,-641.31 1562.58,-641.2"/>
<text text-anchor="middle" x="1591.6" y="-783.3" font-family="Times,serif" font-size="14.00" fill="blue">Fonderie</text>
</g>
<!-- LingotAluminium -->
<g id="node22" class="node">
<title>LingotAluminium</title>
<polygon fill="lightgrey" stroke="black" points="924.6,-631 780.6,-631 780.6,-595 924.6,-595 924.6,-631"/>
<text text-anchor="middle" x="852.6" y="-609.3" font-family="Times,serif" font-size="14.00">Lingot Aluminium</text>
</g>
<!-- MineraiAluminium&#45;&gt;LingotAluminium -->
<g id="edge14" class="edge">
<title>MineraiAluminium&#45;&gt;LingotAluminium</title>
<path fill="none" stroke="blue" stroke-dasharray="5,2" d="M852.6,-992.95C852.6,-972.5 852.6,-937.28 852.6,-907.05 852.6,-907.05 852.6,-907.05 852.6,-699 852.6,-679.75 852.6,-658.05 852.6,-641.4"/>
<polygon fill="blue" stroke="blue" points="856.1,-641.26 852.6,-631.26 849.1,-641.26 856.1,-641.26"/>
<text text-anchor="middle" x="884.6" y="-783.3" font-family="Times,serif" font-size="14.00" fill="blue">Fonderie</text>
</g>
<!-- MateriauxConstruction -->
<g id="node24" class="node">
<title>MateriauxConstruction</title>
<polygon fill="lightgrey" stroke="black" points="1203.1,-544 1016.1,-544 1016.1,-508 1203.1,-508 1203.1,-544"/>
<text text-anchor="middle" x="1109.6" y="-522.3" font-family="Times,serif" font-size="14.00">Materiaux Construction</text>
</g>
<!-- LingotRegolite&#45;&gt;MateriauxConstruction -->
<g id="edge36" class="edge">
<title>LingotRegolite&#45;&gt;MateriauxConstruction</title>
<path fill="none" stroke="green" d="M1109.6,-594.8C1109.6,-583.16 1109.6,-567.55 1109.6,-554.24"/>
<polygon fill="green" stroke="green" points="1113.1,-554.18 1109.6,-544.18 1106.1,-554.18 1113.1,-554.18"/>
<text text-anchor="middle" x="1141.6" y="-565.8" font-family="Times,serif" font-size="14.00" fill="green">Fabrique</text>
</g>
<!-- SatelliteRobuste1 -->
<g id="node36" class="node">
<title>SatelliteRobuste1</title>
<polygon fill="lightgrey" stroke="black" points="1858.24,-404.54 1858.24,-419.46 1796.94,-430 1710.26,-430 1648.96,-419.46 1648.96,-404.54 1710.26,-394 1796.94,-394 1858.24,-404.54"/>
<text text-anchor="middle" x="1753.6" y="-408.3" font-family="Times,serif" font-size="14.00">Satellite Robuste1</text>
</g>
<!-- LingotTitane&#45;&gt;SatelliteRobuste1 -->
<g id="edge49" class="edge">
<title>LingotTitane&#45;&gt;SatelliteRobuste1</title>
<path fill="none" stroke="orange" d="M1786.03,-594.94C1782.06,-568.89 1774.05,-518.14 1765.64,-475.39 1763.37,-463.86 1760.56,-451.15 1758.05,-440.28"/>
<path fill="none" stroke="yellow" d="M1788,-594.64C1784.03,-568.58 1776.02,-517.83 1767.6,-475 1765.32,-463.43 1762.51,-450.72 1760,-439.83"/>
<path fill="none" stroke="orange" d="M1789.98,-594.34C1786.01,-568.27 1778,-517.52 1769.56,-474.61 1767.28,-463 1764.46,-450.29 1761.95,-439.38"/>
<polygon fill="orange" stroke="orange" points="1763.4,-438.99 1757.72,-430.05 1756.58,-440.59 1763.4,-438.99"/>
<text text-anchor="middle" x="1804.1" y="-522.3" font-family="Times,serif" font-size="14.00" fill="orange">Atelier</text>
</g>
<!-- VaisseauRobuste1 -->
<g id="node38" class="node">
<title>VaisseauRobuste1</title>
<polygon fill="lightgrey" stroke="black" points="1313.05,-404.54 1313.05,-419.46 1250.69,-430 1162.5,-430 1100.14,-419.46 1100.14,-404.54 1162.5,-394 1250.69,-394 1313.05,-404.54"/>
<text text-anchor="middle" x="1206.6" y="-408.3" font-family="Times,serif" font-size="14.00">Vaisseau Robuste1</text>
</g>
<!-- LingotTitane&#45;&gt;VaisseauRobuste1 -->
<g id="edge65" class="edge">
<title>LingotTitane&#45;&gt;VaisseauRobuste1</title>
<path fill="none" stroke="red" d="M1755.75,-596.78C1686.09,-561.97 1531.37,-485.17 1505.98,-476.9 1465.17,-463.14 1452.69,-467.6 1408.21,-458.96 1365.05,-450.3 1316.92,-439.85 1278.46,-431.3"/>
<path fill="none" stroke="orange" d="M1756.65,-594.99C1686.98,-560.18 1532.26,-483.38 1506.6,-475 1464.5,-461.26 1452.02,-465.71 1408.6,-457 1365.47,-448.35 1317.35,-437.89 1278.89,-429.35"/>
<path fill="none" stroke="red" d="M1757.54,-593.2C1687.87,-558.39 1533.15,-481.59 1507.22,-473.1 1463.83,-459.37 1451.35,-463.83 1408.99,-455.04 1365.9,-446.39 1317.77,-435.94 1279.32,-427.4"/>
<polygon fill="red" stroke="red" points="1279.34,-425.86 1268.82,-427.11 1277.82,-432.7 1279.34,-425.86"/>
<text text-anchor="middle" x="1709.1" y="-522.3" font-family="Times,serif" font-size="14.00" fill="red">Chantier spatial</text>
</g>
<!-- PuceLuxe -->
<g id="node47" class="node">
<title>PuceLuxe</title>
<polygon fill="lightgrey" stroke="black" points="2051.6,-457 1961.6,-457 1961.6,-367 2051.6,-367 2051.6,-457"/>
<polyline fill="none" stroke="black" points="1973.6,-457 1961.6,-445 "/>
<polyline fill="none" stroke="black" points="1961.6,-379 1973.6,-367 "/>
<polyline fill="none" stroke="black" points="2039.6,-367 2051.6,-379 "/>
<polyline fill="none" stroke="black" points="2051.6,-445 2039.6,-457 "/>
<text text-anchor="middle" x="2006.6" y="-408.3" font-family="Times,serif" font-size="14.00">Puce Luxe</text>
</g>
<!-- LingotTitane&#45;&gt;PuceLuxe -->
<g id="edge39" class="edge">
<title>LingotTitane&#45;&gt;PuceLuxe</title>
<path fill="none" stroke="green" d="M1846.73,-610.18C1893.54,-605.27 1957.32,-589.91 1987.6,-544 2002.34,-521.66 2007.6,-492.54 2008.95,-467.42"/>
<polygon fill="green" stroke="green" points="2012.46,-467.42 2009.31,-457.3 2005.46,-467.17 2012.46,-467.42"/>
<text text-anchor="middle" x="2033.6" y="-522.3" font-family="Times,serif" font-size="14.00" fill="green">Fabrique</text>
</g>
<!-- Puce -->
<g id="node34" class="node">
<title>Puce</title>
<polygon fill="lightgrey" stroke="black" points="1435.65,-526 1416.63,-544 1378.57,-544 1359.55,-526 1378.57,-508 1416.63,-508 1435.65,-526"/>
<text text-anchor="middle" x="1397.6" y="-522.3" font-family="Times,serif" font-size="14.00">Puce</text>
</g>
<!-- LingotSilicium&#45;&gt;Puce -->
<g id="edge37" class="edge">
<title>LingotSilicium&#45;&gt;Puce</title>
<path fill="none" stroke="green" d="M1392.81,-594.8C1393.64,-583.16 1394.74,-567.55 1395.68,-554.24"/>
<polygon fill="green" stroke="green" points="1399.17,-554.4 1396.39,-544.18 1392.19,-553.9 1399.17,-554.4"/>
<text text-anchor="middle" x="1426.6" y="-565.8" font-family="Times,serif" font-size="14.00" fill="green">Fabrique</text>
</g>
<!-- SatelliteFragile1 -->
<g id="node35" class="node">
<title>SatelliteFragile1</title>
<polygon fill="lightgrey" stroke="black" points="952.98,-404.54 952.98,-419.46 894.77,-430 812.43,-430 754.21,-419.46 754.21,-404.54 812.43,-394 894.77,-394 952.98,-404.54"/>
<text text-anchor="middle" x="853.6" y="-408.3" font-family="Times,serif" font-size="14.00">Satellite Fragile1</text>
</g>
<!-- LingotFer&#45;&gt;SatelliteFragile1 -->
<g id="edge42" class="edge">
<title>LingotFer&#45;&gt;SatelliteFragile1</title>
<path fill="none" stroke="orange" d="M120.79,-593.26C167.17,-565.39 255.91,-512.48 271.86,-506.14 306.78,-493.24 318.39,-500.84 349.9,-488.13 361.85,-484.66 363.04,-478.42 378.06,-473.07 526.69,-432.74 572.5,-483.82 720.23,-455.03 747.63,-449.89 777.44,-440.41 801.75,-431.6"/>
<path fill="none" stroke="yellow" d="M121.82,-594.98C168.19,-567.11 256.93,-514.2 272.6,-508 305.68,-494.92 317.29,-502.51 350.6,-490 363.82,-485.04 365,-478.8 378.6,-475 525.21,-434.08 571.02,-485.15 720.6,-457 748.24,-451.8 778.05,-442.32 802.43,-433.48"/>
<path fill="none" stroke="orange" d="M122.85,-596.69C169.22,-568.82 257.96,-515.91 273.33,-509.86 304.59,-496.59 316.2,-504.18 351.3,-491.87 365.78,-485.41 366.97,-479.17 379.14,-476.93 523.72,-435.41 569.53,-486.49 720.97,-458.97 748.85,-453.7 778.66,-444.22 803.11,-435.36"/>
<polygon fill="orange" stroke="orange" points="803.66,-436.76 811.83,-430.01 801.24,-430.19 803.66,-436.76"/>
<text text-anchor="middle" x="297.1" y="-522.3" font-family="Times,serif" font-size="14.00" fill="orange">Atelier</text>
</g>
<!-- VaisseauFragile1 -->
<g id="node37" class="node">
<title>VaisseauFragile1</title>
<polygon fill="lightgrey" stroke="black" points="201.3,-404.54 201.3,-419.46 142.31,-430 58.89,-430 -0.1,-419.46 -0.1,-404.54 58.89,-394 142.31,-394 201.3,-404.54"/>
<text text-anchor="middle" x="100.6" y="-408.3" font-family="Times,serif" font-size="14.00">Vaisseau Fragile1</text>
</g>
<!-- LingotFer&#45;&gt;VaisseauFragile1 -->
<g id="edge57" class="edge">
<title>LingotFer&#45;&gt;VaisseauFragile1</title>
<path fill="none" stroke="red" d="M88.94,-594.92C85.31,-568.8 79.83,-518.06 84.61,-474.78 85.94,-462.96 88.57,-450.32 91.21,-439.44"/>
<path fill="none" stroke="orange" d="M90.92,-594.64C87.3,-568.59 81.82,-517.84 86.6,-475 87.9,-463.36 90.52,-450.72 93.15,-439.91"/>
<path fill="none" stroke="red" d="M92.9,-594.37C89.29,-568.37 83.81,-517.63 88.59,-475.22 89.85,-463.77 92.48,-451.13 95.1,-440.38"/>
<polygon fill="red" stroke="red" points="96.55,-440.75 95.64,-430.2 89.77,-439.02 96.55,-440.75"/>
<text text-anchor="middle" x="144.1" y="-522.3" font-family="Times,serif" font-size="14.00" fill="red">Chantier spatial</text>
</g>
<!-- SatelliteFragile3 -->
<g id="node43" class="node">
<title>SatelliteFragile3</title>
<polygon fill="lightgrey" stroke="black" points="985.97,-187.54 985.97,-202.46 927.76,-213 845.44,-213 787.23,-202.46 787.23,-187.54 845.44,-177 927.76,-177 985.97,-187.54"/>
<polygon fill="none" stroke="black" points="989.98,-184.2 989.98,-205.8 928.12,-217 845.08,-217 783.22,-205.8 783.22,-184.2 845.08,-173 928.12,-173 989.98,-184.2"/>
<polygon fill="none" stroke="black" points="993.98,-180.87 993.98,-209.13 928.48,-221 844.72,-221 779.21,-209.13 779.21,-180.87 844.72,-169 928.48,-169 993.98,-180.87"/>
<text text-anchor="middle" x="886.6" y="-191.3" font-family="Times,serif" font-size="14.00">Satellite Fragile3</text>
</g>
<!-- LingotOr&#45;&gt;SatelliteFragile3 -->
<g id="edge47" class="edge">
<title>LingotOr&#45;&gt;SatelliteFragile3</title>
<path fill="none" stroke="orange" d="M1555.12,-595.1C1551.67,-566.14 1540.39,-507.15 1505.27,-476.5 1483.44,-454.41 1458.83,-482.23 1433.15,-458.38 1365.28,-383.89 1463.89,-303.34 1390.26,-240.49 1377.21,-228.22 1148.85,-212.94 1004.16,-204.46"/>
<path fill="none" stroke="yellow" d="M1557.11,-594.86C1553.64,-565.76 1542.35,-506.77 1506.6,-475 1481.94,-453.09 1457.33,-480.9 1434.6,-457 1366.54,-385.44 1465.16,-304.89 1391.6,-239 1377.34,-226.23 1148.98,-210.94 1004.28,-202.47"/>
<path fill="none" stroke="orange" d="M1559.1,-594.62C1555.6,-565.39 1544.32,-506.39 1507.93,-473.5 1480.45,-451.76 1455.83,-479.58 1436.05,-455.62 1367.81,-386.99 1466.42,-306.44 1392.93,-237.51 1377.47,-224.23 1149.11,-208.95 1004.39,-200.47"/>
<polygon fill="orange" stroke="orange" points="1004.19,-198.96 994.01,-201.87 1003.79,-205.95 1004.19,-198.96"/>
<text text-anchor="middle" x="1459.1" y="-408.3" font-family="Times,serif" font-size="14.00" fill="orange">Atelier</text>
</g>
<!-- SatelliteRobuste3 -->
<g id="node44" class="node">
<title>SatelliteRobuste3</title>
<polygon fill="lightgrey" stroke="black" points="1899.25,-187.54 1899.25,-202.46 1837.95,-213 1751.25,-213 1689.95,-202.46 1689.95,-187.54 1751.25,-177 1837.95,-177 1899.25,-187.54"/>
<polygon fill="none" stroke="black" points="1903.25,-184.17 1903.25,-205.83 1838.29,-217 1750.91,-217 1685.95,-205.83 1685.95,-184.17 1750.91,-173 1838.29,-173 1903.25,-184.17"/>
<polygon fill="none" stroke="black" points="1907.24,-180.8 1907.24,-209.2 1838.63,-221 1750.57,-221 1681.96,-209.2 1681.96,-180.8 1750.57,-169 1838.63,-169 1907.24,-180.8"/>
<text text-anchor="middle" x="1794.6" y="-191.3" font-family="Times,serif" font-size="14.00">Satellite Robuste3</text>
</g>
<!-- LingotOr&#45;&gt;SatelliteRobuste3 -->
<g id="edge54" class="edge">
<title>LingotOr&#45;&gt;SatelliteRobuste3</title>
<path fill="none" stroke="orange" d="M1600.71,-598.06C1636.74,-586.81 1689,-567.83 1729.54,-542.31 1748.6,-531.78 1746.42,-518.65 1768.72,-506.2 1816.09,-484.87 1849.77,-526.81 1879.08,-488.7 1910.43,-453.33 1866.11,-317.57 1846.76,-272.79 1840.4,-257.98 1830.53,-242.88 1821.09,-230.27"/>
<path fill="none" stroke="yellow" d="M1601.31,-599.97C1637.43,-588.69 1689.68,-569.71 1730.6,-544 1750.57,-531.45 1748.39,-518.33 1769.6,-508 1814.53,-486.12 1848.21,-528.06 1880.6,-490 1912.33,-452.71 1868.01,-316.95 1848.6,-272 1842.07,-256.88 1832.21,-241.78 1822.69,-229.07"/>
<path fill="none" stroke="orange" d="M1601.9,-601.88C1638.11,-590.57 1690.36,-571.59 1731.66,-545.69 1752.55,-531.12 1750.36,-518 1770.47,-509.8 1812.97,-487.37 1846.65,-529.32 1882.12,-491.3 1914.23,-452.09 1869.91,-316.33 1850.44,-271.21 1843.75,-255.79 1833.88,-240.69 1824.29,-227.87"/>
<polygon fill="orange" stroke="orange" points="1825.4,-226.86 1816.52,-221.08 1819.86,-231.14 1825.4,-226.86"/>
<text text-anchor="middle" x="1916.1" y="-408.3" font-family="Times,serif" font-size="14.00" fill="orange">Atelier</text>
</g>
<!-- VaisseauFragile3 -->
<g id="node45" class="node">
<title>VaisseauFragile3</title>
<polygon fill="lightgrey" stroke="black" points="303.29,-187.54 303.29,-202.46 244.31,-213 160.89,-213 101.91,-202.46 101.91,-187.54 160.89,-177 244.31,-177 303.29,-187.54"/>
<polygon fill="none" stroke="black" points="307.29,-184.2 307.29,-205.8 244.66,-217 160.54,-217 97.9,-205.8 97.9,-184.2 160.54,-173 244.66,-173 307.29,-184.2"/>
<polygon fill="none" stroke="black" points="311.3,-180.85 311.3,-209.15 245.02,-221 160.18,-221 93.9,-209.15 93.9,-180.85 160.18,-169 245.02,-169 311.3,-180.85"/>
<text text-anchor="middle" x="202.6" y="-191.3" font-family="Times,serif" font-size="14.00">Vaisseau Fragile3</text>
</g>
<!-- LingotOr&#45;&gt;VaisseauFragile3 -->
<g id="edge62" class="edge">
<title>LingotOr&#45;&gt;VaisseauFragile3</title>
<path fill="none" stroke="red" d="M1515.37,-605.1C1499.14,-602.06 1480.42,-598.93 1463.37,-596.99 1306.28,-578.68 1264.19,-601.87 1105.31,-578.98 945.04,-555.48 902.61,-550.03 750.88,-491.87 736.5,-485.5 734.98,-480.29 722.93,-476.88 685.22,-462.43 670.8,-474.6 629.84,-458.85 468.21,-391.04 457.58,-321.31 305.65,-240.76 294.61,-234.84 282.46,-229.14 270.57,-223.98"/>
<path fill="none" stroke="orange" d="M1515.73,-603.14C1499.47,-600.09 1480.75,-596.96 1463.6,-595 1305.32,-576.93 1263.23,-600.12 1105.6,-577 945.3,-553.49 902.86,-548.04 751.6,-490 738.42,-484.94 736.9,-479.73 723.6,-475 683.93,-460.9 669.51,-473.07 630.6,-457 470.19,-390.74 459.56,-321.01 306.6,-239 295.46,-233.03 283.31,-227.33 271.36,-222.14"/>
<path fill="none" stroke="red" d="M1516.1,-601.17C1499.8,-598.12 1481.08,-594.98 1463.83,-593.01 1304.35,-575.18 1262.26,-598.36 1105.89,-575.02 945.55,-551.51 903.12,-546.06 752.32,-488.13 740.34,-484.38 738.82,-479.17 724.27,-473.12 682.64,-459.37 668.22,-471.54 631.36,-455.15 472.16,-390.44 461.54,-320.71 307.54,-237.24 296.31,-231.22 284.15,-225.51 272.16,-220.31"/>
<polygon fill="red" stroke="red" points="272.43,-218.79 261.86,-218.1 269.69,-225.23 272.43,-218.79"/>
<text text-anchor="middle" x="688.1" y="-408.3" font-family="Times,serif" font-size="14.00" fill="red">Chantier spatial</text>
</g>
<!-- VaisseauRobuste3 -->
<g id="node46" class="node">
<title>VaisseauRobuste3</title>
<polygon fill="lightgrey" stroke="black" points="1544.04,-187.54 1544.04,-202.46 1481.69,-213 1393.51,-213 1331.16,-202.46 1331.16,-187.54 1393.51,-177 1481.69,-177 1544.04,-187.54"/>
<polygon fill="none" stroke="black" points="1548.05,-184.16 1548.05,-205.84 1482.03,-217 1393.17,-217 1327.15,-205.84 1327.15,-184.16 1393.17,-173 1482.03,-173 1548.05,-184.16"/>
<polygon fill="none" stroke="black" points="1552.05,-180.79 1552.05,-209.21 1482.36,-221 1392.84,-221 1323.14,-209.21 1323.14,-180.79 1392.84,-169 1482.36,-169 1552.05,-180.79"/>
<text text-anchor="middle" x="1437.6" y="-191.3" font-family="Times,serif" font-size="14.00">Vaisseau Robuste3</text>
</g>
<!-- LingotOr&#45;&gt;VaisseauRobuste3 -->
<g id="edge70" class="edge">
<title>LingotOr&#45;&gt;VaisseauRobuste3</title>
<path fill="none" stroke="red" d="M1557.8,-594.53C1558.94,-567.66 1558.29,-514.7 1539.79,-475.85 1537.32,-467 1530.66,-468.4 1522.88,-458.03 1499.33,-418.55 1462.59,-293.19 1445.28,-231.49"/>
<path fill="none" stroke="orange" d="M1559.8,-594.61C1560.94,-567.64 1560.29,-514.68 1541.6,-475 1536.91,-465.04 1530.25,-466.44 1524.6,-457 1501.25,-417.98 1464.51,-292.63 1447.21,-230.95"/>
<path fill="none" stroke="red" d="M1561.8,-594.7C1562.94,-567.61 1562.29,-514.65 1543.41,-474.15 1536.5,-463.09 1529.84,-464.48 1526.32,-455.97 1503.17,-417.42 1466.43,-292.06 1449.14,-230.41"/>
<polygon fill="red" stroke="red" points="1450.57,-229.95 1444.51,-221.26 1443.82,-231.83 1450.57,-229.95"/>
<text text-anchor="middle" x="1582.1" y="-408.3" font-family="Times,serif" font-size="14.00" fill="red">Chantier spatial</text>
</g>
<!-- LingotOr&#45;&gt;PuceLuxe -->
<g id="edge40" class="edge">
<title>LingotOr&#45;&gt;PuceLuxe</title>
<path fill="none" stroke="green" d="M1601.18,-606.72C1656.59,-598.69 1755.44,-580.33 1832.6,-544 1869.11,-526.81 1873.33,-514.23 1905.6,-490 1921.07,-478.38 1937.8,-465.68 1953.11,-454.01"/>
<polygon fill="green" stroke="green" points="1955.63,-456.49 1961.46,-447.64 1951.38,-450.92 1955.63,-456.49"/>
<text text-anchor="middle" x="1914.6" y="-522.3" font-family="Times,serif" font-size="14.00" fill="green">Fabrique</text>
</g>
<!-- SatelliteFragile2 -->
<g id="node39" class="node">
<title>SatelliteFragile2</title>
<polygon fill="lightgrey" stroke="black" points="952.98,-286.54 952.98,-301.46 894.76,-312 812.44,-312 754.22,-301.46 754.22,-286.54 812.44,-276 894.76,-276 952.98,-286.54"/>
<polygon fill="none" stroke="black" points="956.98,-283.2 956.98,-304.8 895.12,-316 812.08,-316 750.21,-304.8 750.21,-283.2 812.08,-272 895.12,-272 956.98,-283.2"/>
<text text-anchor="middle" x="853.6" y="-290.3" font-family="Times,serif" font-size="14.00">Satellite Fragile2</text>
</g>
<!-- LingotAluminium&#45;&gt;SatelliteFragile2 -->
<g id="edge45" class="edge">
<title>LingotAluminium&#45;&gt;SatelliteFragile2</title>
<path fill="none" stroke="orange" d="M780.21,-609.24C703.94,-599.9 587.63,-572.49 530.95,-491.13 507.38,-453.82 440.55,-488.76 578.3,-365.48 623.42,-327.04 685.65,-308.8 739.84,-300.12"/>
<path fill="none" stroke="yellow" d="M780.45,-607.25C704.4,-597.95 588.09,-570.54 532.6,-490 506.45,-452.05 439.62,-486.99 579.6,-367 623.98,-328.96 686.21,-310.72 740.15,-302.1"/>
<path fill="none" stroke="orange" d="M780.69,-605.27C704.85,-596 588.55,-568.59 534.25,-488.87 505.53,-450.28 438.69,-485.22 580.9,-368.52 624.54,-330.88 686.78,-312.64 740.47,-304.07"/>
<polygon fill="orange" stroke="orange" points="740.75,-305.54 750.12,-300.59 739.71,-298.62 740.75,-305.54"/>
<text text-anchor="middle" x="557.1" y="-478.8" font-family="Times,serif" font-size="14.00" fill="orange">Atelier</text>
</g>
<!-- SatelliteRobuste2 -->
<g id="node40" class="node">
<title>SatelliteRobuste2</title>
<polygon fill="lightgrey" stroke="black" points="1835.25,-286.54 1835.25,-301.46 1773.95,-312 1687.25,-312 1625.95,-301.46 1625.95,-286.54 1687.25,-276 1773.95,-276 1835.25,-286.54"/>
<polygon fill="none" stroke="black" points="1839.24,-283.17 1839.24,-304.83 1774.29,-316 1686.91,-316 1621.96,-304.83 1621.96,-283.17 1686.91,-272 1774.29,-272 1839.24,-283.17"/>
<text text-anchor="middle" x="1730.6" y="-290.3" font-family="Times,serif" font-size="14.00">Satellite Robuste2</text>
</g>
<!-- LingotAluminium&#45;&gt;SatelliteRobuste2 -->
<g id="edge52" class="edge">
<title>LingotAluminium&#45;&gt;SatelliteRobuste2</title>
<path fill="none" stroke="orange" d="M924.76,-603.15C1016.92,-594.28 1165.75,-579.44 1176.89,-575.13 1238.09,-552.37 1248.33,-533.58 1298.26,-488.51 1351.95,-441.58 1343.73,-404.54 1407.58,-365.28 1469.62,-328.8 1547.52,-310.78 1611.48,-301.8"/>
<path fill="none" stroke="yellow" d="M924.95,-605.14C1017.12,-596.27 1165.95,-581.43 1177.6,-577 1239.85,-553.33 1250.09,-534.54 1299.6,-490 1353.9,-441.15 1345.68,-404.1 1408.6,-367 1470.07,-330.75 1547.97,-312.73 1611.76,-303.78"/>
<path fill="none" stroke="orange" d="M925.14,-607.14C1017.31,-598.26 1166.14,-583.42 1178.31,-578.87 1241.6,-554.29 1251.84,-535.5 1300.94,-491.49 1355.86,-440.72 1347.63,-403.67 1409.62,-368.72 1470.52,-332.7 1548.43,-314.68 1612.03,-305.76"/>
<polygon fill="orange" stroke="orange" points="1612.42,-307.22 1621.87,-302.42 1611.49,-300.29 1612.42,-307.22"/>
<text text-anchor="middle" x="1339.1" y="-478.8" font-family="Times,serif" font-size="14.00" fill="orange">Atelier</text>
</g>
<!-- VaisseauFragile2 -->
<g id="node41" class="node">
<title>VaisseauFragile2</title>
<polygon fill="lightgrey" stroke="black" points="270.29,-286.54 270.29,-301.46 211.31,-312 127.89,-312 68.9,-301.46 68.9,-286.54 127.89,-276 211.31,-276 270.29,-286.54"/>
<polygon fill="none" stroke="black" points="274.3,-283.2 274.3,-304.8 211.66,-316 127.53,-316 64.9,-304.8 64.9,-283.2 127.53,-272 211.66,-272 274.3,-283.2"/>
<text text-anchor="middle" x="169.6" y="-290.3" font-family="Times,serif" font-size="14.00">Vaisseau Fragile2</text>
</g>
<!-- LingotAluminium&#45;&gt;VaisseauFragile2 -->
<g id="edge60" class="edge">
<title>LingotAluminium&#45;&gt;VaisseauFragile2</title>
<path fill="none" stroke="red" d="M780.14,-607.09C733.21,-601.66 671.07,-592.69 617.11,-578.94 529.6,-555.95 514.67,-528.55 429.16,-509.95 387.51,-500.39 265.69,-522.78 233.18,-491.41 184.33,-439.05 253.09,-393.3 218.85,-334.97 216.82,-331.25 214.06,-327.58 211.08,-324.34"/>
<path fill="none" stroke="orange" d="M780.37,-605.1C733.5,-599.68 671.36,-590.72 617.6,-577 531.36,-555 516.42,-527.59 429.6,-508 387.15,-498.42 265.33,-520.81 234.6,-490 185.44,-440.71 254.2,-394.97 220.6,-334 218.42,-330.05 215.66,-326.37 212.55,-322.98"/>
<path fill="none" stroke="red" d="M780.6,-603.11C733.78,-597.7 671.64,-588.74 618.09,-575.06 533.11,-554.04 518.18,-526.63 430.04,-506.05 386.79,-496.46 264.97,-518.84 236.02,-488.59 186.55,-442.38 255.31,-396.63 222.35,-333.03 220.02,-328.85 217.26,-325.17 214.02,-321.63"/>
<polygon fill="red" stroke="red" points="214.92,-320.41 205.28,-316.03 210.08,-325.47 214.92,-320.41"/>
<text text-anchor="middle" x="292.1" y="-478.8" font-family="Times,serif" font-size="14.00" fill="red">Chantier spatial</text>
</g>
<!-- VaisseauRobuste2 -->
<g id="node42" class="node">
<title>VaisseauRobuste2</title>
<polygon fill="lightgrey" stroke="black" points="1382.05,-286.54 1382.05,-301.46 1319.69,-312 1231.51,-312 1169.15,-301.46 1169.15,-286.54 1231.51,-276 1319.69,-276 1382.05,-286.54"/>
<polygon fill="none" stroke="black" points="1386.05,-283.16 1386.05,-304.84 1320.03,-316 1231.17,-316 1165.14,-304.84 1165.14,-283.16 1231.17,-272 1320.03,-272 1386.05,-283.16"/>
<text text-anchor="middle" x="1275.6" y="-290.3" font-family="Times,serif" font-size="14.00">Vaisseau Robuste2</text>
</g>
<!-- LingotAluminium&#45;&gt;VaisseauRobuste2 -->
<g id="edge68" class="edge">
<title>LingotAluminium&#45;&gt;VaisseauRobuste2</title>
<path fill="none" stroke="red" d="M866.07,-593.42C909.8,-543.33 1037.47,-399.45 1090.52,-365.32 1124.89,-343.3 1166.61,-326.31 1201.82,-314.29"/>
<path fill="none" stroke="orange" d="M867.58,-594.73C911.3,-544.66 1038.96,-400.77 1091.6,-367 1125.64,-345.16 1167.36,-328.16 1202.46,-316.18"/>
<path fill="none" stroke="red" d="M869.08,-596.05C912.79,-545.98 1040.46,-402.1 1092.68,-368.68 1126.4,-347.01 1168.12,-330.01 1203.11,-318.07"/>
<polygon fill="red" stroke="red" points="1203.8,-319.42 1212.18,-312.93 1201.58,-312.78 1203.8,-319.42"/>
<text text-anchor="middle" x="1033.1" y="-478.8" font-family="Times,serif" font-size="14.00" fill="red">Chantier spatial</text>
</g>
<!-- MateriauxConstruction&#45;&gt;SatelliteFragile1 -->
<g id="edge41" class="edge">
<title>MateriauxConstruction&#45;&gt;SatelliteFragile1</title>
<path fill="none" stroke="orange" d="M1015.7,-517.39C972.62,-511.62 927.26,-503.21 908.54,-491.7 888.54,-479.03 873.75,-457.51 864.16,-440.13"/>
<path fill="none" stroke="yellow" d="M1015.97,-515.41C972.99,-509.65 927.62,-501.24 909.6,-490 890.19,-477.9 875.4,-456.38 865.91,-439.16"/>
<path fill="none" stroke="orange" d="M1016.23,-513.43C973.35,-507.69 927.98,-499.27 910.66,-488.3 891.84,-476.76 877.05,-455.25 867.66,-438.2"/>
<polygon fill="orange" stroke="orange" points="868.92,-437.37 861.19,-430.13 862.72,-440.61 868.92,-437.37"/>
<text text-anchor="middle" x="934.1" y="-478.8" font-family="Times,serif" font-size="14.00" fill="orange">Atelier</text>
</g>
<!-- MateriauxConstruction&#45;&gt;SatelliteRobuste1 -->
<g id="edge48" class="edge">
<title>MateriauxConstruction&#45;&gt;SatelliteRobuste1</title>
<path fill="none" stroke="orange" d="M1202.96,-516.55C1301.52,-509.42 1450.18,-497.67 1506.26,-488.03 1563.77,-478.19 1577.8,-472.68 1634,-455.09 1655.97,-448.22 1679.93,-439.59 1700.5,-431.81"/>
<path fill="none" stroke="yellow" d="M1203.1,-518.54C1301.68,-511.41 1450.34,-499.66 1506.6,-490 1564.5,-480.05 1578.53,-474.54 1634.6,-457 1656.65,-450.1 1680.61,-441.47 1701.21,-433.68"/>
<path fill="none" stroke="orange" d="M1203.25,-520.53C1301.84,-513.4 1450.5,-501.66 1506.94,-491.97 1565.23,-481.91 1579.26,-476.4 1635.2,-458.91 1657.33,-451.98 1681.28,-443.35 1701.91,-435.55"/>
<polygon fill="orange" stroke="orange" points="1702.62,-436.89 1710.72,-430.06 1700.13,-430.35 1702.62,-436.89"/>
<text text-anchor="middle" x="1599.1" y="-478.8" font-family="Times,serif" font-size="14.00" fill="orange">Atelier</text>
</g>
<!-- MateriauxConstruction&#45;&gt;VaisseauFragile1 -->
<g id="edge56" class="edge">
<title>MateriauxConstruction&#45;&gt;VaisseauFragile1</title>
<path fill="none" stroke="red" d="M1015.82,-525.55C850.58,-522.47 514.09,-513.68 398.23,-491.97 376.29,-487.33 372.27,-482.06 353.04,-476.92 292.23,-459.36 222.18,-442.45 171.28,-430.75"/>
<path fill="none" stroke="orange" d="M1015.85,-523.55C850.63,-520.47 514.15,-511.68 398.6,-490 377.88,-486.11 373.85,-480.85 353.6,-475 292.7,-457.42 222.65,-440.51 171.72,-428.8"/>
<path fill="none" stroke="red" d="M1015.89,-521.55C850.68,-518.47 514.2,-509.68 398.97,-488.03 379.47,-484.9 375.44,-479.63 354.15,-473.08 293.17,-455.48 223.12,-438.56 172.17,-426.85"/>
<polygon fill="red" stroke="red" points="172.33,-425.35 161.8,-426.53 170.77,-432.17 172.33,-425.35"/>
<text text-anchor="middle" x="456.1" y="-478.8" font-family="Times,serif" font-size="14.00" fill="red">Chantier spatial</text>
</g>
<!-- MateriauxConstruction&#45;&gt;VaisseauRobuste1 -->
<g id="edge64" class="edge">
<title>MateriauxConstruction&#45;&gt;VaisseauRobuste1</title>
<path fill="none" stroke="red" d="M1145,-506.14C1152.95,-501.27 1161.02,-495.3 1167.13,-488.64 1180.01,-474.86 1189.62,-455.14 1195.81,-439.37"/>
<path fill="none" stroke="orange" d="M1146.04,-507.84C1154.14,-502.88 1162.21,-496.9 1168.6,-490 1181.81,-475.73 1191.42,-456.02 1197.67,-440.11"/>
<path fill="none" stroke="red" d="M1147.09,-509.55C1155.33,-504.49 1163.4,-498.51 1170.07,-491.36 1183.61,-476.61 1193.22,-456.89 1199.54,-440.84"/>
<polygon fill="red" stroke="red" points="1201.12,-440.89 1201.3,-430.3 1194.55,-438.46 1201.12,-440.89"/>
<text text-anchor="middle" x="1238.1" y="-478.8" font-family="Times,serif" font-size="14.00" fill="red">Chantier spatial</text>
</g>
<!-- GazOxygene -->
<g id="node25" class="node">
<title>GazOxygene</title>
<polygon fill="lightgrey" stroke="black" points="575.66,-769.05 580.33,-769.15 584.96,-769.3 589.51,-769.49 593.98,-769.74 598.35,-770.03 602.6,-770.36 606.71,-770.75 610.67,-771.18 614.46,-771.65 618.06,-772.16 621.48,-772.71 624.69,-773.31 627.68,-773.94 630.45,-774.61 632.99,-775.31 635.29,-776.04 637.34,-776.8 639.15,-777.59 640.71,-778.41 642.02,-779.25 643.08,-780.11 643.89,-780.99 644.46,-781.89 644.78,-782.8 644.87,-783.72 644.73,-784.65 644.36,-785.59 643.77,-786.53 642.98,-787.47 641.98,-788.41 640.79,-789.35 639.42,-790.28 637.88,-791.2 636.18,-792.11 634.33,-793.01 632.33,-793.89 630.21,-794.75 627.96,-795.59 625.6,-796.41 623.15,-797.2 620.6,-797.96 617.97,-798.69 615.27,-799.39 612.5,-800.06 609.67,-800.69 606.79,-801.29 603.87,-801.84 600.91,-802.35 597.92,-802.82 594.89,-803.25 591.85,-803.64 588.78,-803.97 585.7,-804.26 582.61,-804.51 579.51,-804.7 576.4,-804.85 573.28,-804.95 570.16,-805 567.04,-805 563.92,-804.95 560.8,-804.85 557.69,-804.7 554.59,-804.51 551.5,-804.26 548.41,-803.97 545.35,-803.64 542.3,-803.25 539.28,-802.82 536.29,-802.35 533.33,-801.84 530.41,-801.29 527.53,-800.69 524.7,-800.06 521.93,-799.39 519.23,-798.69 516.6,-797.96 514.05,-797.2 511.59,-796.41 509.24,-795.59 506.99,-794.75 504.87,-793.89 502.87,-793.01 501.02,-792.11 499.32,-791.2 497.78,-790.28 496.41,-789.35 495.22,-788.41 494.22,-787.47 493.43,-786.53 492.84,-785.59 492.47,-784.65 492.33,-783.72 492.41,-782.8 492.74,-781.89 493.3,-780.99 494.12,-780.11 495.18,-779.25 496.49,-778.41 498.05,-777.59 499.86,-776.8 501.91,-776.04 504.21,-775.31 506.75,-774.61 509.52,-773.94 512.51,-773.31 515.72,-772.71 519.13,-772.16 522.74,-771.65 526.53,-771.18 530.49,-770.75 534.6,-770.36 538.85,-770.03 543.21,-769.74 547.69,-769.49 552.24,-769.3 556.87,-769.15 561.54,-769.05 566.24,-769 570.96,-769 575.66,-769.05"/>
<text text-anchor="middle" x="568.6" y="-783.3" font-family="Times,serif" font-size="14.00">Gaz Oxygene</text>
</g>
<!-- LiquideOxygene -->
<g id="node29" class="node">
<title>LiquideOxygene</title>
<polygon fill="lightgrey" stroke="black" points="718.36,-682.05 724.16,-682.15 729.9,-682.3 735.55,-682.49 741.1,-682.74 746.52,-683.03 751.79,-683.36 756.89,-683.75 761.8,-684.18 766.5,-684.65 770.98,-685.16 775.22,-685.71 779.2,-686.31 782.91,-686.94 786.35,-687.61 789.5,-688.31 792.35,-689.04 794.9,-689.8 797.15,-690.59 799.08,-691.41 800.71,-692.25 802.03,-693.11 803.03,-693.99 803.74,-694.89 804.14,-695.8 804.25,-696.72 804.07,-697.65 803.61,-698.59 802.88,-699.53 801.9,-700.47 800.66,-701.41 799.19,-702.35 797.49,-703.28 795.57,-704.2 793.46,-705.11 791.16,-706.01 788.69,-706.89 786.05,-707.75 783.26,-708.59 780.34,-709.41 777.29,-710.2 774.13,-710.96 770.87,-711.69 767.51,-712.39 764.07,-713.06 760.57,-713.69 756.99,-714.29 753.37,-714.84 749.69,-715.35 745.98,-715.82 742.23,-716.25 738.45,-716.64 734.65,-716.97 730.82,-717.26 726.99,-717.51 723.13,-717.7 719.27,-717.85 715.41,-717.95 711.54,-718 707.66,-718 703.79,-717.95 699.93,-717.85 696.06,-717.7 692.21,-717.51 688.37,-717.26 684.55,-716.97 680.75,-716.64 676.97,-716.25 673.22,-715.82 669.5,-715.35 665.83,-714.84 662.2,-714.29 658.63,-713.69 655.13,-713.06 651.69,-712.39 648.33,-711.69 645.07,-710.96 641.91,-710.2 638.86,-709.41 635.94,-708.59 633.15,-707.75 630.51,-706.89 628.04,-706.01 625.74,-705.11 623.62,-704.2 621.71,-703.28 620.01,-702.35 618.54,-701.41 617.3,-700.47 616.32,-699.53 615.59,-698.59 615.13,-697.65 614.95,-696.72 615.06,-695.8 615.46,-694.89 616.16,-693.99 617.17,-693.11 618.49,-692.25 620.11,-691.41 622.05,-690.59 624.3,-689.8 626.85,-689.04 629.7,-688.31 632.85,-687.61 636.28,-686.94 640,-686.31 643.98,-685.71 648.22,-685.16 652.69,-684.65 657.4,-684.18 662.31,-683.75 667.41,-683.36 672.68,-683.03 678.1,-682.74 683.65,-682.49 689.3,-682.3 695.04,-682.15 700.84,-682.05 706.68,-682 712.52,-682 718.36,-682.05"/>
<text text-anchor="middle" x="709.6" y="-696.3" font-family="Times,serif" font-size="14.00">Liquide Oxygene</text>
</g>
<!-- GazOxygene&#45;&gt;LiquideOxygene -->
<g id="edge19" class="edge">
<title>GazOxygene&#45;&gt;LiquideOxygene</title>
<path fill="none" stroke="lightskyblue" stroke-dasharray="5,2" d="M595.45,-769.81C617.8,-756.34 649.79,-737.06 674.22,-722.33"/>
<polygon fill="lightskyblue" stroke="lightskyblue" points="676.09,-725.29 682.85,-717.13 672.48,-719.29 676.09,-725.29"/>
<text text-anchor="middle" x="666.1" y="-739.8" font-family="Times,serif" font-size="14.00" fill="lightskyblue">Cuve</text>
</g>
<!-- PeroxydeHydrogene -->
<g id="node30" class="node">
<title>PeroxydeHydrogene</title>
<polygon fill="lightgrey" stroke="black" points="262.22,-682.05 269.25,-682.15 276.22,-682.3 283.07,-682.49 289.8,-682.74 296.38,-683.03 302.77,-683.36 308.96,-683.75 314.91,-684.18 320.62,-684.65 326.05,-685.16 331.18,-685.71 336.01,-686.31 340.52,-686.94 344.69,-687.61 348.5,-688.31 351.96,-689.04 355.06,-689.8 357.78,-690.59 360.13,-691.41 362.1,-692.25 363.7,-693.11 364.92,-693.99 365.77,-694.89 366.26,-695.8 366.39,-696.72 366.18,-697.65 365.62,-698.59 364.74,-699.53 363.54,-700.47 362.04,-701.41 360.25,-702.35 358.19,-703.28 355.87,-704.2 353.31,-705.11 350.52,-706.01 347.52,-706.89 344.32,-707.75 340.94,-708.59 337.39,-709.41 333.7,-710.2 329.86,-710.96 325.9,-711.69 321.84,-712.39 317.67,-713.06 313.41,-713.69 309.08,-714.29 304.68,-714.84 300.23,-715.35 295.72,-715.82 291.17,-716.25 286.59,-716.64 281.98,-716.97 277.34,-717.26 272.69,-717.51 268.02,-717.7 263.33,-717.85 258.64,-717.95 253.95,-718 249.25,-718 244.56,-717.95 239.87,-717.85 235.18,-717.7 230.51,-717.51 225.86,-717.26 221.22,-716.97 216.61,-716.64 212.02,-716.25 207.48,-715.82 202.97,-715.35 198.52,-714.84 194.12,-714.29 189.79,-713.69 185.53,-713.06 181.36,-712.39 177.29,-711.69 173.34,-710.96 169.5,-710.2 165.8,-709.41 162.26,-708.59 158.88,-707.75 155.68,-706.89 152.68,-706.01 149.89,-705.11 147.33,-704.2 145.01,-703.28 142.95,-702.35 141.16,-701.41 139.66,-700.47 138.46,-699.53 137.58,-698.59 137.02,-697.65 136.81,-696.72 136.94,-695.8 137.43,-694.89 138.28,-693.99 139.5,-693.11 141.1,-692.25 143.07,-691.41 145.42,-690.59 148.14,-689.8 151.23,-689.04 154.69,-688.31 158.51,-687.61 162.68,-686.94 167.19,-686.31 172.02,-685.71 177.15,-685.16 182.58,-684.65 188.29,-684.18 194.24,-683.75 200.43,-683.36 206.82,-683.03 213.39,-682.74 220.12,-682.49 226.98,-682.3 233.94,-682.15 240.98,-682.05 248.05,-682 255.15,-682 262.22,-682.05"/>
<text text-anchor="middle" x="251.6" y="-696.3" font-family="Times,serif" font-size="14.00">Peroxyde Hydrogene</text>
</g>
<!-- GazOxygene&#45;&gt;PeroxydeHydrogene -->
<g id="edge21" class="edge">
<title>GazOxygene&#45;&gt;PeroxydeHydrogene</title>
<path fill="none" stroke="lightskyblue" stroke-dasharray="5,2" d="M546.87,-769.4C531.01,-758.16 508.55,-743.95 486.6,-736 479.4,-733.39 401.42,-722.02 337.24,-712.94"/>
<polygon fill="lightskyblue" stroke="lightskyblue" points="337.46,-709.44 327.07,-711.51 336.48,-716.37 337.46,-709.44"/>
<text text-anchor="middle" x="536.1" y="-739.8" font-family="Times,serif" font-size="14.00" fill="lightskyblue">Cuve</text>
</g>
<!-- GazHydrogene -->
<g id="node26" class="node">
<title>GazHydrogene</title>
<polygon fill="lightgrey" stroke="black" points="394.72,-769.05 400.1,-769.15 405.43,-769.3 410.67,-769.49 415.82,-769.74 420.85,-770.03 425.74,-770.36 430.47,-770.75 435.03,-771.18 439.39,-771.65 443.54,-772.16 447.47,-772.71 451.17,-773.31 454.61,-773.94 457.8,-774.61 460.72,-775.31 463.37,-776.04 465.74,-776.8 467.82,-777.59 469.62,-778.41 471.12,-779.25 472.34,-780.11 473.28,-780.99 473.93,-781.89 474.3,-782.8 474.41,-783.72 474.24,-784.65 473.81,-785.59 473.14,-786.53 472.22,-787.47 471.08,-788.41 469.71,-789.35 468.13,-790.28 466.36,-791.2 464.4,-792.11 462.26,-793.01 459.97,-793.89 457.52,-794.75 454.94,-795.59 452.22,-796.41 449.4,-797.2 446.46,-797.96 443.44,-798.69 440.32,-799.39 437.14,-800.06 433.88,-800.69 430.57,-801.29 427.2,-801.84 423.8,-802.35 420.35,-802.82 416.87,-803.25 413.36,-803.64 409.84,-803.97 406.29,-804.26 402.73,-804.51 399.16,-804.7 395.57,-804.85 391.99,-804.95 388.4,-805 384.8,-805 381.21,-804.95 377.62,-804.85 374.04,-804.7 370.47,-804.51 366.91,-804.26 363.36,-803.97 359.83,-803.64 356.33,-803.25 352.85,-802.82 349.4,-802.35 346,-801.84 342.63,-801.29 339.32,-800.69 336.06,-800.06 332.88,-799.39 329.76,-798.69 326.74,-797.96 323.8,-797.2 320.97,-796.41 318.26,-795.59 315.68,-794.75 313.23,-793.89 310.93,-793.01 308.8,-792.11 306.84,-791.2 305.07,-790.28 303.49,-789.35 302.12,-788.41 300.98,-787.47 300.06,-786.53 299.38,-785.59 298.96,-784.65 298.79,-783.72 298.89,-782.8 299.27,-781.89 299.92,-780.99 300.85,-780.11 302.08,-779.25 303.58,-778.41 305.38,-777.59 307.46,-776.8 309.83,-776.04 312.48,-775.31 315.4,-774.61 318.58,-773.94 322.03,-773.31 325.73,-772.71 329.66,-772.16 333.81,-771.65 338.17,-771.18 342.73,-770.75 347.46,-770.36 352.35,-770.03 357.38,-769.74 362.52,-769.49 367.77,-769.3 373.09,-769.15 378.47,-769.05 383.89,-769 389.31,-769 394.72,-769.05"/>
<text text-anchor="middle" x="386.6" y="-783.3" font-family="Times,serif" font-size="14.00">Gaz Hydrogene</text>
</g>
<!-- LiquideHydrogene -->
<g id="node28" class="node">
<title>LiquideHydrogene</title>
<polygon fill="lightgrey" stroke="black" points="500.39,-682.05 506.87,-682.15 513.29,-682.3 519.61,-682.49 525.81,-682.74 531.87,-683.03 537.76,-683.36 543.46,-683.75 548.95,-684.18 554.21,-684.65 559.21,-685.16 563.95,-685.71 568.4,-686.31 572.55,-686.94 576.39,-687.61 579.91,-688.31 583.1,-689.04 585.95,-689.8 588.46,-690.59 590.63,-691.41 592.44,-692.25 593.91,-693.11 595.04,-693.99 595.83,-694.89 596.28,-695.8 596.4,-696.72 596.2,-697.65 595.68,-698.59 594.87,-699.53 593.77,-700.47 592.39,-701.41 590.74,-702.35 588.84,-703.28 586.7,-704.2 584.34,-705.11 581.77,-706.01 579,-706.89 576.05,-707.75 572.94,-708.59 569.67,-709.41 566.26,-710.2 562.73,-710.96 559.08,-711.69 555.33,-712.39 551.49,-713.06 547.57,-713.69 543.58,-714.29 539.52,-714.84 535.42,-715.35 531.26,-715.82 527.07,-716.25 522.85,-716.64 518.6,-716.97 514.32,-717.26 510.03,-717.51 505.73,-717.7 501.41,-717.85 497.09,-717.95 492.76,-718 488.44,-718 484.11,-717.95 479.79,-717.85 475.47,-717.7 471.17,-717.51 466.87,-717.26 462.6,-716.97 458.35,-716.64 454.13,-716.25 449.93,-715.82 445.78,-715.35 441.68,-714.84 437.62,-714.29 433.63,-713.69 429.71,-713.06 425.87,-712.39 422.12,-711.69 418.47,-710.96 414.94,-710.2 411.53,-709.41 408.26,-708.59 405.15,-707.75 402.2,-706.89 399.43,-706.01 396.86,-705.11 394.5,-704.2 392.36,-703.28 390.46,-702.35 388.81,-701.41 387.43,-700.47 386.33,-699.53 385.51,-698.59 385,-697.65 384.8,-696.72 384.92,-695.8 385.37,-694.89 386.16,-693.99 387.29,-693.11 388.76,-692.25 390.57,-691.41 392.74,-690.59 395.25,-689.8 398.1,-689.04 401.29,-688.31 404.81,-687.61 408.65,-686.94 412.8,-686.31 417.25,-685.71 421.99,-685.16 426.99,-684.65 432.25,-684.18 437.74,-683.75 443.44,-683.36 449.33,-683.03 455.39,-682.74 461.59,-682.49 467.91,-682.3 474.33,-682.15 480.81,-682.05 487.33,-682 493.87,-682 500.39,-682.05"/>
<text text-anchor="middle" x="490.6" y="-696.3" font-family="Times,serif" font-size="14.00">Liquide Hydrogene</text>
</g>
<!-- GazHydrogene&#45;&gt;LiquideHydrogene -->
<g id="edge18" class="edge">
<title>GazHydrogene&#45;&gt;LiquideHydrogene</title>
<path fill="none" stroke="lightskyblue" stroke-dasharray="5,2" d="M407.15,-769.21C422.92,-756.32 444.87,-738.38 462.3,-724.13"/>
<polygon fill="lightskyblue" stroke="lightskyblue" points="464.92,-726.51 470.45,-717.47 460.49,-721.09 464.92,-726.51"/>
<text text-anchor="middle" x="464.1" y="-739.8" font-family="Times,serif" font-size="14.00" fill="lightskyblue">Cuve</text>
</g>
<!-- GazHydrogene&#45;&gt;PeroxydeHydrogene -->
<g id="edge20" class="edge">
<title>GazHydrogene&#45;&gt;PeroxydeHydrogene</title>
<path fill="none" stroke="lightskyblue" stroke-dasharray="5,2" d="M360.25,-769.41C339.02,-756.04 309.01,-737.15 285.91,-722.6"/>
<polygon fill="lightskyblue" stroke="lightskyblue" points="287.75,-719.63 277.42,-717.26 284.02,-725.55 287.75,-719.63"/>
<text text-anchor="middle" x="346.1" y="-739.8" font-family="Times,serif" font-size="14.00" fill="lightskyblue">Cuve</text>
</g>
<!-- Eau&#45;&gt;GazOxygene -->
<g id="edge17" class="edge">
<title>Eau&#45;&gt;GazOxygene</title>
<path fill="none" stroke="lightskyblue" stroke-dasharray="5,2" d="M489.87,-889.26C505.17,-869.59 531.48,-835.75 549.44,-812.65"/>
<polygon fill="lightskyblue" stroke="lightskyblue" points="552.27,-814.71 555.64,-804.67 546.74,-810.41 552.27,-814.71"/>
<text text-anchor="middle" x="558.1" y="-826.8" font-family="Times,serif" font-size="14.00" fill="lightskyblue">Cuve</text>
</g>
<!-- Eau&#45;&gt;GazHydrogene -->
<g id="edge16" class="edge">
<title>Eau&#45;&gt;GazHydrogene</title>
<path fill="none" stroke="lightskyblue" stroke-dasharray="5,2" d="M465.33,-889.26C450.12,-869.7 424.02,-836.13 406.07,-813.04"/>
<polygon fill="lightskyblue" stroke="lightskyblue" points="408.76,-810.8 399.86,-805.05 403.23,-815.09 408.76,-810.8"/>
<text text-anchor="middle" x="443.1" y="-826.8" font-family="Times,serif" font-size="14.00" fill="lightskyblue">Cuve</text>
</g>
<!-- Carburant1 -->
<g id="node32" class="node">
<title>Carburant1</title>
<path fill="lightgrey" stroke="black" d="M540.1,-627.73C540.1,-629.53 517.91,-631 490.6,-631 463.29,-631 441.1,-629.53 441.1,-627.73 441.1,-627.73 441.1,-598.27 441.1,-598.27 441.1,-596.47 463.29,-595 490.6,-595 517.91,-595 540.1,-596.47 540.1,-598.27 540.1,-598.27 540.1,-627.73 540.1,-627.73"/>
<path fill="none" stroke="black" d="M540.1,-627.73C540.1,-625.92 517.91,-624.45 490.6,-624.45 463.29,-624.45 441.1,-625.92 441.1,-627.73"/>
<text text-anchor="middle" x="490.6" y="-609.3" font-family="Times,serif" font-size="14.00">Carburant1</text>
</g>
<!-- LiquideHydrogene&#45;&gt;Carburant1 -->
<g id="edge22" class="edge">
<title>LiquideHydrogene&#45;&gt;Carburant1</title>
<path fill="none" stroke="lightskyblue" stroke-dasharray="5,2" d="M490.6,-681.8C490.6,-670.16 490.6,-654.55 490.6,-641.24"/>
<polygon fill="lightskyblue" stroke="lightskyblue" points="494.1,-641.18 490.6,-631.18 487.1,-641.18 494.1,-641.18"/>
<text text-anchor="middle" x="509.1" y="-652.8" font-family="Times,serif" font-size="14.00" fill="lightskyblue">Cuve</text>
</g>
<!-- LiquideOxygene&#45;&gt;Carburant1 -->
<g id="edge23" class="edge">
<title>LiquideOxygene&#45;&gt;Carburant1</title>
<path fill="none" stroke="lightskyblue" stroke-dasharray="5,2" d="M668.92,-683.21C633,-669.27 580.46,-648.88 541.71,-633.84"/>
<polygon fill="lightskyblue" stroke="lightskyblue" points="542.77,-630.49 532.18,-630.14 540.23,-637.02 542.77,-630.49"/>
<text text-anchor="middle" x="632.1" y="-652.8" font-family="Times,serif" font-size="14.00" fill="lightskyblue">Cuve</text>
</g>
<!-- Carburant2 -->
<g id="node33" class="node">
<title>Carburant2</title>
<path fill="lightgrey" stroke="black" d="M335.1,-627.73C335.1,-629.53 312.91,-631 285.6,-631 258.29,-631 236.1,-629.53 236.1,-627.73 236.1,-627.73 236.1,-598.27 236.1,-598.27 236.1,-596.47 258.29,-595 285.6,-595 312.91,-595 335.1,-596.47 335.1,-598.27 335.1,-598.27 335.1,-627.73 335.1,-627.73"/>
<path fill="none" stroke="black" d="M335.1,-627.73C335.1,-625.92 312.91,-624.45 285.6,-624.45 258.29,-624.45 236.1,-625.92 236.1,-627.73"/>
<text text-anchor="middle" x="285.6" y="-609.3" font-family="Times,serif" font-size="14.00">Carburant2</text>
</g>
<!-- PeroxydeHydrogene&#45;&gt;Carburant2 -->
<g id="edge24" class="edge">
<title>PeroxydeHydrogene&#45;&gt;Carburant2</title>
<path fill="none" stroke="lightskyblue" stroke-dasharray="5,2" d="M258.48,-681.8C263.18,-670.05 269.5,-654.24 274.86,-640.84"/>
<polygon fill="lightskyblue" stroke="lightskyblue" points="278.26,-641.76 278.73,-631.18 271.77,-639.16 278.26,-641.76"/>
<text text-anchor="middle" x="290.1" y="-652.8" font-family="Times,serif" font-size="14.00" fill="lightskyblue">Cuve</text>
</g>
<!-- Carburant -->
<g id="node31" class="node">
<title>Carburant</title>
<path fill="lightgrey" stroke="black" d="M420.6,-540.73C420.6,-542.53 400.43,-544 375.6,-544 350.77,-544 330.6,-542.53 330.6,-540.73 330.6,-540.73 330.6,-511.27 330.6,-511.27 330.6,-509.47 350.77,-508 375.6,-508 400.43,-508 420.6,-509.47 420.6,-511.27 420.6,-511.27 420.6,-540.73 420.6,-540.73"/>
<path fill="none" stroke="black" d="M420.6,-540.73C420.6,-538.92 400.43,-537.45 375.6,-537.45 350.77,-537.45 330.6,-538.92 330.6,-540.73"/>
<text text-anchor="middle" x="375.6" y="-522.3" font-family="Times,serif" font-size="14.00">Carburant</text>
</g>
<!-- Carburant&#45;&gt;VaisseauFragile1 -->
<g id="edge55" class="edge">
<title>Carburant&#45;&gt;VaisseauFragile1</title>
<path fill="none" stroke="red" d="M329.92,-512.94C325.34,-511.81 320.68,-510.78 316.24,-509.97 292.63,-505.6 114.19,-509.96 96.13,-491.36 83.44,-476.66 84.85,-456.15 89,-439.27"/>
<path fill="none" stroke="orange" d="M330.4,-510.99C325.77,-509.85 321.11,-508.83 316.6,-508 292.58,-503.6 114.14,-507.96 97.6,-490 85.44,-476.8 86.85,-456.29 90.94,-439.75"/>
<path fill="none" stroke="red" d="M330.88,-509.05C326.2,-507.9 321.54,-506.87 316.96,-506.03 292.54,-501.6 114.09,-505.96 99.07,-488.64 87.43,-476.94 88.84,-456.43 92.89,-440.23"/>
<polygon fill="red" stroke="red" points="94.33,-440.65 93.74,-430.07 87.6,-438.71 94.33,-440.65"/>
<text text-anchor="middle" x="155.1" y="-478.8" font-family="Times,serif" font-size="14.00" fill="red">Chantier spatial</text>
</g>
<!-- Carburant&#45;&gt;VaisseauRobuste1 -->
<g id="edge63" class="edge">
<title>Carburant&#45;&gt;VaisseauRobuste1</title>
<path fill="none" stroke="red" d="M420.57,-521.52C487.77,-518.65 618.08,-510.45 726.19,-488.04 746.4,-484.45 750.45,-478.3 773.2,-473.04 856.66,-456.32 879.27,-466.61 961.33,-455.02 1018.2,-447.2 1082.12,-435.63 1130.37,-426.32"/>
<path fill="none" stroke="orange" d="M420.66,-523.52C487.9,-520.64 618.21,-512.44 726.6,-490 748.07,-485.55 752.12,-479.4 773.6,-475 855.83,-458.14 878.44,-468.43 961.6,-457 1018.56,-449.17 1082.48,-437.6 1130.75,-428.28"/>
<path fill="none" stroke="red" d="M420.74,-525.52C488.02,-522.64 618.33,-514.44 727,-491.96 749.74,-486.65 753.79,-480.5 774,-476.96 855,-459.96 877.62,-470.25 961.87,-458.98 1018.91,-451.14 1082.84,-439.57 1131.13,-430.25"/>
<polygon fill="red" stroke="red" points="1131.65,-431.67 1140.8,-426.33 1130.32,-424.8 1131.65,-431.67"/>
<text text-anchor="middle" x="831.1" y="-478.8" font-family="Times,serif" font-size="14.00" fill="red">Chantier spatial</text>
</g>
<!-- Carburant1&#45;&gt;Carburant -->
<g id="edge25" class="edge">
<title>Carburant1&#45;&gt;Carburant</title>
<path fill="none" stroke="lightskyblue" stroke-dasharray="5,2" d="M440.64,-601.25C425.38,-595.99 409.5,-588.27 397.6,-577 390.97,-570.72 386.21,-562.09 382.86,-553.76"/>
<polygon fill="lightskyblue" stroke="lightskyblue" points="386.15,-552.57 379.54,-544.29 379.54,-554.89 386.15,-552.57"/>
<text text-anchor="middle" x="416.1" y="-565.8" font-family="Times,serif" font-size="14.00" fill="lightskyblue">Cuve</text>
</g>
<!-- Carburant2&#45;&gt;Carburant -->
<g id="edge26" class="edge">
<title>Carburant2&#45;&gt;Carburant</title>
<path fill="none" stroke="lightskyblue" stroke-dasharray="5,2" d="M297.87,-594.83C305.54,-584.71 315.94,-571.97 326.6,-562 331,-557.88 335.91,-553.84 340.86,-550.06"/>
<polygon fill="lightskyblue" stroke="lightskyblue" points="343.19,-552.69 349.18,-543.96 339.04,-547.05 343.19,-552.69"/>
<text text-anchor="middle" x="345.1" y="-565.8" font-family="Times,serif" font-size="14.00" fill="lightskyblue">Cuve</text>
</g>
<!-- Puce&#45;&gt;SatelliteFragile1 -->
<g id="edge43" class="edge">
<title>Puce&#45;&gt;SatelliteFragile1</title>
<path fill="none" stroke="orange" d="M1363.48,-523.81C1293.51,-517.11 1137.87,-501.38 1114.83,-491.85 1103.68,-485.66 1104.25,-479.58 1095.71,-476.79 1046.63,-452.49 986.59,-437.05 938.68,-427.72"/>
<path fill="none" stroke="yellow" d="M1363.67,-521.82C1293.71,-515.12 1138.07,-499.39 1115.6,-490 1105.67,-485.85 1106.24,-479.77 1096.6,-475 1047.13,-450.55 987.09,-435.11 939.06,-425.76"/>
<path fill="none" stroke="orange" d="M1363.86,-519.83C1293.92,-513.13 1138.28,-497.4 1116.37,-488.15 1107.66,-486.04 1108.24,-479.95 1097.49,-473.21 1047.63,-448.61 987.59,-433.18 939.45,-423.79"/>
<polygon fill="orange" stroke="orange" points="939.48,-422.28 929.01,-423.85 938.18,-429.15 939.48,-422.28"/>
<text text-anchor="middle" x="1140.1" y="-478.8" font-family="Times,serif" font-size="14.00" fill="orange">Atelier</text>
</g>
<!-- Puce&#45;&gt;SatelliteRobuste1 -->
<g id="edge50" class="edge">
<title>Puce&#45;&gt;SatelliteRobuste1</title>
<path fill="none" stroke="orange" d="M1431.02,-519.8C1506.75,-512.46 1685.02,-494.6 1695.6,-488.27 1714.99,-477.25 1730.09,-455.5 1739.59,-438.24"/>
<path fill="none" stroke="yellow" d="M1431.22,-521.79C1506.95,-514.45 1685.22,-496.59 1696.6,-490 1716.64,-478.39 1731.74,-456.64 1741.35,-439.21"/>
<path fill="none" stroke="orange" d="M1431.41,-523.78C1507.15,-516.44 1685.42,-498.58 1697.6,-491.73 1718.28,-479.53 1733.38,-457.78 1743.1,-440.17"/>
<polygon fill="orange" stroke="orange" points="1744.6,-440.54 1746.11,-430.06 1738.39,-437.31 1744.6,-440.54"/>
<text text-anchor="middle" x="1739.1" y="-478.8" font-family="Times,serif" font-size="14.00" fill="orange">Atelier</text>
</g>
<!-- Puce&#45;&gt;VaisseauFragile1 -->
<g id="edge58" class="edge">
<title>Puce&#45;&gt;VaisseauFragile1</title>
<path fill="none" stroke="red" d="M1364.17,-523.33C1327.01,-519.39 1264.97,-513.23 1211.48,-510 1144.61,-505.94 671.48,-512.74 606.98,-491.9 594.35,-486.25 594.67,-479.11 584.89,-476.87 518.49,-451.59 329.28,-432.75 207.96,-422.85"/>
<path fill="none" stroke="orange" d="M1364.38,-521.34C1327.21,-517.4 1265.17,-511.24 1211.6,-508 1144.58,-503.94 671.46,-510.74 607.6,-490 596.34,-486.34 596.66,-479.2 585.6,-475 518.68,-449.6 329.47,-430.76 208.12,-420.86"/>
<path fill="none" stroke="red" d="M1364.59,-519.36C1327.41,-515.41 1265.36,-509.25 1211.72,-506 1144.55,-501.94 671.43,-508.74 608.22,-488.1 598.34,-486.43 598.66,-479.29 586.31,-473.13 518.88,-447.61 329.67,-428.77 208.29,-418.87"/>
<polygon fill="red" stroke="red" points="208.3,-417.36 198.05,-420.05 207.74,-424.34 208.3,-417.36"/>
<text text-anchor="middle" x="665.1" y="-478.8" font-family="Times,serif" font-size="14.00" fill="red">Chantier spatial</text>
</g>
<!-- Puce&#45;&gt;VaisseauRobuste1 -->
<g id="edge66" class="edge">
<title>Puce&#45;&gt;VaisseauRobuste1</title>
<path fill="none" stroke="red" d="M1392.87,-508.16C1390.38,-497.69 1385.59,-484.4 1377.2,-476.43 1354,-453.44 1320.74,-438.8 1290.05,-429.77"/>
<path fill="none" stroke="orange" d="M1394.81,-507.7C1392.26,-497.01 1387.47,-483.72 1378.6,-475 1354.8,-451.61 1321.55,-436.97 1290.61,-427.85"/>
<path fill="none" stroke="red" d="M1396.76,-507.24C1394.14,-496.34 1389.36,-483.04 1380,-473.57 1355.61,-449.78 1322.35,-435.14 1291.18,-425.93"/>
<polygon fill="red" stroke="red" points="1291.24,-424.39 1280.67,-425.07 1289.36,-431.13 1291.24,-424.39"/>
<text text-anchor="middle" x="1445.1" y="-478.8" font-family="Times,serif" font-size="14.00" fill="red">Chantier spatial</text>
</g>
<!-- Puce&#45;&gt;PuceLuxe -->
<!-- Puce&#45;&gt;PuceLuxe -->
<g id="edge38" class="edge">
<title>Puce&#45;&gt;PuceLuxe</title>
<path fill="none" stroke="green" d="M1431.52,-521.84C1521.38,-513.46 1759.32,-491.23 1767.6,-490 1800.79,-485.08 1808.61,-481.14 1841.6,-475 1888.58,-466.25 1903.67,-475.81 1947.6,-457 1949.21,-456.31 1950.83,-455.56 1952.43,-454.78"/>
<polygon fill="green" stroke="green" points="1954.41,-457.68 1961.51,-449.82 1951.05,-451.54 1954.41,-457.68"/>
<text text-anchor="middle" x="1873.6" y="-478.8" font-family="Times,serif" font-size="14.00" fill="green">Fabrique</text>
</g>
<!-- SatelliteFragile1&#45;&gt;SatelliteFragile2 -->
<!-- SatelliteFragile1&#45;&gt;SatelliteFragile2 -->
<g id="edge44" class="edge">
<title>SatelliteFragile1&#45;&gt;SatelliteFragile2</title>
<path fill="none" stroke="orange" d="M835.71,-395.09C822.92,-379.42 808.85,-356.01 816.73,-333.28 818.11,-329.74 819.81,-326.51 821.87,-323.29"/>
<path fill="none" stroke="yellow" d="M837.26,-393.83C824.64,-378.39 810.57,-354.98 818.6,-334 819.87,-330.67 821.58,-327.45 823.55,-324.37"/>
<path fill="none" stroke="orange" d="M838.81,-392.56C826.35,-377.36 812.28,-353.95 820.47,-334.72 821.64,-331.61 823.35,-328.38 825.24,-325.45"/>
<polygon fill="orange" stroke="orange" points="826.51,-326.26 829.69,-316.15 820.9,-322.07 826.51,-326.26"/>
<text text-anchor="middle" x="843.1" y="-337.8" font-family="Times,serif" font-size="14.00" fill="orange">Atelier</text>
</g>
<!-- SatelliteRobuste1&#45;&gt;SatelliteRobuste2 -->
<!-- SatelliteRobuste1&#45;&gt;SatelliteRobuste2 -->
<g id="edge51" class="edge">
<title>SatelliteRobuste1&#45;&gt;SatelliteRobuste2</title>
<path fill="none" stroke="orange" d="M1734.57,-395.14C1723.98,-383.45 1711.64,-367.27 1705.7,-349.63 1703.03,-340.84 1704.39,-332.55 1707.57,-324.46"/>
<path fill="none" stroke="yellow" d="M1736.05,-393.8C1725.57,-382.24 1713.23,-366.05 1707.6,-349 1705.01,-341.16 1706.36,-332.87 1709.42,-325.2"/>
<path fill="none" stroke="orange" d="M1737.54,-392.45C1727.16,-381.03 1714.83,-364.84 1709.5,-348.37 1706.98,-341.48 1708.34,-333.19 1711.28,-325.94"/>
<polygon fill="orange" stroke="orange" points="1712.57,-326.75 1713.86,-316.23 1706.29,-323.65 1712.57,-326.75"/>
<text text-anchor="middle" x="1732.1" y="-337.8" font-family="Times,serif" font-size="14.00" fill="orange">Atelier</text>
</g>
<!-- VaisseauFragile1&#45;&gt;VaisseauFragile2 -->
<!-- VaisseauFragile1&#45;&gt;VaisseauFragile2 -->
<g id="edge59" class="edge">
<title>VaisseauFragile1&#45;&gt;VaisseauFragile2</title>
<path fill="none" stroke="red" d="M95.44,-394C93.31,-377.25 92.64,-352.16 103.89,-332.96 106.79,-328.23 110.22,-324.19 114.25,-320.41"/>
<path fill="none" stroke="orange" d="M97.42,-393.75C95.31,-377.2 94.64,-352.11 105.6,-334 108.31,-329.52 111.75,-325.49 115.62,-321.87"/>
<path fill="none" stroke="red" d="M99.4,-393.5C97.3,-377.14 96.64,-352.06 107.31,-335.04 109.83,-330.82 113.27,-326.79 116.98,-323.33"/>
<polygon fill="red" stroke="red" points="117.99,-324.46 123.51,-315.42 113.56,-319.04 117.99,-324.46"/>
<text text-anchor="middle" x="163.1" y="-337.8" font-family="Times,serif" font-size="14.00" fill="red">Chantier spatial</text>
</g>
<!-- VaisseauRobuste1&#45;&gt;VaisseauRobuste2 -->
<!-- VaisseauRobuste1&#45;&gt;VaisseauRobuste2 -->
<g id="edge67" class="edge">
<title>VaisseauRobuste1&#45;&gt;VaisseauRobuste2</title>
<path fill="none" stroke="red" d="M1191.34,-395.04C1179.89,-378.36 1167.48,-353.36 1179.94,-332.89 1184.64,-325.94 1190.4,-320.45 1197.14,-315.7"/>
<path fill="none" stroke="orange" d="M1192.99,-393.91C1181.68,-377.47 1169.27,-352.47 1181.6,-334 1186.01,-327.39 1191.78,-321.9 1198.29,-317.33"/>
<path fill="none" stroke="red" d="M1194.64,-392.77C1183.47,-376.58 1171.06,-351.58 1183.26,-335.11 1187.39,-328.84 1193.16,-323.34 1199.44,-318.97"/>
<polygon fill="red" stroke="red" points="1200.21,-320.26 1206.88,-312.04 1196.53,-314.3 1200.21,-320.26"/>
<text text-anchor="middle" x="1239.1" y="-337.8" font-family="Times,serif" font-size="14.00" fill="red">Chantier spatial</text>
</g>
<!-- SatelliteFragile2&#45;&gt;SatelliteFragile3 -->
<!-- SatelliteFragile2&#45;&gt;SatelliteFragile3 -->
<g id="edge46" class="edge">
<title>SatelliteFragile2&#45;&gt;SatelliteFragile3</title>
<path fill="none" stroke="orange" d="M858.87,-271.31C862.95,-259.29 868.18,-243.92 872.87,-230.16"/>
<path fill="none" stroke="yellow" d="M860.76,-271.95C864.85,-259.94 870.08,-244.57 874.76,-230.8"/>
<path fill="none" stroke="orange" d="M862.65,-272.6C866.74,-260.58 871.97,-245.21 876.65,-231.45"/>
<polygon fill="orange" stroke="orange" points="878.14,-231.73 878.05,-221.13 871.51,-229.47 878.14,-231.73"/>
<text text-anchor="middle" x="896.1" y="-242.8" font-family="Times,serif" font-size="14.00" fill="orange">Atelier</text>
</g>
<!-- SatelliteRobuste2&#45;&gt;SatelliteRobuste3 -->
<!-- SatelliteRobuste2&#45;&gt;SatelliteRobuste3 -->
<g id="edge53" class="edge">
<title>SatelliteRobuste2&#45;&gt;SatelliteRobuste3</title>
<path fill="none" stroke="orange" d="M1722.42,-272.19C1720.52,-261.42 1720.2,-248.94 1725.84,-238.04 1728.41,-233.39 1731.47,-229.38 1735.11,-225.57"/>
<path fill="none" stroke="yellow" d="M1724.38,-271.84C1722.52,-261.37 1722.2,-248.89 1727.6,-239 1730,-234.61 1733.06,-230.6 1736.55,-226.95"/>
<path fill="none" stroke="orange" d="M1726.35,-271.49C1724.52,-261.32 1724.2,-248.84 1729.35,-239.96 1731.59,-235.82 1734.65,-231.81 1738,-228.33"/>
<polygon fill="orange" stroke="orange" points="1739.19,-229.28 1744.24,-219.96 1734.48,-224.1 1739.19,-229.28"/>
<text text-anchor="middle" x="1752.1" y="-242.8" font-family="Times,serif" font-size="14.00" fill="orange">Atelier</text>
</g>
<!-- VaisseauFragile2&#45;&gt;VaisseauFragile3 -->
<!-- VaisseauFragile2&#45;&gt;VaisseauFragile3 -->
<g id="edge61" class="edge">
<title>VaisseauFragile2&#45;&gt;VaisseauFragile3</title>
<path fill="none" stroke="red" d="M174.87,-271.31C178.95,-259.29 184.18,-243.92 188.87,-230.16"/>
<path fill="none" stroke="orange" d="M176.76,-271.95C180.85,-259.94 186.08,-244.57 190.76,-230.8"/>
<path fill="none" stroke="red" d="M178.65,-272.6C182.74,-260.58 187.97,-245.21 192.65,-231.45"/>
<polygon fill="red" stroke="red" points="194.14,-231.73 194.05,-221.13 187.51,-229.47 194.14,-231.73"/>
<text text-anchor="middle" x="245.1" y="-242.8" font-family="Times,serif" font-size="14.00" fill="red">Chantier spatial</text>
</g>
<!-- VaisseauRobuste2&#45;&gt;VaisseauRobuste3 -->
<!-- VaisseauRobuste2&#45;&gt;VaisseauRobuste3 -->
<g id="edge69" class="edge">
<title>VaisseauRobuste2&#45;&gt;VaisseauRobuste3</title>
<path fill="none" stroke="red" d="M1266.34,-272.24C1263.96,-261.03 1263.54,-248.2 1271.02,-237.78 1279.79,-226.9 1301.51,-218.65 1326.91,-212.14"/>
<path fill="none" stroke="orange" d="M1268.29,-271.82C1265.95,-260.96 1265.54,-248.14 1272.6,-239 1280.5,-228.77 1302.22,-220.52 1327.41,-214.08"/>
<path fill="none" stroke="red" d="M1270.25,-271.4C1267.95,-260.9 1267.54,-248.07 1274.18,-240.22 1281.22,-230.64 1302.93,-222.39 1327.9,-216.02"/>
<polygon fill="red" stroke="red" points="1328.31,-217.46 1337.21,-211.7 1326.66,-210.66 1328.31,-217.46"/>
<text text-anchor="middle" x="1330.1" y="-242.8" font-family="Times,serif" font-size="14.00" fill="red">Chantier spatial</text>
</g>
<!-- VaisseauLuxe -->
<g id="node48" class="node">
<title>VaisseauLuxe</title>
<polygon fill="lightgrey" stroke="black" points="1853.6,-118 1735.6,-118 1735.6,0 1853.6,0 1853.6,-118"/>
<polyline fill="none" stroke="black" points="1747.6,-118 1735.6,-106 "/>
<polyline fill="none" stroke="black" points="1735.6,-12 1747.6,0 "/>
<polyline fill="none" stroke="black" points="1841.6,0 1853.6,-12 "/>
<polyline fill="none" stroke="black" points="1853.6,-106 1841.6,-118 "/>
<text text-anchor="middle" x="1794.6" y="-55.3" font-family="Times,serif" font-size="14.00">Vaisseau Luxe</text>
</g>
<!-- SatelliteRobuste3&#45;&gt;VaisseauLuxe -->
<g id="edge72" class="edge">
<title>SatelliteRobuste3&#45;&gt;VaisseauLuxe</title>
<path fill="none" stroke="red" d="M1792.6,-168.8C1792.6,-157.15 1792.6,-142.71 1792.6,-128.19"/>
<path fill="none" stroke="orange" d="M1794.6,-168.8C1794.6,-157.15 1794.6,-142.71 1794.6,-128.19"/>
<path fill="none" stroke="red" d="M1796.6,-168.8C1796.6,-157.15 1796.6,-142.71 1796.6,-128.19"/>
<polygon fill="red" stroke="red" points="1798.1,-128.16 1794.6,-118.16 1791.1,-128.16 1798.1,-128.16"/>
<text text-anchor="middle" x="1852.1" y="-139.8" font-family="Times,serif" font-size="14.00" fill="red">Chantier spatial</text>
</g>
<!-- VaisseauRobuste3&#45;&gt;VaisseauLuxe -->
<g id="edge71" class="edge">
<title>VaisseauRobuste3&#45;&gt;VaisseauLuxe</title>
<path fill="none" stroke="red" d="M1497.05,-169.55C1560.12,-145.87 1659.07,-108.73 1725.18,-83.92"/>
<path fill="none" stroke="orange" d="M1497.76,-171.42C1560.83,-147.75 1659.77,-110.61 1725.88,-85.79"/>
<path fill="none" stroke="red" d="M1498.46,-173.29C1561.53,-149.62 1660.48,-112.48 1726.58,-87.67"/>
<polygon fill="red" stroke="red" points="1727.25,-89.02 1735.39,-82.23 1724.79,-82.46 1727.25,-89.02"/>
<text text-anchor="middle" x="1641.1" y="-139.8" font-family="Times,serif" font-size="14.00" fill="red">Chantier spatial</text>
</g>
<!-- PuceLuxe&#45;&gt;VaisseauLuxe -->
<g id="edge73" class="edge">
<title>PuceLuxe&#45;&gt;VaisseauLuxe</title>
<path fill="none" stroke="red" d="M1998.92,-367.01C1989.52,-308.9 1966.02,-205.89 1912.02,-137.23 1898.74,-120.17 1879.94,-105.59 1861.47,-94.13"/>
<path fill="none" stroke="orange" d="M2000.89,-366.69C1991.47,-308.45 1967.97,-205.44 1913.6,-136 1899.97,-118.59 1881.16,-104.01 1862.53,-92.43"/>
<path fill="none" stroke="red" d="M2002.86,-366.37C1993.42,-308.01 1969.92,-205 1915.17,-134.77 1901.19,-117.01 1882.39,-102.43 1863.58,-90.73"/>
<polygon fill="red" stroke="red" points="1864.09,-89.28 1853.71,-87.16 1860.49,-95.29 1864.09,-89.28"/>
<text text-anchor="middle" x="2030.1" y="-242.8" font-family="Times,serif" font-size="14.00" fill="red">Chantier spatial</text>
</g>
</g>
</svg>
