<?xml version="1.0" encoding="UTF-8" standalone="no"?>
<!DOCTYPE svg PUBLIC "-//W3C//DTD SVG 1.1//EN"
 "http://www.w3.org/Graphics/SVG/1.1/DTD/svg11.dtd">
<!-- Generated by graphviz version 2.43.0 (0)
 -->
<!-- Title: %3 Pages: 1 -->
<svg width="2457pt" height="2457pt"
 viewBox="0.00 0.00 2457.00 2457.11" xmlns="http://www.w3.org/2000/svg" xmlns:xlink="http://www.w3.org/1999/xlink">
<g id="graph0" class="graph" transform="scale(1 1) rotate(0) translate(4 2453.11)">
<title>%3</title>
<polygon fill="white" stroke="transparent" points="-4,4 -4,-2453.11 2453,-2453.11 2453,4 -4,4"/>
<g id="clust1" class="cluster">
<title>cluster_SOL</title>
<polygon fill="none" stroke="black" points="656,-2205.9 656,-2429.85 1811,-2429.85 1811,-2205.9 656,-2205.9"/>
<text text-anchor="middle" x="1233.5" y="-2401.85" font-family="Times,serif" font-size="30.00">Type de Sol</text>
</g>
<g id="clust2" class="cluster">
<title>cluster_MATIERE_PREMIERE</title>
<polygon fill="none" stroke="black" points="639,-2030.11 639,-2155.33 1968,-2155.33 1968,-2030.11 639,-2030.11"/>
</g>
<g id="clust3" class="cluster">
<title>cluster_LINGOT</title>
<polygon fill="none" stroke="black" points="810,-1772.44 810,-1897.66 1673,-1897.66 1673,-1772.44 810,-1772.44"/>
</g>
<g id="clust4" class="cluster">
<title>cluster_CUVE_CRAFT</title>
<polygon fill="none" stroke="black" points="8,-1343.7 8,-1984.35 692,-1984.35 692,-1343.7 8,-1343.7"/>
<text text-anchor="middle" x="350" y="-1960.35" font-family="Times,serif" font-size="25.00">Cuve</text>
</g>
<g id="clust13" class="cluster">
<title>cluster_VAISSEAU</title>
<polygon fill="none" stroke="black" points="629,-349.17 629,-1141.42 1131,-1141.42 1131,-349.17 629,-349.17"/>
<text text-anchor="middle" x="880" y="-361.17" font-family="Times,serif" font-size="25.00">Vaisseau</text>
</g>
<g id="clust14" class="cluster">
<title>cluster_VaisseauFragile</title>
<polygon fill="none" stroke="black" points="637,-455.12 637,-1122.16 871,-1122.16 871,-455.12 637,-455.12"/>
<text text-anchor="middle" x="754" y="-467.12" font-family="Times,serif" font-size="25.00">VaisseauFragile</text>
</g>
<g id="clust15" class="cluster">
<title>cluster_VaisseauRobuste</title>
<polygon fill="none" stroke="black" points="879,-455.12 879,-1122.16 1123,-1122.16 1123,-455.12 879,-455.12"/>
<text text-anchor="middle" x="1001" y="-467.12" font-family="Times,serif" font-size="25.00">VaisseauRobuste</text>
</g>
<g id="clust16" class="cluster">
<title>cluster_SATELLITE</title>
<polygon fill="none" stroke="black" points="1273,-349.17 1273,-1141.42 1769,-1141.42 1769,-349.17 1273,-349.17"/>
<text text-anchor="middle" x="1521" y="-361.17" font-family="Times,serif" font-size="25.00">Satellite</text>
</g>
<g id="clust17" class="cluster">
<title>cluster_SatelliteFragile</title>
<polygon fill="none" stroke="black" points="1531,-455.12 1531,-1122.16 1761,-1122.16 1761,-455.12 1531,-455.12"/>
<text text-anchor="middle" x="1646" y="-467.12" font-family="Times,serif" font-size="25.00">SatelliteFragile</text>
</g>
<g id="clust18" class="cluster">
<title>cluster_SatelliteRobuste</title>
<polygon fill="none" stroke="black" points="1281,-455.12 1281,-1122.16 1523,-1122.16 1523,-455.12 1281,-455.12"/>
<text text-anchor="middle" x="1402" y="-467.12" font-family="Times,serif" font-size="25.00">SatelliteRobuste</text>
</g>
<g id="clust19" class="cluster">
<title>cluster_LEGEND</title>
<polygon fill="none" stroke="black" points="1819,-2244.91 1819,-2390.83 2441,-2390.83 2441,-2244.91 1819,-2244.91"/>
<text text-anchor="middle" x="2130" y="-2362.83" font-family="Times,serif" font-size="30.00">Legend</text>
</g>
<!-- Vierge -->
<g id="node1" class="node">
<title>Vierge</title>
<text text-anchor="middle" x="866" y="-2265.3" font-family="Times,serif" font-size="14.00">Vierge</text>
</g>
<!-- PoussiereRegolite -->
<g id="node10" class="node">
<title>PoussiereRegolite</title>
<polygon fill="lightgrey" stroke="black" points="759.56,-2075.05 765.88,-2075.15 772.14,-2075.3 778.31,-2075.49 784.37,-2075.74 790.28,-2076.03 796.03,-2076.36 801.59,-2076.75 806.95,-2077.18 812.08,-2077.65 816.97,-2078.16 821.59,-2078.71 825.93,-2079.31 829.99,-2079.94 833.73,-2080.61 837.17,-2081.31 840.28,-2082.04 843.07,-2082.8 845.51,-2083.59 847.63,-2084.41 849.4,-2085.25 850.84,-2086.11 851.94,-2086.99 852.7,-2087.89 853.14,-2088.8 853.26,-2089.72 853.06,-2090.65 852.57,-2091.59 851.77,-2092.53 850.69,-2093.47 849.35,-2094.41 847.74,-2095.35 845.88,-2096.28 843.8,-2097.2 841.49,-2098.11 838.98,-2099.01 836.28,-2099.89 833.4,-2100.75 830.36,-2101.59 827.18,-2102.41 823.85,-2103.2 820.4,-2103.96 816.84,-2104.69 813.18,-2105.39 809.43,-2106.06 805.6,-2106.69 801.71,-2107.29 797.75,-2107.84 793.74,-2108.35 789.69,-2108.82 785.6,-2109.25 781.48,-2109.64 777.33,-2109.97 773.16,-2110.26 768.97,-2110.51 764.77,-2110.7 760.55,-2110.85 756.34,-2110.95 752.11,-2111 747.89,-2111 743.66,-2110.95 739.45,-2110.85 735.23,-2110.7 731.03,-2110.51 726.84,-2110.26 722.67,-2109.97 718.52,-2109.64 714.4,-2109.25 710.31,-2108.82 706.26,-2108.35 702.25,-2107.84 698.29,-2107.29 694.4,-2106.69 690.57,-2106.06 686.82,-2105.39 683.16,-2104.69 679.6,-2103.96 676.15,-2103.2 672.82,-2102.41 669.64,-2101.59 666.6,-2100.75 663.72,-2099.89 661.02,-2099.01 658.51,-2098.11 656.2,-2097.2 654.12,-2096.28 652.26,-2095.35 650.65,-2094.41 649.31,-2093.47 648.23,-2092.53 647.43,-2091.59 646.94,-2090.65 646.74,-2089.72 646.86,-2088.8 647.3,-2087.89 648.06,-2086.99 649.16,-2086.11 650.6,-2085.25 652.37,-2084.41 654.49,-2083.59 656.93,-2082.8 659.72,-2082.04 662.83,-2081.31 666.27,-2080.61 670.01,-2079.94 674.07,-2079.31 678.41,-2078.71 683.03,-2078.16 687.92,-2077.65 693.05,-2077.18 698.41,-2076.75 703.97,-2076.36 709.72,-2076.03 715.63,-2075.74 721.69,-2075.49 727.86,-2075.3 734.12,-2075.15 740.44,-2075.05 746.81,-2075 753.19,-2075 759.56,-2075.05"/>
<text text-anchor="middle" x="750" y="-2089.3" font-family="Times,serif" font-size="14.00">Poussiere Regolite</text>
</g>
<!-- Vierge&#45;&gt;PoussiereRegolite -->
<g id="edge3" class="edge">
<title>Vierge&#45;&gt;PoussiereRegolite</title>
<path fill="none" stroke="black" d="M854.67,-2251C834.22,-2220.33 791.07,-2155.61 767.05,-2119.57"/>
<polygon fill="black" stroke="black" points="769.84,-2117.45 761.38,-2111.07 764.01,-2121.33 769.84,-2117.45"/>
</g>
<!-- GisementGlace -->
<g id="node2" class="node">
<title>GisementGlace</title>
<polygon fill="lightgrey" stroke="transparent" points="1044.5,-2287 915.5,-2287 915.5,-2251 1044.5,-2251 1044.5,-2287"/>
<text text-anchor="middle" x="980" y="-2265.3" font-family="Times,serif" font-size="14.00">Gisement Glace</text>
</g>
<!-- MineraiGlace -->
<g id="node11" class="node">
<title>MineraiGlace</title>
<polygon fill="lightgrey" stroke="black" points="958.41,-2075.05 963.32,-2075.15 968.17,-2075.3 972.96,-2075.49 977.65,-2075.74 982.24,-2076.03 986.7,-2076.36 991.01,-2076.75 995.17,-2077.18 999.15,-2077.65 1002.93,-2078.16 1006.52,-2078.71 1009.89,-2079.31 1013.03,-2079.94 1015.94,-2080.61 1018.6,-2081.31 1021.01,-2082.04 1023.17,-2082.8 1025.07,-2083.59 1026.71,-2084.41 1028.09,-2085.25 1029.2,-2086.11 1030.05,-2086.99 1030.65,-2087.89 1030.99,-2088.8 1031.08,-2089.72 1030.93,-2090.65 1030.54,-2091.59 1029.92,-2092.53 1029.09,-2093.47 1028.04,-2094.41 1026.8,-2095.35 1025.36,-2096.28 1023.74,-2097.2 1021.95,-2098.11 1020.01,-2099.01 1017.91,-2099.89 1015.68,-2100.75 1013.32,-2101.59 1010.85,-2102.41 1008.27,-2103.2 1005.6,-2103.96 1002.83,-2104.69 1000,-2105.39 997.09,-2106.06 994.12,-2106.69 991.1,-2107.29 988.03,-2107.84 984.92,-2108.35 981.78,-2108.82 978.61,-2109.25 975.41,-2109.64 972.19,-2109.97 968.96,-2110.26 965.71,-2110.51 962.45,-2110.7 959.19,-2110.85 955.91,-2110.95 952.64,-2111 949.36,-2111 946.09,-2110.95 942.81,-2110.85 939.55,-2110.7 936.29,-2110.51 933.04,-2110.26 929.81,-2109.97 926.59,-2109.64 923.39,-2109.25 920.22,-2108.82 917.08,-2108.35 913.97,-2107.84 910.9,-2107.29 907.88,-2106.69 904.91,-2106.06 902,-2105.39 899.17,-2104.69 896.4,-2103.96 893.73,-2103.2 891.15,-2102.41 888.68,-2101.59 886.32,-2100.75 884.09,-2099.89 881.99,-2099.01 880.05,-2098.11 878.26,-2097.2 876.64,-2096.28 875.2,-2095.35 873.96,-2094.41 872.91,-2093.47 872.08,-2092.53 871.46,-2091.59 871.07,-2090.65 870.92,-2089.72 871.01,-2088.8 871.35,-2087.89 871.95,-2086.99 872.8,-2086.11 873.91,-2085.25 875.29,-2084.41 876.93,-2083.59 878.83,-2082.8 880.99,-2082.04 883.4,-2081.31 886.06,-2080.61 888.97,-2079.94 892.11,-2079.31 895.48,-2078.71 899.07,-2078.16 902.85,-2077.65 906.83,-2077.18 910.99,-2076.75 915.3,-2076.36 919.76,-2076.03 924.35,-2075.74 929.04,-2075.49 933.83,-2075.3 938.68,-2075.15 943.59,-2075.05 948.53,-2075 953.47,-2075 958.41,-2075.05"/>
<text text-anchor="middle" x="951" y="-2089.3" font-family="Times,serif" font-size="14.00">Minerai Glace</text>
</g>
<!-- GisementGlace&#45;&gt;MineraiGlace -->
<g id="edge4" class="edge">
<title>GisementGlace&#45;&gt;MineraiGlace</title>
<path fill="none" stroke="grey" stroke-dasharray="1,5" d="M977.17,-2251C972.12,-2220.72 961.54,-2157.25 955.49,-2120.96"/>
<polygon fill="grey" stroke="grey" points="958.94,-2120.36 953.84,-2111.07 952.04,-2121.51 958.94,-2120.36"/>
<g id="a_edge4&#45;headlabel"><a xlink:title="GisementGlace">
<text text-anchor="middle" x="965.16" y="-2121.56" font-family="Times,serif" font-size="25.00">1</text>
</a>
</g>
</g>
<!-- GisementOr -->
<g id="node3" class="node">
<title>GisementOr</title>
<polygon fill="lightgrey" stroke="transparent" points="1803.5,-2287 1696.5,-2287 1696.5,-2251 1803.5,-2251 1803.5,-2287"/>
<text text-anchor="middle" x="1750" y="-2265.3" font-family="Times,serif" font-size="14.00">Gisement Or</text>
</g>
<!-- MineraiOr -->
<g id="node15" class="node">
<title>MineraiOr</title>
<polygon fill="lightgrey" stroke="black" points="1900.06,-2075.05 1904.08,-2075.15 1908.05,-2075.3 1911.96,-2075.49 1915.8,-2075.74 1919.55,-2076.03 1923.2,-2076.36 1926.73,-2076.75 1930.13,-2077.18 1933.39,-2077.65 1936.48,-2078.16 1939.42,-2078.71 1942.17,-2079.31 1944.74,-2079.94 1947.12,-2080.61 1949.3,-2081.31 1951.28,-2082.04 1953.04,-2082.8 1954.6,-2083.59 1955.94,-2084.41 1957.06,-2085.25 1957.97,-2086.11 1958.67,-2086.99 1959.16,-2087.89 1959.43,-2088.8 1959.51,-2089.72 1959.39,-2090.65 1959.07,-2091.59 1958.56,-2092.53 1957.88,-2093.47 1957.03,-2094.41 1956.01,-2095.35 1954.83,-2096.28 1953.51,-2097.2 1952.04,-2098.11 1950.45,-2099.01 1948.74,-2099.89 1946.91,-2100.75 1944.98,-2101.59 1942.96,-2102.41 1940.85,-2103.2 1938.66,-2103.96 1936.4,-2104.69 1934.08,-2105.39 1931.7,-2106.06 1929.28,-2106.69 1926.8,-2107.29 1924.29,-2107.84 1921.75,-2108.35 1919.18,-2108.82 1916.58,-2109.25 1913.97,-2109.64 1911.34,-2109.97 1908.69,-2110.26 1906.03,-2110.51 1903.37,-2110.7 1900.7,-2110.85 1898.02,-2110.95 1895.34,-2111 1892.66,-2111 1889.98,-2110.95 1887.3,-2110.85 1884.63,-2110.7 1881.97,-2110.51 1879.31,-2110.26 1876.66,-2109.97 1874.03,-2109.64 1871.42,-2109.25 1868.82,-2108.82 1866.25,-2108.35 1863.71,-2107.84 1861.2,-2107.29 1858.72,-2106.69 1856.3,-2106.06 1853.92,-2105.39 1851.6,-2104.69 1849.34,-2103.96 1847.15,-2103.2 1845.04,-2102.41 1843.02,-2101.59 1841.09,-2100.75 1839.26,-2099.89 1837.55,-2099.01 1835.96,-2098.11 1834.49,-2097.2 1833.17,-2096.28 1831.99,-2095.35 1830.97,-2094.41 1830.12,-2093.47 1829.44,-2092.53 1828.93,-2091.59 1828.61,-2090.65 1828.49,-2089.72 1828.57,-2088.8 1828.84,-2087.89 1829.33,-2086.99 1830.03,-2086.11 1830.94,-2085.25 1832.06,-2084.41 1833.4,-2083.59 1834.96,-2082.8 1836.72,-2082.04 1838.7,-2081.31 1840.88,-2080.61 1843.26,-2079.94 1845.83,-2079.31 1848.58,-2078.71 1851.52,-2078.16 1854.61,-2077.65 1857.87,-2077.18 1861.27,-2076.75 1864.8,-2076.36 1868.45,-2076.03 1872.2,-2075.74 1876.04,-2075.49 1879.95,-2075.3 1883.92,-2075.15 1887.94,-2075.05 1891.98,-2075 1896.02,-2075 1900.06,-2075.05"/>
<text text-anchor="middle" x="1894" y="-2089.3" font-family="Times,serif" font-size="14.00">Minerai Or</text>
</g>
<!-- GisementOr&#45;&gt;MineraiOr -->
<g id="edge5" class="edge">
<title>GisementOr&#45;&gt;MineraiOr</title>
<path fill="none" stroke="grey" stroke-dasharray="1,5" d="M1764.07,-2251C1789.69,-2220.05 1844.03,-2154.39 1873.67,-2118.57"/>
<polygon fill="grey" stroke="grey" points="1876.62,-2120.49 1880.3,-2110.56 1871.22,-2116.03 1876.62,-2120.49"/>
<g id="a_edge5&#45;headlabel"><a xlink:title="GisementOr">
<text text-anchor="middle" x="1875.25" y="-2123.91" font-family="Times,serif" font-size="25.00">1</text>
</a>
</g>
</g>
<!-- GisementFer -->
<g id="node4" class="node">
<title>GisementFer</title>
<polygon fill="lightgrey" stroke="transparent" points="1175.5,-2287 1062.5,-2287 1062.5,-2251 1175.5,-2251 1175.5,-2287"/>
<text text-anchor="middle" x="1119" y="-2265.3" font-family="Times,serif" font-size="14.00">Gisement Fer</text>
</g>
<!-- MineraiFer -->
<g id="node14" class="node">
<title>MineraiFer</title>
<polygon fill="lightgrey" stroke="black" points="1125.46,-2075.05 1129.74,-2075.15 1133.97,-2075.3 1138.14,-2075.49 1142.24,-2075.74 1146.23,-2076.03 1150.12,-2076.36 1153.88,-2076.75 1157.51,-2077.18 1160.97,-2077.65 1164.28,-2078.16 1167.4,-2078.71 1170.34,-2079.31 1173.08,-2079.94 1175.61,-2080.61 1177.94,-2081.31 1180.04,-2082.04 1181.92,-2082.8 1183.58,-2083.59 1185.01,-2084.41 1186.2,-2085.25 1187.18,-2086.11 1187.92,-2086.99 1188.44,-2087.89 1188.73,-2088.8 1188.81,-2089.72 1188.68,-2090.65 1188.34,-2091.59 1187.81,-2092.53 1187.08,-2093.47 1186.17,-2094.41 1185.08,-2095.35 1183.83,-2096.28 1182.42,-2097.2 1180.86,-2098.11 1179.16,-2099.01 1177.33,-2099.89 1175.39,-2100.75 1173.33,-2101.59 1171.18,-2102.41 1168.93,-2103.2 1166.6,-2103.96 1164.19,-2104.69 1161.72,-2105.39 1159.18,-2106.06 1156.59,-2106.69 1153.96,-2107.29 1151.28,-2107.84 1148.57,-2108.35 1145.83,-2108.82 1143.07,-2109.25 1140.28,-2109.64 1137.48,-2109.97 1134.66,-2110.26 1131.82,-2110.51 1128.98,-2110.7 1126.14,-2110.85 1123.28,-2110.95 1120.43,-2111 1117.57,-2111 1114.72,-2110.95 1111.86,-2110.85 1109.02,-2110.7 1106.18,-2110.51 1103.34,-2110.26 1100.52,-2109.97 1097.72,-2109.64 1094.93,-2109.25 1092.17,-2108.82 1089.43,-2108.35 1086.72,-2107.84 1084.04,-2107.29 1081.41,-2106.69 1078.82,-2106.06 1076.28,-2105.39 1073.81,-2104.69 1071.4,-2103.96 1069.07,-2103.2 1066.82,-2102.41 1064.67,-2101.59 1062.61,-2100.75 1060.67,-2099.89 1058.84,-2099.01 1057.14,-2098.11 1055.58,-2097.2 1054.17,-2096.28 1052.92,-2095.35 1051.83,-2094.41 1050.92,-2093.47 1050.19,-2092.53 1049.66,-2091.59 1049.32,-2090.65 1049.19,-2089.72 1049.27,-2088.8 1049.56,-2087.89 1050.08,-2086.99 1050.82,-2086.11 1051.8,-2085.25 1052.99,-2084.41 1054.42,-2083.59 1056.08,-2082.8 1057.96,-2082.04 1060.06,-2081.31 1062.39,-2080.61 1064.92,-2079.94 1067.66,-2079.31 1070.6,-2078.71 1073.72,-2078.16 1077.03,-2077.65 1080.49,-2077.18 1084.12,-2076.75 1087.88,-2076.36 1091.77,-2076.03 1095.76,-2075.74 1099.86,-2075.49 1104.03,-2075.3 1108.26,-2075.15 1112.54,-2075.05 1116.84,-2075 1121.16,-2075 1125.46,-2075.05"/>
<text text-anchor="middle" x="1119" y="-2089.3" font-family="Times,serif" font-size="14.00">Minerai Fer</text>
</g>
<!-- GisementFer&#45;&gt;MineraiFer -->
<g id="edge6" class="edge">
<title>GisementFer&#45;&gt;MineraiFer</title>
<path fill="none" stroke="grey" stroke-dasharray="1,5" d="M1119,-2251C1119,-2220.85 1119,-2157.79 1119,-2121.43"/>
<polygon fill="grey" stroke="grey" points="1122.5,-2121.07 1119,-2111.07 1115.5,-2121.07 1122.5,-2121.07"/>
<g id="a_edge6&#45;headlabel"><a xlink:title="GisementFer">
<text text-anchor="middle" x="1127.45" y="-2123.2" font-family="Times,serif" font-size="25.00">1</text>
</a>
</g>
</g>
<!-- GisementTitane -->
<g id="node5" class="node">
<title>GisementTitane</title>
<polygon fill="lightgrey" stroke="transparent" points="1328,-2287 1194,-2287 1194,-2251 1328,-2251 1328,-2287"/>
<text text-anchor="middle" x="1261" y="-2265.3" font-family="Times,serif" font-size="14.00">Gisement Titane</text>
</g>
<!-- MineraiTitane -->
<g id="node12" class="node">
<title>MineraiTitane</title>
<polygon fill="lightgrey" stroke="black" points="1502.81,-2075.05 1507.98,-2075.15 1513.1,-2075.3 1518.14,-2075.49 1523.08,-2075.74 1527.92,-2076.03 1532.62,-2076.36 1537.16,-2076.75 1541.54,-2077.18 1545.73,-2077.65 1549.73,-2078.16 1553.5,-2078.71 1557.05,-2079.31 1560.36,-2079.94 1563.43,-2080.61 1566.23,-2081.31 1568.78,-2082.04 1571.05,-2082.8 1573.05,-2083.59 1574.78,-2084.41 1576.23,-2085.25 1577.4,-2086.11 1578.3,-2086.99 1578.93,-2087.89 1579.29,-2088.8 1579.38,-2089.72 1579.22,-2090.65 1578.82,-2091.59 1578.17,-2092.53 1577.29,-2093.47 1576.19,-2094.41 1574.87,-2095.35 1573.36,-2096.28 1571.65,-2097.2 1569.77,-2098.11 1567.72,-2099.01 1565.51,-2099.89 1563.16,-2100.75 1560.67,-2101.59 1558.07,-2102.41 1555.35,-2103.2 1552.53,-2103.96 1549.62,-2104.69 1546.63,-2105.39 1543.57,-2106.06 1540.44,-2106.69 1537.25,-2107.29 1534.02,-2107.84 1530.75,-2108.35 1527.43,-2108.82 1524.09,-2109.25 1520.72,-2109.64 1517.33,-2109.97 1513.92,-2110.26 1510.5,-2110.51 1507.07,-2110.7 1503.63,-2110.85 1500.18,-2110.95 1496.73,-2111 1493.27,-2111 1489.82,-2110.95 1486.37,-2110.85 1482.93,-2110.7 1479.5,-2110.51 1476.08,-2110.26 1472.67,-2109.97 1469.28,-2109.64 1465.91,-2109.25 1462.57,-2108.82 1459.25,-2108.35 1455.98,-2107.84 1452.75,-2107.29 1449.56,-2106.69 1446.43,-2106.06 1443.37,-2105.39 1440.38,-2104.69 1437.47,-2103.96 1434.65,-2103.2 1431.93,-2102.41 1429.33,-2101.59 1426.84,-2100.75 1424.49,-2099.89 1422.28,-2099.01 1420.23,-2098.11 1418.35,-2097.2 1416.64,-2096.28 1415.13,-2095.35 1413.81,-2094.41 1412.71,-2093.47 1411.83,-2092.53 1411.18,-2091.59 1410.78,-2090.65 1410.62,-2089.72 1410.71,-2088.8 1411.07,-2087.89 1411.7,-2086.99 1412.6,-2086.11 1413.77,-2085.25 1415.22,-2084.41 1416.95,-2083.59 1418.95,-2082.8 1421.22,-2082.04 1423.77,-2081.31 1426.57,-2080.61 1429.64,-2079.94 1432.95,-2079.31 1436.5,-2078.71 1440.27,-2078.16 1444.27,-2077.65 1448.46,-2077.18 1452.84,-2076.75 1457.38,-2076.36 1462.08,-2076.03 1466.92,-2075.74 1471.86,-2075.49 1476.9,-2075.3 1482.02,-2075.15 1487.19,-2075.05 1492.39,-2075 1497.61,-2075 1502.81,-2075.05"/>
<text text-anchor="middle" x="1495" y="-2089.3" font-family="Times,serif" font-size="14.00">Minerai Titane</text>
</g>
<!-- GisementTitane&#45;&gt;MineraiTitane -->
<g id="edge7" class="edge">
<title>GisementTitane&#45;&gt;MineraiTitane</title>
<path fill="none" stroke="grey" stroke-dasharray="1,5" d="M1283.86,-2251C1326.41,-2219.36 1417.71,-2151.47 1465.1,-2116.24"/>
<polygon fill="grey" stroke="grey" points="1467.47,-2118.83 1473.41,-2110.05 1463.3,-2113.21 1467.47,-2118.83"/>
<g id="a_edge7&#45;headlabel"><a xlink:title="GisementTitane">
<text text-anchor="middle" x="1463.91" y="-2121.65" font-family="Times,serif" font-size="25.00">1</text>
</a>
</g>
</g>
<!-- GisementSilicium -->
<g id="node6" class="node">
<title>GisementSilicium</title>
<polygon fill="lightgrey" stroke="transparent" points="1493.5,-2287 1346.5,-2287 1346.5,-2251 1493.5,-2251 1493.5,-2287"/>
<text text-anchor="middle" x="1420" y="-2265.3" font-family="Times,serif" font-size="14.00">Gisement Silicium</text>
</g>
<!-- MineraiSilicium -->
<g id="node13" class="node">
<title>MineraiSilicium</title>
<polygon fill="lightgrey" stroke="black" points="1308.61,-2075.05 1314.3,-2075.15 1319.94,-2075.3 1325.5,-2075.49 1330.95,-2075.74 1336.28,-2076.03 1341.46,-2076.36 1346.47,-2076.75 1351.29,-2077.18 1355.91,-2077.65 1360.31,-2078.16 1364.47,-2078.71 1368.39,-2079.31 1372.04,-2079.94 1375.41,-2080.61 1378.5,-2081.31 1381.31,-2082.04 1383.81,-2082.8 1386.02,-2083.59 1387.92,-2084.41 1389.52,-2085.25 1390.81,-2086.11 1391.8,-2086.99 1392.49,-2087.89 1392.89,-2088.8 1393,-2089.72 1392.82,-2090.65 1392.37,-2091.59 1391.66,-2092.53 1390.69,-2093.47 1389.47,-2094.41 1388.02,-2095.35 1386.35,-2096.28 1384.47,-2097.2 1382.4,-2098.11 1380.14,-2099.01 1377.71,-2099.89 1375.11,-2100.75 1372.38,-2101.59 1369.5,-2102.41 1366.51,-2103.2 1363.4,-2103.96 1360.2,-2104.69 1356.9,-2105.39 1353.52,-2106.06 1350.08,-2106.69 1346.57,-2107.29 1343,-2107.84 1339.39,-2108.35 1335.74,-2108.82 1332.06,-2109.25 1328.35,-2109.64 1324.61,-2109.97 1320.85,-2110.26 1317.08,-2110.51 1313.3,-2110.7 1309.51,-2110.85 1305.71,-2110.95 1301.9,-2111 1298.1,-2111 1294.29,-2110.95 1290.49,-2110.85 1286.7,-2110.7 1282.92,-2110.51 1279.15,-2110.26 1275.39,-2109.97 1271.65,-2109.64 1267.94,-2109.25 1264.26,-2108.82 1260.61,-2108.35 1257,-2107.84 1253.43,-2107.29 1249.92,-2106.69 1246.48,-2106.06 1243.1,-2105.39 1239.8,-2104.69 1236.6,-2103.96 1233.49,-2103.2 1230.5,-2102.41 1227.62,-2101.59 1224.89,-2100.75 1222.29,-2099.89 1219.86,-2099.01 1217.6,-2098.11 1215.53,-2097.2 1213.65,-2096.28 1211.98,-2095.35 1210.53,-2094.41 1209.31,-2093.47 1208.34,-2092.53 1207.63,-2091.59 1207.18,-2090.65 1207,-2089.72 1207.11,-2088.8 1207.51,-2087.89 1208.2,-2086.99 1209.19,-2086.11 1210.48,-2085.25 1212.08,-2084.41 1213.98,-2083.59 1216.19,-2082.8 1218.69,-2082.04 1221.5,-2081.31 1224.59,-2080.61 1227.96,-2079.94 1231.61,-2079.31 1235.53,-2078.71 1239.69,-2078.16 1244.09,-2077.65 1248.71,-2077.18 1253.53,-2076.75 1258.54,-2076.36 1263.72,-2076.03 1269.05,-2075.74 1274.5,-2075.49 1280.06,-2075.3 1285.7,-2075.15 1291.39,-2075.05 1297.13,-2075 1302.87,-2075 1308.61,-2075.05"/>
<text text-anchor="middle" x="1300" y="-2089.3" font-family="Times,serif" font-size="14.00">Minerai Silicium</text>
</g>
<!-- GisementSilicium&#45;&gt;MineraiSilicium -->
<g id="edge8" class="edge">
<title>GisementSilicium&#45;&gt;MineraiSilicium</title>
<path fill="none" stroke="grey" stroke-dasharray="1,5" d="M1408.28,-2251C1387.07,-2220.25 1342.26,-2155.27 1317.45,-2119.3"/>
<polygon fill="grey" stroke="grey" points="1320.15,-2117.06 1311.6,-2110.81 1314.39,-2121.03 1320.15,-2117.06"/>
<g id="a_edge8&#45;headlabel"><a xlink:title="GisementSilicium">
<text text-anchor="middle" x="1328.84" y="-2114.94" font-family="Times,serif" font-size="25.00">1</text>
</a>
</g>
</g>
<!-- GisementAluminium -->
<g id="node7" class="node">
<title>GisementAluminium</title>
<polygon fill="lightgrey" stroke="transparent" points="1678.5,-2287 1511.5,-2287 1511.5,-2251 1678.5,-2251 1678.5,-2287"/>
<text text-anchor="middle" x="1595" y="-2265.3" font-family="Times,serif" font-size="14.00">Gisement Aluminium</text>
</g>
<!-- MineraiAluminium -->
<g id="node16" class="node">
<title>MineraiAluminium</title>
<polygon fill="lightgrey" stroke="black" points="1713.87,-2075.05 1720.41,-2075.15 1726.88,-2075.3 1733.25,-2075.49 1739.51,-2075.74 1745.62,-2076.03 1751.56,-2076.36 1757.3,-2076.75 1762.84,-2077.18 1768.14,-2077.65 1773.19,-2078.16 1777.96,-2078.71 1782.45,-2079.31 1786.64,-2079.94 1790.51,-2080.61 1794.06,-2081.31 1797.27,-2082.04 1800.15,-2082.8 1802.68,-2083.59 1804.86,-2084.41 1806.69,-2085.25 1808.18,-2086.11 1809.31,-2086.99 1810.11,-2087.89 1810.56,-2088.8 1810.68,-2089.72 1810.48,-2090.65 1809.96,-2091.59 1809.14,-2092.53 1808.03,-2093.47 1806.64,-2094.41 1804.98,-2095.35 1803.06,-2096.28 1800.91,-2097.2 1798.52,-2098.11 1795.93,-2099.01 1793.14,-2099.89 1790.17,-2100.75 1787.03,-2101.59 1783.73,-2102.41 1780.3,-2103.2 1776.73,-2103.96 1773.05,-2104.69 1769.27,-2105.39 1765.4,-2106.06 1761.45,-2106.69 1757.42,-2107.29 1753.33,-2107.84 1749.19,-2108.35 1745,-2108.82 1740.78,-2109.25 1736.52,-2109.64 1732.23,-2109.97 1727.92,-2110.26 1723.6,-2110.51 1719.26,-2110.7 1714.9,-2110.85 1710.55,-2110.95 1706.18,-2111 1701.82,-2111 1697.45,-2110.95 1693.1,-2110.85 1688.74,-2110.7 1684.4,-2110.51 1680.08,-2110.26 1675.77,-2109.97 1671.48,-2109.64 1667.22,-2109.25 1663,-2108.82 1658.81,-2108.35 1654.67,-2107.84 1650.58,-2107.29 1646.55,-2106.69 1642.6,-2106.06 1638.73,-2105.39 1634.95,-2104.69 1631.27,-2103.96 1627.7,-2103.2 1624.27,-2102.41 1620.97,-2101.59 1617.83,-2100.75 1614.86,-2099.89 1612.07,-2099.01 1609.48,-2098.11 1607.09,-2097.2 1604.94,-2096.28 1603.02,-2095.35 1601.36,-2094.41 1599.97,-2093.47 1598.86,-2092.53 1598.04,-2091.59 1597.52,-2090.65 1597.32,-2089.72 1597.44,-2088.8 1597.89,-2087.89 1598.69,-2086.99 1599.82,-2086.11 1601.31,-2085.25 1603.14,-2084.41 1605.32,-2083.59 1607.85,-2082.8 1610.73,-2082.04 1613.94,-2081.31 1617.49,-2080.61 1621.36,-2079.94 1625.55,-2079.31 1630.04,-2078.71 1634.81,-2078.16 1639.86,-2077.65 1645.16,-2077.18 1650.7,-2076.75 1656.44,-2076.36 1662.38,-2076.03 1668.49,-2075.74 1674.75,-2075.49 1681.12,-2075.3 1687.59,-2075.15 1694.13,-2075.05 1700.7,-2075 1707.3,-2075 1713.87,-2075.05"/>
<text text-anchor="middle" x="1704" y="-2089.3" font-family="Times,serif" font-size="14.00">Minerai Aluminium</text>
</g>
<!-- GisementAluminium&#45;&gt;MineraiAluminium -->
<g id="edge9" class="edge">
<title>GisementAluminium&#45;&gt;MineraiAluminium</title>
<path fill="none" stroke="grey" stroke-dasharray="1,5" d="M1605.65,-2251C1624.86,-2220.33 1665.41,-2155.61 1687.98,-2119.57"/>
<polygon fill="grey" stroke="grey" points="1690.96,-2121.4 1693.31,-2111.07 1685.03,-2117.69 1690.96,-2121.4"/>
<g id="a_edge9&#45;headlabel"><a xlink:title="GisementAluminium">
<text text-anchor="middle" x="1690.85" y="-2124.92" font-family="Times,serif" font-size="25.00">1</text>
</a>
</g>
</g>
<!-- Montage -->
<g id="node8" class="node">
<title>Montage</title>
<polygon fill="lightgrey" stroke="transparent" points="816,-2287 736,-2287 736,-2251 816,-2251 816,-2287"/>
<text text-anchor="middle" x="776" y="-2265.3" font-family="Times,serif" font-size="14.00">Montage</text>
</g>
<!-- Trou -->
<g id="node9" class="node">
<title>Trou</title>
<polygon fill="lightgrey" stroke="transparent" points="718,-2287 664,-2287 664,-2251 718,-2251 718,-2287"/>
<text text-anchor="middle" x="691" y="-2265.3" font-family="Times,serif" font-size="14.00">Trou</text>
</g>
<!-- LingotRegolite -->
<g id="node17" class="node">
<title>LingotRegolite</title>
<polygon fill="lightgrey" stroke="black" points="944,-1853 818,-1853 818,-1817 944,-1817 944,-1853"/>
<text text-anchor="middle" x="881" y="-1831.3" font-family="Times,serif" font-size="14.00">Lingot Regolite</text>
</g>
<!-- PoussiereRegolite&#45;&gt;LingotRegolite -->
<g id="edge10" class="edge">
<title>PoussiereRegolite&#45;&gt;LingotRegolite</title>
<path fill="none" stroke="blue" stroke-dasharray="5,2" d="M758.8,-2074.81C781.26,-2030.9 840.86,-1914.45 867.64,-1862.11"/>
<polygon fill="blue" stroke="blue" points="870.8,-1863.62 872.24,-1853.12 864.57,-1860.43 870.8,-1863.62"/>
<g id="a_edge10&#45;headlabel"><a xlink:title="PoussiereRegolite">
<text text-anchor="middle" x="871.51" y="-1867.11" font-family="Times,serif" font-size="25.00">2</text>
</a>
</g>
</g>
<!-- Helium3 -->
<g id="node24" class="node">
<title>Helium3</title>
<ellipse fill="lightgrey" stroke="black" cx="750" cy="-1835" rx="50.09" ry="50.09"/>
<polyline fill="none" stroke="black" points="783.1,-1872.53 716.9,-1872.53 "/>
<polyline fill="none" stroke="black" points="783.1,-1797.47 716.9,-1797.47 "/>
<text text-anchor="middle" x="750" y="-1831.3" font-family="Times,serif" font-size="14.00">Helium3</text>
</g>
<!-- PoussiereRegolite&#45;&gt;Helium3 -->
<g id="edge12" class="edge">
<title>PoussiereRegolite&#45;&gt;Helium3</title>
<path fill="none" stroke="blue" stroke-dasharray="5,2" d="M750,-2074.81C750,-2038.69 750,-1953.48 750,-1895.25"/>
<polygon fill="blue" stroke="blue" points="753.5,-1895.07 750,-1885.07 746.5,-1895.07 753.5,-1895.07"/>
<g id="a_edge12&#45;headlabel"><a xlink:title="PoussiereRegolite">
<text text-anchor="middle" x="758.45" y="-1897.2" font-family="Times,serif" font-size="25.00">5</text>
</a>
</g>
</g>
<!-- Eau -->
<g id="node18" class="node">
<title>Eau</title>
<polygon fill="lightgrey" stroke="black" points="1016,-1853 962,-1853 962,-1817 1016,-1817 1016,-1853"/>
<text text-anchor="middle" x="989" y="-1831.3" font-family="Times,serif" font-size="14.00">Eau</text>
</g>
<!-- MineraiGlace&#45;&gt;Eau -->
<g id="edge11" class="edge">
<title>MineraiGlace&#45;&gt;Eau</title>
<path fill="none" stroke="blue" stroke-dasharray="5,2" d="M953.55,-2074.81C960.03,-2031.18 977.14,-1915.89 984.98,-1863.1"/>
<polygon fill="blue" stroke="blue" points="988.45,-1863.53 986.46,-1853.12 981.53,-1862.5 988.45,-1863.53"/>
<g id="a_edge11&#45;headlabel"><a xlink:title="MineraiGlace">
<text text-anchor="middle" x="992.16" y="-1866.29" font-family="Times,serif" font-size="25.00">1</text>
</a>
</g>
</g>
<!-- LingotTitane -->
<g id="node19" class="node">
<title>LingotTitane</title>
<polygon fill="lightgrey" stroke="black" points="1399,-1853 1287,-1853 1287,-1817 1399,-1817 1399,-1853"/>
<text text-anchor="middle" x="1343" y="-1831.3" font-family="Times,serif" font-size="14.00">Lingot Titane</text>
</g>
<!-- MineraiTitane&#45;&gt;LingotTitane -->
<g id="edge13" class="edge">
<title>MineraiTitane&#45;&gt;LingotTitane</title>
<path fill="none" stroke="blue" stroke-dasharray="5,2" d="M1484.79,-2074.81C1458.67,-2030.81 1389.29,-1913.96 1358.31,-1861.79"/>
<polygon fill="blue" stroke="blue" points="1361.28,-1859.93 1353.16,-1853.12 1355.26,-1863.51 1361.28,-1859.93"/>
<g id="a_edge13&#45;headlabel"><a xlink:title="MineraiTitane">
<text text-anchor="middle" x="1369.69" y="-1858.39" font-family="Times,serif" font-size="25.00">1</text>
</a>
</g>
</g>
<!-- LingotSilicium -->
<g id="node20" class="node">
<title>LingotSilicium</title>
<polygon fill="lightgrey" stroke="black" points="1268.5,-1853 1143.5,-1853 1143.5,-1817 1268.5,-1817 1268.5,-1853"/>
<text text-anchor="middle" x="1206" y="-1831.3" font-family="Times,serif" font-size="14.00">Lingot Silicium</text>
</g>
<!-- MineraiSilicium&#45;&gt;LingotSilicium -->
<g id="edge14" class="edge">
<title>MineraiSilicium&#45;&gt;LingotSilicium</title>
<path fill="none" stroke="blue" stroke-dasharray="5,2" d="M1293.69,-2074.81C1277.63,-2031.08 1235.16,-1915.41 1215.83,-1862.77"/>
<polygon fill="blue" stroke="blue" points="1219.02,-1861.3 1212.29,-1853.12 1212.45,-1863.71 1219.02,-1861.3"/>
<g id="a_edge14&#45;headlabel"><a xlink:title="MineraiSilicium">
<text text-anchor="middle" x="1226.47" y="-1861.22" font-family="Times,serif" font-size="25.00">1</text>
</a>
</g>
</g>
<!-- LingotFer -->
<g id="node21" class="node">
<title>LingotFer</title>
<polygon fill="lightgrey" stroke="black" points="1125.5,-1853 1034.5,-1853 1034.5,-1817 1125.5,-1817 1125.5,-1853"/>
<text text-anchor="middle" x="1080" y="-1831.3" font-family="Times,serif" font-size="14.00">Lingot Fer</text>
</g>
<!-- MineraiFer&#45;&gt;LingotFer -->
<g id="edge15" class="edge">
<title>MineraiFer&#45;&gt;LingotFer</title>
<path fill="none" stroke="blue" stroke-dasharray="5,2" d="M1116.38,-2074.81C1109.73,-2031.18 1092.17,-1915.89 1084.13,-1863.1"/>
<polygon fill="blue" stroke="blue" points="1087.57,-1862.48 1082.61,-1853.12 1080.65,-1863.53 1087.57,-1862.48"/>
<g id="a_edge15&#45;headlabel"><a xlink:title="MineraiFer">
<text text-anchor="middle" x="1093.69" y="-1863.77" font-family="Times,serif" font-size="25.00">1</text>
</a>
</g>
</g>
<!-- LingotOr -->
<g id="node22" class="node">
<title>LingotOr</title>
<polygon fill="lightgrey" stroke="black" points="1664.5,-1853 1579.5,-1853 1579.5,-1817 1664.5,-1817 1664.5,-1853"/>
<text text-anchor="middle" x="1622" y="-1831.3" font-family="Times,serif" font-size="14.00">Lingot Or</text>
</g>
<!-- MineraiOr&#45;&gt;LingotOr -->
<g id="edge16" class="edge">
<title>MineraiOr&#45;&gt;LingotOr</title>
<path fill="none" stroke="blue" stroke-dasharray="5,2" d="M1876.15,-2075.2C1829.29,-2031.1 1702.59,-1911.85 1647.81,-1860.29"/>
<polygon fill="blue" stroke="blue" points="1649.95,-1857.5 1640.27,-1853.19 1645.15,-1862.6 1649.95,-1857.5"/>
<g id="a_edge16&#45;headlabel"><a xlink:title="MineraiOr">
<text text-anchor="middle" x="1659.26" y="-1853.46" font-family="Times,serif" font-size="25.00">1</text>
</a>
</g>
</g>
<!-- LingotAluminium -->
<g id="node23" class="node">
<title>LingotAluminium</title>
<polygon fill="lightgrey" stroke="black" points="1561,-1853 1417,-1853 1417,-1817 1561,-1817 1561,-1853"/>
<text text-anchor="middle" x="1489" y="-1831.3" font-family="Times,serif" font-size="14.00">Lingot Aluminium</text>
</g>
<!-- MineraiAluminium&#45;&gt;LingotAluminium -->
<g id="edge17" class="edge">
<title>MineraiAluminium&#45;&gt;LingotAluminium</title>
<path fill="none" stroke="blue" stroke-dasharray="5,2" d="M1689.56,-2074.81C1652.38,-2030.54 1553.25,-1912.51 1509.85,-1860.82"/>
<polygon fill="blue" stroke="blue" points="1512.49,-1858.53 1503.38,-1853.12 1507.13,-1863.03 1512.49,-1858.53"/>
<g id="a_edge17&#45;headlabel"><a xlink:title="MineraiAluminium">
<text text-anchor="middle" x="1521.51" y="-1855.56" font-family="Times,serif" font-size="25.00">1</text>
</a>
</g>
</g>
<!-- MateriauxConstruction -->
<g id="node25" class="node">
<title>MateriauxConstruction</title>
<polygon fill="lightgrey" stroke="black" points="1217.5,-1424 1030.5,-1424 1030.5,-1388 1217.5,-1388 1217.5,-1424"/>
<text text-anchor="middle" x="1124" y="-1402.3" font-family="Times,serif" font-size="14.00">Materiaux Construction</text>
</g>
<!-- LingotRegolite&#45;&gt;MateriauxConstruction -->
<g id="edge35" class="edge">
<title>LingotRegolite&#45;&gt;MateriauxConstruction</title>
<path fill="none" stroke="green" d="M890.68,-1817C928.17,-1751.12 1064.02,-1512.39 1109.24,-1432.93"/>
<polygon fill="green" stroke="green" points="1112.39,-1434.47 1114.3,-1424.05 1106.31,-1431.01 1112.39,-1434.47"/>
<g id="a_edge35&#45;headlabel"><a xlink:title="LingotRegolite">
<text text-anchor="middle" x="1112.68" y="-1437.99" font-family="Times,serif" font-size="25.00">2</text>
</a>
</g>
</g>
<!-- GazOxygene -->
<g id="node26" class="node">
<title>GazOxygene</title>
<polygon fill="lightgrey" stroke="black" points="606.06,-1817.05 610.73,-1817.15 615.36,-1817.3 619.91,-1817.49 624.38,-1817.74 628.75,-1818.03 633,-1818.36 637.11,-1818.75 641.07,-1819.18 644.86,-1819.65 648.46,-1820.16 651.88,-1820.71 655.09,-1821.31 658.08,-1821.94 660.85,-1822.61 663.39,-1823.31 665.69,-1824.04 667.74,-1824.8 669.55,-1825.59 671.11,-1826.41 672.42,-1827.25 673.48,-1828.11 674.29,-1828.99 674.86,-1829.89 675.19,-1830.8 675.27,-1831.72 675.13,-1832.65 674.76,-1833.59 674.17,-1834.53 673.38,-1835.47 672.38,-1836.41 671.19,-1837.35 669.82,-1838.28 668.28,-1839.2 666.58,-1840.11 664.73,-1841.01 662.73,-1841.89 660.61,-1842.75 658.36,-1843.59 656.01,-1844.41 653.55,-1845.2 651,-1845.96 648.37,-1846.69 645.67,-1847.39 642.9,-1848.06 640.07,-1848.69 637.19,-1849.29 634.27,-1849.84 631.31,-1850.35 628.32,-1850.82 625.29,-1851.25 622.25,-1851.64 619.19,-1851.97 616.1,-1852.26 613.01,-1852.51 609.91,-1852.7 606.8,-1852.85 603.68,-1852.95 600.56,-1853 597.44,-1853 594.32,-1852.95 591.2,-1852.85 588.09,-1852.7 584.99,-1852.51 581.9,-1852.26 578.81,-1851.97 575.75,-1851.64 572.71,-1851.25 569.68,-1850.82 566.69,-1850.35 563.73,-1849.84 560.81,-1849.29 557.93,-1848.69 555.1,-1848.06 552.33,-1847.39 549.63,-1846.69 547,-1845.96 544.45,-1845.2 541.99,-1844.41 539.64,-1843.59 537.39,-1842.75 535.27,-1841.89 533.27,-1841.01 531.42,-1840.11 529.72,-1839.2 528.18,-1838.28 526.81,-1837.35 525.62,-1836.41 524.62,-1835.47 523.83,-1834.53 523.24,-1833.59 522.87,-1832.65 522.73,-1831.72 522.81,-1830.8 523.14,-1829.89 523.71,-1828.99 524.52,-1828.11 525.58,-1827.25 526.89,-1826.41 528.45,-1825.59 530.26,-1824.8 532.31,-1824.04 534.61,-1823.31 537.15,-1822.61 539.92,-1821.94 542.91,-1821.31 546.12,-1820.71 549.54,-1820.16 553.14,-1819.65 556.93,-1819.18 560.89,-1818.75 565,-1818.36 569.25,-1818.03 573.62,-1817.74 578.09,-1817.49 582.64,-1817.3 587.27,-1817.15 591.94,-1817.05 596.64,-1817 601.36,-1817 606.06,-1817.05"/>
<text text-anchor="middle" x="599" y="-1831.3" font-family="Times,serif" font-size="14.00">Gaz Oxygene</text>
</g>
<!-- Eau&#45;&gt;GazOxygene -->
<g id="edge19" class="edge">
<title>Eau&#45;&gt;GazOxygene</title>
<path fill="none" stroke="lightskyblue" stroke-dasharray="5,2" d="M989.7,-1853.01C989.84,-1885.13 984.88,-1951.76 944,-1982 856.81,-2046.49 795.97,-2032.5 700,-1982 652.24,-1956.87 622.7,-1897.82 608.7,-1862.68"/>
<polygon fill="lightskyblue" stroke="lightskyblue" points="611.85,-1861.12 605.01,-1853.03 605.32,-1863.62 611.85,-1861.12"/>
<g id="a_edge19&#45;headlabel"><a xlink:title="Eau">
<text text-anchor="middle" x="619.38" y="-1860.94" font-family="Times,serif" font-size="25.00">1</text>
</a>
</g>
</g>
<!-- GazHydrogene -->
<g id="node27" class="node">
<title>GazHydrogene</title>
<polygon fill="lightgrey" stroke="black" points="425.13,-1817.05 430.5,-1817.15 435.83,-1817.3 441.08,-1817.49 446.22,-1817.74 451.25,-1818.03 456.14,-1818.36 460.87,-1818.75 465.43,-1819.18 469.79,-1819.65 473.94,-1820.16 477.87,-1820.71 481.57,-1821.31 485.01,-1821.94 488.2,-1822.61 491.12,-1823.31 493.77,-1824.04 496.14,-1824.8 498.22,-1825.59 500.02,-1826.41 501.52,-1827.25 502.74,-1828.11 503.68,-1828.99 504.33,-1829.89 504.71,-1830.8 504.81,-1831.72 504.64,-1832.65 504.21,-1833.59 503.54,-1834.53 502.62,-1835.47 501.48,-1836.41 500.11,-1837.35 498.53,-1838.28 496.76,-1839.2 494.8,-1840.11 492.66,-1841.01 490.37,-1841.89 487.92,-1842.75 485.34,-1843.59 482.62,-1844.41 479.8,-1845.2 476.86,-1845.96 473.84,-1846.69 470.72,-1847.39 467.54,-1848.06 464.28,-1848.69 460.97,-1849.29 457.6,-1849.84 454.2,-1850.35 450.75,-1850.82 447.27,-1851.25 443.77,-1851.64 440.24,-1851.97 436.69,-1852.26 433.13,-1852.51 429.56,-1852.7 425.97,-1852.85 422.39,-1852.95 418.8,-1853 415.2,-1853 411.61,-1852.95 408.03,-1852.85 404.44,-1852.7 400.87,-1852.51 397.31,-1852.26 393.76,-1851.97 390.23,-1851.64 386.73,-1851.25 383.25,-1850.82 379.8,-1850.35 376.4,-1849.84 373.03,-1849.29 369.72,-1848.69 366.46,-1848.06 363.28,-1847.39 360.16,-1846.69 357.14,-1845.96 354.2,-1845.2 351.38,-1844.41 348.66,-1843.59 346.08,-1842.75 343.63,-1841.89 341.34,-1841.01 339.2,-1840.11 337.24,-1839.2 335.47,-1838.28 333.89,-1837.35 332.52,-1836.41 331.38,-1835.47 330.46,-1834.53 329.79,-1833.59 329.36,-1832.65 329.19,-1831.72 329.29,-1830.8 329.67,-1829.89 330.32,-1828.99 331.26,-1828.11 332.48,-1827.25 333.98,-1826.41 335.78,-1825.59 337.86,-1824.8 340.23,-1824.04 342.88,-1823.31 345.8,-1822.61 348.99,-1821.94 352.43,-1821.31 356.13,-1820.71 360.06,-1820.16 364.21,-1819.65 368.57,-1819.18 373.13,-1818.75 377.86,-1818.36 382.75,-1818.03 387.78,-1817.74 392.92,-1817.49 398.17,-1817.3 403.5,-1817.15 408.87,-1817.05 414.29,-1817 419.71,-1817 425.13,-1817.05"/>
<text text-anchor="middle" x="417" y="-1831.3" font-family="Times,serif" font-size="14.00">Gaz Hydrogene</text>
</g>
<!-- Eau&#45;&gt;GazHydrogene -->
<g id="edge18" class="edge">
<title>Eau&#45;&gt;GazHydrogene</title>
<path fill="none" stroke="lightskyblue" stroke-dasharray="5,2" d="M989.7,-1853.01C989.84,-1885.13 984.88,-1951.76 944,-1982 793.57,-2093.27 689.56,-2067.24 523,-1982 474.18,-1957.02 442.7,-1897.91 427.58,-1862.73"/>
<polygon fill="lightskyblue" stroke="lightskyblue" points="430.64,-1860.97 423.58,-1853.06 424.17,-1863.64 430.64,-1860.97"/>
<g id="a_edge18&#45;headlabel"><a xlink:title="Eau">
<text text-anchor="middle" x="438.32" y="-1860.58" font-family="Times,serif" font-size="25.00">1</text>
</a>
</g>
</g>
<!-- SatelliteRobuste1 -->
<g id="node35" class="node">
<title>SatelliteRobuste1</title>
<polygon fill="lightgrey" stroke="black" points="1501.64,-1052.54 1501.64,-1067.46 1440.34,-1078 1353.66,-1078 1292.36,-1067.46 1292.36,-1052.54 1353.66,-1042 1440.34,-1042 1501.64,-1052.54"/>
<text text-anchor="middle" x="1397" y="-1056.3" font-family="Times,serif" font-size="14.00">Satellite Robuste1</text>
</g>
<!-- LingotTitane&#45;&gt;SatelliteRobuste1 -->
<g id="edge48" class="edge">
<title>LingotTitane&#45;&gt;SatelliteRobuste1</title>
<path fill="none" stroke="orange" d="M1346.33,-1816.33C1357.78,-1778.02 1384.76,-1682.04 1394.01,-1599.78 1415.99,-1405.17 1402.64,-1168.05 1397.08,-1088.59"/>
<path fill="none" stroke="yellow" d="M1348.24,-1816.9C1359.7,-1778.56 1386.69,-1682.58 1396,-1600 1417.98,-1405.06 1404.63,-1167.94 1399.08,-1088.45"/>
<path fill="none" stroke="orange" d="M1350.16,-1817.48C1361.63,-1779.1 1388.61,-1683.12 1397.99,-1600.22 1419.98,-1404.95 1406.63,-1167.83 1401.07,-1088.31"/>
<polygon fill="orange" stroke="orange" points="1402.55,-1088.02 1398.35,-1078.3 1395.57,-1088.52 1402.55,-1088.02"/>
<g id="a_edge48&#45;headlabel"><a xlink:title="SatelliteRobuste1">
<text text-anchor="middle" x="1406.52" y="-1090.56" font-family="Times,serif" font-size="25.00">2</text>
</a>
</g>
</g>
<!-- VaisseauRobuste1 -->
<g id="node37" class="node">
<title>VaisseauRobuste1</title>
<polygon fill="lightgrey" stroke="black" points="1110.46,-1052.54 1110.46,-1067.46 1048.1,-1078 959.9,-1078 897.54,-1067.46 897.54,-1052.54 959.9,-1042 1048.1,-1042 1110.46,-1052.54"/>
<text text-anchor="middle" x="1004" y="-1056.3" font-family="Times,serif" font-size="14.00">Vaisseau Robuste1</text>
</g>
<!-- LingotTitane&#45;&gt;VaisseauRobuste1 -->
<g id="edge64" class="edge">
<title>LingotTitane&#45;&gt;VaisseauRobuste1</title>
<path fill="none" stroke="red" d="M1320.59,-1818.54C1308.14,-1808.79 1291.89,-1796.53 1276.9,-1786.62 1128.59,-1687.55 927.72,-1764.85 925,-1583 925,-1583 925,-1583 925,-1317.5 925.16,-1229.43 966.57,-1132.23 988.69,-1086.51"/>
<path fill="none" stroke="orange" d="M1321.82,-1816.96C1309.34,-1807.2 1293.09,-1794.94 1278,-1784.95 1127.88,-1685.68 927,-1762.98 927,-1583 927,-1583 927,-1583 927,-1317.5 927,-1230.22 968.41,-1133.02 990.49,-1087.38"/>
<path fill="none" stroke="red" d="M1323.05,-1815.39C1310.55,-1805.6 1294.3,-1793.34 1279.1,-1783.29 1127.16,-1683.81 926.28,-1761.11 929,-1583 929,-1583 929,-1583 929,-1317.5 928.84,-1231 970.25,-1133.8 992.29,-1088.25"/>
<polygon fill="red" stroke="red" points="993.74,-1088.7 995.02,-1078.19 987.46,-1085.61 993.74,-1088.7"/>
<g id="a_edge64&#45;headlabel"><a xlink:title="LingotTitane">
<text text-anchor="middle" x="994.59" y="-1092.18" font-family="Times,serif" font-size="25.00">3</text>
</a>
</g>
</g>
<!-- PuceLuxe -->
<g id="node46" class="node">
<title>PuceLuxe</title>
<polygon fill="lightgrey" stroke="black" points="1950,-669 1860,-669 1860,-579 1950,-579 1950,-669"/>
<polyline fill="none" stroke="black" points="1872,-669 1860,-657 "/>
<polyline fill="none" stroke="black" points="1860,-591 1872,-579 "/>
<polyline fill="none" stroke="black" points="1938,-579 1950,-591 "/>
<polyline fill="none" stroke="black" points="1950,-657 1938,-669 "/>
<text text-anchor="middle" x="1905" y="-620.3" font-family="Times,serif" font-size="14.00">Puce Luxe</text>
</g>
<!-- LingotTitane&#45;&gt;PuceLuxe -->
<g id="edge38" class="edge">
<title>LingotTitane&#45;&gt;PuceLuxe</title>
<path fill="none" stroke="green" d="M1362.87,-1816.93C1375.29,-1806.79 1391.93,-1794.16 1408,-1784.95 1610.58,-1668.84 1893,-1816.5 1893,-1583 1893,-1583 1893,-1583 1893,-971.5 1893,-868.01 1898.41,-747.25 1901.97,-679.09"/>
<polygon fill="green" stroke="green" points="1905.47,-679.19 1902.5,-669.01 1898.48,-678.82 1905.47,-679.19"/>
<g id="a_edge38&#45;headlabel"><a xlink:title="LingotTitane">
<text text-anchor="middle" x="1899.71" y="-682.82" font-family="Times,serif" font-size="25.00">1</text>
</a>
</g>
</g>
<!-- Puce -->
<g id="node33" class="node">
<title>Puce</title>
<polygon fill="lightgrey" stroke="black" points="1387.05,-1582 1368.03,-1600 1329.97,-1600 1310.95,-1582 1329.97,-1564 1368.03,-1564 1387.05,-1582"/>
<text text-anchor="middle" x="1349" y="-1578.3" font-family="Times,serif" font-size="14.00">Puce</text>
</g>
<!-- LingotSilicium&#45;&gt;Puce -->
<g id="edge36" class="edge">
<title>LingotSilicium&#45;&gt;Puce</title>
<path fill="none" stroke="green" d="M1199.33,-1816.95C1188.16,-1785.41 1169.47,-1716.85 1197,-1669.5 1221.07,-1628.11 1273.15,-1604.89 1309.61,-1593.16"/>
<polygon fill="green" stroke="green" points="1310.9,-1596.43 1319.44,-1590.15 1308.85,-1589.73 1310.9,-1596.43"/>
<g id="a_edge36&#45;headlabel"><a xlink:title="LingotSilicium">
<text text-anchor="middle" x="1304.58" y="-1597.54" font-family="Times,serif" font-size="25.00">1</text>
</a>
</g>
</g>
<!-- SatelliteFragile1 -->
<g id="node34" class="node">
<title>SatelliteFragile1</title>
<polygon fill="lightgrey" stroke="black" points="1737.39,-1052.54 1737.39,-1067.46 1679.17,-1078 1596.83,-1078 1538.61,-1067.46 1538.61,-1052.54 1596.83,-1042 1679.17,-1042 1737.39,-1052.54"/>
<text text-anchor="middle" x="1638" y="-1056.3" font-family="Times,serif" font-size="14.00">Satellite Fragile1</text>
</g>
<!-- LingotFer&#45;&gt;SatelliteFragile1 -->
<g id="edge41" class="edge">
<title>LingotFer&#45;&gt;SatelliteFragile1</title>
<path fill="none" stroke="orange" d="M1096.78,-1815.43C1107.32,-1805.73 1120.96,-1793.58 1133.75,-1783.39 1246.69,-1694.46 1307.12,-1708.65 1394.44,-1598.74 1479.98,-1494.5 1459.11,-1442.81 1515.18,-1316.68 1553.39,-1231.74 1601.16,-1132.35 1623.54,-1086.16"/>
<path fill="none" stroke="yellow" d="M1098.14,-1816.9C1108.65,-1807.22 1122.29,-1795.07 1135,-1784.95 1246.23,-1696.4 1306.66,-1710.6 1396,-1600 1481.83,-1493.75 1460.96,-1442.06 1517,-1317.5 1555.19,-1232.61 1602.96,-1133.21 1625.34,-1087.03"/>
<path fill="none" stroke="orange" d="M1099.49,-1818.37C1109.98,-1808.72 1123.62,-1796.57 1136.25,-1786.52 1245.77,-1698.35 1306.2,-1712.54 1397.56,-1601.26 1483.69,-1493 1462.82,-1441.32 1518.82,-1318.32 1556.99,-1233.48 1604.76,-1134.08 1627.14,-1087.91"/>
<polygon fill="orange" stroke="orange" points="1628.5,-1088.54 1629.71,-1078.01 1622.2,-1085.48 1628.5,-1088.54"/>
<g id="a_edge41&#45;headlabel"><a xlink:title="SatelliteFragile1">
<text text-anchor="middle" x="1629.41" y="-1092.01" font-family="Times,serif" font-size="25.00">2</text>
</a>
</g>
</g>
<!-- VaisseauFragile1 -->
<g id="node36" class="node">
<title>VaisseauFragile1</title>
<polygon fill="lightgrey" stroke="black" points="862.7,-1052.54 862.7,-1067.46 803.71,-1078 720.29,-1078 661.3,-1067.46 661.3,-1052.54 720.29,-1042 803.71,-1042 862.7,-1052.54"/>
<text text-anchor="middle" x="762" y="-1056.3" font-family="Times,serif" font-size="14.00">Vaisseau Fragile1</text>
</g>
<!-- LingotFer&#45;&gt;VaisseauFragile1 -->
<g id="edge56" class="edge">
<title>LingotFer&#45;&gt;VaisseauFragile1</title>
<path fill="none" stroke="red" d="M1060.25,-1818.2C1019.54,-1779.84 924.59,-1689.47 914.26,-1671.49 798.49,-1467.62 768.48,-1177.99 761.75,-1088.5"/>
<path fill="none" stroke="orange" d="M1061.62,-1816.75C1020.92,-1778.39 925.96,-1688.02 916,-1670.5 800.48,-1467.42 770.47,-1177.78 763.74,-1088.35"/>
<path fill="none" stroke="red" d="M1062.99,-1815.29C1022.3,-1776.94 927.34,-1686.57 917.74,-1669.51 802.47,-1467.21 772.46,-1177.57 765.74,-1088.2"/>
<polygon fill="red" stroke="red" points="767.22,-1087.95 763.02,-1078.23 760.24,-1088.45 767.22,-1087.95"/>
<g id="a_edge56&#45;headlabel"><a xlink:title="LingotFer">
<text text-anchor="middle" x="755.88" y="-1090.91" font-family="Times,serif" font-size="25.00">3</text>
</a>
</g>
</g>
<!-- SatelliteFragile3 -->
<g id="node42" class="node">
<title>SatelliteFragile3</title>
<polygon fill="lightgrey" stroke="black" points="1745.37,-616.54 1745.37,-631.46 1687.16,-642 1604.84,-642 1546.63,-631.46 1546.63,-616.54 1604.84,-606 1687.16,-606 1745.37,-616.54"/>
<polygon fill="none" stroke="black" points="1749.38,-613.2 1749.38,-634.8 1687.52,-646 1604.48,-646 1542.62,-634.8 1542.62,-613.2 1604.48,-602 1687.52,-602 1749.38,-613.2"/>
<polygon fill="none" stroke="black" points="1753.39,-609.87 1753.39,-638.13 1687.88,-650 1604.12,-650 1538.61,-638.13 1538.61,-609.87 1604.12,-598 1687.88,-598 1753.39,-609.87"/>
<text text-anchor="middle" x="1646" y="-620.3" font-family="Times,serif" font-size="14.00">Satellite Fragile3</text>
</g>
<!-- LingotOr&#45;&gt;SatelliteFragile3 -->
<g id="edge46" class="edge">
<title>LingotOr&#45;&gt;SatelliteFragile3</title>
<path fill="none" stroke="orange" d="M1664.15,-1822.38C1733.42,-1804.42 1870.41,-1759.14 1943.45,-1669.23 1968.52,-1639.46 1967.01,-1623.51 1967,-1583 1967,-1583 1967,-1583 1967,-971.5 1967.06,-916.85 1971.82,-897.43 1943.31,-853.06 1885.32,-760.15 1773.37,-691.01 1704.45,-655.01"/>
<path fill="none" stroke="yellow" d="M1664.65,-1824.32C1734.04,-1806.32 1871.04,-1761.04 1945,-1670.5 1970.51,-1639.27 1969,-1623.33 1969,-1583 1969,-1583 1969,-1583 1969,-971.5 1969,-917.33 1973.77,-897.9 1945,-852 1886.37,-758.45 1774.42,-689.31 1705.38,-653.24"/>
<path fill="none" stroke="orange" d="M1665.16,-1826.26C1734.67,-1808.22 1871.67,-1762.93 1946.55,-1671.77 1972.5,-1639.08 1970.99,-1623.14 1971,-1583 1971,-1583 1971,-1583 1971,-971.5 1970.94,-917.8 1975.71,-898.38 1946.69,-850.94 1887.42,-756.75 1775.47,-687.61 1706.3,-651.47"/>
<polygon fill="orange" stroke="orange" points="1706.84,-650.06 1696.35,-648.58 1703.63,-656.28 1706.84,-650.06"/>
<g id="a_edge46&#45;headlabel"><a xlink:title="LingotOr">
<text text-anchor="middle" x="1716.33" y="-643.38" font-family="Times,serif" font-size="25.00">1</text>
</a>
</g>
</g>
<!-- SatelliteRobuste3 -->
<g id="node43" class="node">
<title>SatelliteRobuste3</title>
<polygon fill="lightgrey" stroke="black" points="1506.65,-616.54 1506.65,-631.46 1445.35,-642 1358.65,-642 1297.35,-631.46 1297.35,-616.54 1358.65,-606 1445.35,-606 1506.65,-616.54"/>
<polygon fill="none" stroke="black" points="1510.65,-613.17 1510.65,-634.83 1445.69,-646 1358.31,-646 1293.35,-634.83 1293.35,-613.17 1358.31,-602 1445.69,-602 1510.65,-613.17"/>
<polygon fill="none" stroke="black" points="1514.64,-609.8 1514.64,-638.2 1446.03,-650 1357.97,-650 1289.36,-638.2 1289.36,-609.8 1357.97,-598 1446.03,-598 1514.64,-609.8"/>
<text text-anchor="middle" x="1402" y="-620.3" font-family="Times,serif" font-size="14.00">Satellite Robuste3</text>
</g>
<!-- LingotOr&#45;&gt;SatelliteRobuste3 -->
<g id="edge53" class="edge">
<title>LingotOr&#45;&gt;SatelliteRobuste3</title>
<path fill="none" stroke="orange" d="M1663.88,-1819.34C1726.41,-1798.35 1842.94,-1750.4 1905.42,-1669.28 1929.69,-1638.7 1929,-1623.41 1929,-1583 1929,-1583 1929,-1583 1929,-971.5 1930.16,-863.71 1608.37,-714.3 1466.8,-653.87"/>
<path fill="none" stroke="yellow" d="M1664.52,-1821.23C1727.17,-1800.2 1843.71,-1752.25 1907,-1670.5 1931.69,-1638.61 1931,-1623.33 1931,-1583 1931,-1583 1931,-1583 1931,-971.5 1931,-861.9 1609.21,-712.49 1467.58,-652.03"/>
<path fill="none" stroke="orange" d="M1665.15,-1823.13C1727.93,-1802.05 1844.47,-1754.1 1908.58,-1671.72 1933.68,-1638.52 1933,-1623.24 1933,-1583 1933,-1583 1933,-1583 1933,-971.5 1931.84,-860.08 1610.06,-710.67 1468.37,-650.19"/>
<polygon fill="orange" stroke="orange" points="1468.68,-648.7 1458.11,-648.01 1465.95,-655.14 1468.68,-648.7"/>
<g id="a_edge53&#45;headlabel"><a xlink:title="LingotOr">
<text text-anchor="middle" x="1478.1" y="-641.32" font-family="Times,serif" font-size="25.00">1</text>
</a>
</g>
</g>
<!-- VaisseauFragile3 -->
<g id="node44" class="node">
<title>VaisseauFragile3</title>
<polygon fill="lightgrey" stroke="black" points="854.69,-616.54 854.69,-631.46 795.71,-642 712.29,-642 653.31,-631.46 653.31,-616.54 712.29,-606 795.71,-606 854.69,-616.54"/>
<polygon fill="none" stroke="black" points="858.7,-613.2 858.7,-634.8 796.06,-646 711.94,-646 649.3,-634.8 649.3,-613.2 711.94,-602 796.06,-602 858.7,-613.2"/>
<polygon fill="none" stroke="black" points="862.7,-609.85 862.7,-638.15 796.42,-650 711.58,-650 645.3,-638.15 645.3,-609.85 711.58,-598 796.42,-598 862.7,-609.85"/>
<text text-anchor="middle" x="754" y="-620.3" font-family="Times,serif" font-size="14.00">Vaisseau Fragile3</text>
</g>
<!-- LingotOr&#45;&gt;VaisseauFragile3 -->
<g id="edge61" class="edge">
<title>LingotOr&#45;&gt;VaisseauFragile3</title>
<path fill="none" stroke="red" d="M1603.86,-1818.39C1593.98,-1808.66 1580.98,-1796.4 1568.74,-1786.51 1458.16,-1695.82 1380.92,-1723.63 1300.32,-1601.08 1231.92,-1494.03 1235.57,-1163.08 1201.08,-1042.55 1176.09,-954.09 1183.8,-920.97 1125.47,-853.29 1042.54,-755.03 904.61,-687.06 822.07,-652.78"/>
<path fill="none" stroke="orange" d="M1605.26,-1816.97C1595.35,-1807.21 1582.35,-1794.94 1570,-1784.95 1457.48,-1693.94 1380.24,-1721.75 1302,-1600 1233.92,-1494.05 1237.57,-1163.1 1203,-1042 1178.04,-954.54 1185.75,-921.43 1127,-852 1043.42,-753.24 905.5,-685.27 822.84,-650.93"/>
<path fill="none" stroke="red" d="M1606.67,-1815.54C1596.72,-1805.75 1583.72,-1793.49 1571.26,-1783.4 1456.8,-1692.06 1379.56,-1719.87 1303.68,-1598.92 1235.92,-1494.07 1239.57,-1163.12 1204.92,-1041.45 1179.98,-955 1187.7,-921.88 1128.53,-850.71 1044.31,-751.44 906.38,-683.47 823.6,-649.08"/>
<polygon fill="red" stroke="red" points="824.11,-647.67 813.53,-647.11 821.45,-654.14 824.11,-647.67"/>
<g id="a_edge61&#45;headlabel"><a xlink:title="LingotOr">
<text text-anchor="middle" x="827.09" y="-655.81" font-family="Times,serif" font-size="25.00">2</text>
</a>
</g>
</g>
<!-- VaisseauRobuste3 -->
<g id="node45" class="node">
<title>VaisseauRobuste3</title>
<polygon fill="lightgrey" stroke="black" points="1107.44,-616.54 1107.44,-631.46 1045.09,-642 956.91,-642 894.56,-631.46 894.56,-616.54 956.91,-606 1045.09,-606 1107.44,-616.54"/>
<polygon fill="none" stroke="black" points="1111.45,-613.16 1111.45,-634.84 1045.43,-646 956.57,-646 890.55,-634.84 890.55,-613.16 956.57,-602 1045.43,-602 1111.45,-613.16"/>
<polygon fill="none" stroke="black" points="1115.46,-609.79 1115.46,-638.21 1045.76,-650 956.24,-650 886.54,-638.21 886.54,-609.79 956.24,-598 1045.76,-598 1115.46,-609.79"/>
<text text-anchor="middle" x="1001" y="-620.3" font-family="Times,serif" font-size="14.00">Vaisseau Robuste3</text>
</g>
<!-- LingotOr&#45;&gt;VaisseauRobuste3 -->
<g id="edge69" class="edge">
<title>LingotOr&#45;&gt;VaisseauRobuste3</title>
<path fill="none" stroke="red" d="M1615.99,-1817.35C1605.77,-1774.57 1577.99,-1659.61 1552.07,-1564.53 1529.66,-1481.23 1536.97,-1455.29 1498.22,-1380.91 1426.58,-1238.57 1340.35,-1244.26 1275.16,-1094.78 1219.86,-961.25 1306.26,-895.25 1229.31,-777.57 1192.31,-718.93 1122.12,-677.8 1069.32,-653.6"/>
<path fill="none" stroke="orange" d="M1617.93,-1816.88C1607.72,-1774.1 1579.93,-1659.14 1554,-1564 1531.59,-1481.77 1538.89,-1455.84 1500,-1380 1426.45,-1236.58 1340.22,-1242.27 1277,-1094 1221.07,-962.84 1307.48,-896.84 1231,-776.5 1193.32,-717.21 1123.13,-676.07 1070.16,-651.78"/>
<path fill="none" stroke="red" d="M1619.88,-1816.42C1609.66,-1773.63 1581.88,-1658.67 1555.93,-1563.47 1533.51,-1482.31 1540.82,-1456.38 1501.78,-1379.09 1426.32,-1234.58 1340.09,-1240.27 1278.84,-1093.22 1222.29,-964.43 1308.69,-898.43 1232.69,-775.43 1194.33,-715.48 1124.14,-674.34 1070.99,-649.96"/>
<polygon fill="red" stroke="red" points="1071.37,-648.49 1060.81,-647.59 1068.5,-654.87 1071.37,-648.49"/>
<g id="a_edge69&#45;headlabel"><a xlink:title="LingotOr">
<text text-anchor="middle" x="1073.89" y="-656.72" font-family="Times,serif" font-size="25.00">2</text>
</a>
</g>
</g>
<!-- LingotOr&#45;&gt;PuceLuxe -->
<g id="edge39" class="edge">
<title>LingotOr&#45;&gt;PuceLuxe</title>
<path fill="none" stroke="green" d="M1664.78,-1830.62C1752.13,-1821.37 1951.78,-1787.87 2059,-1670.5 2086.2,-1640.73 2083,-1623.33 2083,-1583 2083,-1583 2083,-1583 2083,-1193 2083,-995.78 1984.08,-776.95 1933.72,-678.33"/>
<polygon fill="green" stroke="green" points="1936.69,-676.45 1929.01,-669.16 1930.47,-679.66 1936.69,-676.45"/>
<g id="a_edge39&#45;headlabel"><a xlink:title="LingotOr">
<text text-anchor="middle" x="1929.79" y="-683.15" font-family="Times,serif" font-size="25.00">1</text>
</a>
</g>
</g>
<!-- VaisseauLuxe -->
<g id="node47" class="node">
<title>VaisseauLuxe</title>
<polygon fill="lightgrey" stroke="black" points="1964,-201 1846,-201 1846,-83 1964,-83 1964,-201"/>
<polyline fill="none" stroke="black" points="1858,-201 1846,-189 "/>
<polyline fill="none" stroke="black" points="1846,-95 1858,-83 "/>
<polyline fill="none" stroke="black" points="1952,-83 1964,-95 "/>
<polyline fill="none" stroke="black" points="1964,-189 1952,-201 "/>
<text text-anchor="middle" x="1905" y="-138.3" font-family="Times,serif" font-size="14.00">Vaisseau Luxe</text>
</g>
<!-- LingotOr&#45;&gt;VaisseauLuxe -->
<g id="edge72" class="edge">
<title>LingotOr&#45;&gt;VaisseauLuxe</title>
<path fill="none" stroke="red" d="M1664.61,-1827.06C1772.03,-1812.01 2044.6,-1756.52 2043,-1583 2043,-1583 2043,-1583 2043,-623 2043.14,-471.4 1977.36,-302.38 1936.02,-211.21"/>
<path fill="none" stroke="orange" d="M1664.89,-1829.04C1772.43,-1813.97 2045,-1758.48 2045,-1583 2045,-1583 2045,-1583 2045,-623 2045,-470.68 1979.22,-301.65 1937.84,-210.39"/>
<path fill="none" stroke="red" d="M1665.16,-1831.02C1772.83,-1815.93 2045.4,-1760.44 2047,-1583 2047,-1583 2047,-1583 2047,-623 2046.86,-469.95 1981.09,-300.93 1939.66,-209.56"/>
<polygon fill="red" stroke="red" points="1941.01,-208.9 1933.67,-201.26 1934.65,-211.81 1941.01,-208.9"/>
<g id="a_edge72&#45;headlabel"><a xlink:title="LingotOr">
<text text-anchor="middle" x="1948.9" y="-208.23" font-family="Times,serif" font-size="25.00">3</text>
</a>
</g>
</g>
<!-- SatelliteFragile2 -->
<g id="node38" class="node">
<title>SatelliteFragile2</title>
<polygon fill="lightgrey" stroke="black" points="1745.38,-866.54 1745.38,-881.46 1687.16,-892 1604.84,-892 1546.62,-881.46 1546.62,-866.54 1604.84,-856 1687.16,-856 1745.38,-866.54"/>
<polygon fill="none" stroke="black" points="1749.39,-863.2 1749.39,-884.8 1687.52,-896 1604.48,-896 1542.61,-884.8 1542.61,-863.2 1604.48,-852 1687.52,-852 1749.39,-863.2"/>
<text text-anchor="middle" x="1646" y="-870.3" font-family="Times,serif" font-size="14.00">Satellite Fragile2</text>
</g>
<!-- LingotAluminium&#45;&gt;SatelliteFragile2 -->
<g id="edge44" class="edge">
<title>LingotAluminium&#45;&gt;SatelliteFragile2</title>
<path fill="none" stroke="orange" d="M1489.62,-1816.48C1500.14,-1749.68 1543.14,-1502.34 1629.19,-1316.66 1681.67,-1206.3 1748.43,-1207 1782.09,-1093.41 1806.2,-1019.12 1730.52,-943.21 1682.18,-904.06"/>
<path fill="none" stroke="yellow" d="M1491.6,-1816.79C1502.11,-1750.02 1545.11,-1502.68 1631,-1317.5 1681.65,-1208.3 1748.41,-1209 1784,-1094 1807.61,-1017.7 1731.93,-941.8 1683.44,-902.51"/>
<path fill="none" stroke="orange" d="M1493.57,-1817.1C1504.08,-1750.36 1547.08,-1503.02 1632.81,-1318.34 1681.63,-1210.3 1748.39,-1211 1785.91,-1094.59 1809.03,-1016.29 1733.35,-940.38 1684.7,-900.95"/>
<polygon fill="orange" stroke="orange" points="1685.33,-899.54 1675.33,-896.06 1680.98,-905.02 1685.33,-899.54"/>
<g id="a_edge44&#45;headlabel"><a xlink:title="LingotAluminium">
<text text-anchor="middle" x="1694.78" y="-894.71" font-family="Times,serif" font-size="25.00">1</text>
</a>
</g>
</g>
<!-- SatelliteRobuste2 -->
<g id="node39" class="node">
<title>SatelliteRobuste2</title>
<polygon fill="lightgrey" stroke="black" points="1506.65,-866.54 1506.65,-881.46 1445.35,-892 1358.65,-892 1297.35,-881.46 1297.35,-866.54 1358.65,-856 1445.35,-856 1506.65,-866.54"/>
<polygon fill="none" stroke="black" points="1510.64,-863.17 1510.64,-884.83 1445.69,-896 1358.31,-896 1293.36,-884.83 1293.36,-863.17 1358.31,-852 1445.69,-852 1510.64,-863.17"/>
<text text-anchor="middle" x="1402" y="-870.3" font-family="Times,serif" font-size="14.00">Satellite Robuste2</text>
</g>
<!-- LingotAluminium&#45;&gt;SatelliteRobuste2 -->
<g id="edge51" class="edge">
<title>LingotAluminium&#45;&gt;SatelliteRobuste2</title>
<path fill="none" stroke="orange" d="M1486.4,-1816.69C1484.75,-1755.38 1483.27,-1544.16 1533.09,-1379.42 1562.28,-1283.05 1572.33,-1254.58 1639.5,-1178.67 1695.61,-1116.33 1809.36,-1109.43 1763.32,-1043.08 1706.59,-953.76 1586.58,-911.61 1500.57,-892.41"/>
<path fill="none" stroke="yellow" d="M1488.4,-1816.63C1486.75,-1755.36 1485.27,-1544.15 1535,-1380 1564.17,-1283.72 1574.22,-1255.24 1641,-1180 1695.73,-1118.33 1809.48,-1111.43 1765,-1042 1707.26,-951.87 1587.24,-909.72 1501,-890.45"/>
<path fill="none" stroke="orange" d="M1490.39,-1816.58C1488.75,-1755.35 1487.27,-1544.14 1536.91,-1380.58 1566.05,-1284.39 1576.11,-1255.91 1642.5,-1181.33 1695.86,-1120.33 1809.6,-1113.42 1766.68,-1040.92 1707.92,-949.98 1587.9,-907.83 1501.44,-888.5"/>
<polygon fill="orange" stroke="orange" points="1501.7,-887.03 1491.19,-888.33 1500.22,-893.87 1501.7,-887.03"/>
<g id="a_edge51&#45;headlabel"><a xlink:title="LingotAluminium">
<text text-anchor="middle" x="1510.69" y="-877.91" font-family="Times,serif" font-size="25.00">1</text>
</a>
</g>
</g>
<!-- VaisseauFragile2 -->
<g id="node40" class="node">
<title>VaisseauFragile2</title>
<polygon fill="lightgrey" stroke="black" points="858.7,-866.54 858.7,-881.46 799.71,-892 716.29,-892 657.3,-881.46 657.3,-866.54 716.29,-856 799.71,-856 858.7,-866.54"/>
<polygon fill="none" stroke="black" points="862.7,-863.2 862.7,-884.8 800.06,-896 715.94,-896 653.3,-884.8 653.3,-863.2 715.94,-852 800.06,-852 862.7,-863.2"/>
<text text-anchor="middle" x="758" y="-870.3" font-family="Times,serif" font-size="14.00">Vaisseau Fragile2</text>
</g>
<!-- LingotAluminium&#45;&gt;VaisseauFragile2 -->
<g id="edge59" class="edge">
<title>LingotAluminium&#45;&gt;VaisseauFragile2</title>
<path fill="none" stroke="red" d="M1463.47,-1818.54C1374.26,-1755.38 1068.34,-1533.34 1020.17,-1424.81 950.42,-1260.97 1221.93,-1188.03 1125.32,-1043.08 1091.96,-990.61 922.95,-929.53 826.07,-898.1"/>
<path fill="none" stroke="orange" d="M1464.63,-1816.91C1375.44,-1753.77 1069.52,-1531.72 1022,-1424 950.94,-1262.9 1222.45,-1189.96 1127,-1042 1092.64,-988.73 923.63,-927.65 826.69,-896.19"/>
<path fill="none" stroke="red" d="M1465.79,-1815.28C1376.61,-1752.15 1070.69,-1530.1 1023.83,-1423.19 951.46,-1264.83 1222.96,-1191.89 1128.68,-1040.92 1093.32,-986.85 924.31,-925.77 827.31,-894.29"/>
<polygon fill="red" stroke="red" points="827.56,-892.8 816.96,-893.06 825.41,-899.46 827.56,-892.8"/>
<g id="a_edge59&#45;headlabel"><a xlink:title="LingotAluminium">
<text text-anchor="middle" x="836.81" y="-884.58" font-family="Times,serif" font-size="25.00">2</text>
</a>
</g>
</g>
<!-- VaisseauRobuste2 -->
<g id="node41" class="node">
<title>VaisseauRobuste2</title>
<polygon fill="lightgrey" stroke="black" points="1110.45,-866.54 1110.45,-881.46 1048.09,-892 959.91,-892 897.55,-881.46 897.55,-866.54 959.91,-856 1048.09,-856 1110.45,-866.54"/>
<polygon fill="none" stroke="black" points="1114.46,-863.16 1114.46,-884.84 1048.43,-896 959.57,-896 893.54,-884.84 893.54,-863.16 959.57,-852 1048.43,-852 1114.46,-863.16"/>
<text text-anchor="middle" x="1004" y="-870.3" font-family="Times,serif" font-size="14.00">Vaisseau Robuste2</text>
</g>
<!-- LingotAluminium&#45;&gt;VaisseauRobuste2 -->
<g id="edge67" class="edge">
<title>LingotAluminium&#45;&gt;VaisseauRobuste2</title>
<path fill="none" stroke="red" d="M1460.35,-1818.61C1419.29,-1791.91 1342.12,-1736.72 1295.37,-1671.66 1202.69,-1541.48 1241.3,-1102.96 1153.34,-972.61 1132.15,-940.72 1095.39,-916.89 1063.79,-901.14"/>
<path fill="none" stroke="orange" d="M1461.44,-1816.93C1420.45,-1790.28 1343.28,-1735.09 1297,-1670.5 1204.68,-1541.65 1243.29,-1103.14 1155,-971.5 1133.23,-939.05 1096.48,-915.21 1064.68,-899.35"/>
<path fill="none" stroke="red" d="M1462.53,-1815.25C1421.61,-1788.65 1344.45,-1733.47 1298.63,-1669.34 1206.67,-1541.83 1245.28,-1103.32 1156.66,-970.39 1134.32,-937.37 1097.57,-913.53 1065.57,-897.56"/>
<polygon fill="red" stroke="red" points="1065.95,-896.07 1055.43,-894.88 1062.91,-902.38 1065.95,-896.07"/>
<g id="a_edge67&#45;headlabel"><a xlink:title="LingotAluminium">
<text text-anchor="middle" x="1075.43" y="-889.15" font-family="Times,serif" font-size="25.00">2</text>
</a>
</g>
</g>
<!-- MateriauxConstruction&#45;&gt;SatelliteFragile1 -->
<g id="edge40" class="edge">
<title>MateriauxConstruction&#45;&gt;SatelliteFragile1</title>
<path fill="none" stroke="orange" d="M1141.75,-1386.34C1186.27,-1346.75 1301.27,-1247.27 1407.91,-1178.32 1468.26,-1139.33 1542.58,-1102.61 1589.96,-1080.49"/>
<path fill="none" stroke="yellow" d="M1143.08,-1387.83C1187.58,-1348.26 1302.58,-1248.78 1409,-1180 1469.15,-1141.13 1543.46,-1104.4 1590.8,-1082.3"/>
<path fill="none" stroke="orange" d="M1144.41,-1389.32C1188.89,-1349.77 1303.89,-1250.29 1410.09,-1181.68 1470.03,-1142.92 1544.35,-1106.2 1591.65,-1084.11"/>
<polygon fill="orange" stroke="orange" points="1592.3,-1085.46 1599.9,-1078.08 1589.36,-1079.11 1592.3,-1085.46"/>
<g id="a_edge40&#45;headlabel"><a xlink:title="SatelliteFragile1">
<text text-anchor="middle" x="1587.02" y="-1087.38" font-family="Times,serif" font-size="25.00">1</text>
</a>
</g>
</g>
<!-- MateriauxConstruction&#45;&gt;SatelliteRobuste1 -->
<g id="edge47" class="edge">
<title>MateriauxConstruction&#45;&gt;SatelliteRobuste1</title>
<path fill="none" stroke="orange" d="M1126.97,-1387.26C1139.01,-1347.23 1173.2,-1246.22 1229.47,-1178.72 1264.71,-1136.7 1317.22,-1102.31 1353.94,-1081.33"/>
<path fill="none" stroke="yellow" d="M1128.88,-1387.84C1140.91,-1347.87 1175.09,-1246.87 1231,-1180 1265.81,-1138.37 1318.32,-1103.99 1354.93,-1083.06"/>
<path fill="none" stroke="orange" d="M1130.8,-1388.42C1142.8,-1348.51 1176.99,-1247.51 1232.53,-1181.28 1266.9,-1140.04 1319.41,-1105.66 1355.92,-1084.8"/>
<polygon fill="orange" stroke="orange" points="1356.87,-1085.99 1363.87,-1078.04 1353.44,-1079.89 1356.87,-1085.99"/>
<g id="a_edge47&#45;headlabel"><a xlink:title="SatelliteRobuste1">
<text text-anchor="middle" x="1352.21" y="-1088.29" font-family="Times,serif" font-size="25.00">1</text>
</a>
</g>
</g>
<!-- MateriauxConstruction&#45;&gt;VaisseauFragile1 -->
<g id="edge55" class="edge">
<title>MateriauxConstruction&#45;&gt;VaisseauFragile1</title>
<path fill="none" stroke="red" d="M1108.22,-1389C1075.77,-1350.06 992.96,-1253.14 914.65,-1181.48 875.34,-1145.48 825.78,-1108.51 793.74,-1085.59"/>
<path fill="none" stroke="orange" d="M1109.76,-1387.72C1077.29,-1348.76 994.48,-1251.84 916,-1180 876.53,-1143.87 826.97,-1106.91 794.9,-1083.97"/>
<path fill="none" stroke="red" d="M1111.3,-1386.44C1078.81,-1347.46 996,-1250.54 917.35,-1178.52 877.73,-1142.27 828.17,-1105.31 796.06,-1082.34"/>
<polygon fill="red" stroke="red" points="796.92,-1081.11 786.74,-1078.16 792.86,-1086.81 796.92,-1081.11"/>
<g id="a_edge55&#45;headlabel"><a xlink:title="MateriauxConstruction">
<text text-anchor="middle" x="806.41" y="-1075.78" font-family="Times,serif" font-size="25.00">2</text>
</a>
</g>
</g>
<!-- MateriauxConstruction&#45;&gt;VaisseauRobuste1 -->
<g id="edge63" class="edge">
<title>MateriauxConstruction&#45;&gt;VaisseauRobuste1</title>
<path fill="none" stroke="red" d="M1117.63,-1388.35C1107.65,-1350.42 1082.12,-1256.73 1054.12,-1180.69 1042.2,-1148.28 1025.84,-1111.88 1014.7,-1088.04"/>
<path fill="none" stroke="orange" d="M1119.56,-1387.84C1109.58,-1349.9 1084.05,-1256.21 1056,-1180 1044.02,-1147.46 1027.66,-1111.06 1016.52,-1087.19"/>
<path fill="none" stroke="red" d="M1121.49,-1387.33C1111.51,-1349.37 1085.98,-1255.68 1057.88,-1179.31 1045.84,-1146.64 1029.49,-1110.24 1018.33,-1086.35"/>
<polygon fill="red" stroke="red" points="1019.65,-1085.64 1012.23,-1078.08 1013.32,-1088.62 1019.65,-1085.64"/>
<g id="a_edge63&#45;headlabel"><a xlink:title="MateriauxConstruction">
<text text-anchor="middle" x="1012.3" y="-1092.08" font-family="Times,serif" font-size="25.00">2</text>
</a>
</g>
</g>
<!-- LiquideOxygene -->
<g id="node29" class="node">
<title>LiquideOxygene</title>
<polygon fill="lightgrey" stroke="black" points="349.76,-1564.05 355.56,-1564.15 361.3,-1564.3 366.95,-1564.49 372.5,-1564.74 377.92,-1565.03 383.19,-1565.36 388.29,-1565.75 393.2,-1566.18 397.9,-1566.65 402.38,-1567.16 406.62,-1567.71 410.6,-1568.31 414.32,-1568.94 417.75,-1569.61 420.9,-1570.31 423.75,-1571.04 426.3,-1571.8 428.55,-1572.59 430.49,-1573.41 432.11,-1574.25 433.43,-1575.11 434.43,-1575.99 435.14,-1576.89 435.54,-1577.8 435.65,-1578.72 435.47,-1579.65 435.01,-1580.59 434.28,-1581.53 433.3,-1582.47 432.06,-1583.41 430.59,-1584.35 428.89,-1585.28 426.98,-1586.2 424.86,-1587.11 422.56,-1588.01 420.09,-1588.89 417.45,-1589.75 414.66,-1590.59 411.74,-1591.41 408.69,-1592.2 405.53,-1592.96 402.27,-1593.69 398.91,-1594.39 395.47,-1595.06 391.97,-1595.69 388.39,-1596.29 384.77,-1596.84 381.09,-1597.35 377.38,-1597.82 373.63,-1598.25 369.85,-1598.64 366.05,-1598.97 362.23,-1599.26 358.39,-1599.51 354.53,-1599.7 350.67,-1599.85 346.81,-1599.95 342.94,-1600 339.06,-1600 335.19,-1599.95 331.33,-1599.85 327.47,-1599.7 323.61,-1599.51 319.77,-1599.26 315.95,-1598.97 312.15,-1598.64 308.37,-1598.25 304.62,-1597.82 300.91,-1597.35 297.23,-1596.84 293.61,-1596.29 290.03,-1595.69 286.53,-1595.06 283.09,-1594.39 279.73,-1593.69 276.47,-1592.96 273.31,-1592.2 270.26,-1591.41 267.34,-1590.59 264.55,-1589.75 261.91,-1588.89 259.44,-1588.01 257.14,-1587.11 255.02,-1586.2 253.11,-1585.28 251.41,-1584.35 249.94,-1583.41 248.7,-1582.47 247.72,-1581.53 246.99,-1580.59 246.53,-1579.65 246.35,-1578.72 246.46,-1577.8 246.86,-1576.89 247.57,-1575.99 248.57,-1575.11 249.89,-1574.25 251.51,-1573.41 253.45,-1572.59 255.7,-1571.8 258.25,-1571.04 261.1,-1570.31 264.25,-1569.61 267.68,-1568.94 271.4,-1568.31 275.38,-1567.71 279.62,-1567.16 284.1,-1566.65 288.8,-1566.18 293.71,-1565.75 298.81,-1565.36 304.08,-1565.03 309.5,-1564.74 315.05,-1564.49 320.7,-1564.3 326.44,-1564.15 332.24,-1564.05 338.08,-1564 343.92,-1564 349.76,-1564.05"/>
<text text-anchor="middle" x="341" y="-1578.3" font-family="Times,serif" font-size="14.00">Liquide Oxygene</text>
</g>
<!-- GazOxygene&#45;&gt;LiquideOxygene -->
<g id="edge21" class="edge">
<title>GazOxygene&#45;&gt;LiquideOxygene</title>
<path fill="none" stroke="lightskyblue" stroke-dasharray="5,2" d="M581.67,-1817.14C536.97,-1773.65 417.62,-1657.54 365.7,-1607.03"/>
<polygon fill="lightskyblue" stroke="lightskyblue" points="367.86,-1604.25 358.25,-1599.79 362.98,-1609.27 367.86,-1604.25"/>
<g id="a_edge21&#45;headlabel"><a xlink:title="GazOxygene">
<text text-anchor="middle" x="377.14" y="-1600.37" font-family="Times,serif" font-size="25.00">1</text>
</a>
</g>
</g>
<!-- PeroxydeHydrogene -->
<g id="node30" class="node">
<title>PeroxydeHydrogene</title>
<polygon fill="lightgrey" stroke="black" points="579.62,-1564.05 586.66,-1564.15 593.62,-1564.3 600.47,-1564.49 607.21,-1564.74 613.78,-1565.03 620.17,-1565.36 626.36,-1565.75 632.31,-1566.18 638.02,-1566.65 643.45,-1567.16 648.58,-1567.71 653.41,-1568.31 657.92,-1568.94 662.09,-1569.61 665.91,-1570.31 669.37,-1571.04 672.46,-1571.8 675.18,-1572.59 677.53,-1573.41 679.5,-1574.25 681.1,-1575.11 682.32,-1575.99 683.17,-1576.89 683.66,-1577.8 683.79,-1578.72 683.58,-1579.65 683.02,-1580.59 682.14,-1581.53 680.94,-1582.47 679.44,-1583.41 677.65,-1584.35 675.59,-1585.28 673.27,-1586.2 670.71,-1587.11 667.92,-1588.01 664.92,-1588.89 661.72,-1589.75 658.34,-1590.59 654.79,-1591.41 651.1,-1592.2 647.26,-1592.96 643.3,-1593.69 639.24,-1594.39 635.07,-1595.06 630.81,-1595.69 626.48,-1596.29 622.08,-1596.84 617.63,-1597.35 613.12,-1597.82 608.57,-1598.25 603.99,-1598.64 599.38,-1598.97 594.74,-1599.26 590.09,-1599.51 585.42,-1599.7 580.73,-1599.85 576.04,-1599.95 571.35,-1600 566.65,-1600 561.96,-1599.95 557.27,-1599.85 552.58,-1599.7 547.91,-1599.51 543.26,-1599.26 538.62,-1598.97 534.01,-1598.64 529.43,-1598.25 524.88,-1597.82 520.37,-1597.35 515.92,-1596.84 511.52,-1596.29 507.19,-1595.69 502.93,-1595.06 498.76,-1594.39 494.7,-1593.69 490.74,-1592.96 486.9,-1592.2 483.21,-1591.41 479.66,-1590.59 476.28,-1589.75 473.08,-1588.89 470.08,-1588.01 467.29,-1587.11 464.73,-1586.2 462.41,-1585.28 460.35,-1584.35 458.56,-1583.41 457.06,-1582.47 455.86,-1581.53 454.98,-1580.59 454.42,-1579.65 454.21,-1578.72 454.34,-1577.8 454.83,-1576.89 455.68,-1575.99 456.9,-1575.11 458.5,-1574.25 460.47,-1573.41 462.82,-1572.59 465.54,-1571.8 468.63,-1571.04 472.09,-1570.31 475.91,-1569.61 480.08,-1568.94 484.59,-1568.31 489.42,-1567.71 494.55,-1567.16 499.98,-1566.65 505.69,-1566.18 511.64,-1565.75 517.83,-1565.36 524.22,-1565.03 530.79,-1564.74 537.53,-1564.49 544.38,-1564.3 551.34,-1564.15 558.38,-1564.05 565.45,-1564 572.55,-1564 579.62,-1564.05"/>
<text text-anchor="middle" x="569" y="-1578.3" font-family="Times,serif" font-size="14.00">Peroxyde Hydrogene</text>
</g>
<!-- GazOxygene&#45;&gt;PeroxydeHydrogene -->
<g id="edge23" class="edge">
<title>GazOxygene&#45;&gt;PeroxydeHydrogene</title>
<path fill="none" stroke="lightskyblue" stroke-dasharray="5,2" d="M596.94,-1816.75C591.81,-1773.84 578.44,-1662.02 572.25,-1610.15"/>
<polygon fill="lightskyblue" stroke="lightskyblue" points="575.7,-1609.56 571.04,-1600.04 568.75,-1610.39 575.7,-1609.56"/>
<g id="a_edge23&#45;headlabel"><a xlink:title="GazOxygene">
<text text-anchor="middle" x="581.58" y="-1611.04" font-family="Times,serif" font-size="25.00">2</text>
</a>
</g>
</g>
<!-- GazOxygene&#45;&gt;Puce -->
<!-- GazHydrogene&#45;&gt;MateriauxConstruction -->
<!-- LiquideHydrogene -->
<g id="node28" class="node">
<title>LiquideHydrogene</title>
<polygon fill="lightgrey" stroke="black" points="131.79,-1564.05 138.27,-1564.15 144.69,-1564.3 151.01,-1564.49 157.21,-1564.74 163.27,-1565.03 169.16,-1565.36 174.86,-1565.75 180.35,-1566.18 185.61,-1566.65 190.61,-1567.16 195.35,-1567.71 199.8,-1568.31 203.95,-1568.94 207.79,-1569.61 211.31,-1570.31 214.5,-1571.04 217.35,-1571.8 219.86,-1572.59 222.03,-1573.41 223.84,-1574.25 225.31,-1575.11 226.44,-1575.99 227.23,-1576.89 227.68,-1577.8 227.8,-1578.72 227.6,-1579.65 227.09,-1580.59 226.27,-1581.53 225.17,-1582.47 223.79,-1583.41 222.14,-1584.35 220.24,-1585.28 218.1,-1586.2 215.74,-1587.11 213.17,-1588.01 210.4,-1588.89 207.45,-1589.75 204.34,-1590.59 201.07,-1591.41 197.66,-1592.2 194.13,-1592.96 190.48,-1593.69 186.73,-1594.39 182.89,-1595.06 178.97,-1595.69 174.98,-1596.29 170.92,-1596.84 166.82,-1597.35 162.66,-1597.82 158.47,-1598.25 154.25,-1598.64 150,-1598.97 145.73,-1599.26 141.43,-1599.51 137.13,-1599.7 132.81,-1599.85 128.49,-1599.95 124.16,-1600 119.84,-1600 115.51,-1599.95 111.19,-1599.85 106.87,-1599.7 102.57,-1599.51 98.27,-1599.26 94,-1598.97 89.75,-1598.64 85.53,-1598.25 81.34,-1597.82 77.18,-1597.35 73.08,-1596.84 69.02,-1596.29 65.03,-1595.69 61.11,-1595.06 57.27,-1594.39 53.52,-1593.69 49.87,-1592.96 46.34,-1592.2 42.93,-1591.41 39.66,-1590.59 36.55,-1589.75 33.6,-1588.89 30.83,-1588.01 28.26,-1587.11 25.9,-1586.2 23.76,-1585.28 21.86,-1584.35 20.21,-1583.41 18.83,-1582.47 17.73,-1581.53 16.91,-1580.59 16.4,-1579.65 16.2,-1578.72 16.32,-1577.8 16.77,-1576.89 17.56,-1575.99 18.69,-1575.11 20.16,-1574.25 21.97,-1573.41 24.14,-1572.59 26.65,-1571.8 29.5,-1571.04 32.69,-1570.31 36.21,-1569.61 40.05,-1568.94 44.2,-1568.31 48.65,-1567.71 53.39,-1567.16 58.39,-1566.65 63.65,-1566.18 69.14,-1565.75 74.84,-1565.36 80.73,-1565.03 86.79,-1564.74 92.99,-1564.49 99.31,-1564.3 105.73,-1564.15 112.21,-1564.05 118.73,-1564 125.27,-1564 131.79,-1564.05"/>
<text text-anchor="middle" x="122" y="-1578.3" font-family="Times,serif" font-size="14.00">Liquide Hydrogene</text>
</g>
<!-- GazHydrogene&#45;&gt;LiquideHydrogene -->
<g id="edge20" class="edge">
<title>GazHydrogene&#45;&gt;LiquideHydrogene</title>
<path fill="none" stroke="lightskyblue" stroke-dasharray="5,2" d="M397.19,-1817.14C345.86,-1773.47 208.48,-1656.58 149.51,-1606.41"/>
<polygon fill="lightskyblue" stroke="lightskyblue" points="151.61,-1603.6 141.73,-1599.79 147.08,-1608.93 151.61,-1603.6"/>
<g id="a_edge20&#45;headlabel"><a xlink:title="GazHydrogene">
<text text-anchor="middle" x="161.01" y="-1599.09" font-family="Times,serif" font-size="25.00">1</text>
</a>
</g>
</g>
<!-- GazHydrogene&#45;&gt;PeroxydeHydrogene -->
<g id="edge22" class="edge">
<title>GazHydrogene&#45;&gt;PeroxydeHydrogene</title>
<path fill="none" stroke="lightskyblue" stroke-dasharray="5,2" d="M427.45,-1816.75C453.65,-1773.48 522.28,-1660.14 553.34,-1608.86"/>
<polygon fill="lightskyblue" stroke="lightskyblue" points="556.49,-1610.41 558.68,-1600.04 550.51,-1606.78 556.49,-1610.41"/>
<g id="a_edge22&#45;headlabel"><a xlink:title="GazOxygene">
<text text-anchor="middle" x="556.52" y="-1613.92" font-family="Times,serif" font-size="25.00">2</text>
</a>
</g>
</g>
<!-- Carburant1 -->
<g id="node31" class="node">
<title>Carburant1</title>
<path fill="lightgrey" stroke="black" d="M390.5,-1420.73C390.5,-1422.53 368.31,-1424 341,-1424 313.69,-1424 291.5,-1422.53 291.5,-1420.73 291.5,-1420.73 291.5,-1391.27 291.5,-1391.27 291.5,-1389.47 313.69,-1388 341,-1388 368.31,-1388 390.5,-1389.47 390.5,-1391.27 390.5,-1391.27 390.5,-1420.73 390.5,-1420.73"/>
<path fill="none" stroke="black" d="M390.5,-1420.73C390.5,-1418.92 368.31,-1417.45 341,-1417.45 313.69,-1417.45 291.5,-1418.92 291.5,-1420.73"/>
<text text-anchor="middle" x="341" y="-1402.3" font-family="Times,serif" font-size="14.00">Carburant1</text>
</g>
<!-- LiquideHydrogene&#45;&gt;Carburant1 -->
<g id="edge24" class="edge">
<title>LiquideHydrogene&#45;&gt;Carburant1</title>
<path fill="none" stroke="lightskyblue" stroke-dasharray="5,2" d="M143.4,-1564C182.81,-1532.68 266.93,-1465.85 311.65,-1430.32"/>
<polygon fill="lightskyblue" stroke="lightskyblue" points="313.86,-1433.03 319.52,-1424.07 309.51,-1427.55 313.86,-1433.03"/>
<g id="a_edge24&#45;headlabel"><a xlink:title="LiquideOxygene">
<text text-anchor="middle" x="310.58" y="-1435.96" font-family="Times,serif" font-size="25.00">1</text>
</a>
</g>
</g>
<!-- LiquideOxygene&#45;&gt;Carburant1 -->
<g id="edge25" class="edge">
<title>LiquideOxygene&#45;&gt;Carburant1</title>
<path fill="none" stroke="lightskyblue" stroke-dasharray="5,2" d="M341,-1564C341,-1533.85 341,-1470.79 341,-1434.43"/>
<polygon fill="lightskyblue" stroke="lightskyblue" points="344.5,-1434.07 341,-1424.07 337.5,-1434.07 344.5,-1434.07"/>
<g id="a_edge25&#45;headlabel"><a xlink:title="LiquideOxygene">
<text text-anchor="middle" x="349.45" y="-1436.2" font-family="Times,serif" font-size="25.00">1</text>
</a>
</g>
</g>
<!-- Carburant2 -->
<g id="node32" class="node">
<title>Carburant2</title>
<path fill="lightgrey" stroke="black" d="M651.5,-1420.73C651.5,-1422.53 629.31,-1424 602,-1424 574.69,-1424 552.5,-1422.53 552.5,-1420.73 552.5,-1420.73 552.5,-1391.27 552.5,-1391.27 552.5,-1389.47 574.69,-1388 602,-1388 629.31,-1388 651.5,-1389.47 651.5,-1391.27 651.5,-1391.27 651.5,-1420.73 651.5,-1420.73"/>
<path fill="none" stroke="black" d="M651.5,-1420.73C651.5,-1418.92 629.31,-1417.45 602,-1417.45 574.69,-1417.45 552.5,-1418.92 552.5,-1420.73"/>
<text text-anchor="middle" x="602" y="-1402.3" font-family="Times,serif" font-size="14.00">Carburant2</text>
</g>
<!-- PeroxydeHydrogene&#45;&gt;Carburant2 -->
<g id="edge26" class="edge">
<title>PeroxydeHydrogene&#45;&gt;Carburant2</title>
<path fill="none" stroke="lightskyblue" stroke-dasharray="5,2" d="M572.22,-1564C577.97,-1533.72 590.01,-1470.25 596.89,-1433.96"/>
<polygon fill="lightskyblue" stroke="lightskyblue" points="600.34,-1434.55 598.76,-1424.07 593.46,-1433.24 600.34,-1434.55"/>
<g id="a_edge26&#45;headlabel"><a xlink:title="PeroxydeHydrogene">
<text text-anchor="middle" x="603.69" y="-1437.45" font-family="Times,serif" font-size="25.00">1</text>
</a>
</g>
</g>
<!-- Carburant1&#45;&gt;VaisseauFragile1 -->
<g id="edge54" class="edge">
<title>Carburant1&#45;&gt;VaisseauFragile1</title>
<path fill="none" stroke="red" d="M360.61,-1386.39C429.77,-1329.88 651.5,-1148.71 731.56,-1083.29"/>
<path fill="none" stroke="orange" d="M361.88,-1387.94C431.03,-1331.43 652.77,-1150.25 732.82,-1084.84"/>
<path fill="none" stroke="red" d="M363.14,-1389.49C432.3,-1332.98 654.03,-1151.8 734.09,-1086.39"/>
<polygon fill="red" stroke="red" points="735.47,-1087.2 741,-1078.16 731.04,-1081.78 735.47,-1087.2"/>
<g id="a_edge54&#45;headlabel"><a xlink:title="VaisseauFragile1">
<text text-anchor="middle" x="732.31" y="-1090.18" font-family="Times,serif" font-size="25.00">1</text>
</a>
</g>
</g>
<!-- Carburant2&#45;&gt;VaisseauRobuste1 -->
<g id="edge62" class="edge">
<title>Carburant2&#45;&gt;VaisseauRobuste1</title>
<path fill="none" stroke="red" d="M620.63,-1386.42C686.67,-1329.91 898.4,-1148.73 974.84,-1083.32"/>
<path fill="none" stroke="orange" d="M621.94,-1387.94C687.97,-1331.43 899.7,-1150.25 976.14,-1084.84"/>
<path fill="none" stroke="red" d="M623.24,-1389.46C689.27,-1332.95 901,-1151.77 977.44,-1086.36"/>
<polygon fill="red" stroke="red" points="978.62,-1087.32 983.94,-1078.16 974.07,-1082 978.62,-1087.32"/>
<g id="a_edge62&#45;headlabel"><a xlink:title="VaisseauRobuste1">
<text text-anchor="middle" x="975.67" y="-1090.37" font-family="Times,serif" font-size="25.00">1</text>
</a>
</g>
</g>
<!-- Puce&#45;&gt;SatelliteFragile1 -->
<g id="edge42" class="edge">
<title>Puce&#45;&gt;SatelliteFragile1</title>
<path fill="none" stroke="orange" d="M1351,-1563.42C1367.8,-1490.98 1433.53,-1212.08 1457.38,-1178.83 1490.53,-1133.25 1545.77,-1100.34 1586.45,-1080.61"/>
<path fill="none" stroke="yellow" d="M1352.95,-1563.87C1369.75,-1491.43 1435.48,-1212.54 1459,-1180 1491.55,-1134.97 1546.79,-1102.06 1587.32,-1082.41"/>
<path fill="none" stroke="orange" d="M1354.9,-1564.32C1371.7,-1491.89 1437.42,-1213 1460.62,-1181.17 1492.58,-1136.69 1547.82,-1103.78 1588.19,-1084.21"/>
<polygon fill="orange" stroke="orange" points="1588.96,-1085.5 1596.5,-1078.06 1585.97,-1079.18 1588.96,-1085.5"/>
<g id="a_edge42&#45;headlabel"><a xlink:title="SatelliteFragile1">
<text text-anchor="middle" x="1576.5" y="-1072.18" font-family="Times,serif" font-size="25.00">1</text>
</a>
</g>
</g>
<!-- Puce&#45;&gt;SatelliteRobuste1 -->
<g id="edge49" class="edge">
<title>Puce&#45;&gt;SatelliteRobuste1</title>
<path fill="none" stroke="orange" d="M1348.26,-1563.64C1352.37,-1508.03 1365.99,-1328.26 1381.01,-1179.8 1384.19,-1148.35 1388.52,-1112.36 1391.52,-1088.25"/>
<path fill="none" stroke="yellow" d="M1350.26,-1563.78C1354.37,-1508.18 1367.98,-1328.41 1383,-1180 1386.18,-1148.59 1390.51,-1112.6 1393.51,-1088.5"/>
<path fill="none" stroke="orange" d="M1352.25,-1563.93C1356.36,-1508.34 1369.98,-1328.56 1384.99,-1180.2 1388.16,-1148.83 1392.49,-1112.84 1395.49,-1088.75"/>
<polygon fill="orange" stroke="orange" points="1397.01,-1088.68 1394.78,-1078.32 1390.07,-1087.81 1397.01,-1088.68"/>
<g id="a_edge49&#45;headlabel"><a xlink:title="SatelliteRobuste1">
<text text-anchor="middle" x="1384.14" y="-1089.26" font-family="Times,serif" font-size="25.00">1</text>
</a>
</g>
</g>
<!-- Puce&#45;&gt;VaisseauFragile1 -->
<g id="edge57" class="edge">
<title>Puce&#45;&gt;VaisseauFragile1</title>
<path fill="none" stroke="red" d="M1319.19,-1575.48C1257.29,-1558.43 1111.7,-1511.42 1020.62,-1425.45 930.38,-1338.02 961.89,-1276.97 886.42,-1181.22 858.15,-1144.6 817.99,-1108.77 790.78,-1086.28"/>
<path fill="none" stroke="orange" d="M1319.73,-1573.55C1257.9,-1556.53 1112.31,-1509.51 1022,-1424 932.16,-1338.94 963.67,-1277.88 888,-1180 859.48,-1143.11 819.32,-1107.28 792.06,-1084.74"/>
<path fill="none" stroke="red" d="M1320.26,-1571.62C1258.52,-1554.62 1112.93,-1507.61 1023.38,-1422.55 933.94,-1339.85 965.45,-1278.8 889.58,-1178.78 860.81,-1141.62 820.65,-1105.78 793.33,-1083.2"/>
<polygon fill="red" stroke="red" points="794,-1081.8 784.04,-1078.18 789.57,-1087.22 794,-1081.8"/>
<g id="a_edge57&#45;headlabel"><a xlink:title="Puce">
<text text-anchor="middle" x="792.73" y="-1090.2" font-family="Times,serif" font-size="25.00">2</text>
</a>
</g>
</g>
<!-- Puce&#45;&gt;VaisseauRobuste1 -->
<g id="edge65" class="edge">
<title>Puce&#45;&gt;VaisseauRobuste1</title>
<path fill="none" stroke="red" d="M1337.35,-1564.83C1317.03,-1529.83 1268.86,-1447.86 1225.32,-1381.09 1152.66,-1269.64 1059.78,-1140.83 1020.85,-1087.41"/>
<path fill="none" stroke="orange" d="M1339.08,-1563.83C1318.75,-1528.82 1270.59,-1446.85 1227,-1380 1154.28,-1268.47 1061.4,-1139.66 1022.47,-1086.23"/>
<path fill="none" stroke="red" d="M1340.81,-1562.82C1320.48,-1527.81 1272.31,-1445.84 1228.68,-1378.91 1155.9,-1267.31 1063.02,-1138.49 1024.09,-1085.05"/>
<polygon fill="red" stroke="red" points="1025.2,-1084.04 1016.48,-1078.02 1019.55,-1088.16 1025.2,-1084.04"/>
<g id="a_edge65&#45;headlabel"><a xlink:title="Puce">
<text text-anchor="middle" x="1030.9" y="-1085.89" font-family="Times,serif" font-size="25.00">2</text>
</a>
</g>
</g>
<!-- Puce&#45;&gt;PuceLuxe -->
<g id="edge37" class="edge">
<title>Puce&#45;&gt;PuceLuxe</title>
<path fill="none" stroke="green" d="M1370.08,-1565.25C1432.97,-1517.44 1622.11,-1367.43 1739,-1208 1772.98,-1161.66 1779.98,-1147.87 1800,-1094 1853.89,-948.98 1884.8,-768.01 1897.74,-679.24"/>
<polygon fill="green" stroke="green" points="1901.24,-679.53 1899.2,-669.13 1894.31,-678.53 1901.24,-679.53"/>
<text text-anchor="middle" x="1789" y="-1188" font-family="Times,serif" font-size="25.00" fill="green">Puce</text>
<text text-anchor="middle" x="1888.25" y="-679.87" font-family="Times,serif" font-size="25.00">1</text>
</g>
<!-- SatelliteFragile1&#45;&gt;SatelliteFragile2 -->
<!-- SatelliteFragile1&#45;&gt;SatelliteFragile2 -->
<g id="edge43" class="edge">
<title>SatelliteFragile1&#45;&gt;SatelliteFragile2</title>
<path fill="none" stroke="orange" d="M1640.92,-1041.41C1645.31,-1010.6 1648.51,-945.23 1647.86,-906.33"/>
<path fill="none" stroke="yellow" d="M1642.9,-1041.69C1647.31,-1010.7 1650.51,-945.33 1649.86,-906.3"/>
<path fill="none" stroke="orange" d="M1644.88,-1041.97C1649.31,-1010.8 1652.51,-945.43 1651.86,-906.26"/>
<polygon fill="orange" stroke="orange" points="1653.35,-905.93 1649.57,-896.04 1646.36,-906.13 1653.35,-905.93"/>
<g id="a_edge43&#45;headlabel"><a xlink:title="SatelliteFragile1">
<text text-anchor="middle" x="1658.53" y="-907.92" font-family="Times,serif" font-size="25.00">1</text>
</a>
</g>
</g>
<!-- SatelliteRobuste1&#45;&gt;SatelliteRobuste2 -->
<!-- SatelliteRobuste1&#45;&gt;SatelliteRobuste2 -->
<g id="edge50" class="edge">
<title>SatelliteRobuste1&#45;&gt;SatelliteRobuste2</title>
<path fill="none" stroke="orange" d="M1399.63,-1041.44C1403.53,-1010.63 1405.66,-945.27 1404.37,-906.36"/>
<path fill="none" stroke="yellow" d="M1401.62,-1041.69C1405.52,-1010.7 1407.66,-945.33 1406.37,-906.3"/>
<path fill="none" stroke="orange" d="M1403.6,-1041.94C1407.52,-1010.76 1409.66,-945.4 1408.37,-906.23"/>
<polygon fill="orange" stroke="orange" points="1409.86,-905.87 1405.92,-896.04 1402.86,-906.18 1409.86,-905.87"/>
<g id="a_edge50&#45;headlabel"><a xlink:title="SatelliteRobuste1">
<text text-anchor="middle" x="1415.16" y="-907.77" font-family="Times,serif" font-size="25.00">1</text>
</a>
</g>
</g>
<!-- VaisseauFragile1&#45;&gt;VaisseauFragile2 -->
<!-- VaisseauFragile1&#45;&gt;VaisseauFragile2 -->
<g id="edge58" class="edge">
<title>VaisseauFragile1&#45;&gt;VaisseauFragile2</title>
<path fill="none" stroke="red" d="M763.78,-1041.54C766.16,-1010.73 765.1,-945.36 761.91,-906.46"/>
<path fill="none" stroke="orange" d="M765.77,-1041.69C768.16,-1010.7 767.1,-945.33 763.9,-906.3"/>
<path fill="none" stroke="red" d="M767.76,-1041.84C770.16,-1010.67 769.1,-945.3 765.9,-906.13"/>
<polygon fill="red" stroke="red" points="767.36,-905.67 762.95,-896.04 760.39,-906.32 767.36,-905.67"/>
<g id="a_edge58&#45;headlabel"><a xlink:title="VaisseauFragile1">
<text text-anchor="middle" x="773.04" y="-907.3" font-family="Times,serif" font-size="25.00">1</text>
</a>
</g>
</g>
<!-- VaisseauRobuste1&#45;&gt;VaisseauRobuste2 -->
<!-- VaisseauRobuste1&#45;&gt;VaisseauRobuste2 -->
<g id="edge66" class="edge">
<title>VaisseauRobuste1&#45;&gt;VaisseauRobuste2</title>
<path fill="none" stroke="red" d="M1006.16,-1041.49C1009.21,-1010.69 1009.57,-945.32 1007.23,-906.42"/>
<path fill="none" stroke="orange" d="M1008.15,-1041.69C1011.21,-1010.7 1011.57,-945.33 1009.22,-906.3"/>
<path fill="none" stroke="red" d="M1010.14,-1041.89C1013.21,-1010.71 1013.57,-945.34 1011.22,-906.18"/>
<polygon fill="red" stroke="red" points="1012.69,-905.76 1008.49,-896.04 1005.71,-906.26 1012.69,-905.76"/>
<g id="a_edge66&#45;headlabel"><a xlink:title="VaisseauRobuste1">
<text text-anchor="middle" x="1018.21" y="-907.51" font-family="Times,serif" font-size="25.00">1</text>
</a>
</g>
</g>
<!-- SatelliteFragile2&#45;&gt;SatelliteFragile3 -->
<!-- SatelliteFragile2&#45;&gt;SatelliteFragile3 -->
<g id="edge45" class="edge">
<title>SatelliteFragile2&#45;&gt;SatelliteFragile3</title>
<path fill="none" stroke="orange" d="M1647.99,-851.7C1651.34,-809.22 1651.64,-712.58 1648.89,-660.36"/>
<path fill="none" stroke="yellow" d="M1649.98,-851.86C1653.34,-809.23 1653.64,-712.58 1650.89,-660.25"/>
<path fill="none" stroke="orange" d="M1651.97,-852.01C1655.34,-809.23 1655.64,-712.59 1652.88,-660.15"/>
<polygon fill="orange" stroke="orange" points="1654.37,-659.87 1650.27,-650.1 1647.38,-660.29 1654.37,-659.87"/>
<g id="a_edge45&#45;headlabel"><a xlink:title="SatelliteFragile2">
<text text-anchor="middle" x="1659.8" y="-661.68" font-family="Times,serif" font-size="25.00">1</text>
</a>
</g>
</g>
<!-- SatelliteRobuste2&#45;&gt;SatelliteRobuste3 -->
<!-- SatelliteRobuste2&#45;&gt;SatelliteRobuste3 -->
<g id="edge52" class="edge">
<title>SatelliteRobuste2&#45;&gt;SatelliteRobuste3</title>
<path fill="none" stroke="orange" d="M1403.99,-851.7C1407.34,-809.22 1407.64,-712.58 1404.89,-660.36"/>
<path fill="none" stroke="yellow" d="M1405.98,-851.86C1409.34,-809.23 1409.64,-712.58 1406.89,-660.25"/>
<path fill="none" stroke="orange" d="M1407.97,-852.01C1411.34,-809.23 1411.64,-712.59 1408.88,-660.15"/>
<polygon fill="orange" stroke="orange" points="1410.37,-659.87 1406.27,-650.1 1403.38,-660.29 1410.37,-659.87"/>
<g id="a_edge52&#45;headlabel"><a xlink:title="SatelliteRobuste2">
<text text-anchor="middle" x="1415.8" y="-661.68" font-family="Times,serif" font-size="25.00">1</text>
</a>
</g>
</g>
<!-- VaisseauFragile2&#45;&gt;VaisseauFragile3 -->
<!-- VaisseauFragile2&#45;&gt;VaisseauFragile3 -->
<g id="edge60" class="edge">
<title>VaisseauFragile2&#45;&gt;VaisseauFragile3</title>
<path fill="none" stroke="red" d="M759.64,-851.73C762.31,-809.25 761.06,-712.61 757.46,-660.39"/>
<path fill="none" stroke="orange" d="M761.64,-851.86C764.31,-809.23 763.06,-712.58 759.45,-660.25"/>
<path fill="none" stroke="red" d="M763.63,-851.98C766.31,-809.2 765.06,-712.56 761.45,-660.11"/>
<polygon fill="red" stroke="red" points="762.93,-659.8 758.68,-650.1 755.95,-660.34 762.93,-659.8"/>
<g id="a_edge60&#45;headlabel"><a xlink:title="VaisseauFragile2">
<text text-anchor="middle" x="768.49" y="-661.53" font-family="Times,serif" font-size="25.00">1</text>
</a>
</g>
</g>
<!-- VaisseauRobuste2&#45;&gt;VaisseauRobuste3 -->
<!-- VaisseauRobuste2&#45;&gt;VaisseauRobuste3 -->
<g id="edge68" class="edge">
<title>VaisseauRobuste2&#45;&gt;VaisseauRobuste3</title>
<path fill="none" stroke="red" d="M1005.73,-851.72C1008.57,-809.24 1007.7,-712.6 1004.32,-660.38"/>
<path fill="none" stroke="orange" d="M1007.72,-851.86C1010.57,-809.23 1009.7,-712.58 1006.31,-660.25"/>
<path fill="none" stroke="red" d="M1009.72,-851.99C1012.57,-809.21 1011.7,-712.57 1008.31,-660.12"/>
<polygon fill="red" stroke="red" points="1009.79,-659.82 1005.58,-650.1 1002.81,-660.32 1009.79,-659.82"/>
<g id="a_edge68&#45;headlabel"><a xlink:title="VaisseauRobuste2">
<text text-anchor="middle" x="1015.32" y="-661.56" font-family="Times,serif" font-size="25.00">1</text>
</a>
</g>
</g>
<!-- SatelliteRobuste3&#45;&gt;VaisseauLuxe -->
<g id="edge71" class="edge">
<title>SatelliteRobuste3&#45;&gt;VaisseauLuxe</title>
<path fill="none" stroke="red" d="M1426.95,-596.42C1503.03,-523.82 1724.82,-312.18 1836.99,-205.13"/>
<path fill="none" stroke="orange" d="M1428.34,-597.87C1504.41,-525.27 1726.2,-313.63 1838.37,-206.58"/>
<path fill="none" stroke="red" d="M1429.72,-599.32C1505.79,-526.72 1727.58,-315.07 1839.76,-208.03"/>
<polygon fill="red" stroke="red" points="1841.11,-208.8 1845.93,-199.37 1836.28,-203.74 1841.11,-208.8"/>
<g id="a_edge71&#45;headlabel"><a xlink:title="SatelliteRobuste3">
<text text-anchor="middle" x="1838.65" y="-212" font-family="Times,serif" font-size="25.00">2</text>
</a>
</g>
</g>
<!-- VaisseauRobuste3&#45;&gt;VaisseauLuxe -->
<g id="edge70" class="edge">
<title>VaisseauRobuste3&#45;&gt;VaisseauLuxe</title>
<path fill="none" stroke="red" d="M1046.76,-596.44C1195.75,-517.33 1660.26,-270.69 1835.88,-177.44"/>
<path fill="none" stroke="orange" d="M1047.7,-598.2C1196.69,-519.09 1661.2,-272.45 1836.82,-179.2"/>
<path fill="none" stroke="red" d="M1048.64,-599.97C1197.63,-520.86 1662.14,-274.22 1837.76,-180.97"/>
<polygon fill="red" stroke="red" points="1838.52,-182.26 1845.72,-174.48 1835.24,-176.08 1838.52,-182.26"/>
<g id="a_edge70&#45;headlabel"><a xlink:title="VaisseauRobuste3">
<text text-anchor="middle" x="1833.67" y="-184.44" font-family="Times,serif" font-size="25.00">1</text>
</a>
</g>
</g>
<!-- PuceLuxe&#45;&gt;VaisseauLuxe -->
<g id="edge73" class="edge">
<title>PuceLuxe&#45;&gt;VaisseauLuxe</title>
<path fill="none" stroke="red" d="M1903,-578.7C1903,-494.65 1903,-311.49 1903,-211.49"/>
<path fill="none" stroke="orange" d="M1905,-578.7C1905,-494.65 1905,-311.49 1905,-211.49"/>
<path fill="none" stroke="red" d="M1907,-578.7C1907,-494.65 1907,-311.49 1907,-211.49"/>
<polygon fill="red" stroke="red" points="1908.5,-211.2 1905,-201.2 1901.5,-211.2 1908.5,-211.2"/>
<g id="a_edge73&#45;headlabel"><a xlink:title="PuceLuxe">
<text text-anchor="middle" x="1913.45" y="-213.32" font-family="Times,serif" font-size="25.00">3</text>
</a>
</g>
</g>
<!-- mine0 -->
<!-- mine1 -->
<!-- mine0&#45;&gt;mine1 -->
<g id="edge74" class="edge">
<title>mine0&#45;&gt;mine1</title>
<path fill="none" stroke="grey" stroke-dasharray="1,5" d="M2374.93,-2269C2381.67,-2269 2404.54,-2269 2418.91,-2269"/>
<polygon fill="grey" stroke="grey" points="2419,-2272.5 2429,-2269 2419,-2265.5 2419,-2272.5"/>
<text text-anchor="middle" x="2402" y="-2275.8" font-family="Times,serif" font-size="14.00" fill="grey">Mine</text>
</g>
<!-- fonderie0 -->
<!-- fonderie1 -->
<!-- fonderie0&#45;&gt;fonderie1 -->
<g id="edge75" class="edge">
<title>fonderie0&#45;&gt;fonderie1</title>
<path fill="none" stroke="blue" stroke-dasharray="5,2" d="M2268.1,-2269C2277.75,-2269 2318.2,-2269 2338.82,-2269"/>
<polygon fill="blue" stroke="blue" points="2338.97,-2272.5 2348.97,-2269 2338.97,-2265.5 2338.97,-2272.5"/>
<text text-anchor="middle" x="2308.5" y="-2275.8" font-family="Times,serif" font-size="14.00" fill="blue">Fonderie</text>
</g>
<!-- fabrique0 -->
<!-- fabrique1 -->
<!-- fabrique0&#45;&gt;fabrique1 -->
<g id="edge76" class="edge">
<title>fabrique0&#45;&gt;fabrique1</title>
<path fill="none" stroke="green" d="M2161.1,-2269C2170.75,-2269 2211.2,-2269 2231.82,-2269"/>
<polygon fill="green" stroke="green" points="2231.97,-2272.5 2241.97,-2269 2231.97,-2265.5 2231.97,-2272.5"/>
<text text-anchor="middle" x="2201.5" y="-2275.8" font-family="Times,serif" font-size="14.00" fill="green">Fabrique</text>
</g>
<!-- atelier0 -->
<!-- atelier1 -->
<!-- atelier0&#45;&gt;atelier1 -->
<g id="edge77" class="edge">
<title>atelier0&#45;&gt;atelier1</title>
<path fill="none" stroke="orange" d="M2069.02,-2267C2077.13,-2267 2107.69,-2267 2124.95,-2267"/>
<path fill="none" stroke="yellow" d="M2069.02,-2269C2077.13,-2269 2107.69,-2269 2124.95,-2269"/>
<path fill="none" stroke="orange" d="M2069.02,-2271C2077.13,-2271 2107.69,-2271 2124.95,-2271"/>
<polygon fill="orange" stroke="orange" points="2125.11,-2272.5 2135.11,-2269 2125.1,-2265.5 2125.11,-2272.5"/>
<text text-anchor="middle" x="2102" y="-2275.8" font-family="Times,serif" font-size="14.00" fill="orange">Atelier</text>
</g>
<!-- cuve0 -->
<!-- cuve1 -->
<!-- cuve0&#45;&gt;cuve1 -->
<g id="edge78" class="edge">
<title>cuve0&#45;&gt;cuve1</title>
<path fill="none" stroke="lightskyblue" stroke-dasharray="5,2" d="M1988.93,-2269C1995.67,-2269 2018.54,-2269 2032.91,-2269"/>
<polygon fill="lightskyblue" stroke="lightskyblue" points="2033,-2272.5 2043,-2269 2033,-2265.5 2033,-2272.5"/>
<text text-anchor="middle" x="2016" y="-2275.8" font-family="Times,serif" font-size="14.00" fill="lightskyblue">Cuve</text>
</g>
<!-- chantier0 -->
<!-- chantier1 -->
<!-- chantier0&#45;&gt;chantier1 -->
<g id="edge79" class="edge">
<title>chantier0&#45;&gt;chantier1</title>
<path fill="none" stroke="red" d="M1830.92,-2267C1844.14,-2267 1921.91,-2267 1952.58,-2267"/>
<path fill="none" stroke="orange" d="M1830.92,-2269C1844.14,-2269 1921.91,-2269 1952.58,-2269"/>
<path fill="none" stroke="red" d="M1830.92,-2271C1844.14,-2271 1921.91,-2271 1952.58,-2271"/>
<polygon fill="red" stroke="red" points="1952.95,-2272.5 1962.95,-2269 1952.95,-2265.5 1952.95,-2272.5"/>
<text text-anchor="middle" x="1897" y="-2275.8" font-family="Times,serif" font-size="14.00" fill="red">Chantier spatial</text>
</g>
</g>
</svg>
