<?xml version="1.0" encoding="UTF-8" standalone="no"?>
<!DOCTYPE svg PUBLIC "-//W3C//DTD SVG 1.1//EN"
 "http://www.w3.org/Graphics/SVG/1.1/DTD/svg11.dtd">
<!-- Generated by graphviz version 2.43.0 (0)
 -->
<!-- Title: %3 Pages: 1 -->
<svg width="1810pt" height="1810pt"
 viewBox="0.00 0.00 1810.00 1810.15" xmlns="http://www.w3.org/2000/svg" xmlns:xlink="http://www.w3.org/1999/xlink">
<g id="graph0" class="graph" transform="scale(1 1) rotate(0) translate(4 1806.15)">
<title>%3</title>
<polygon fill="white" stroke="transparent" points="-4,4 -4,-1806.15 1806,-1806.15 1806,4 -4,4"/>
<g id="clust1" class="cluster">
<title>cluster_SOL</title>
<polygon fill="none" stroke="black" points="8,-1636.09 8,-1789 1164,-1789 1164,-1636.09 8,-1636.09"/>
<text text-anchor="middle" x="586" y="-1761" font-family="Times,serif" font-size="30.00">Type de Sol</text>
</g>
<g id="clust2" class="cluster">
<title>cluster_MATIERE_PREMIERE</title>
<polygon fill="none" stroke="black" points="68,-1516.07 68,-1601.56 1397,-1601.56 1397,-1516.07 68,-1516.07"/>
</g>
<g id="clust3" class="cluster">
<title>cluster_LINGOT</title>
<polygon fill="none" stroke="black" points="255,-1343.35 255,-1428.85 1118,-1428.85 1118,-1343.35 255,-1343.35"/>
</g>
<g id="clust13" class="cluster">
<title>cluster_VAISSEAU</title>
<polygon fill="none" stroke="black" points="899,-238.4 899,-748.09 1401,-748.09 1401,-238.4 899,-238.4"/>
<text text-anchor="middle" x="1150" y="-250.4" font-family="Times,serif" font-size="25.00">Vaisseau</text>
</g>
<g id="clust14" class="cluster">
<title>cluster_VaisseauFragile</title>
<polygon fill="none" stroke="black" points="907,-310.75 907,-734.94 1141,-734.94 1141,-310.75 907,-310.75"/>
<text text-anchor="middle" x="1024" y="-322.75" font-family="Times,serif" font-size="25.00">VaisseauFragile</text>
</g>
<g id="clust15" class="cluster">
<title>cluster_VaisseauRobuste</title>
<polygon fill="none" stroke="black" points="1149,-310.75 1149,-734.94 1393,-734.94 1393,-310.75 1149,-310.75"/>
<text text-anchor="middle" x="1271" y="-322.75" font-family="Times,serif" font-size="25.00">VaisseauRobuste</text>
</g>
<g id="clust16" class="cluster">
<title>cluster_SATELLITE</title>
<polygon fill="none" stroke="black" points="275,-238.4 275,-748.09 771,-748.09 771,-238.4 275,-238.4"/>
<text text-anchor="middle" x="523" y="-250.4" font-family="Times,serif" font-size="25.00">Satellite</text>
</g>
<g id="clust17" class="cluster">
<title>cluster_SatelliteFragile</title>
<polygon fill="none" stroke="black" points="283,-310.75 283,-734.94 513,-734.94 513,-310.75 283,-310.75"/>
<text text-anchor="middle" x="398" y="-322.75" font-family="Times,serif" font-size="25.00">SatelliteFragile</text>
</g>
<g id="clust18" class="cluster">
<title>cluster_SatelliteRobuste</title>
<polygon fill="none" stroke="black" points="521,-310.75 521,-734.94 763,-734.94 763,-310.75 521,-310.75"/>
<text text-anchor="middle" x="642" y="-322.75" font-family="Times,serif" font-size="25.00">SatelliteRobuste</text>
</g>
<g id="clust19" class="cluster">
<title>cluster_LEGEND</title>
<polygon fill="none" stroke="black" points="1172,-1662.72 1172,-1762.36 1794,-1762.36 1794,-1662.72 1172,-1662.72"/>
<text text-anchor="middle" x="1483" y="-1734.36" font-family="Times,serif" font-size="30.00">Legend</text>
</g>
<!-- Vierge -->
<g id="node1" class="node">
<title>Vierge</title>
<text text-anchor="middle" x="977" y="-1675.3" font-family="Times,serif" font-size="14.00">Vierge</text>
</g>
<!-- PoussiereRegolite -->
<g id="node10" class="node">
<title>PoussiereRegolite</title>
<polygon fill="lightgrey" stroke="black" points="1117.56,-1541.05 1123.88,-1541.15 1130.14,-1541.3 1136.31,-1541.49 1142.37,-1541.74 1148.28,-1542.03 1154.03,-1542.36 1159.59,-1542.75 1164.95,-1543.18 1170.08,-1543.65 1174.97,-1544.16 1179.59,-1544.71 1183.93,-1545.31 1187.99,-1545.94 1191.73,-1546.61 1195.17,-1547.31 1198.28,-1548.04 1201.07,-1548.8 1203.51,-1549.59 1205.63,-1550.41 1207.4,-1551.25 1208.84,-1552.11 1209.94,-1552.99 1210.7,-1553.89 1211.14,-1554.8 1211.26,-1555.72 1211.06,-1556.65 1210.57,-1557.59 1209.77,-1558.53 1208.69,-1559.47 1207.35,-1560.41 1205.74,-1561.35 1203.88,-1562.28 1201.8,-1563.2 1199.49,-1564.11 1196.98,-1565.01 1194.28,-1565.89 1191.4,-1566.75 1188.36,-1567.59 1185.18,-1568.41 1181.85,-1569.2 1178.4,-1569.96 1174.84,-1570.69 1171.18,-1571.39 1167.43,-1572.06 1163.6,-1572.69 1159.71,-1573.29 1155.75,-1573.84 1151.74,-1574.35 1147.69,-1574.82 1143.6,-1575.25 1139.48,-1575.64 1135.33,-1575.97 1131.16,-1576.26 1126.97,-1576.51 1122.77,-1576.7 1118.55,-1576.85 1114.34,-1576.95 1110.11,-1577 1105.89,-1577 1101.66,-1576.95 1097.45,-1576.85 1093.23,-1576.7 1089.03,-1576.51 1084.84,-1576.26 1080.67,-1575.97 1076.52,-1575.64 1072.4,-1575.25 1068.31,-1574.82 1064.26,-1574.35 1060.25,-1573.84 1056.29,-1573.29 1052.4,-1572.69 1048.57,-1572.06 1044.82,-1571.39 1041.16,-1570.69 1037.6,-1569.96 1034.15,-1569.2 1030.82,-1568.41 1027.64,-1567.59 1024.6,-1566.75 1021.72,-1565.89 1019.02,-1565.01 1016.51,-1564.11 1014.2,-1563.2 1012.12,-1562.28 1010.26,-1561.35 1008.65,-1560.41 1007.31,-1559.47 1006.23,-1558.53 1005.43,-1557.59 1004.94,-1556.65 1004.74,-1555.72 1004.86,-1554.8 1005.3,-1553.89 1006.06,-1552.99 1007.16,-1552.11 1008.6,-1551.25 1010.37,-1550.41 1012.49,-1549.59 1014.93,-1548.8 1017.72,-1548.04 1020.83,-1547.31 1024.27,-1546.61 1028.01,-1545.94 1032.07,-1545.31 1036.41,-1544.71 1041.03,-1544.16 1045.92,-1543.65 1051.05,-1543.18 1056.41,-1542.75 1061.97,-1542.36 1067.72,-1542.03 1073.63,-1541.74 1079.69,-1541.49 1085.86,-1541.3 1092.12,-1541.15 1098.44,-1541.05 1104.81,-1541 1111.19,-1541 1117.56,-1541.05"/>
<text text-anchor="middle" x="1108" y="-1555.3" font-family="Times,serif" font-size="14.00">Poussiere Regolite</text>
</g>
<!-- Vierge&#45;&gt;PoussiereRegolite -->
<g id="edge1" class="edge">
<title>Vierge&#45;&gt;PoussiereRegolite</title>
<path fill="none" stroke="black" d="M996.05,-1660.84C1018.69,-1640.45 1056.57,-1606.32 1081.92,-1583.49"/>
<polygon fill="black" stroke="black" points="1084.26,-1586.09 1089.35,-1576.8 1079.58,-1580.89 1084.26,-1586.09"/>
</g>
<!-- GisementGlace -->
<g id="node2" class="node">
<title>GisementGlace</title>
<polygon fill="lightgrey" stroke="transparent" points="1155.5,-1697 1026.5,-1697 1026.5,-1661 1155.5,-1661 1155.5,-1697"/>
<text text-anchor="middle" x="1091" y="-1675.3" font-family="Times,serif" font-size="14.00">Gisement Glace</text>
</g>
<!-- MineraiGlace -->
<g id="node11" class="node">
<title>MineraiGlace</title>
<polygon fill="lightgrey" stroke="black" points="1316.41,-1541.05 1321.32,-1541.15 1326.17,-1541.3 1330.96,-1541.49 1335.65,-1541.74 1340.24,-1542.03 1344.7,-1542.36 1349.01,-1542.75 1353.17,-1543.18 1357.15,-1543.65 1360.93,-1544.16 1364.52,-1544.71 1367.89,-1545.31 1371.03,-1545.94 1373.94,-1546.61 1376.6,-1547.31 1379.01,-1548.04 1381.17,-1548.8 1383.07,-1549.59 1384.71,-1550.41 1386.09,-1551.25 1387.2,-1552.11 1388.05,-1552.99 1388.65,-1553.89 1388.99,-1554.8 1389.08,-1555.72 1388.93,-1556.65 1388.54,-1557.59 1387.92,-1558.53 1387.09,-1559.47 1386.04,-1560.41 1384.8,-1561.35 1383.36,-1562.28 1381.74,-1563.2 1379.95,-1564.11 1378.01,-1565.01 1375.91,-1565.89 1373.68,-1566.75 1371.32,-1567.59 1368.85,-1568.41 1366.27,-1569.2 1363.6,-1569.96 1360.83,-1570.69 1358,-1571.39 1355.09,-1572.06 1352.12,-1572.69 1349.1,-1573.29 1346.03,-1573.84 1342.92,-1574.35 1339.78,-1574.82 1336.61,-1575.25 1333.41,-1575.64 1330.19,-1575.97 1326.96,-1576.26 1323.71,-1576.51 1320.45,-1576.7 1317.19,-1576.85 1313.91,-1576.95 1310.64,-1577 1307.36,-1577 1304.09,-1576.95 1300.81,-1576.85 1297.55,-1576.7 1294.29,-1576.51 1291.04,-1576.26 1287.81,-1575.97 1284.59,-1575.64 1281.39,-1575.25 1278.22,-1574.82 1275.08,-1574.35 1271.97,-1573.84 1268.9,-1573.29 1265.88,-1572.69 1262.91,-1572.06 1260,-1571.39 1257.17,-1570.69 1254.4,-1569.96 1251.73,-1569.2 1249.15,-1568.41 1246.68,-1567.59 1244.32,-1566.75 1242.09,-1565.89 1239.99,-1565.01 1238.05,-1564.11 1236.26,-1563.2 1234.64,-1562.28 1233.2,-1561.35 1231.96,-1560.41 1230.91,-1559.47 1230.08,-1558.53 1229.46,-1557.59 1229.07,-1556.65 1228.92,-1555.72 1229.01,-1554.8 1229.35,-1553.89 1229.95,-1552.99 1230.8,-1552.11 1231.91,-1551.25 1233.29,-1550.41 1234.93,-1549.59 1236.83,-1548.8 1238.99,-1548.04 1241.4,-1547.31 1244.06,-1546.61 1246.97,-1545.94 1250.11,-1545.31 1253.48,-1544.71 1257.07,-1544.16 1260.85,-1543.65 1264.83,-1543.18 1268.99,-1542.75 1273.3,-1542.36 1277.76,-1542.03 1282.35,-1541.74 1287.04,-1541.49 1291.83,-1541.3 1296.68,-1541.15 1301.59,-1541.05 1306.53,-1541 1311.47,-1541 1316.41,-1541.05"/>
<text text-anchor="middle" x="1309" y="-1555.3" font-family="Times,serif" font-size="14.00">Minerai Glace</text>
</g>
<!-- GisementGlace&#45;&gt;MineraiGlace -->
<g id="edge2" class="edge">
<title>GisementGlace&#45;&gt;MineraiGlace</title>
<path fill="none" stroke="grey" stroke-dasharray="1,5" d="M1122.7,-1660.84C1162.31,-1639.4 1229.96,-1602.78 1271.93,-1580.07"/>
<polygon fill="grey" stroke="grey" points="1273.6,-1583.14 1280.73,-1575.3 1270.27,-1576.98 1273.6,-1583.14"/>
<g id="a_edge2&#45;headlabel"><a xlink:title="1 GisementGlace">
<text text-anchor="middle" x="1268.81" y="-1585.36" font-family="Times,serif" font-size="25.00">1</text>
</a>
</g>
</g>
<!-- GisementOr -->
<g id="node3" class="node">
<title>GisementOr</title>
<polygon fill="lightgrey" stroke="transparent" points="293.5,-1697 186.5,-1697 186.5,-1661 293.5,-1661 293.5,-1697"/>
<text text-anchor="middle" x="240" y="-1675.3" font-family="Times,serif" font-size="14.00">Gisement Or</text>
</g>
<!-- MineraiOr -->
<g id="node15" class="node">
<title>MineraiOr</title>
<polygon fill="lightgrey" stroke="black" points="148.06,-1541.05 152.08,-1541.15 156.05,-1541.3 159.96,-1541.49 163.8,-1541.74 167.55,-1542.03 171.2,-1542.36 174.73,-1542.75 178.13,-1543.18 181.39,-1543.65 184.48,-1544.16 187.42,-1544.71 190.17,-1545.31 192.74,-1545.94 195.12,-1546.61 197.3,-1547.31 199.28,-1548.04 201.04,-1548.8 202.6,-1549.59 203.94,-1550.41 205.06,-1551.25 205.97,-1552.11 206.67,-1552.99 207.16,-1553.89 207.43,-1554.8 207.51,-1555.72 207.39,-1556.65 207.07,-1557.59 206.56,-1558.53 205.88,-1559.47 205.03,-1560.41 204.01,-1561.35 202.83,-1562.28 201.51,-1563.2 200.04,-1564.11 198.45,-1565.01 196.74,-1565.89 194.91,-1566.75 192.98,-1567.59 190.96,-1568.41 188.85,-1569.2 186.66,-1569.96 184.4,-1570.69 182.08,-1571.39 179.7,-1572.06 177.28,-1572.69 174.8,-1573.29 172.29,-1573.84 169.75,-1574.35 167.18,-1574.82 164.58,-1575.25 161.97,-1575.64 159.34,-1575.97 156.69,-1576.26 154.03,-1576.51 151.37,-1576.7 148.7,-1576.85 146.02,-1576.95 143.34,-1577 140.66,-1577 137.98,-1576.95 135.3,-1576.85 132.63,-1576.7 129.97,-1576.51 127.31,-1576.26 124.66,-1575.97 122.03,-1575.64 119.42,-1575.25 116.82,-1574.82 114.25,-1574.35 111.71,-1573.84 109.2,-1573.29 106.72,-1572.69 104.3,-1572.06 101.92,-1571.39 99.6,-1570.69 97.34,-1569.96 95.15,-1569.2 93.04,-1568.41 91.02,-1567.59 89.09,-1566.75 87.26,-1565.89 85.55,-1565.01 83.96,-1564.11 82.49,-1563.2 81.17,-1562.28 79.99,-1561.35 78.97,-1560.41 78.12,-1559.47 77.44,-1558.53 76.93,-1557.59 76.61,-1556.65 76.49,-1555.72 76.57,-1554.8 76.84,-1553.89 77.33,-1552.99 78.03,-1552.11 78.94,-1551.25 80.06,-1550.41 81.4,-1549.59 82.96,-1548.8 84.72,-1548.04 86.7,-1547.31 88.88,-1546.61 91.26,-1545.94 93.83,-1545.31 96.58,-1544.71 99.52,-1544.16 102.61,-1543.65 105.87,-1543.18 109.27,-1542.75 112.8,-1542.36 116.45,-1542.03 120.2,-1541.74 124.04,-1541.49 127.95,-1541.3 131.92,-1541.15 135.94,-1541.05 139.98,-1541 144.02,-1541 148.06,-1541.05"/>
<text text-anchor="middle" x="142" y="-1555.3" font-family="Times,serif" font-size="14.00">Minerai Or</text>
</g>
<!-- GisementOr&#45;&gt;MineraiOr -->
<g id="edge3" class="edge">
<title>GisementOr&#45;&gt;MineraiOr</title>
<path fill="none" stroke="grey" stroke-dasharray="1,5" d="M225.75,-1660.84C209.01,-1640.69 181.13,-1607.12 162.18,-1584.3"/>
<polygon fill="grey" stroke="grey" points="164.72,-1581.87 155.64,-1576.42 159.33,-1586.35 164.72,-1581.87"/>
<g id="a_edge3&#45;headlabel"><a xlink:title="1 GisementOr">
<text text-anchor="middle" x="173.72" y="-1578.96" font-family="Times,serif" font-size="25.00">1</text>
</a>
</g>
</g>
<!-- GisementFer -->
<g id="node4" class="node">
<title>GisementFer</title>
<polygon fill="lightgrey" stroke="transparent" points="742.5,-1697 629.5,-1697 629.5,-1661 742.5,-1661 742.5,-1697"/>
<text text-anchor="middle" x="686" y="-1675.3" font-family="Times,serif" font-size="14.00">Gisement Fer</text>
</g>
<!-- MineraiFer -->
<g id="node14" class="node">
<title>MineraiFer</title>
<polygon fill="lightgrey" stroke="black" points="692.46,-1541.05 696.74,-1541.15 700.97,-1541.3 705.14,-1541.49 709.24,-1541.74 713.23,-1542.03 717.12,-1542.36 720.88,-1542.75 724.51,-1543.18 727.97,-1543.65 731.28,-1544.16 734.4,-1544.71 737.34,-1545.31 740.08,-1545.94 742.61,-1546.61 744.94,-1547.31 747.04,-1548.04 748.92,-1548.8 750.58,-1549.59 752.01,-1550.41 753.2,-1551.25 754.18,-1552.11 754.92,-1552.99 755.44,-1553.89 755.73,-1554.8 755.81,-1555.72 755.68,-1556.65 755.34,-1557.59 754.81,-1558.53 754.08,-1559.47 753.17,-1560.41 752.08,-1561.35 750.83,-1562.28 749.42,-1563.2 747.86,-1564.11 746.16,-1565.01 744.33,-1565.89 742.39,-1566.75 740.33,-1567.59 738.18,-1568.41 735.93,-1569.2 733.6,-1569.96 731.19,-1570.69 728.72,-1571.39 726.18,-1572.06 723.59,-1572.69 720.96,-1573.29 718.28,-1573.84 715.57,-1574.35 712.83,-1574.82 710.07,-1575.25 707.28,-1575.64 704.48,-1575.97 701.66,-1576.26 698.82,-1576.51 695.98,-1576.7 693.14,-1576.85 690.28,-1576.95 687.43,-1577 684.57,-1577 681.72,-1576.95 678.86,-1576.85 676.02,-1576.7 673.18,-1576.51 670.34,-1576.26 667.52,-1575.97 664.72,-1575.64 661.93,-1575.25 659.17,-1574.82 656.43,-1574.35 653.72,-1573.84 651.04,-1573.29 648.41,-1572.69 645.82,-1572.06 643.28,-1571.39 640.81,-1570.69 638.4,-1569.96 636.07,-1569.2 633.82,-1568.41 631.67,-1567.59 629.61,-1566.75 627.67,-1565.89 625.84,-1565.01 624.14,-1564.11 622.58,-1563.2 621.17,-1562.28 619.92,-1561.35 618.83,-1560.41 617.92,-1559.47 617.19,-1558.53 616.66,-1557.59 616.32,-1556.65 616.19,-1555.72 616.27,-1554.8 616.56,-1553.89 617.08,-1552.99 617.82,-1552.11 618.8,-1551.25 619.99,-1550.41 621.42,-1549.59 623.08,-1548.8 624.96,-1548.04 627.06,-1547.31 629.39,-1546.61 631.92,-1545.94 634.66,-1545.31 637.6,-1544.71 640.72,-1544.16 644.03,-1543.65 647.49,-1543.18 651.12,-1542.75 654.88,-1542.36 658.77,-1542.03 662.76,-1541.74 666.86,-1541.49 671.03,-1541.3 675.26,-1541.15 679.54,-1541.05 683.84,-1541 688.16,-1541 692.46,-1541.05"/>
<text text-anchor="middle" x="686" y="-1555.3" font-family="Times,serif" font-size="14.00">Minerai Fer</text>
</g>
<!-- GisementFer&#45;&gt;MineraiFer -->
<g id="edge4" class="edge">
<title>GisementFer&#45;&gt;MineraiFer</title>
<path fill="none" stroke="grey" stroke-dasharray="1,5" d="M686,-1660.84C686,-1641.53 686,-1609.89 686,-1587.2"/>
<polygon fill="grey" stroke="grey" points="689.5,-1587.18 686,-1577.18 682.5,-1587.18 689.5,-1587.18"/>
<g id="a_edge4&#45;headlabel"><a xlink:title="1 GisementFer">
<text text-anchor="middle" x="694.45" y="-1589.31" font-family="Times,serif" font-size="25.00">1</text>
</a>
</g>
</g>
<!-- GisementTitane -->
<g id="node5" class="node">
<title>GisementTitane</title>
<polygon fill="lightgrey" stroke="transparent" points="446,-1697 312,-1697 312,-1661 446,-1661 446,-1697"/>
<text text-anchor="middle" x="379" y="-1675.3" font-family="Times,serif" font-size="14.00">Gisement Titane</text>
</g>
<!-- MineraiTitane -->
<g id="node12" class="node">
<title>MineraiTitane</title>
<polygon fill="lightgrey" stroke="black" points="317.81,-1541.05 322.98,-1541.15 328.1,-1541.3 333.14,-1541.49 338.08,-1541.74 342.92,-1542.03 347.62,-1542.36 352.16,-1542.75 356.54,-1543.18 360.73,-1543.65 364.73,-1544.16 368.5,-1544.71 372.05,-1545.31 375.36,-1545.94 378.43,-1546.61 381.23,-1547.31 383.78,-1548.04 386.05,-1548.8 388.05,-1549.59 389.78,-1550.41 391.23,-1551.25 392.4,-1552.11 393.3,-1552.99 393.93,-1553.89 394.29,-1554.8 394.38,-1555.72 394.22,-1556.65 393.82,-1557.59 393.17,-1558.53 392.29,-1559.47 391.19,-1560.41 389.87,-1561.35 388.36,-1562.28 386.65,-1563.2 384.77,-1564.11 382.72,-1565.01 380.51,-1565.89 378.16,-1566.75 375.67,-1567.59 373.07,-1568.41 370.35,-1569.2 367.53,-1569.96 364.62,-1570.69 361.63,-1571.39 358.57,-1572.06 355.44,-1572.69 352.25,-1573.29 349.02,-1573.84 345.75,-1574.35 342.43,-1574.82 339.09,-1575.25 335.72,-1575.64 332.33,-1575.97 328.92,-1576.26 325.5,-1576.51 322.07,-1576.7 318.63,-1576.85 315.18,-1576.95 311.73,-1577 308.27,-1577 304.82,-1576.95 301.37,-1576.85 297.93,-1576.7 294.5,-1576.51 291.08,-1576.26 287.67,-1575.97 284.28,-1575.64 280.91,-1575.25 277.57,-1574.82 274.25,-1574.35 270.98,-1573.84 267.75,-1573.29 264.56,-1572.69 261.43,-1572.06 258.37,-1571.39 255.38,-1570.69 252.47,-1569.96 249.65,-1569.2 246.93,-1568.41 244.33,-1567.59 241.84,-1566.75 239.49,-1565.89 237.28,-1565.01 235.23,-1564.11 233.35,-1563.2 231.64,-1562.28 230.13,-1561.35 228.81,-1560.41 227.71,-1559.47 226.83,-1558.53 226.18,-1557.59 225.78,-1556.65 225.62,-1555.72 225.71,-1554.8 226.07,-1553.89 226.7,-1552.99 227.6,-1552.11 228.77,-1551.25 230.22,-1550.41 231.95,-1549.59 233.95,-1548.8 236.22,-1548.04 238.77,-1547.31 241.57,-1546.61 244.64,-1545.94 247.95,-1545.31 251.5,-1544.71 255.27,-1544.16 259.27,-1543.65 263.46,-1543.18 267.84,-1542.75 272.38,-1542.36 277.08,-1542.03 281.92,-1541.74 286.86,-1541.49 291.9,-1541.3 297.02,-1541.15 302.19,-1541.05 307.39,-1541 312.61,-1541 317.81,-1541.05"/>
<text text-anchor="middle" x="310" y="-1555.3" font-family="Times,serif" font-size="14.00">Minerai Titane</text>
</g>
<!-- GisementTitane&#45;&gt;MineraiTitane -->
<g id="edge5" class="edge">
<title>GisementTitane&#45;&gt;MineraiTitane</title>
<path fill="none" stroke="grey" stroke-dasharray="1,5" d="M368.97,-1660.84C357.47,-1641.18 338.5,-1608.74 325.19,-1585.98"/>
<polygon fill="grey" stroke="grey" points="328.11,-1584.04 320.05,-1577.18 322.07,-1587.58 328.11,-1584.04"/>
<g id="a_edge5&#45;headlabel"><a xlink:title="1 GisementTitane">
<text text-anchor="middle" x="336.49" y="-1582.56" font-family="Times,serif" font-size="25.00">1</text>
</a>
</g>
</g>
<!-- GisementSilicium -->
<g id="node6" class="node">
<title>GisementSilicium</title>
<polygon fill="lightgrey" stroke="transparent" points="611.5,-1697 464.5,-1697 464.5,-1661 611.5,-1661 611.5,-1697"/>
<text text-anchor="middle" x="538" y="-1675.3" font-family="Times,serif" font-size="14.00">Gisement Silicium</text>
</g>
<!-- MineraiSilicium -->
<g id="node13" class="node">
<title>MineraiSilicium</title>
<polygon fill="lightgrey" stroke="black" points="513.61,-1541.05 519.3,-1541.15 524.94,-1541.3 530.5,-1541.49 535.95,-1541.74 541.28,-1542.03 546.46,-1542.36 551.47,-1542.75 556.29,-1543.18 560.91,-1543.65 565.31,-1544.16 569.47,-1544.71 573.39,-1545.31 577.04,-1545.94 580.41,-1546.61 583.5,-1547.31 586.31,-1548.04 588.81,-1548.8 591.02,-1549.59 592.92,-1550.41 594.52,-1551.25 595.81,-1552.11 596.8,-1552.99 597.49,-1553.89 597.89,-1554.8 598,-1555.72 597.82,-1556.65 597.37,-1557.59 596.66,-1558.53 595.69,-1559.47 594.47,-1560.41 593.02,-1561.35 591.35,-1562.28 589.47,-1563.2 587.4,-1564.11 585.14,-1565.01 582.71,-1565.89 580.11,-1566.75 577.38,-1567.59 574.5,-1568.41 571.51,-1569.2 568.4,-1569.96 565.2,-1570.69 561.9,-1571.39 558.52,-1572.06 555.08,-1572.69 551.57,-1573.29 548,-1573.84 544.39,-1574.35 540.74,-1574.82 537.06,-1575.25 533.35,-1575.64 529.61,-1575.97 525.85,-1576.26 522.08,-1576.51 518.3,-1576.7 514.51,-1576.85 510.71,-1576.95 506.9,-1577 503.1,-1577 499.29,-1576.95 495.49,-1576.85 491.7,-1576.7 487.92,-1576.51 484.15,-1576.26 480.39,-1575.97 476.65,-1575.64 472.94,-1575.25 469.26,-1574.82 465.61,-1574.35 462,-1573.84 458.43,-1573.29 454.92,-1572.69 451.48,-1572.06 448.1,-1571.39 444.8,-1570.69 441.6,-1569.96 438.49,-1569.2 435.5,-1568.41 432.62,-1567.59 429.89,-1566.75 427.29,-1565.89 424.86,-1565.01 422.6,-1564.11 420.53,-1563.2 418.65,-1562.28 416.98,-1561.35 415.53,-1560.41 414.31,-1559.47 413.34,-1558.53 412.63,-1557.59 412.18,-1556.65 412,-1555.72 412.11,-1554.8 412.51,-1553.89 413.2,-1552.99 414.19,-1552.11 415.48,-1551.25 417.08,-1550.41 418.98,-1549.59 421.19,-1548.8 423.69,-1548.04 426.5,-1547.31 429.59,-1546.61 432.96,-1545.94 436.61,-1545.31 440.53,-1544.71 444.69,-1544.16 449.09,-1543.65 453.71,-1543.18 458.53,-1542.75 463.54,-1542.36 468.72,-1542.03 474.05,-1541.74 479.5,-1541.49 485.06,-1541.3 490.7,-1541.15 496.39,-1541.05 502.13,-1541 507.87,-1541 513.61,-1541.05"/>
<text text-anchor="middle" x="505" y="-1555.3" font-family="Times,serif" font-size="14.00">Minerai Silicium</text>
</g>
<!-- GisementSilicium&#45;&gt;MineraiSilicium -->
<g id="edge6" class="edge">
<title>GisementSilicium&#45;&gt;MineraiSilicium</title>
<path fill="none" stroke="grey" stroke-dasharray="1,5" d="M533.2,-1660.84C527.78,-1641.44 518.87,-1609.6 512.52,-1586.89"/>
<polygon fill="grey" stroke="grey" points="515.87,-1585.87 509.8,-1577.18 509.13,-1587.75 515.87,-1585.87"/>
<g id="a_edge6&#45;headlabel"><a xlink:title="1 GisementSilicium">
<text text-anchor="middle" x="522.83" y="-1586.36" font-family="Times,serif" font-size="25.00">1</text>
</a>
</g>
</g>
<!-- GisementAluminium -->
<g id="node7" class="node">
<title>GisementAluminium</title>
<polygon fill="lightgrey" stroke="transparent" points="927.5,-1697 760.5,-1697 760.5,-1661 927.5,-1661 927.5,-1697"/>
<text text-anchor="middle" x="844" y="-1675.3" font-family="Times,serif" font-size="14.00">Gisement Aluminium</text>
</g>
<!-- MineraiAluminium -->
<g id="node16" class="node">
<title>MineraiAluminium</title>
<polygon fill="lightgrey" stroke="black" points="889.87,-1541.05 896.41,-1541.15 902.88,-1541.3 909.25,-1541.49 915.51,-1541.74 921.62,-1542.03 927.56,-1542.36 933.3,-1542.75 938.84,-1543.18 944.14,-1543.65 949.19,-1544.16 953.96,-1544.71 958.45,-1545.31 962.64,-1545.94 966.51,-1546.61 970.06,-1547.31 973.27,-1548.04 976.15,-1548.8 978.68,-1549.59 980.86,-1550.41 982.69,-1551.25 984.18,-1552.11 985.31,-1552.99 986.11,-1553.89 986.56,-1554.8 986.68,-1555.72 986.48,-1556.65 985.96,-1557.59 985.14,-1558.53 984.03,-1559.47 982.64,-1560.41 980.98,-1561.35 979.06,-1562.28 976.91,-1563.2 974.52,-1564.11 971.93,-1565.01 969.14,-1565.89 966.17,-1566.75 963.03,-1567.59 959.73,-1568.41 956.3,-1569.2 952.73,-1569.96 949.05,-1570.69 945.27,-1571.39 941.4,-1572.06 937.45,-1572.69 933.42,-1573.29 929.33,-1573.84 925.19,-1574.35 921,-1574.82 916.78,-1575.25 912.52,-1575.64 908.23,-1575.97 903.92,-1576.26 899.6,-1576.51 895.26,-1576.7 890.9,-1576.85 886.55,-1576.95 882.18,-1577 877.82,-1577 873.45,-1576.95 869.1,-1576.85 864.74,-1576.7 860.4,-1576.51 856.08,-1576.26 851.77,-1575.97 847.48,-1575.64 843.22,-1575.25 839,-1574.82 834.81,-1574.35 830.67,-1573.84 826.58,-1573.29 822.55,-1572.69 818.6,-1572.06 814.73,-1571.39 810.95,-1570.69 807.27,-1569.96 803.7,-1569.2 800.27,-1568.41 796.97,-1567.59 793.83,-1566.75 790.86,-1565.89 788.07,-1565.01 785.48,-1564.11 783.09,-1563.2 780.94,-1562.28 779.02,-1561.35 777.36,-1560.41 775.97,-1559.47 774.86,-1558.53 774.04,-1557.59 773.52,-1556.65 773.32,-1555.72 773.44,-1554.8 773.89,-1553.89 774.69,-1552.99 775.82,-1552.11 777.31,-1551.25 779.14,-1550.41 781.32,-1549.59 783.85,-1548.8 786.73,-1548.04 789.94,-1547.31 793.49,-1546.61 797.36,-1545.94 801.55,-1545.31 806.04,-1544.71 810.81,-1544.16 815.86,-1543.65 821.16,-1543.18 826.7,-1542.75 832.44,-1542.36 838.38,-1542.03 844.49,-1541.74 850.75,-1541.49 857.12,-1541.3 863.59,-1541.15 870.13,-1541.05 876.7,-1541 883.3,-1541 889.87,-1541.05"/>
<text text-anchor="middle" x="880" y="-1555.3" font-family="Times,serif" font-size="14.00">Minerai Aluminium</text>
</g>
<!-- GisementAluminium&#45;&gt;MineraiAluminium -->
<g id="edge7" class="edge">
<title>GisementAluminium&#45;&gt;MineraiAluminium</title>
<path fill="none" stroke="grey" stroke-dasharray="1,5" d="M849.23,-1660.84C855.15,-1641.44 864.87,-1609.6 871.8,-1586.89"/>
<polygon fill="grey" stroke="grey" points="875.19,-1587.77 874.76,-1577.18 868.49,-1585.72 875.19,-1587.77"/>
<g id="a_edge7&#45;headlabel"><a xlink:title="1 GisementAluminium">
<text text-anchor="middle" x="877.55" y="-1590.98" font-family="Times,serif" font-size="25.00">1</text>
</a>
</g>
</g>
<!-- Montage -->
<g id="node8" class="node">
<title>Montage</title>
<polygon fill="lightgrey" stroke="transparent" points="168,-1697 88,-1697 88,-1661 168,-1661 168,-1697"/>
<text text-anchor="middle" x="128" y="-1675.3" font-family="Times,serif" font-size="14.00">Montage</text>
</g>
<!-- Trou -->
<g id="node9" class="node">
<title>Trou</title>
<polygon fill="lightgrey" stroke="transparent" points="70,-1697 16,-1697 16,-1661 70,-1661 70,-1697"/>
<text text-anchor="middle" x="43" y="-1675.3" font-family="Times,serif" font-size="14.00">Trou</text>
</g>
<!-- LingotRegolite -->
<g id="node17" class="node">
<title>LingotRegolite</title>
<polygon fill="lightgrey" stroke="black" points="1038,-1404 912,-1404 912,-1368 1038,-1368 1038,-1404"/>
<text text-anchor="middle" x="975" y="-1382.3" font-family="Times,serif" font-size="14.00">Lingot Regolite</text>
</g>
<!-- PoussiereRegolite&#45;&gt;LingotRegolite -->
<g id="edge8" class="edge">
<title>PoussiereRegolite&#45;&gt;LingotRegolite</title>
<path fill="none" stroke="blue" stroke-dasharray="5,2" d="M1094.76,-1540.98C1071.22,-1510.71 1021.98,-1447.41 994.54,-1412.12"/>
<polygon fill="blue" stroke="blue" points="997.28,-1409.95 988.38,-1404.21 991.76,-1414.25 997.28,-1409.95"/>
<g id="a_edge8&#45;headlabel"><a xlink:title="2 PoussiereRegolite">
<text text-anchor="middle" x="1006.18" y="-1407.32" font-family="Times,serif" font-size="25.00">2</text>
</a>
</g>
</g>
<!-- Helium3 -->
<g id="node24" class="node">
<title>Helium3</title>
<ellipse fill="lightgrey" stroke="black" cx="1178" cy="-1386" rx="50.09" ry="50.09"/>
<polyline fill="none" stroke="black" points="1211.1,-1423.53 1144.9,-1423.53 "/>
<polyline fill="none" stroke="black" points="1211.1,-1348.47 1144.9,-1348.47 "/>
<text text-anchor="middle" x="1178" y="-1382.3" font-family="Times,serif" font-size="14.00">Helium3</text>
</g>
<!-- PoussiereRegolite&#45;&gt;Helium3 -->
<g id="edge10" class="edge">
<title>PoussiereRegolite&#45;&gt;Helium3</title>
<path fill="none" stroke="black" d="M1114.97,-1540.98C1124.32,-1518.12 1141.39,-1476.42 1155.41,-1442.18"/>
<polygon fill="black" stroke="black" points="1158.73,-1443.32 1159.28,-1432.74 1152.25,-1440.67 1158.73,-1443.32"/>
</g>
<!-- Eau -->
<g id="node18" class="node">
<title>Eau</title>
<polygon fill="lightgrey" stroke="black" points="1110,-1404 1056,-1404 1056,-1368 1110,-1368 1110,-1404"/>
<text text-anchor="middle" x="1083" y="-1382.3" font-family="Times,serif" font-size="14.00">Eau</text>
</g>
<!-- MineraiGlace&#45;&gt;Eau -->
<g id="edge9" class="edge">
<title>MineraiGlace&#45;&gt;Eau</title>
<path fill="none" stroke="blue" stroke-dasharray="5,2" d="M1276.58,-1541.95C1236.62,-1521.16 1168,-1482.07 1119,-1436.05 1111.65,-1429.14 1104.78,-1420.57 1099.04,-1412.53"/>
<polygon fill="blue" stroke="blue" points="1101.83,-1410.4 1093.3,-1404.12 1096.05,-1414.35 1101.83,-1410.4"/>
<g id="a_edge9&#45;headlabel"><a xlink:title="1 MineraiGlace">
<text text-anchor="middle" x="1110.5" y="-1408.32" font-family="Times,serif" font-size="25.00">1</text>
</a>
</g>
</g>
<!-- LingotTitane -->
<g id="node19" class="node">
<title>LingotTitane</title>
<polygon fill="lightgrey" stroke="black" points="479,-1404 367,-1404 367,-1368 479,-1368 479,-1404"/>
<text text-anchor="middle" x="423" y="-1382.3" font-family="Times,serif" font-size="14.00">Lingot Titane</text>
</g>
<!-- MineraiTitane&#45;&gt;LingotTitane -->
<g id="edge11" class="edge">
<title>MineraiTitane&#45;&gt;LingotTitane</title>
<path fill="none" stroke="blue" stroke-dasharray="5,2" d="M321.25,-1540.98C341.16,-1510.84 382.73,-1447.94 406.1,-1412.57"/>
<polygon fill="blue" stroke="blue" points="409.04,-1414.48 411.63,-1404.21 403.2,-1410.62 409.04,-1414.48"/>
<g id="a_edge11&#45;headlabel"><a xlink:title="1 MineraiTitane">
<text text-anchor="middle" x="408.69" y="-1417.99" font-family="Times,serif" font-size="25.00">1</text>
</a>
</g>
</g>
<!-- LingotSilicium -->
<g id="node20" class="node">
<title>LingotSilicium</title>
<polygon fill="lightgrey" stroke="black" points="622.5,-1404 497.5,-1404 497.5,-1368 622.5,-1368 622.5,-1404"/>
<text text-anchor="middle" x="560" y="-1382.3" font-family="Times,serif" font-size="14.00">Lingot Silicium</text>
</g>
<!-- MineraiSilicium&#45;&gt;LingotSilicium -->
<g id="edge12" class="edge">
<title>MineraiSilicium&#45;&gt;LingotSilicium</title>
<path fill="none" stroke="blue" stroke-dasharray="5,2" d="M510.47,-1540.98C520.05,-1511.22 539.89,-1449.53 551.34,-1413.93"/>
<polygon fill="blue" stroke="blue" points="554.74,-1414.8 554.47,-1404.21 548.07,-1412.65 554.74,-1414.8"/>
<g id="a_edge12&#45;headlabel"><a xlink:title="1 MineraiSilicium">
<text text-anchor="middle" x="556.96" y="-1418.05" font-family="Times,serif" font-size="25.00">1</text>
</a>
</g>
</g>
<!-- LingotFer -->
<g id="node21" class="node">
<title>LingotFer</title>
<polygon fill="lightgrey" stroke="black" points="731.5,-1404 640.5,-1404 640.5,-1368 731.5,-1368 731.5,-1404"/>
<text text-anchor="middle" x="686" y="-1382.3" font-family="Times,serif" font-size="14.00">Lingot Fer</text>
</g>
<!-- MineraiFer&#45;&gt;LingotFer -->
<g id="edge13" class="edge">
<title>MineraiFer&#45;&gt;LingotFer</title>
<path fill="none" stroke="blue" stroke-dasharray="5,2" d="M686,-1540.98C686,-1511.35 686,-1450.06 686,-1414.39"/>
<polygon fill="blue" stroke="blue" points="689.5,-1414.21 686,-1404.21 682.5,-1414.21 689.5,-1414.21"/>
<g id="a_edge13&#45;headlabel"><a xlink:title="1 MineraiFer">
<text text-anchor="middle" x="694.45" y="-1416.33" font-family="Times,serif" font-size="25.00">1</text>
</a>
</g>
</g>
<!-- LingotOr -->
<g id="node22" class="node">
<title>LingotOr</title>
<polygon fill="lightgrey" stroke="black" points="348.5,-1404 263.5,-1404 263.5,-1368 348.5,-1368 348.5,-1404"/>
<text text-anchor="middle" x="306" y="-1382.3" font-family="Times,serif" font-size="14.00">Lingot Or</text>
</g>
<!-- MineraiOr&#45;&gt;LingotOr -->
<g id="edge14" class="edge">
<title>MineraiOr&#45;&gt;LingotOr</title>
<path fill="none" stroke="blue" stroke-dasharray="5,2" d="M158.02,-1541.29C187.1,-1510.98 248.65,-1446.79 282.49,-1411.51"/>
<polygon fill="blue" stroke="blue" points="285.27,-1413.67 289.67,-1404.03 280.22,-1408.82 285.27,-1413.67"/>
<g id="a_edge14&#45;headlabel"><a xlink:title="1 MineraiOr">
<text text-anchor="middle" x="283.22" y="-1416.96" font-family="Times,serif" font-size="25.00">1</text>
</a>
</g>
</g>
<!-- LingotAluminium -->
<g id="node23" class="node">
<title>LingotAluminium</title>
<polygon fill="lightgrey" stroke="black" points="894,-1404 750,-1404 750,-1368 894,-1368 894,-1404"/>
<text text-anchor="middle" x="822" y="-1382.3" font-family="Times,serif" font-size="14.00">Lingot Aluminium</text>
</g>
<!-- MineraiAluminium&#45;&gt;LingotAluminium -->
<g id="edge15" class="edge">
<title>MineraiAluminium&#45;&gt;LingotAluminium</title>
<path fill="none" stroke="blue" stroke-dasharray="5,2" d="M874.23,-1540.98C864.13,-1511.22 843.21,-1449.53 831.13,-1413.93"/>
<polygon fill="blue" stroke="blue" points="834.36,-1412.55 827.84,-1404.21 827.73,-1414.8 834.36,-1412.55"/>
<g id="a_edge15&#45;headlabel"><a xlink:title="1 MineraiAluminium">
<text text-anchor="middle" x="841.66" y="-1412.66" font-family="Times,serif" font-size="25.00">1</text>
</a>
</g>
</g>
<!-- MateriauxConstruction -->
<g id="node25" class="node">
<title>MateriauxConstruction</title>
<polygon fill="lightgrey" stroke="black" points="1034.5,-947 847.5,-947 847.5,-911 1034.5,-911 1034.5,-947"/>
<text text-anchor="middle" x="941" y="-925.3" font-family="Times,serif" font-size="14.00">Materiaux Construction</text>
</g>
<!-- LingotRegolite&#45;&gt;MateriauxConstruction -->
<g id="edge33" class="edge">
<title>LingotRegolite&#45;&gt;MateriauxConstruction</title>
<path fill="none" stroke="green" d="M969.11,-1367.67C953.84,-1320.86 914.64,-1187.78 922,-1075 924.68,-1033.89 931.6,-986.64 936.3,-957.55"/>
<polygon fill="green" stroke="green" points="939.81,-957.77 937.98,-947.34 932.91,-956.64 939.81,-957.77"/>
<g id="a_edge33&#45;headlabel"><a xlink:title="2 LingotRegolite">
<text text-anchor="middle" x="943.38" y="-960.6" font-family="Times,serif" font-size="25.00">2</text>
</a>
</g>
</g>
<!-- GazOxygene -->
<g id="node26" class="node">
<title>GazOxygene</title>
<polygon fill="lightgrey" stroke="black" points="1267.06,-1195.05 1271.73,-1195.15 1276.36,-1195.3 1280.91,-1195.49 1285.38,-1195.74 1289.75,-1196.03 1294,-1196.36 1298.11,-1196.75 1302.07,-1197.18 1305.86,-1197.65 1309.46,-1198.16 1312.88,-1198.71 1316.09,-1199.31 1319.08,-1199.94 1321.85,-1200.61 1324.39,-1201.31 1326.69,-1202.04 1328.74,-1202.8 1330.55,-1203.59 1332.11,-1204.41 1333.42,-1205.25 1334.48,-1206.11 1335.29,-1206.99 1335.86,-1207.89 1336.19,-1208.8 1336.27,-1209.72 1336.13,-1210.65 1335.76,-1211.59 1335.17,-1212.53 1334.38,-1213.47 1333.38,-1214.41 1332.19,-1215.35 1330.82,-1216.28 1329.28,-1217.2 1327.58,-1218.11 1325.73,-1219.01 1323.73,-1219.89 1321.61,-1220.75 1319.36,-1221.59 1317.01,-1222.41 1314.55,-1223.2 1312,-1223.96 1309.37,-1224.69 1306.67,-1225.39 1303.9,-1226.06 1301.07,-1226.69 1298.19,-1227.29 1295.27,-1227.84 1292.31,-1228.35 1289.32,-1228.82 1286.29,-1229.25 1283.25,-1229.64 1280.19,-1229.97 1277.1,-1230.26 1274.01,-1230.51 1270.91,-1230.7 1267.8,-1230.85 1264.68,-1230.95 1261.56,-1231 1258.44,-1231 1255.32,-1230.95 1252.2,-1230.85 1249.09,-1230.7 1245.99,-1230.51 1242.9,-1230.26 1239.81,-1229.97 1236.75,-1229.64 1233.71,-1229.25 1230.68,-1228.82 1227.69,-1228.35 1224.73,-1227.84 1221.81,-1227.29 1218.93,-1226.69 1216.1,-1226.06 1213.33,-1225.39 1210.63,-1224.69 1208,-1223.96 1205.45,-1223.2 1202.99,-1222.41 1200.64,-1221.59 1198.39,-1220.75 1196.27,-1219.89 1194.27,-1219.01 1192.42,-1218.11 1190.72,-1217.2 1189.18,-1216.28 1187.81,-1215.35 1186.62,-1214.41 1185.62,-1213.47 1184.83,-1212.53 1184.24,-1211.59 1183.87,-1210.65 1183.73,-1209.72 1183.81,-1208.8 1184.14,-1207.89 1184.71,-1206.99 1185.52,-1206.11 1186.58,-1205.25 1187.89,-1204.41 1189.45,-1203.59 1191.26,-1202.8 1193.31,-1202.04 1195.61,-1201.31 1198.15,-1200.61 1200.92,-1199.94 1203.91,-1199.31 1207.12,-1198.71 1210.54,-1198.16 1214.14,-1197.65 1217.93,-1197.18 1221.89,-1196.75 1226,-1196.36 1230.25,-1196.03 1234.62,-1195.74 1239.09,-1195.49 1243.64,-1195.3 1248.27,-1195.15 1252.94,-1195.05 1257.64,-1195 1262.36,-1195 1267.06,-1195.05"/>
<text text-anchor="middle" x="1260" y="-1209.3" font-family="Times,serif" font-size="14.00">Gaz Oxygene</text>
</g>
<!-- Eau&#45;&gt;GazOxygene -->
<g id="edge17" class="edge">
<title>Eau&#45;&gt;GazOxygene</title>
<path fill="none" stroke="lightskyblue" stroke-dasharray="5,2" d="M1094.12,-1367.93C1100.83,-1358.15 1109.83,-1345.89 1119,-1335.95 1154.32,-1297.7 1200.93,-1259.36 1230.69,-1236.15"/>
<polygon fill="lightskyblue" stroke="lightskyblue" points="1232.85,-1238.91 1238.62,-1230.02 1228.57,-1233.37 1232.85,-1238.91"/>
<g id="a_edge17&#45;headlabel"><a xlink:title="1 Eau">
<text text-anchor="middle" x="1229.45" y="-1241.8" font-family="Times,serif" font-size="25.00">1</text>
</a>
</g>
</g>
<!-- GazHydrogene -->
<g id="node27" class="node">
<title>GazHydrogene</title>
<polygon fill="lightgrey" stroke="black" points="1086.13,-1195.05 1091.5,-1195.15 1096.83,-1195.3 1102.08,-1195.49 1107.22,-1195.74 1112.25,-1196.03 1117.14,-1196.36 1121.87,-1196.75 1126.43,-1197.18 1130.79,-1197.65 1134.94,-1198.16 1138.87,-1198.71 1142.57,-1199.31 1146.01,-1199.94 1149.2,-1200.61 1152.12,-1201.31 1154.77,-1202.04 1157.14,-1202.8 1159.22,-1203.59 1161.02,-1204.41 1162.52,-1205.25 1163.74,-1206.11 1164.68,-1206.99 1165.33,-1207.89 1165.71,-1208.8 1165.81,-1209.72 1165.64,-1210.65 1165.21,-1211.59 1164.54,-1212.53 1163.62,-1213.47 1162.48,-1214.41 1161.11,-1215.35 1159.53,-1216.28 1157.76,-1217.2 1155.8,-1218.11 1153.66,-1219.01 1151.37,-1219.89 1148.92,-1220.75 1146.34,-1221.59 1143.62,-1222.41 1140.8,-1223.2 1137.86,-1223.96 1134.84,-1224.69 1131.72,-1225.39 1128.54,-1226.06 1125.28,-1226.69 1121.97,-1227.29 1118.6,-1227.84 1115.2,-1228.35 1111.75,-1228.82 1108.27,-1229.25 1104.77,-1229.64 1101.24,-1229.97 1097.69,-1230.26 1094.13,-1230.51 1090.56,-1230.7 1086.97,-1230.85 1083.39,-1230.95 1079.8,-1231 1076.2,-1231 1072.61,-1230.95 1069.03,-1230.85 1065.44,-1230.7 1061.87,-1230.51 1058.31,-1230.26 1054.76,-1229.97 1051.23,-1229.64 1047.73,-1229.25 1044.25,-1228.82 1040.8,-1228.35 1037.4,-1227.84 1034.03,-1227.29 1030.72,-1226.69 1027.46,-1226.06 1024.28,-1225.39 1021.16,-1224.69 1018.14,-1223.96 1015.2,-1223.2 1012.38,-1222.41 1009.66,-1221.59 1007.08,-1220.75 1004.63,-1219.89 1002.34,-1219.01 1000.2,-1218.11 998.24,-1217.2 996.47,-1216.28 994.89,-1215.35 993.52,-1214.41 992.38,-1213.47 991.46,-1212.53 990.79,-1211.59 990.36,-1210.65 990.19,-1209.72 990.29,-1208.8 990.67,-1207.89 991.32,-1206.99 992.26,-1206.11 993.48,-1205.25 994.98,-1204.41 996.78,-1203.59 998.86,-1202.8 1001.23,-1202.04 1003.88,-1201.31 1006.8,-1200.61 1009.99,-1199.94 1013.43,-1199.31 1017.13,-1198.71 1021.06,-1198.16 1025.21,-1197.65 1029.57,-1197.18 1034.13,-1196.75 1038.86,-1196.36 1043.75,-1196.03 1048.78,-1195.74 1053.92,-1195.49 1059.17,-1195.3 1064.5,-1195.15 1069.87,-1195.05 1075.29,-1195 1080.71,-1195 1086.13,-1195.05"/>
<text text-anchor="middle" x="1078" y="-1209.3" font-family="Times,serif" font-size="14.00">Gaz Hydrogene</text>
</g>
<!-- Eau&#45;&gt;GazHydrogene -->
<g id="edge16" class="edge">
<title>Eau&#45;&gt;GazHydrogene</title>
<path fill="none" stroke="lightskyblue" stroke-dasharray="5,2" d="M1082.5,-1367.98C1081.64,-1338.35 1079.84,-1277.06 1078.8,-1241.39"/>
<polygon fill="lightskyblue" stroke="lightskyblue" points="1082.29,-1241.1 1078.5,-1231.21 1075.3,-1241.3 1082.29,-1241.1"/>
<g id="a_edge16&#45;headlabel"><a xlink:title="1 Eau">
<text text-anchor="middle" x="1087.48" y="-1243.08" font-family="Times,serif" font-size="25.00">1</text>
</a>
</g>
</g>
<!-- SatelliteRobuste1 -->
<g id="node35" class="node">
<title>SatelliteRobuste1</title>
<polygon fill="lightgrey" stroke="black" points="742.64,-684.54 742.64,-699.46 681.34,-710 594.66,-710 533.36,-699.46 533.36,-684.54 594.66,-674 681.34,-674 742.64,-684.54"/>
<text text-anchor="middle" x="638" y="-688.3" font-family="Times,serif" font-size="14.00">Satellite Robuste1</text>
</g>
<!-- LingotTitane&#45;&gt;SatelliteRobuste1 -->
<g id="edge46" class="edge">
<title>LingotTitane&#45;&gt;SatelliteRobuste1</title>
<path fill="none" stroke="orange" d="M439.74,-1366.54C468.22,-1337.87 520.48,-1276.51 520,-1214 520,-1214 520,-1214 520,-1032.5 520.22,-908.83 588.98,-773.85 620.66,-718.16"/>
<path fill="none" stroke="yellow" d="M441.16,-1367.95C469.74,-1339.16 522,-1277.81 522,-1214 522,-1214 522,-1214 522,-1032.5 522,-909.73 590.76,-774.76 622.4,-719.15"/>
<path fill="none" stroke="orange" d="M442.58,-1369.36C471.26,-1340.46 523.52,-1279.1 524,-1214 524,-1214 524,-1214 524,-1032.5 523.78,-910.64 592.54,-775.67 624.14,-720.14"/>
<polygon fill="orange" stroke="orange" points="625.54,-720.72 627.5,-710.31 619.47,-717.23 625.54,-720.72"/>
<g id="a_edge46&#45;headlabel"><a xlink:title="2 SatelliteRobuste1">
<text text-anchor="middle" x="611.12" y="-715.79" font-family="Times,serif" font-size="25.00">2</text>
</a>
</g>
</g>
<!-- VaisseauRobuste1 -->
<g id="node37" class="node">
<title>VaisseauRobuste1</title>
<polygon fill="lightgrey" stroke="black" points="1373.46,-684.54 1373.46,-699.46 1311.1,-710 1222.9,-710 1160.54,-699.46 1160.54,-684.54 1222.9,-674 1311.1,-674 1373.46,-684.54"/>
<text text-anchor="middle" x="1267" y="-688.3" font-family="Times,serif" font-size="14.00">Vaisseau Robuste1</text>
</g>
<!-- LingotTitane&#45;&gt;VaisseauRobuste1 -->
<g id="edge62" class="edge">
<title>LingotTitane&#45;&gt;VaisseauRobuste1</title>
<path fill="none" stroke="red" d="M444.15,-1366.26C456.83,-1356.67 473.05,-1344.63 487.86,-1334.31 608.86,-1250.03 934.73,-1071.99 1042.65,-972.53 1045.17,-970.25 1205.06,-763.18 1207.45,-760.24 1219.42,-745.48 1233.12,-729.26 1244.21,-716.3"/>
<path fill="none" stroke="orange" d="M445.36,-1367.86C458.02,-1358.28 474.24,-1346.24 489,-1335.95 609.82,-1251.79 935.69,-1073.74 1044,-974 1046.75,-971.47 1206.65,-764.4 1209,-761.5 1220.95,-746.77 1234.65,-730.56 1245.73,-717.6"/>
<path fill="none" stroke="red" d="M446.56,-1369.45C459.21,-1359.88 475.43,-1347.84 490.14,-1337.6 610.77,-1253.54 936.65,-1075.5 1045.35,-975.47 1048.33,-972.69 1208.23,-765.62 1210.55,-762.76 1222.48,-748.06 1236.18,-731.85 1247.25,-718.9"/>
<polygon fill="red" stroke="red" points="1248.4,-719.87 1252.26,-710 1243.09,-715.31 1248.4,-719.87"/>
<g id="a_edge62&#45;headlabel"><a xlink:title="1 LingotTitane">
<text text-anchor="middle" x="1246.86" y="-723.26" font-family="Times,serif" font-size="25.00">1</text>
</a>
</g>
</g>
<!-- PuceLuxe -->
<g id="node46" class="node">
<title>PuceLuxe</title>
<polygon fill="lightgrey" stroke="black" points="307,-974 217,-974 217,-884 307,-884 307,-974"/>
<polyline fill="none" stroke="black" points="229,-974 217,-962 "/>
<polyline fill="none" stroke="black" points="217,-896 229,-884 "/>
<polyline fill="none" stroke="black" points="295,-884 307,-896 "/>
<polyline fill="none" stroke="black" points="307,-962 295,-974 "/>
<text text-anchor="middle" x="262" y="-925.3" font-family="Times,serif" font-size="14.00">Puce Luxe</text>
</g>
<!-- LingotTitane&#45;&gt;PuceLuxe -->
<g id="edge36" class="edge">
<title>LingotTitane&#45;&gt;PuceLuxe</title>
<path fill="none" stroke="green" d="M416.31,-1367.78C399.63,-1324.71 355.12,-1208.77 321,-1111 306.17,-1068.5 290.42,-1019.99 278.93,-983.9"/>
<polygon fill="green" stroke="green" points="282.17,-982.53 275.8,-974.06 275.49,-984.65 282.17,-982.53"/>
<g id="a_edge36&#45;headlabel"><a xlink:title="1 LingotTitane">
<text text-anchor="middle" x="289.35" y="-982.78" font-family="Times,serif" font-size="25.00">1</text>
</a>
</g>
</g>
<!-- Puce -->
<g id="node33" class="node">
<title>Puce</title>
<polygon fill="lightgrey" stroke="black" points="666.05,-1093 647.03,-1111 608.97,-1111 589.95,-1093 608.97,-1075 647.03,-1075 666.05,-1093"/>
<text text-anchor="middle" x="628" y="-1089.3" font-family="Times,serif" font-size="14.00">Puce</text>
</g>
<!-- LingotSilicium&#45;&gt;Puce -->
<g id="edge34" class="edge">
<title>LingotSilicium&#45;&gt;Puce</title>
<path fill="none" stroke="green" d="M563.49,-1367.81C568.02,-1345.71 576.26,-1306.17 584,-1272.5 596.38,-1218.66 612.13,-1156.02 621.04,-1121.1"/>
<polygon fill="green" stroke="green" points="624.49,-1121.74 623.57,-1111.19 617.7,-1120.01 624.49,-1121.74"/>
<g id="a_edge34&#45;headlabel"><a xlink:title="1 LingotSilicium">
<text text-anchor="middle" x="627.27" y="-1124.84" font-family="Times,serif" font-size="25.00">1</text>
</a>
</g>
</g>
<!-- SatelliteFragile1 -->
<g id="node34" class="node">
<title>SatelliteFragile1</title>
<polygon fill="lightgrey" stroke="black" points="505.39,-684.54 505.39,-699.46 447.17,-710 364.83,-710 306.61,-699.46 306.61,-684.54 364.83,-674 447.17,-674 505.39,-684.54"/>
<text text-anchor="middle" x="406" y="-688.3" font-family="Times,serif" font-size="14.00">Satellite Fragile1</text>
</g>
<!-- LingotFer&#45;&gt;SatelliteFragile1 -->
<g id="edge39" class="edge">
<title>LingotFer&#45;&gt;SatelliteFragile1</title>
<path fill="none" stroke="orange" d="M677.1,-1368.59C659.58,-1325.65 613.01,-1210 579.11,-1111.65 535.63,-984.68 543.22,-946.66 491.16,-825.28 474.32,-785.61 444.88,-744.58 425.08,-719.31"/>
<path fill="none" stroke="yellow" d="M678.96,-1367.84C661.44,-1324.91 614.87,-1209.25 581,-1111 537.59,-985.07 545.19,-947.06 493,-824.5 475.95,-784.45 446.51,-743.41 426.65,-718.07"/>
<path fill="none" stroke="orange" d="M680.81,-1367.08C663.29,-1324.16 616.73,-1208.5 582.89,-1110.35 539.55,-985.46 547.15,-947.45 494.84,-823.72 477.57,-783.28 448.13,-742.25 428.23,-716.84"/>
<polygon fill="orange" stroke="orange" points="429.28,-715.75 420.32,-710.1 423.8,-720.11 429.28,-715.75"/>
<g id="a_edge39&#45;headlabel"><a xlink:title="2 SatelliteFragile1">
<text text-anchor="middle" x="438.21" y="-713.03" font-family="Times,serif" font-size="25.00">2</text>
</a>
</g>
</g>
<!-- VaisseauFragile1 -->
<g id="node36" class="node">
<title>VaisseauFragile1</title>
<polygon fill="lightgrey" stroke="black" points="1124.7,-684.54 1124.7,-699.46 1065.71,-710 982.29,-710 923.3,-699.46 923.3,-684.54 982.29,-674 1065.71,-674 1124.7,-684.54"/>
<text text-anchor="middle" x="1024" y="-688.3" font-family="Times,serif" font-size="14.00">Vaisseau Fragile1</text>
</g>
<!-- LingotFer&#45;&gt;VaisseauFragile1 -->
<g id="edge54" class="edge">
<title>LingotFer&#45;&gt;VaisseauFragile1</title>
<path fill="none" stroke="red" d="M687.43,-1367.24C693.13,-1336.45 704.03,-1270.17 704,-1214 704,-1214 704,-1214 704,-1032.5 704,-936.02 704.38,-898.69 766.46,-823.22 816.47,-763.34 899.37,-727.75 957.62,-708.78"/>
<path fill="none" stroke="orange" d="M689.39,-1367.6C695.1,-1336.78 706,-1270.49 706,-1214 706,-1214 706,-1214 706,-1032.5 706,-936.04 706.38,-898.71 768,-824.5 817.26,-765.18 900.16,-729.59 958.24,-710.68"/>
<path fill="none" stroke="red" d="M691.36,-1367.96C697.07,-1337.1 707.97,-1270.82 708,-1214 708,-1214 708,-1214 708,-1032.5 708,-936.06 708.38,-898.73 769.54,-825.78 818.05,-767.02 900.95,-731.43 958.86,-712.58"/>
<polygon fill="red" stroke="red" points="959.59,-713.92 968.06,-707.56 957.47,-707.25 959.59,-713.92"/>
<g id="a_edge54&#45;headlabel"><a xlink:title="1 LingotFer">
<text text-anchor="middle" x="953.34" y="-715.1" font-family="Times,serif" font-size="25.00">1</text>
</a>
</g>
</g>
<!-- SatelliteFragile3 -->
<g id="node42" class="node">
<title>SatelliteFragile3</title>
<polygon fill="lightgrey" stroke="black" points="497.37,-418.54 497.37,-433.46 439.16,-444 356.84,-444 298.63,-433.46 298.63,-418.54 356.84,-408 439.16,-408 497.37,-418.54"/>
<polygon fill="none" stroke="black" points="501.38,-415.2 501.38,-436.8 439.52,-448 356.48,-448 294.62,-436.8 294.62,-415.2 356.48,-404 439.52,-404 501.38,-415.2"/>
<polygon fill="none" stroke="black" points="505.39,-411.87 505.39,-440.13 439.88,-452 356.12,-452 290.61,-440.13 290.61,-411.87 356.12,-400 439.88,-400 505.39,-411.87"/>
<text text-anchor="middle" x="398" y="-422.3" font-family="Times,serif" font-size="14.00">Satellite Fragile3</text>
</g>
<!-- LingotOr&#45;&gt;SatelliteFragile3 -->
<g id="edge44" class="edge">
<title>LingotOr&#45;&gt;SatelliteFragile3</title>
<path fill="none" stroke="orange" d="M294.08,-1368.75C265.58,-1318.78 187.23,-1169.17 187,-1033.5 187,-1033.5 187,-1033.5 187,-761.5 187.07,-641.92 174.04,-592.78 249.44,-497.25 267.01,-475.48 292.01,-460.08 316.81,-449.05"/>
<path fill="none" stroke="yellow" d="M295.82,-1367.76C267.36,-1317.85 189,-1168.24 189,-1033.5 189,-1033.5 189,-1033.5 189,-761.5 189,-641.41 175.97,-592.27 251,-498.5 268.06,-477.18 293.06,-461.79 317.62,-450.88"/>
<path fill="none" stroke="orange" d="M297.56,-1366.77C269.13,-1316.93 190.77,-1167.31 191,-1033.5 191,-1033.5 191,-1033.5 191,-761.5 190.93,-640.89 177.91,-591.76 252.56,-499.75 269.11,-478.88 294.11,-463.49 318.43,-452.7"/>
<polygon fill="orange" stroke="orange" points="319.15,-454.03 326.99,-446.91 316.42,-447.58 319.15,-454.03"/>
<g id="a_edge44&#45;headlabel"><a xlink:title="1 LingotOr">
<text text-anchor="middle" x="313.59" y="-455.76" font-family="Times,serif" font-size="25.00">1</text>
</a>
</g>
</g>
<!-- SatelliteRobuste3 -->
<g id="node43" class="node">
<title>SatelliteRobuste3</title>
<polygon fill="lightgrey" stroke="black" points="746.65,-418.54 746.65,-433.46 685.35,-444 598.65,-444 537.35,-433.46 537.35,-418.54 598.65,-408 685.35,-408 746.65,-418.54"/>
<polygon fill="none" stroke="black" points="750.65,-415.17 750.65,-436.83 685.69,-448 598.31,-448 533.35,-436.83 533.35,-415.17 598.31,-404 685.69,-404 750.65,-415.17"/>
<polygon fill="none" stroke="black" points="754.64,-411.8 754.64,-440.2 686.03,-452 597.97,-452 529.36,-440.2 529.36,-411.8 597.97,-400 686.03,-400 754.64,-411.8"/>
<text text-anchor="middle" x="642" y="-422.3" font-family="Times,serif" font-size="14.00">Satellite Robuste3</text>
</g>
<!-- LingotOr&#45;&gt;SatelliteRobuste3 -->
<g id="edge51" class="edge">
<title>LingotOr&#45;&gt;SatelliteRobuste3</title>
<path fill="none" stroke="orange" d="M305.28,-1367.56C308.4,-1324.32 316.35,-1208.01 319,-1110.95 321.08,-1034.93 317.97,-914.83 314.02,-884.26 305.58,-814.06 286.07,-799.24 277.01,-726.23 268.34,-647.1 230,-610.84 277.38,-542.82 295.21,-519.07 453.23,-474.18 555.22,-447.18"/>
<path fill="none" stroke="yellow" d="M307.28,-1367.7C310.4,-1324.46 318.34,-1208.15 321,-1111 323.08,-1034.88 319.96,-914.78 316,-884 306.79,-812.47 287.28,-797.65 279,-726 269.72,-645.65 231.38,-609.38 279,-544 295.76,-520.99 453.78,-476.11 555.73,-449.11"/>
<path fill="none" stroke="orange" d="M309.27,-1367.85C312.39,-1324.6 320.34,-1208.29 323,-1111.05 325.08,-1034.83 321.96,-914.73 317.98,-883.74 308,-810.88 288.49,-796.05 280.99,-725.77 271.09,-644.19 232.75,-607.93 280.62,-545.18 296.3,-522.92 454.32,-478.03 556.24,-451.05"/>
<polygon fill="orange" stroke="orange" points="556.64,-452.49 565.42,-446.56 554.85,-445.72 556.64,-452.49"/>
<g id="a_edge51&#45;headlabel"><a xlink:title="1 LingotOr">
<text text-anchor="middle" x="550.05" y="-453.35" font-family="Times,serif" font-size="25.00">1</text>
</a>
</g>
</g>
<!-- VaisseauFragile3 -->
<g id="node44" class="node">
<title>VaisseauFragile3</title>
<polygon fill="lightgrey" stroke="black" points="1124.69,-418.54 1124.69,-433.46 1065.71,-444 982.29,-444 923.31,-433.46 923.31,-418.54 982.29,-408 1065.71,-408 1124.69,-418.54"/>
<polygon fill="none" stroke="black" points="1128.7,-415.2 1128.7,-436.8 1066.06,-448 981.94,-448 919.3,-436.8 919.3,-415.2 981.94,-404 1066.06,-404 1128.7,-415.2"/>
<polygon fill="none" stroke="black" points="1132.7,-411.85 1132.7,-440.15 1066.42,-452 981.58,-452 915.3,-440.15 915.3,-411.85 981.58,-400 1066.42,-400 1132.7,-411.85"/>
<text text-anchor="middle" x="1024" y="-422.3" font-family="Times,serif" font-size="14.00">Vaisseau Fragile3</text>
</g>
<!-- LingotOr&#45;&gt;VaisseauFragile3 -->
<g id="edge59" class="edge">
<title>LingotOr&#45;&gt;VaisseauFragile3</title>
<path fill="none" stroke="red" d="M317.54,-1366.64C327.16,-1355.43 341.06,-1341.74 357.16,-1334.14 759.71,-1149.02 920.53,-1344.24 1344.48,-1229.07 1492.7,-1189.28 1626.93,-1184.52 1625,-1033.5 1625,-1033.5 1625,-1033.5 1625,-565 1626.57,-560.49 1285.04,-485.59 1116.05,-448.93"/>
<path fill="none" stroke="orange" d="M319.06,-1367.94C328.57,-1356.85 342.47,-1343.16 358,-1335.95 758.17,-1150.29 918.98,-1345.51 1345,-1231 1492.77,-1191.28 1627,-1186.51 1627,-1033.5 1627,-1033.5 1627,-1033.5 1627,-565 1627,-558.53 1285.47,-483.64 1116.47,-446.97"/>
<path fill="none" stroke="red" d="M320.58,-1369.24C329.97,-1358.28 343.87,-1344.59 358.84,-1337.77 756.62,-1151.57 917.44,-1346.78 1345.52,-1232.93 1492.84,-1193.28 1627.07,-1188.51 1629,-1033.5 1629,-1033.5 1629,-1033.5 1629,-565 1627.43,-556.58 1285.9,-481.69 1116.89,-445.02"/>
<polygon fill="red" stroke="red" points="1117.09,-443.53 1106.58,-444.83 1115.61,-450.37 1117.09,-443.53"/>
<g id="a_edge59&#45;headlabel"><a xlink:title="1 LingotOr">
<text text-anchor="middle" x="1126.09" y="-434.41" font-family="Times,serif" font-size="25.00">1</text>
</a>
</g>
</g>
<!-- VaisseauRobuste3 -->
<g id="node45" class="node">
<title>VaisseauRobuste3</title>
<polygon fill="lightgrey" stroke="black" points="1377.44,-418.54 1377.44,-433.46 1315.09,-444 1226.91,-444 1164.56,-433.46 1164.56,-418.54 1226.91,-408 1315.09,-408 1377.44,-418.54"/>
<polygon fill="none" stroke="black" points="1381.45,-415.16 1381.45,-436.84 1315.43,-448 1226.57,-448 1160.55,-436.84 1160.55,-415.16 1226.57,-404 1315.43,-404 1381.45,-415.16"/>
<polygon fill="none" stroke="black" points="1385.46,-411.79 1385.46,-440.21 1315.76,-452 1226.24,-452 1156.54,-440.21 1156.54,-411.79 1226.24,-400 1315.76,-400 1385.46,-411.79"/>
<text text-anchor="middle" x="1271" y="-422.3" font-family="Times,serif" font-size="14.00">Vaisseau Robuste3</text>
</g>
<!-- LingotOr&#45;&gt;VaisseauRobuste3 -->
<g id="edge67" class="edge">
<title>LingotOr&#45;&gt;VaisseauRobuste3</title>
<path fill="none" stroke="red" d="M317.5,-1366.57C327.11,-1355.32 341.01,-1341.62 357.17,-1334.13 575.86,-1234.94 1198.91,-1293.52 1428.46,-1229.07 1546.07,-1196.3 1665.28,-1213.3 1663,-1094 1663,-1094 1663,-1094 1663,-565 1664.53,-506.95 1499.76,-466.84 1383.45,-446.01"/>
<path fill="none" stroke="orange" d="M319.02,-1367.87C328.52,-1356.74 342.41,-1343.05 358,-1335.95 575.68,-1236.93 1198.73,-1295.51 1429,-1231 1545.78,-1198.28 1665,-1215.28 1665,-1094 1665,-1094 1665,-1094 1665,-565 1665,-505.01 1500.23,-464.9 1383.8,-444.04"/>
<path fill="none" stroke="red" d="M320.54,-1369.16C329.92,-1358.17 343.82,-1344.47 358.83,-1337.77 575.49,-1238.92 1198.54,-1297.5 1429.54,-1232.93 1545.5,-1200.26 1664.72,-1217.26 1667,-1094 1667,-1094 1667,-1094 1667,-565 1665.47,-503.06 1500.7,-462.95 1384.15,-442.07"/>
<polygon fill="red" stroke="red" points="1384.2,-440.56 1373.75,-442.27 1382.99,-447.45 1384.2,-440.56"/>
<g id="a_edge67&#45;headlabel"><a xlink:title="1 LingotOr">
<text text-anchor="middle" x="1393.07" y="-431.09" font-family="Times,serif" font-size="25.00">1</text>
</a>
</g>
</g>
<!-- LingotOr&#45;&gt;PuceLuxe -->
<g id="edge37" class="edge">
<title>LingotOr&#45;&gt;PuceLuxe</title>
<path fill="none" stroke="green" d="M292.85,-1367.64C277.86,-1346.65 254.24,-1309.63 245,-1273.5 219.54,-1173.91 236.01,-1052.92 249.53,-984.35"/>
<polygon fill="green" stroke="green" points="253.03,-984.71 251.58,-974.21 246.17,-983.32 253.03,-984.71"/>
<g id="a_edge37&#45;headlabel"><a xlink:title="1 LingotOr">
<text text-anchor="middle" x="256.27" y="-987.66" font-family="Times,serif" font-size="25.00">1</text>
</a>
</g>
</g>
<!-- VaisseauLuxe -->
<g id="node47" class="node">
<title>VaisseauLuxe</title>
<polygon fill="lightgrey" stroke="black" points="260,-156 142,-156 142,-38 260,-38 260,-156"/>
<polyline fill="none" stroke="black" points="154,-156 142,-144 "/>
<polyline fill="none" stroke="black" points="142,-50 154,-38 "/>
<polyline fill="none" stroke="black" points="248,-38 260,-50 "/>
<polyline fill="none" stroke="black" points="260,-144 248,-156 "/>
<text text-anchor="middle" x="201" y="-93.3" font-family="Times,serif" font-size="14.00">Vaisseau Luxe</text>
</g>
<!-- LingotOr&#45;&gt;VaisseauLuxe -->
<g id="edge70" class="edge">
<title>LingotOr&#45;&gt;VaisseauLuxe</title>
<path fill="none" stroke="red" d="M272.12,-1369.53C226.46,-1342.99 149.83,-1287.75 149,-1214 149,-1214 149,-1214 149,-425 149.03,-334.23 167.94,-231.36 182.51,-165.47"/>
<path fill="none" stroke="orange" d="M273.13,-1367.8C227.63,-1341.36 151,-1286.12 151,-1214 151,-1214 151,-1214 151,-425 151,-334.59 169.91,-231.73 184.47,-165.91"/>
<path fill="none" stroke="red" d="M274.13,-1366.08C228.8,-1339.74 152.17,-1284.5 153,-1214 153,-1214 153,-1214 153,-425 152.97,-334.95 171.87,-232.09 186.42,-166.34"/>
<polygon fill="red" stroke="red" points="187.9,-166.59 186.67,-156.07 181.07,-165.06 187.9,-166.59"/>
<g id="a_edge70&#45;headlabel"><a xlink:title="1 LingotOr">
<text text-anchor="middle" x="190.96" y="-169.61" font-family="Times,serif" font-size="25.00">1</text>
</a>
</g>
</g>
<!-- SatelliteFragile2 -->
<g id="node38" class="node">
<title>SatelliteFragile2</title>
<polygon fill="lightgrey" stroke="black" points="501.38,-558.54 501.38,-573.46 443.16,-584 360.84,-584 302.62,-573.46 302.62,-558.54 360.84,-548 443.16,-548 501.38,-558.54"/>
<polygon fill="none" stroke="black" points="505.39,-555.2 505.39,-576.8 443.52,-588 360.48,-588 298.61,-576.8 298.61,-555.2 360.48,-544 443.52,-544 505.39,-555.2"/>
<text text-anchor="middle" x="402" y="-562.3" font-family="Times,serif" font-size="14.00">Satellite Fragile2</text>
</g>
<!-- LingotAluminium&#45;&gt;SatelliteFragile2 -->
<g id="edge42" class="edge">
<title>LingotAluminium&#45;&gt;SatelliteFragile2</title>
<path fill="none" stroke="orange" d="M806.46,-1368.94C783.95,-1339.24 742.33,-1276.12 742,-1214 742,-1214 742,-1214 742,-1032.5 742.04,-912.31 735.68,-880.92 755.03,-761.18 762.2,-721.19 789.38,-703.65 765.4,-675.2 749.13,-652.73 583.76,-611 481.7,-587.09"/>
<path fill="none" stroke="yellow" d="M808.06,-1367.73C785.62,-1338.14 744,-1275.02 744,-1214 744,-1214 744,-1214 744,-1032.5 744,-911.92 737.64,-880.52 757,-761.5 763.28,-722.87 790.46,-705.33 767,-674 749.62,-650.79 584.25,-609.06 482.16,-585.15"/>
<path fill="none" stroke="orange" d="M809.65,-1366.52C787.29,-1337.03 745.67,-1273.92 746,-1214 746,-1214 746,-1214 746,-1032.5 745.96,-911.52 739.6,-880.12 758.97,-761.82 764.37,-724.55 791.55,-707.01 768.6,-672.8 750.11,-648.85 584.74,-607.12 482.62,-583.2"/>
<polygon fill="orange" stroke="orange" points="482.71,-581.68 472.18,-582.82 481.12,-588.5 482.71,-581.68"/>
<g id="a_edge42&#45;headlabel"><a xlink:title="1 LingotAluminium">
<text text-anchor="middle" x="491.75" y="-572.7" font-family="Times,serif" font-size="25.00">1</text>
</a>
</g>
</g>
<!-- SatelliteRobuste2 -->
<g id="node39" class="node">
<title>SatelliteRobuste2</title>
<polygon fill="lightgrey" stroke="black" points="746.65,-558.54 746.65,-573.46 685.35,-584 598.65,-584 537.35,-573.46 537.35,-558.54 598.65,-548 685.35,-548 746.65,-558.54"/>
<polygon fill="none" stroke="black" points="750.64,-555.17 750.64,-576.83 685.69,-588 598.31,-588 533.36,-576.83 533.36,-555.17 598.31,-544 685.69,-544 750.64,-555.17"/>
<text text-anchor="middle" x="642" y="-562.3" font-family="Times,serif" font-size="14.00">Satellite Robuste2</text>
</g>
<!-- LingotAluminium&#45;&gt;SatelliteRobuste2 -->
<g id="edge49" class="edge">
<title>LingotAluminium&#45;&gt;SatelliteRobuste2</title>
<path fill="none" stroke="orange" d="M819.29,-1367.86C816.96,-1311.4 809.43,-1126.8 804,-974.07 803.32,-954.97 803.78,-647.19 793.35,-632.63 778.85,-611.2 754.62,-596.67 730.18,-587.24"/>
<path fill="none" stroke="yellow" d="M821.29,-1367.77C818.96,-1311.31 811.42,-1126.72 806,-974 805.32,-954.97 805.78,-647.19 795,-631.5 779.87,-609.48 755.65,-594.96 730.9,-585.38"/>
<path fill="none" stroke="orange" d="M823.29,-1367.69C820.96,-1311.23 813.42,-1126.64 808,-973.93 807.32,-954.98 807.78,-647.19 796.65,-630.37 780.9,-607.77 756.68,-593.24 731.62,-583.51"/>
<polygon fill="orange" stroke="orange" points="732,-582.05 721.41,-581.95 729.62,-588.64 732,-582.05"/>
<g id="a_edge49&#45;headlabel"><a xlink:title="1 LingotAluminium">
<text text-anchor="middle" x="741.33" y="-574.16" font-family="Times,serif" font-size="25.00">1</text>
</a>
</g>
</g>
<!-- VaisseauFragile2 -->
<g id="node40" class="node">
<title>VaisseauFragile2</title>
<polygon fill="lightgrey" stroke="black" points="1124.7,-558.54 1124.7,-573.46 1065.71,-584 982.29,-584 923.3,-573.46 923.3,-558.54 982.29,-548 1065.71,-548 1124.7,-558.54"/>
<polygon fill="none" stroke="black" points="1128.7,-555.2 1128.7,-576.8 1066.06,-588 981.94,-588 919.3,-576.8 919.3,-555.2 981.94,-544 1066.06,-544 1128.7,-555.2"/>
<text text-anchor="middle" x="1024" y="-562.3" font-family="Times,serif" font-size="14.00">Vaisseau Fragile2</text>
</g>
<!-- LingotAluminium&#45;&gt;VaisseauFragile2 -->
<g id="edge57" class="edge">
<title>LingotAluminium&#45;&gt;VaisseauFragile2</title>
<path fill="none" stroke="red" d="M821.74,-1367.45C823.84,-1345.55 827.32,-1306.68 829,-1273.4 838.1,-1101.71 806.05,-1055.43 837.03,-883.64 854.93,-786.29 858.44,-757.14 912.32,-672.92 932.42,-641.74 962.68,-613.16 986.54,-593.23"/>
<path fill="none" stroke="orange" d="M823.73,-1367.64C825.83,-1345.73 829.31,-1306.86 831,-1273.5 839.75,-1100.57 807.7,-1054.29 839,-884 856.92,-786.53 860.42,-757.38 914,-674 933.8,-643.19 964.05,-614.62 987.82,-594.76"/>
<path fill="none" stroke="red" d="M825.72,-1367.83C827.82,-1345.9 831.3,-1307.04 833,-1273.6 841.39,-1099.43 809.34,-1053.16 840.97,-884.36 858.9,-786.76 862.41,-757.62 915.68,-675.08 935.17,-644.64 965.42,-616.07 989.1,-596.3"/>
<polygon fill="red" stroke="red" points="990.1,-597.42 995.61,-588.37 985.66,-592.01 990.1,-597.42"/>
<g id="a_edge57&#45;headlabel"><a xlink:title="1 LingotAluminium">
<text text-anchor="middle" x="986.96" y="-600.4" font-family="Times,serif" font-size="25.00">1</text>
</a>
</g>
</g>
<!-- VaisseauRobuste2 -->
<g id="node41" class="node">
<title>VaisseauRobuste2</title>
<polygon fill="lightgrey" stroke="black" points="1377.45,-558.54 1377.45,-573.46 1315.09,-584 1226.91,-584 1164.55,-573.46 1164.55,-558.54 1226.91,-548 1315.09,-548 1377.45,-558.54"/>
<polygon fill="none" stroke="black" points="1381.46,-555.16 1381.46,-576.84 1315.43,-588 1226.57,-588 1160.54,-576.84 1160.54,-555.16 1226.57,-544 1315.43,-544 1381.46,-555.16"/>
<text text-anchor="middle" x="1271" y="-562.3" font-family="Times,serif" font-size="14.00">Vaisseau Robuste2</text>
</g>
<!-- LingotAluminium&#45;&gt;VaisseauRobuste2 -->
<g id="edge65" class="edge">
<title>LingotAluminium&#45;&gt;VaisseauRobuste2</title>
<path fill="none" stroke="red" d="M843.34,-1366.33C859.03,-1355.35 880.73,-1341.83 902.33,-1334.07 1072.72,-1273.5 1703.37,-1391.87 1701,-1214 1701,-1214 1701,-1214 1701,-691 1702.65,-627.87 1519.12,-594.95 1391.43,-579.94"/>
<path fill="none" stroke="orange" d="M844.49,-1367.97C860.08,-1357.04 881.79,-1343.53 903,-1335.95 1072.35,-1275.47 1703,-1393.83 1703,-1214 1703,-1214 1703,-1214 1703,-691 1703,-625.9 1519.48,-592.99 1391.67,-577.96"/>
<path fill="none" stroke="red" d="M845.63,-1369.61C861.14,-1358.74 882.85,-1345.23 903.67,-1337.84 1071.98,-1277.43 1702.63,-1395.8 1705,-1214 1705,-1214 1705,-1214 1705,-691 1703.35,-623.93 1519.83,-591.02 1391.9,-575.97"/>
<polygon fill="red" stroke="red" points="1391.74,-574.44 1381.41,-576.77 1390.94,-581.4 1391.74,-574.44"/>
<g id="a_edge65&#45;headlabel"><a xlink:title="1 LingotAluminium">
<text text-anchor="middle" x="1400.38" y="-564.45" font-family="Times,serif" font-size="25.00">1</text>
</a>
</g>
</g>
<!-- MateriauxConstruction&#45;&gt;SatelliteFragile1 -->
<g id="edge38" class="edge">
<title>MateriauxConstruction&#45;&gt;SatelliteFragile1</title>
<path fill="none" stroke="orange" d="M901.29,-912.74C805.45,-870.65 558.21,-762.04 453.35,-715.98"/>
<path fill="none" stroke="yellow" d="M902.09,-910.91C806.26,-868.81 559.01,-760.21 454.16,-714.15"/>
<path fill="none" stroke="orange" d="M902.9,-909.08C807.06,-866.98 559.82,-758.38 454.96,-712.32"/>
<polygon fill="orange" stroke="orange" points="455.32,-710.84 444.76,-710.03 452.51,-717.25 455.32,-710.84"/>
<g id="a_edge38&#45;headlabel"><a xlink:title="1 SatelliteFragile1">
<text text-anchor="middle" x="464.76" y="-703.58" font-family="Times,serif" font-size="25.00">1</text>
</a>
</g>
</g>
<!-- MateriauxConstruction&#45;&gt;SatelliteRobuste1 -->
<g id="edge45" class="edge">
<title>MateriauxConstruction&#45;&gt;SatelliteRobuste1</title>
<path fill="none" stroke="orange" d="M922.95,-912.05C896.79,-885.19 843.72,-832.54 793.78,-794.08 755.87,-764.86 708.93,-735.97 676.39,-716.97"/>
<path fill="none" stroke="yellow" d="M924.38,-910.65C898.2,-883.77 845.13,-831.12 795,-792.5 756.91,-763.15 709.98,-734.26 677.4,-715.24"/>
<path fill="none" stroke="orange" d="M925.82,-909.26C899.6,-882.35 846.54,-829.71 796.22,-790.92 757.96,-761.45 711.03,-732.56 678.41,-713.51"/>
<polygon fill="orange" stroke="orange" points="679.02,-712.13 668.61,-710.14 675.5,-718.19 679.02,-712.13"/>
<g id="a_edge45&#45;headlabel"><a xlink:title="1 SatelliteRobuste1">
<text text-anchor="middle" x="688.53" y="-705.92" font-family="Times,serif" font-size="25.00">1</text>
</a>
</g>
</g>
<!-- MateriauxConstruction&#45;&gt;VaisseauFragile1 -->
<g id="edge53" class="edge">
<title>MateriauxConstruction&#45;&gt;VaisseauFragile1</title>
<path fill="none" stroke="red" d="M944.74,-910.29C954.78,-880.05 976.5,-815.18 996.12,-760.82 1001.14,-746.91 1006.94,-731.55 1011.8,-718.89"/>
<path fill="none" stroke="orange" d="M946.64,-910.92C956.67,-880.68 978.4,-815.82 998,-761.5 1003.01,-747.62 1008.82,-732.26 1013.67,-719.6"/>
<path fill="none" stroke="red" d="M948.54,-911.55C958.57,-881.32 980.3,-816.45 999.88,-762.18 1004.88,-748.33 1010.69,-732.96 1015.54,-720.32"/>
<polygon fill="red" stroke="red" points="1017,-720.7 1017.33,-710.11 1010.46,-718.19 1017,-720.7"/>
<g id="a_edge53&#45;headlabel"><a xlink:title="1 MateriauxConstruction">
<text text-anchor="middle" x="1018.7" y="-724.07" font-family="Times,serif" font-size="25.00">1</text>
</a>
</g>
</g>
<!-- MateriauxConstruction&#45;&gt;VaisseauRobuste1 -->
<g id="edge61" class="edge">
<title>MateriauxConstruction&#45;&gt;VaisseauRobuste1</title>
<path fill="none" stroke="red" d="M948.36,-909.92C967.13,-876.28 1013.19,-801.49 1072.86,-759.86 1094.88,-744.66 1155.56,-724.23 1203.25,-709.56"/>
<path fill="none" stroke="orange" d="M950.11,-910.9C968.83,-877.33 1014.9,-802.54 1074,-761.5 1095.52,-746.56 1156.2,-726.12 1203.84,-711.47"/>
<path fill="none" stroke="red" d="M951.85,-911.87C970.53,-878.38 1016.6,-803.59 1075.14,-763.14 1096.15,-748.45 1156.84,-728.02 1204.43,-713.38"/>
<polygon fill="red" stroke="red" points="1204.94,-714.79 1213.48,-708.53 1202.9,-708.1 1204.94,-714.79"/>
<g id="a_edge61&#45;headlabel"><a xlink:title="1 MateriauxConstruction">
<text text-anchor="middle" x="1198.61" y="-715.9" font-family="Times,serif" font-size="25.00">1</text>
</a>
</g>
</g>
<!-- LiquideOxygene -->
<g id="node29" class="node">
<title>LiquideOxygene</title>
<polygon fill="lightgrey" stroke="black" points="1264.76,-1075.05 1270.56,-1075.15 1276.3,-1075.3 1281.95,-1075.49 1287.5,-1075.74 1292.92,-1076.03 1298.19,-1076.36 1303.29,-1076.75 1308.2,-1077.18 1312.9,-1077.65 1317.38,-1078.16 1321.62,-1078.71 1325.6,-1079.31 1329.32,-1079.94 1332.75,-1080.61 1335.9,-1081.31 1338.75,-1082.04 1341.3,-1082.8 1343.55,-1083.59 1345.49,-1084.41 1347.11,-1085.25 1348.43,-1086.11 1349.43,-1086.99 1350.14,-1087.89 1350.54,-1088.8 1350.65,-1089.72 1350.47,-1090.65 1350.01,-1091.59 1349.28,-1092.53 1348.3,-1093.47 1347.06,-1094.41 1345.59,-1095.35 1343.89,-1096.28 1341.98,-1097.2 1339.86,-1098.11 1337.56,-1099.01 1335.09,-1099.89 1332.45,-1100.75 1329.66,-1101.59 1326.74,-1102.41 1323.69,-1103.2 1320.53,-1103.96 1317.27,-1104.69 1313.91,-1105.39 1310.47,-1106.06 1306.97,-1106.69 1303.39,-1107.29 1299.77,-1107.84 1296.09,-1108.35 1292.38,-1108.82 1288.63,-1109.25 1284.85,-1109.64 1281.05,-1109.97 1277.23,-1110.26 1273.39,-1110.51 1269.53,-1110.7 1265.67,-1110.85 1261.81,-1110.95 1257.94,-1111 1254.06,-1111 1250.19,-1110.95 1246.33,-1110.85 1242.47,-1110.7 1238.61,-1110.51 1234.77,-1110.26 1230.95,-1109.97 1227.15,-1109.64 1223.37,-1109.25 1219.62,-1108.82 1215.91,-1108.35 1212.23,-1107.84 1208.61,-1107.29 1205.03,-1106.69 1201.53,-1106.06 1198.09,-1105.39 1194.73,-1104.69 1191.47,-1103.96 1188.31,-1103.2 1185.26,-1102.41 1182.34,-1101.59 1179.55,-1100.75 1176.91,-1099.89 1174.44,-1099.01 1172.14,-1098.11 1170.02,-1097.2 1168.11,-1096.28 1166.41,-1095.35 1164.94,-1094.41 1163.7,-1093.47 1162.72,-1092.53 1161.99,-1091.59 1161.53,-1090.65 1161.35,-1089.72 1161.46,-1088.8 1161.86,-1087.89 1162.57,-1086.99 1163.57,-1086.11 1164.89,-1085.25 1166.51,-1084.41 1168.45,-1083.59 1170.7,-1082.8 1173.25,-1082.04 1176.1,-1081.31 1179.25,-1080.61 1182.68,-1079.94 1186.4,-1079.31 1190.38,-1078.71 1194.62,-1078.16 1199.1,-1077.65 1203.8,-1077.18 1208.71,-1076.75 1213.81,-1076.36 1219.08,-1076.03 1224.5,-1075.74 1230.05,-1075.49 1235.7,-1075.3 1241.44,-1075.15 1247.24,-1075.05 1253.08,-1075 1258.92,-1075 1264.76,-1075.05"/>
<text text-anchor="middle" x="1256" y="-1089.3" font-family="Times,serif" font-size="14.00">Liquide Oxygene</text>
</g>
<!-- GazOxygene&#45;&gt;LiquideOxygene -->
<g id="edge19" class="edge">
<title>GazOxygene&#45;&gt;LiquideOxygene</title>
<path fill="none" stroke="lightskyblue" stroke-dasharray="5,2" d="M1259.42,-1194.84C1258.76,-1175.53 1257.69,-1143.89 1256.92,-1121.2"/>
<polygon fill="lightskyblue" stroke="lightskyblue" points="1260.42,-1121.05 1256.58,-1111.18 1253.42,-1121.29 1260.42,-1121.05"/>
<g id="a_edge19&#45;headlabel"><a xlink:title="1 GazOxygene">
<text text-anchor="middle" x="1265.64" y="-1123.01" font-family="Times,serif" font-size="25.00">1</text>
</a>
</g>
</g>
<!-- PeroxydeHydrogene -->
<g id="node30" class="node">
<title>PeroxydeHydrogene</title>
<polygon fill="lightgrey" stroke="black" points="1494.62,-1075.05 1501.66,-1075.15 1508.62,-1075.3 1515.47,-1075.49 1522.21,-1075.74 1528.78,-1076.03 1535.17,-1076.36 1541.36,-1076.75 1547.31,-1077.18 1553.02,-1077.65 1558.45,-1078.16 1563.58,-1078.71 1568.41,-1079.31 1572.92,-1079.94 1577.09,-1080.61 1580.91,-1081.31 1584.37,-1082.04 1587.46,-1082.8 1590.18,-1083.59 1592.53,-1084.41 1594.5,-1085.25 1596.1,-1086.11 1597.32,-1086.99 1598.17,-1087.89 1598.66,-1088.8 1598.79,-1089.72 1598.58,-1090.65 1598.02,-1091.59 1597.14,-1092.53 1595.94,-1093.47 1594.44,-1094.41 1592.65,-1095.35 1590.59,-1096.28 1588.27,-1097.2 1585.71,-1098.11 1582.92,-1099.01 1579.92,-1099.89 1576.72,-1100.75 1573.34,-1101.59 1569.79,-1102.41 1566.1,-1103.2 1562.26,-1103.96 1558.3,-1104.69 1554.24,-1105.39 1550.07,-1106.06 1545.81,-1106.69 1541.48,-1107.29 1537.08,-1107.84 1532.63,-1108.35 1528.12,-1108.82 1523.57,-1109.25 1518.99,-1109.64 1514.38,-1109.97 1509.74,-1110.26 1505.09,-1110.51 1500.42,-1110.7 1495.73,-1110.85 1491.04,-1110.95 1486.35,-1111 1481.65,-1111 1476.96,-1110.95 1472.27,-1110.85 1467.58,-1110.7 1462.91,-1110.51 1458.26,-1110.26 1453.62,-1109.97 1449.01,-1109.64 1444.43,-1109.25 1439.88,-1108.82 1435.37,-1108.35 1430.92,-1107.84 1426.52,-1107.29 1422.19,-1106.69 1417.93,-1106.06 1413.76,-1105.39 1409.7,-1104.69 1405.74,-1103.96 1401.9,-1103.2 1398.21,-1102.41 1394.66,-1101.59 1391.28,-1100.75 1388.08,-1099.89 1385.08,-1099.01 1382.29,-1098.11 1379.73,-1097.2 1377.41,-1096.28 1375.35,-1095.35 1373.56,-1094.41 1372.06,-1093.47 1370.86,-1092.53 1369.98,-1091.59 1369.42,-1090.65 1369.21,-1089.72 1369.34,-1088.8 1369.83,-1087.89 1370.68,-1086.99 1371.9,-1086.11 1373.5,-1085.25 1375.47,-1084.41 1377.82,-1083.59 1380.54,-1082.8 1383.63,-1082.04 1387.09,-1081.31 1390.91,-1080.61 1395.08,-1079.94 1399.59,-1079.31 1404.42,-1078.71 1409.55,-1078.16 1414.98,-1077.65 1420.69,-1077.18 1426.64,-1076.75 1432.83,-1076.36 1439.22,-1076.03 1445.79,-1075.74 1452.53,-1075.49 1459.38,-1075.3 1466.34,-1075.15 1473.38,-1075.05 1480.45,-1075 1487.55,-1075 1494.62,-1075.05"/>
<text text-anchor="middle" x="1484" y="-1089.3" font-family="Times,serif" font-size="14.00">Peroxyde Hydrogene</text>
</g>
<!-- GazOxygene&#45;&gt;PeroxydeHydrogene -->
<g id="edge21" class="edge">
<title>GazOxygene&#45;&gt;PeroxydeHydrogene</title>
<path fill="none" stroke="lightskyblue" stroke-dasharray="5,2" d="M1296.09,-1196.52C1321.57,-1185.29 1356.32,-1169.34 1386,-1153.5 1407.73,-1141.9 1431.35,-1127.62 1449.96,-1115.95"/>
<polygon fill="lightskyblue" stroke="lightskyblue" points="1452.07,-1118.75 1458.66,-1110.45 1448.34,-1112.83 1452.07,-1118.75"/>
<g id="a_edge21&#45;headlabel"><a xlink:title="1 GazOxygene">
<text text-anchor="middle" x="1447.85" y="-1121.28" font-family="Times,serif" font-size="25.00">1</text>
</a>
</g>
</g>
<!-- LiquideHydrogene -->
<g id="node28" class="node">
<title>LiquideHydrogene</title>
<polygon fill="lightgrey" stroke="black" points="1046.79,-1075.05 1053.27,-1075.15 1059.69,-1075.3 1066.01,-1075.49 1072.21,-1075.74 1078.27,-1076.03 1084.16,-1076.36 1089.86,-1076.75 1095.35,-1077.18 1100.61,-1077.65 1105.61,-1078.16 1110.35,-1078.71 1114.8,-1079.31 1118.95,-1079.94 1122.79,-1080.61 1126.31,-1081.31 1129.5,-1082.04 1132.35,-1082.8 1134.86,-1083.59 1137.03,-1084.41 1138.84,-1085.25 1140.31,-1086.11 1141.44,-1086.99 1142.23,-1087.89 1142.68,-1088.8 1142.8,-1089.72 1142.6,-1090.65 1142.09,-1091.59 1141.27,-1092.53 1140.17,-1093.47 1138.79,-1094.41 1137.14,-1095.35 1135.24,-1096.28 1133.1,-1097.2 1130.74,-1098.11 1128.17,-1099.01 1125.4,-1099.89 1122.45,-1100.75 1119.34,-1101.59 1116.07,-1102.41 1112.66,-1103.2 1109.13,-1103.96 1105.48,-1104.69 1101.73,-1105.39 1097.89,-1106.06 1093.97,-1106.69 1089.98,-1107.29 1085.92,-1107.84 1081.82,-1108.35 1077.66,-1108.82 1073.47,-1109.25 1069.25,-1109.64 1065,-1109.97 1060.73,-1110.26 1056.43,-1110.51 1052.13,-1110.7 1047.81,-1110.85 1043.49,-1110.95 1039.16,-1111 1034.84,-1111 1030.51,-1110.95 1026.19,-1110.85 1021.87,-1110.7 1017.57,-1110.51 1013.27,-1110.26 1009,-1109.97 1004.75,-1109.64 1000.53,-1109.25 996.34,-1108.82 992.18,-1108.35 988.08,-1107.84 984.02,-1107.29 980.03,-1106.69 976.11,-1106.06 972.27,-1105.39 968.52,-1104.69 964.87,-1103.96 961.34,-1103.2 957.93,-1102.41 954.66,-1101.59 951.55,-1100.75 948.6,-1099.89 945.83,-1099.01 943.26,-1098.11 940.9,-1097.2 938.76,-1096.28 936.86,-1095.35 935.21,-1094.41 933.83,-1093.47 932.73,-1092.53 931.91,-1091.59 931.4,-1090.65 931.2,-1089.72 931.32,-1088.8 931.77,-1087.89 932.56,-1086.99 933.69,-1086.11 935.16,-1085.25 936.97,-1084.41 939.14,-1083.59 941.65,-1082.8 944.5,-1082.04 947.69,-1081.31 951.21,-1080.61 955.05,-1079.94 959.2,-1079.31 963.65,-1078.71 968.39,-1078.16 973.39,-1077.65 978.65,-1077.18 984.14,-1076.75 989.84,-1076.36 995.73,-1076.03 1001.79,-1075.74 1007.99,-1075.49 1014.31,-1075.3 1020.73,-1075.15 1027.21,-1075.05 1033.73,-1075 1040.27,-1075 1046.79,-1075.05"/>
<text text-anchor="middle" x="1037" y="-1089.3" font-family="Times,serif" font-size="14.00">Liquide Hydrogene</text>
</g>
<!-- GazHydrogene&#45;&gt;LiquideHydrogene -->
<g id="edge18" class="edge">
<title>GazHydrogene&#45;&gt;LiquideHydrogene</title>
<path fill="none" stroke="lightskyblue" stroke-dasharray="5,2" d="M1072.04,-1194.84C1065.3,-1175.44 1054.24,-1143.6 1046.34,-1120.89"/>
<polygon fill="lightskyblue" stroke="lightskyblue" points="1049.56,-1119.48 1042.97,-1111.18 1042.94,-1121.77 1049.56,-1119.48"/>
<g id="a_edge18&#45;headlabel"><a xlink:title="1 GazHydrogene">
<text text-anchor="middle" x="1056.9" y="-1119.53" font-family="Times,serif" font-size="25.00">1</text>
</a>
</g>
</g>
<!-- GazHydrogene&#45;&gt;PeroxydeHydrogene -->
<g id="edge20" class="edge">
<title>GazHydrogene&#45;&gt;PeroxydeHydrogene</title>
<path fill="none" stroke="lightskyblue" stroke-dasharray="5,2" d="M1128.6,-1197.29C1203.82,-1175.43 1344.83,-1134.45 1424.76,-1111.22"/>
<polygon fill="lightskyblue" stroke="lightskyblue" points="1426.05,-1114.49 1434.67,-1108.34 1424.09,-1107.77 1426.05,-1114.49"/>
<g id="a_edge20&#45;headlabel"><a xlink:title="1 GazOxygene">
<text text-anchor="middle" x="1419.62" y="-1115.51" font-family="Times,serif" font-size="25.00">1</text>
</a>
</g>
</g>
<!-- Carburant1 -->
<g id="node31" class="node">
<title>Carburant1</title>
<path fill="lightgrey" stroke="black" d="M1227.5,-943.73C1227.5,-945.53 1205.31,-947 1178,-947 1150.69,-947 1128.5,-945.53 1128.5,-943.73 1128.5,-943.73 1128.5,-914.27 1128.5,-914.27 1128.5,-912.47 1150.69,-911 1178,-911 1205.31,-911 1227.5,-912.47 1227.5,-914.27 1227.5,-914.27 1227.5,-943.73 1227.5,-943.73"/>
<path fill="none" stroke="black" d="M1227.5,-943.73C1227.5,-941.92 1205.31,-940.45 1178,-940.45 1150.69,-940.45 1128.5,-941.92 1128.5,-943.73"/>
<text text-anchor="middle" x="1178" y="-925.3" font-family="Times,serif" font-size="14.00">Carburant1</text>
</g>
<!-- LiquideHydrogene&#45;&gt;Carburant1 -->
<g id="edge22" class="edge">
<title>LiquideHydrogene&#45;&gt;Carburant1</title>
<path fill="none" stroke="lightskyblue" stroke-dasharray="5,2" d="M1051.82,-1074.97C1076.72,-1046.36 1127.06,-988.53 1156.07,-955.2"/>
<polygon fill="lightskyblue" stroke="lightskyblue" points="1159.03,-957.13 1162.95,-947.29 1153.75,-952.54 1159.03,-957.13"/>
<g id="a_edge22&#45;headlabel"><a xlink:title="1 LiquideOxygene">
<text text-anchor="middle" x="1157.43" y="-960.51" font-family="Times,serif" font-size="25.00">1</text>
</a>
</g>
</g>
<!-- LiquideOxygene&#45;&gt;Carburant1 -->
<g id="edge23" class="edge">
<title>LiquideOxygene&#45;&gt;Carburant1</title>
<path fill="none" stroke="lightskyblue" stroke-dasharray="5,2" d="M1247.8,-1074.97C1234.2,-1046.73 1206.88,-989.99 1190.75,-956.48"/>
<polygon fill="lightskyblue" stroke="lightskyblue" points="1193.82,-954.78 1186.32,-947.29 1187.51,-957.82 1193.82,-954.78"/>
<g id="a_edge23&#45;headlabel"><a xlink:title="1 LiquideOxygene">
<text text-anchor="middle" x="1201.8" y="-953.95" font-family="Times,serif" font-size="25.00">1</text>
</a>
</g>
</g>
<!-- Carburant2 -->
<g id="node32" class="node">
<title>Carburant2</title>
<path fill="lightgrey" stroke="black" d="M1391.5,-943.73C1391.5,-945.53 1369.31,-947 1342,-947 1314.69,-947 1292.5,-945.53 1292.5,-943.73 1292.5,-943.73 1292.5,-914.27 1292.5,-914.27 1292.5,-912.47 1314.69,-911 1342,-911 1369.31,-911 1391.5,-912.47 1391.5,-914.27 1391.5,-914.27 1391.5,-943.73 1391.5,-943.73"/>
<path fill="none" stroke="black" d="M1391.5,-943.73C1391.5,-941.92 1369.31,-940.45 1342,-940.45 1314.69,-940.45 1292.5,-941.92 1292.5,-943.73"/>
<text text-anchor="middle" x="1342" y="-925.3" font-family="Times,serif" font-size="14.00">Carburant2</text>
</g>
<!-- PeroxydeHydrogene&#45;&gt;Carburant2 -->
<g id="edge24" class="edge">
<title>PeroxydeHydrogene&#45;&gt;Carburant2</title>
<path fill="none" stroke="lightskyblue" stroke-dasharray="5,2" d="M1469.07,-1074.97C1444,-1046.36 1393.3,-988.53 1364.09,-955.2"/>
<polygon fill="lightskyblue" stroke="lightskyblue" points="1366.38,-952.5 1357.16,-947.29 1361.12,-957.12 1366.38,-952.5"/>
<g id="a_edge24&#45;headlabel"><a xlink:title="1 PeroxydeHydrogene">
<text text-anchor="middle" x="1375.46" y="-949.35" font-family="Times,serif" font-size="25.00">1</text>
</a>
</g>
</g>
<!-- Carburant1&#45;&gt;VaisseauFragile1 -->
<g id="edge52" class="edge">
<title>Carburant1&#45;&gt;VaisseauFragile1</title>
<path fill="none" stroke="red" d="M1165,-911.82C1138.25,-870.99 1071,-768.37 1039.33,-720.04"/>
<path fill="none" stroke="orange" d="M1166.68,-910.72C1139.92,-869.89 1072.67,-767.28 1041,-718.94"/>
<path fill="none" stroke="red" d="M1168.35,-909.62C1141.59,-868.8 1074.35,-766.18 1042.67,-717.85"/>
<polygon fill="red" stroke="red" points="1043.75,-716.75 1035.34,-710.31 1037.89,-720.59 1043.75,-716.75"/>
<g id="a_edge52&#45;headlabel"><a xlink:title="1 VaisseauFragile1">
<text text-anchor="middle" x="1052.35" y="-714.83" font-family="Times,serif" font-size="25.00">1</text>
</a>
</g>
</g>
<!-- Carburant2&#45;&gt;VaisseauRobuste1 -->
<g id="edge60" class="edge">
<title>Carburant2&#45;&gt;VaisseauRobuste1</title>
<path fill="none" stroke="red" d="M1334.58,-911.33C1321.63,-870.76 1289.21,-769.16 1273.66,-720.46"/>
<path fill="none" stroke="orange" d="M1336.49,-910.72C1323.54,-870.15 1291.11,-768.55 1275.57,-719.85"/>
<path fill="none" stroke="red" d="M1338.39,-910.11C1325.44,-869.54 1293.02,-767.94 1277.48,-719.25"/>
<polygon fill="red" stroke="red" points="1278.9,-718.77 1272.52,-710.31 1272.23,-720.9 1278.9,-718.77"/>
<g id="a_edge60&#45;headlabel"><a xlink:title="1 VaisseauRobuste1">
<text text-anchor="middle" x="1286.09" y="-719" font-family="Times,serif" font-size="25.00">1</text>
</a>
</g>
</g>
<!-- Puce&#45;&gt;SatelliteFragile1 -->
<g id="edge40" class="edge">
<title>Puce&#45;&gt;SatelliteFragile1</title>
<path fill="none" stroke="orange" d="M616.71,-1075.83C581.77,-1013.03 460.65,-795.33 418.69,-719.92"/>
<path fill="none" stroke="yellow" d="M618.46,-1074.86C583.52,-1012.06 462.4,-794.36 420.44,-718.95"/>
<path fill="none" stroke="orange" d="M620.21,-1073.88C585.27,-1011.09 464.14,-793.39 422.19,-717.98"/>
<polygon fill="orange" stroke="orange" points="423.42,-717.12 415.5,-710.08 417.31,-720.52 423.42,-717.12"/>
<g id="a_edge40&#45;headlabel"><a xlink:title="1 SatelliteFragile1">
<text text-anchor="middle" x="416.93" y="-724.03" font-family="Times,serif" font-size="25.00">1</text>
</a>
</g>
</g>
<!-- Puce&#45;&gt;SatelliteRobuste1 -->
<g id="edge47" class="edge">
<title>Puce&#45;&gt;SatelliteRobuste1</title>
<path fill="none" stroke="orange" d="M626.43,-1074.81C627.99,-1012.39 633.39,-796.96 635.32,-720.3"/>
<path fill="none" stroke="yellow" d="M628.43,-1074.86C629.99,-1012.44 635.39,-797.01 637.31,-720.35"/>
<path fill="none" stroke="orange" d="M630.43,-1074.91C631.99,-1012.49 637.39,-797.06 639.31,-720.4"/>
<polygon fill="orange" stroke="orange" points="640.82,-720.17 637.57,-710.08 633.82,-719.99 640.82,-720.17"/>
<g id="a_edge47&#45;headlabel"><a xlink:title="1 SatelliteRobuste1">
<text text-anchor="middle" x="645.57" y="-722.41" font-family="Times,serif" font-size="25.00">1</text>
</a>
</g>
</g>
<!-- Puce&#45;&gt;VaisseauFragile1 -->
<g id="edge55" class="edge">
<title>Puce&#45;&gt;VaisseauFragile1</title>
<path fill="none" stroke="red" d="M630.81,-1074.31C640.82,-1038.52 665.22,-953.41 690.12,-883.33 704.79,-843.3 699.32,-827.08 727.45,-791.23 773.56,-735.41 850.53,-710.68 914.8,-699.6"/>
<path fill="none" stroke="orange" d="M632.74,-1074.85C642.74,-1039.07 667.14,-953.96 692,-884 706.69,-842.67 701.21,-826.44 729,-792.5 774.17,-737.32 851.14,-712.59 915.14,-701.58"/>
<path fill="none" stroke="red" d="M634.66,-1075.39C644.66,-1039.62 669.07,-954.51 693.88,-884.67 708.58,-842.03 703.11,-825.8 730.55,-793.77 774.79,-739.22 851.76,-714.49 915.48,-703.55"/>
<polygon fill="red" stroke="red" points="915.98,-704.98 925.29,-699.92 914.86,-698.08 915.98,-704.98"/>
<g id="a_edge55&#45;headlabel"><a xlink:title="1 Puce">
<text text-anchor="middle" x="908.76" y="-705.18" font-family="Times,serif" font-size="25.00">1</text>
</a>
</g>
</g>
<!-- Puce&#45;&gt;VaisseauRobuste1 -->
<g id="edge63" class="edge">
<title>Puce&#45;&gt;VaisseauRobuste1</title>
<path fill="none" stroke="red" d="M662.29,-1087.37C737.46,-1080.17 919.59,-1054.81 1042.89,-972.34 1055.86,-963.81 1194.18,-784.56 1245.97,-717.14"/>
<path fill="none" stroke="orange" d="M662.49,-1089.36C737.74,-1082.15 919.87,-1056.79 1044,-974 1057.45,-965.03 1195.76,-785.78 1247.56,-718.35"/>
<path fill="none" stroke="red" d="M662.68,-1091.35C738.01,-1084.13 920.15,-1058.77 1045.11,-975.66 1059.03,-966.25 1197.34,-787.01 1249.14,-719.57"/>
<polygon fill="red" stroke="red" points="1250.4,-720.4 1253.71,-710.34 1244.85,-716.14 1250.4,-720.4"/>
<g id="a_edge63&#45;headlabel"><a xlink:title="1 Puce">
<text text-anchor="middle" x="1235.97" y="-713.57" font-family="Times,serif" font-size="25.00">1</text>
</a>
</g>
</g>
<!-- Puce&#45;&gt;PuceLuxe -->
<g id="edge35" class="edge">
<title>Puce&#45;&gt;PuceLuxe</title>
<path fill="none" stroke="black" d="M597.43,-1085.71C557.58,-1076.91 486.2,-1059.07 429,-1033.5 389.12,-1015.67 347.35,-989.78 315.56,-968.36"/>
<polygon fill="black" stroke="black" points="317.53,-965.46 307.29,-962.73 313.59,-971.25 317.53,-965.46"/>
<g id="a_edge35&#45;headlabel"><a xlink:title="1 Puce">
<text text-anchor="middle" x="327.03" y="-959.94" font-family="Times,serif" font-size="25.00">1</text>
</a>
</g>
</g>
<!-- SatelliteFragile1&#45;&gt;SatelliteFragile2 -->
<!-- SatelliteFragile1&#45;&gt;SatelliteFragile2 -->
<g id="edge41" class="edge">
<title>SatelliteFragile1&#45;&gt;SatelliteFragile2</title>
<path fill="none" stroke="orange" d="M408.29,-673.61C409.75,-654.32 409.09,-622.23 406.97,-598.44"/>
<path fill="none" stroke="yellow" d="M410.29,-673.76C411.75,-654.28 411.09,-622.18 408.96,-598.26"/>
<path fill="none" stroke="orange" d="M412.28,-673.91C413.75,-654.24 413.09,-622.14 410.95,-598.08"/>
<polygon fill="orange" stroke="orange" points="412.43,-597.83 407.92,-588.25 405.47,-598.55 412.43,-597.83"/>
<g id="a_edge41&#45;headlabel"><a xlink:title="1 SatelliteFragile1">
<text text-anchor="middle" x="418.2" y="-599.4" font-family="Times,serif" font-size="25.00">1</text>
</a>
</g>
</g>
<!-- SatelliteRobuste1&#45;&gt;SatelliteRobuste2 -->
<!-- SatelliteRobuste1&#45;&gt;SatelliteRobuste2 -->
<g id="edge48" class="edge">
<title>SatelliteRobuste1&#45;&gt;SatelliteRobuste2</title>
<path fill="none" stroke="orange" d="M641.42,-673.48C644.12,-654.19 645.53,-622.1 644.94,-598.31"/>
<path fill="none" stroke="yellow" d="M643.4,-673.76C646.12,-654.28 647.53,-622.18 646.94,-598.26"/>
<path fill="none" stroke="orange" d="M645.38,-674.04C648.12,-654.37 649.52,-622.27 648.94,-598.21"/>
<polygon fill="orange" stroke="orange" points="650.44,-598.1 646.55,-588.25 643.44,-598.38 650.44,-598.1"/>
<g id="a_edge48&#45;headlabel"><a xlink:title="1 SatelliteRobuste1">
<text text-anchor="middle" x="655.71" y="-600.03" font-family="Times,serif" font-size="25.00">1</text>
</a>
</g>
</g>
<!-- VaisseauFragile1&#45;&gt;VaisseauFragile2 -->
<!-- VaisseauFragile1&#45;&gt;VaisseauFragile2 -->
<g id="edge56" class="edge">
<title>VaisseauFragile1&#45;&gt;VaisseauFragile2</title>
<path fill="none" stroke="red" d="M1026.86,-673.54C1028.94,-654.26 1029.31,-622.16 1027.95,-598.38"/>
<path fill="none" stroke="orange" d="M1028.84,-673.76C1030.94,-654.28 1031.31,-622.18 1029.95,-598.26"/>
<path fill="none" stroke="red" d="M1030.83,-673.97C1032.94,-654.3 1033.31,-622.21 1031.95,-598.15"/>
<polygon fill="red" stroke="red" points="1033.44,-597.97 1029.24,-588.25 1026.46,-598.47 1033.44,-597.97"/>
<g id="a_edge56&#45;headlabel"><a xlink:title="1 VaisseauFragile1">
<text text-anchor="middle" x="1038.96" y="-599.72" font-family="Times,serif" font-size="25.00">1</text>
</a>
</g>
</g>
<!-- VaisseauRobuste1&#45;&gt;VaisseauRobuste2 -->
<!-- VaisseauRobuste1&#45;&gt;VaisseauRobuste2 -->
<g id="edge64" class="edge">
<title>VaisseauRobuste1&#45;&gt;VaisseauRobuste2</title>
<path fill="none" stroke="red" d="M1270.42,-673.48C1273.12,-654.19 1274.53,-622.1 1273.94,-598.31"/>
<path fill="none" stroke="orange" d="M1272.4,-673.76C1275.12,-654.28 1276.53,-622.18 1275.94,-598.26"/>
<path fill="none" stroke="red" d="M1274.38,-674.04C1277.12,-654.37 1278.52,-622.27 1277.94,-598.21"/>
<polygon fill="red" stroke="red" points="1279.44,-598.1 1275.55,-588.25 1272.44,-598.38 1279.44,-598.1"/>
<g id="a_edge64&#45;headlabel"><a xlink:title="1 VaisseauRobuste1">
<text text-anchor="middle" x="1284.71" y="-600.03" font-family="Times,serif" font-size="25.00">1</text>
</a>
</g>
</g>
<!-- SatelliteFragile2&#45;&gt;SatelliteFragile3 -->
<!-- SatelliteFragile2&#45;&gt;SatelliteFragile3 -->
<g id="edge43" class="edge">
<title>SatelliteFragile2&#45;&gt;SatelliteFragile3</title>
<path fill="none" stroke="orange" d="M404.42,-543.62C405.7,-522.12 405.03,-488.14 403.01,-462.53"/>
<path fill="none" stroke="yellow" d="M406.42,-543.74C407.7,-522.08 407.03,-488.1 405.01,-462.38"/>
<path fill="none" stroke="orange" d="M408.42,-543.86C409.7,-522.04 409.03,-488.06 407,-462.22"/>
<polygon fill="orange" stroke="orange" points="408.48,-461.91 404.09,-452.27 401.51,-462.54 408.48,-461.91"/>
<g id="a_edge43&#45;headlabel"><a xlink:title="1 SatelliteFragile2">
<text text-anchor="middle" x="414.14" y="-463.56" font-family="Times,serif" font-size="25.00">1</text>
</a>
</g>
</g>
<!-- SatelliteRobuste2&#45;&gt;SatelliteRobuste3 -->
<!-- SatelliteRobuste2&#45;&gt;SatelliteRobuste3 -->
<g id="edge50" class="edge">
<title>SatelliteRobuste2&#45;&gt;SatelliteRobuste3</title>
<path fill="none" stroke="orange" d="M645.04,-543.56C646.94,-522.06 647.26,-488.08 645.98,-462.48"/>
<path fill="none" stroke="yellow" d="M647.04,-543.74C648.94,-522.08 649.26,-488.1 647.98,-462.38"/>
<path fill="none" stroke="orange" d="M649.03,-543.92C650.94,-522.1 651.26,-488.12 649.98,-462.28"/>
<polygon fill="orange" stroke="orange" points="651.47,-462.03 647.36,-452.27 644.48,-462.46 651.47,-462.03"/>
<g id="a_edge50&#45;headlabel"><a xlink:title="1 SatelliteRobuste2">
<text text-anchor="middle" x="656.91" y="-463.84" font-family="Times,serif" font-size="25.00">1</text>
</a>
</g>
</g>
<!-- VaisseauFragile2&#45;&gt;VaisseauFragile3 -->
<!-- VaisseauFragile2&#45;&gt;VaisseauFragile3 -->
<g id="edge58" class="edge">
<title>VaisseauFragile2&#45;&gt;VaisseauFragile3</title>
<path fill="none" stroke="red" d="M1027.04,-543.56C1028.94,-522.06 1029.26,-488.08 1027.98,-462.48"/>
<path fill="none" stroke="orange" d="M1029.04,-543.74C1030.94,-522.08 1031.26,-488.1 1029.98,-462.38"/>
<path fill="none" stroke="red" d="M1031.03,-543.92C1032.94,-522.1 1033.26,-488.12 1031.98,-462.28"/>
<polygon fill="red" stroke="red" points="1033.47,-462.03 1029.36,-452.27 1026.48,-462.46 1033.47,-462.03"/>
<g id="a_edge58&#45;headlabel"><a xlink:title="1 VaisseauFragile2">
<text text-anchor="middle" x="1038.91" y="-463.84" font-family="Times,serif" font-size="25.00">1</text>
</a>
</g>
</g>
<!-- VaisseauRobuste2&#45;&gt;VaisseauRobuste3 -->
<!-- VaisseauRobuste2&#45;&gt;VaisseauRobuste3 -->
<g id="edge66" class="edge">
<title>VaisseauRobuste2&#45;&gt;VaisseauRobuste3</title>
<path fill="none" stroke="red" d="M1274.04,-543.56C1275.94,-522.06 1276.26,-488.08 1274.98,-462.48"/>
<path fill="none" stroke="orange" d="M1276.04,-543.74C1277.94,-522.08 1278.26,-488.1 1276.98,-462.38"/>
<path fill="none" stroke="red" d="M1278.03,-543.92C1279.94,-522.1 1280.26,-488.12 1278.98,-462.28"/>
<polygon fill="red" stroke="red" points="1280.47,-462.03 1276.36,-452.27 1273.48,-462.46 1280.47,-462.03"/>
<g id="a_edge66&#45;headlabel"><a xlink:title="1 VaisseauRobuste2">
<text text-anchor="middle" x="1285.91" y="-463.84" font-family="Times,serif" font-size="25.00">1</text>
</a>
</g>
</g>
<!-- SatelliteRobuste3&#45;&gt;VaisseauLuxe -->
<g id="edge69" class="edge">
<title>SatelliteRobuste3&#45;&gt;VaisseauLuxe</title>
<path fill="none" stroke="red" d="M614.73,-401.08C590.11,-377.43 551.55,-341.63 515.77,-313.57 433.7,-249.2 332.89,-182.96 267.6,-141.62"/>
<path fill="none" stroke="orange" d="M616.12,-399.64C591.47,-375.97 552.91,-340.17 517,-312 434.8,-247.52 333.99,-181.29 268.67,-139.93"/>
<path fill="none" stroke="red" d="M617.5,-398.19C592.83,-374.5 554.27,-338.7 518.23,-310.43 435.9,-245.85 335.08,-179.62 269.74,-138.24"/>
<polygon fill="red" stroke="red" points="270.41,-136.89 260.09,-134.51 266.67,-142.81 270.41,-136.89"/>
<g id="a_edge69&#45;headlabel"><a xlink:title="1 SatelliteRobuste3">
<text text-anchor="middle" x="279.93" y="-131.04" font-family="Times,serif" font-size="25.00">1</text>
</a>
</g>
</g>
<!-- VaisseauRobuste3&#45;&gt;VaisseauLuxe -->
<g id="edge68" class="edge">
<title>VaisseauRobuste3&#45;&gt;VaisseauLuxe</title>
<path fill="none" stroke="red" d="M1248.54,-401.13C1225.58,-375.2 1186.13,-335.4 1144.08,-313.78 844.04,-158.56 432.06,-115.24 270.21,-103.83"/>
<path fill="none" stroke="orange" d="M1250.04,-399.8C1227,-373.79 1187.55,-333.99 1145,-312 844.25,-156.58 432.27,-113.25 270.35,-101.84"/>
<path fill="none" stroke="red" d="M1251.54,-398.48C1228.42,-372.38 1188.97,-332.58 1145.92,-310.22 844.46,-154.59 432.48,-111.26 270.49,-99.84"/>
<polygon fill="red" stroke="red" points="270.27,-98.32 260.05,-101.13 269.79,-105.31 270.27,-98.32"/>
<g id="a_edge68&#45;headlabel"><a xlink:title="1 VaisseauRobuste3">
<text text-anchor="middle" x="278.71" y="-87.94" font-family="Times,serif" font-size="25.00">1</text>
</a>
</g>
</g>
<!-- PuceLuxe&#45;&gt;VaisseauLuxe -->
<g id="edge71" class="edge">
<title>PuceLuxe&#45;&gt;VaisseauLuxe</title>
<path fill="none" stroke="red" d="M256.77,-884.11C246.74,-747.63 216.12,-331.05 204.01,-166.27"/>
<path fill="none" stroke="orange" d="M258.76,-883.96C248.73,-747.48 218.12,-330.91 206.01,-166.13"/>
<path fill="none" stroke="red" d="M260.76,-883.82C250.73,-747.34 220.11,-330.76 208,-165.98"/>
<polygon fill="red" stroke="red" points="209.49,-165.83 205.27,-156.11 202.51,-166.34 209.49,-165.83"/>
<g id="a_edge71&#45;headlabel"><a xlink:title="1 PuceLuxe">
<text text-anchor="middle" x="215.03" y="-167.57" font-family="Times,serif" font-size="25.00">1</text>
</a>
</g>
</g>
<!-- mine0 -->
<!-- mine1 -->
<!-- mine0&#45;&gt;mine1 -->
<g id="edge72" class="edge">
<title>mine0&#45;&gt;mine1</title>
<path fill="none" stroke="grey" stroke-dasharray="1,5" d="M1727.93,-1679C1734.67,-1679 1757.54,-1679 1771.91,-1679"/>
<polygon fill="grey" stroke="grey" points="1772,-1682.5 1782,-1679 1772,-1675.5 1772,-1682.5"/>
<text text-anchor="middle" x="1755" y="-1685.8" font-family="Times,serif" font-size="14.00" fill="grey">Mine</text>
</g>
<!-- fonderie0 -->
<!-- fonderie1 -->
<!-- fonderie0&#45;&gt;fonderie1 -->
<g id="edge73" class="edge">
<title>fonderie0&#45;&gt;fonderie1</title>
<path fill="none" stroke="blue" stroke-dasharray="5,2" d="M1621.1,-1679C1630.75,-1679 1671.2,-1679 1691.82,-1679"/>
<polygon fill="blue" stroke="blue" points="1691.97,-1682.5 1701.97,-1679 1691.97,-1675.5 1691.97,-1682.5"/>
<text text-anchor="middle" x="1661.5" y="-1685.8" font-family="Times,serif" font-size="14.00" fill="blue">Fonderie</text>
</g>
<!-- fabrique0 -->
<!-- fabrique1 -->
<!-- fabrique0&#45;&gt;fabrique1 -->
<g id="edge74" class="edge">
<title>fabrique0&#45;&gt;fabrique1</title>
<path fill="none" stroke="green" d="M1514.1,-1679C1523.75,-1679 1564.2,-1679 1584.82,-1679"/>
<polygon fill="green" stroke="green" points="1584.97,-1682.5 1594.97,-1679 1584.97,-1675.5 1584.97,-1682.5"/>
<text text-anchor="middle" x="1554.5" y="-1685.8" font-family="Times,serif" font-size="14.00" fill="green">Fabrique</text>
</g>
<!-- atelier0 -->
<!-- atelier1 -->
<!-- atelier0&#45;&gt;atelier1 -->
<g id="edge75" class="edge">
<title>atelier0&#45;&gt;atelier1</title>
<path fill="none" stroke="orange" d="M1422.02,-1677C1430.13,-1677 1460.69,-1677 1477.95,-1677"/>
<path fill="none" stroke="yellow" d="M1422.02,-1679C1430.13,-1679 1460.69,-1679 1477.95,-1679"/>
<path fill="none" stroke="orange" d="M1422.02,-1681C1430.13,-1681 1460.69,-1681 1477.95,-1681"/>
<polygon fill="orange" stroke="orange" points="1478.11,-1682.5 1488.11,-1679 1478.1,-1675.5 1478.11,-1682.5"/>
<text text-anchor="middle" x="1455" y="-1685.8" font-family="Times,serif" font-size="14.00" fill="orange">Atelier</text>
</g>
<!-- cuve0 -->
<!-- cuve1 -->
<!-- cuve0&#45;&gt;cuve1 -->
<g id="edge76" class="edge">
<title>cuve0&#45;&gt;cuve1</title>
<path fill="none" stroke="lightskyblue" stroke-dasharray="5,2" d="M1341.93,-1679C1348.67,-1679 1371.54,-1679 1385.91,-1679"/>
<polygon fill="lightskyblue" stroke="lightskyblue" points="1386,-1682.5 1396,-1679 1386,-1675.5 1386,-1682.5"/>
<text text-anchor="middle" x="1369" y="-1685.8" font-family="Times,serif" font-size="14.00" fill="lightskyblue">Cuve</text>
</g>
<!-- chantier0 -->
<!-- chantier1 -->
<!-- chantier0&#45;&gt;chantier1 -->
<g id="edge77" class="edge">
<title>chantier0&#45;&gt;chantier1</title>
<path fill="none" stroke="red" d="M1183.92,-1677C1197.14,-1677 1274.91,-1677 1305.58,-1677"/>
<path fill="none" stroke="orange" d="M1183.92,-1679C1197.14,-1679 1274.91,-1679 1305.58,-1679"/>
<path fill="none" stroke="red" d="M1183.92,-1681C1197.14,-1681 1274.91,-1681 1305.58,-1681"/>
<polygon fill="red" stroke="red" points="1305.95,-1682.5 1315.95,-1679 1305.95,-1675.5 1305.95,-1682.5"/>
<text text-anchor="middle" x="1250" y="-1685.8" font-family="Times,serif" font-size="14.00" fill="red">Chantier spatial</text>
</g>
</g>
</svg>
