<?xml version="1.0" encoding="UTF-8" standalone="no"?>
<!DOCTYPE svg PUBLIC "-//W3C//DTD SVG 1.1//EN"
 "http://www.w3.org/Graphics/SVG/1.1/DTD/svg11.dtd">
<!-- Generated by graphviz version 2.43.0 (0)
 -->
<!-- Title: %3 Pages: 1 -->
<svg width="2556pt" height="1108pt"
 viewBox="0.00 0.00 2555.91 1108.09" xmlns="http://www.w3.org/2000/svg" xmlns:xlink="http://www.w3.org/1999/xlink">
<g id="graph0" class="graph" transform="scale(1 1) rotate(0) translate(4 1104.09)">
<title>%3</title>
<polygon fill="white" stroke="transparent" points="-4,4 -4,-1104.09 2551.91,-1104.09 2551.91,4 -4,4"/>
<!-- Vierge -->
<g id="node1" class="node">
<title>Vierge</title>
<text text-anchor="middle" x="505.91" y="-1078.39" font-family="Times,serif" font-size="14.00">Vierge</text>
</g>
<!-- PoussiereRegolite -->
<g id="node13" class="node">
<title>PoussiereRegolite</title>
<polygon fill="lightgrey" stroke="black" points="515.46,-992.14 521.79,-992.24 528.05,-992.39 534.22,-992.58 540.27,-992.83 546.19,-993.12 551.94,-993.46 557.5,-993.84 562.86,-994.27 567.99,-994.74 572.87,-995.25 577.5,-995.81 581.84,-996.4 585.89,-997.03 589.64,-997.7 593.08,-998.4 596.19,-999.13 598.97,-999.89 601.42,-1000.68 603.53,-1001.5 605.31,-1002.34 606.74,-1003.2 607.84,-1004.08 608.61,-1004.98 609.05,-1005.89 609.17,-1006.81 608.97,-1007.74 608.47,-1008.68 607.68,-1009.62 606.6,-1010.56 605.25,-1011.5 603.64,-1012.44 601.79,-1013.37 599.7,-1014.29 597.4,-1015.21 594.89,-1016.1 592.19,-1016.98 589.31,-1017.84 586.27,-1018.68 583.08,-1019.5 579.76,-1020.29 576.31,-1021.05 572.75,-1021.79 569.09,-1022.49 565.34,-1023.15 561.51,-1023.78 557.61,-1024.38 553.66,-1024.93 549.65,-1025.44 545.6,-1025.92 541.51,-1026.34 537.38,-1026.73 533.23,-1027.06 529.06,-1027.36 524.88,-1027.6 520.67,-1027.8 516.46,-1027.94 512.24,-1028.04 508.02,-1028.09 503.79,-1028.09 499.57,-1028.04 495.35,-1027.94 491.14,-1027.8 486.94,-1027.6 482.75,-1027.36 478.58,-1027.06 474.43,-1026.73 470.31,-1026.34 466.22,-1025.92 462.16,-1025.44 458.16,-1024.93 454.2,-1024.38 450.3,-1023.78 446.48,-1023.15 442.73,-1022.49 439.07,-1021.79 435.51,-1021.05 432.06,-1020.29 428.73,-1019.5 425.54,-1018.68 422.5,-1017.84 419.63,-1016.98 416.92,-1016.1 414.41,-1015.21 412.11,-1014.29 410.02,-1013.37 408.17,-1012.44 406.56,-1011.5 405.21,-1010.56 404.14,-1009.62 403.34,-1008.68 402.84,-1007.74 402.65,-1006.81 402.76,-1005.89 403.2,-1004.98 403.97,-1004.08 405.07,-1003.2 406.51,-1002.34 408.28,-1001.5 410.39,-1000.68 412.84,-999.89 415.62,-999.13 418.74,-998.4 422.17,-997.7 425.92,-997.03 429.97,-996.4 434.32,-995.81 438.94,-995.25 443.82,-994.74 448.95,-994.27 454.31,-993.84 459.88,-993.46 465.63,-993.12 471.54,-992.83 477.59,-992.58 483.76,-992.39 490.03,-992.24 496.35,-992.14 502.72,-992.09 509.1,-992.09 515.46,-992.14"/>
<text text-anchor="middle" x="505.91" y="-1006.39" font-family="Times,serif" font-size="14.00">Poussiere Regolite</text>
</g>
<!-- Vierge&#45;&gt;PoussiereRegolite -->
<g id="edge1" class="edge">
<title>Vierge&#45;&gt;PoussiereRegolite</title>
<path fill="none" stroke="black" d="M505.91,-1063.79C505.91,-1056.07 505.91,-1046.8 505.91,-1038.2"/>
<polygon fill="black" stroke="black" points="509.41,-1038.2 505.91,-1028.2 502.41,-1038.2 509.41,-1038.2"/>
</g>
<!-- GisementOr -->
<g id="node2" class="node">
<title>GisementOr</title>
<polygon fill="lightgrey" stroke="transparent" points="753.41,-1100.09 646.41,-1100.09 646.41,-1064.09 753.41,-1064.09 753.41,-1100.09"/>
<text text-anchor="middle" x="699.91" y="-1078.39" font-family="Times,serif" font-size="14.00">Gisement Or</text>
</g>
<!-- MineraiOr -->
<g id="node18" class="node">
<title>MineraiOr</title>
<polygon fill="lightgrey" stroke="black" points="705.97,-992.14 709.98,-992.24 713.95,-992.39 717.87,-992.58 721.71,-992.83 725.46,-993.12 729.11,-993.46 732.64,-993.84 736.04,-994.27 739.29,-994.74 742.39,-995.25 745.32,-995.81 748.08,-996.4 750.65,-997.03 753.03,-997.7 755.21,-998.4 757.18,-999.13 758.95,-999.89 760.5,-1000.68 761.84,-1001.5 762.97,-1002.34 763.88,-1003.2 764.58,-1004.08 765.06,-1004.98 765.34,-1005.89 765.42,-1006.81 765.29,-1007.74 764.98,-1008.68 764.47,-1009.62 763.79,-1010.56 762.93,-1011.5 761.91,-1012.44 760.74,-1013.37 759.41,-1014.29 757.95,-1015.21 756.36,-1016.1 754.64,-1016.98 752.82,-1017.84 750.89,-1018.68 748.87,-1019.5 746.76,-1020.29 744.57,-1021.05 742.31,-1021.79 739.99,-1022.49 737.61,-1023.15 735.18,-1023.78 732.71,-1024.38 730.2,-1024.93 727.66,-1025.44 725.09,-1025.92 722.49,-1026.34 719.88,-1026.73 717.24,-1027.06 714.6,-1027.36 711.94,-1027.6 709.27,-1027.8 706.6,-1027.94 703.93,-1028.04 701.25,-1028.09 698.57,-1028.09 695.89,-1028.04 693.21,-1027.94 690.54,-1027.8 687.87,-1027.6 685.22,-1027.36 682.57,-1027.06 679.94,-1026.73 677.32,-1026.34 674.73,-1025.92 672.16,-1025.44 669.61,-1024.93 667.1,-1024.38 664.63,-1023.78 662.2,-1023.15 659.83,-1022.49 657.5,-1021.79 655.24,-1021.05 653.06,-1020.29 650.95,-1019.5 648.92,-1018.68 646.99,-1017.84 645.17,-1016.98 643.46,-1016.1 641.86,-1015.21 640.4,-1014.29 639.08,-1013.37 637.9,-1012.44 636.88,-1011.5 636.03,-1010.56 635.34,-1009.62 634.84,-1008.68 634.52,-1007.74 634.4,-1006.81 634.47,-1005.89 634.75,-1004.98 635.24,-1004.08 635.94,-1003.2 636.85,-1002.34 637.97,-1001.5 639.31,-1000.68 640.87,-999.89 642.63,-999.13 644.61,-998.4 646.79,-997.7 649.16,-997.03 651.73,-996.4 654.49,-995.81 657.42,-995.25 660.52,-994.74 663.78,-994.27 667.17,-993.84 670.7,-993.46 674.35,-993.12 678.1,-992.83 681.95,-992.58 685.86,-992.39 689.83,-992.24 693.84,-992.14 697.88,-992.09 701.93,-992.09 705.97,-992.14"/>
<text text-anchor="middle" x="699.91" y="-1006.39" font-family="Times,serif" font-size="14.00">Minerai Or</text>
</g>
<!-- GisementOr&#45;&gt;MineraiOr -->
<g id="edge2" class="edge">
<title>GisementOr&#45;&gt;MineraiOr</title>
<path fill="none" stroke="black" d="M699.91,-1063.79C699.91,-1056.07 699.91,-1046.8 699.91,-1038.2"/>
<polygon fill="black" stroke="black" points="703.41,-1038.2 699.91,-1028.2 696.41,-1038.2 703.41,-1038.2"/>
</g>
<!-- GisementFer -->
<g id="node3" class="node">
<title>GisementFer</title>
<polygon fill="lightgrey" stroke="transparent" points="126.41,-1100.09 13.41,-1100.09 13.41,-1064.09 126.41,-1064.09 126.41,-1100.09"/>
<text text-anchor="middle" x="69.91" y="-1078.39" font-family="Times,serif" font-size="14.00">Gisement Fer</text>
</g>
<!-- MineraiFer -->
<g id="node17" class="node">
<title>MineraiFer</title>
<polygon fill="lightgrey" stroke="black" points="76.37,-992.14 80.64,-992.24 84.88,-992.39 89.05,-992.58 93.14,-992.83 97.14,-993.12 101.03,-993.46 104.79,-993.84 108.41,-994.27 111.88,-994.74 115.18,-995.25 118.31,-995.81 121.25,-996.4 123.98,-997.03 126.52,-997.7 128.84,-998.4 130.95,-999.13 132.83,-999.89 134.48,-1000.68 135.91,-1001.5 137.11,-1002.34 138.08,-1003.2 138.83,-1004.08 139.34,-1004.98 139.64,-1005.89 139.72,-1006.81 139.59,-1007.74 139.25,-1008.68 138.71,-1009.62 137.99,-1010.56 137.07,-1011.5 135.99,-1012.44 134.73,-1013.37 133.32,-1014.29 131.76,-1015.21 130.07,-1016.1 128.24,-1016.98 126.3,-1017.84 124.24,-1018.68 122.08,-1019.5 119.84,-1020.29 117.5,-1021.05 115.1,-1021.79 112.62,-1022.49 110.09,-1023.15 107.5,-1023.78 104.87,-1024.38 102.19,-1024.93 99.48,-1025.44 96.74,-1025.92 93.98,-1026.34 91.19,-1026.73 88.38,-1027.06 85.56,-1027.36 82.73,-1027.6 79.89,-1027.8 77.04,-1027.94 74.19,-1028.04 71.33,-1028.09 68.48,-1028.09 65.62,-1028.04 62.77,-1027.94 59.92,-1027.8 57.08,-1027.6 54.25,-1027.36 51.43,-1027.06 48.63,-1026.73 45.84,-1026.34 43.07,-1025.92 40.33,-1025.44 37.62,-1024.93 34.95,-1024.38 32.31,-1023.78 29.73,-1023.15 27.19,-1022.49 24.72,-1021.79 22.31,-1021.05 19.98,-1020.29 17.73,-1019.5 15.57,-1018.68 13.52,-1017.84 11.57,-1016.98 9.75,-1016.1 8.05,-1015.21 6.49,-1014.29 5.08,-1013.37 3.83,-1012.44 2.74,-1011.5 1.83,-1010.56 1.1,-1009.62 0.56,-1008.68 0.22,-1007.74 0.09,-1006.81 0.17,-1005.89 0.47,-1004.98 0.99,-1004.08 1.73,-1003.2 2.7,-1002.34 3.9,-1001.5 5.33,-1000.68 6.99,-999.89 8.87,-999.13 10.97,-998.4 13.29,-997.7 15.83,-997.03 18.57,-996.4 21.51,-995.81 24.63,-995.25 27.93,-994.74 31.4,-994.27 35.02,-993.84 38.79,-993.46 42.67,-993.12 46.67,-992.83 50.76,-992.58 54.94,-992.39 59.17,-992.24 63.45,-992.14 67.75,-992.09 72.06,-992.09 76.37,-992.14"/>
<text text-anchor="middle" x="69.91" y="-1006.39" font-family="Times,serif" font-size="14.00">Minerai Fer</text>
</g>
<!-- GisementFer&#45;&gt;MineraiFer -->
<g id="edge3" class="edge">
<title>GisementFer&#45;&gt;MineraiFer</title>
<path fill="none" stroke="black" d="M69.91,-1063.79C69.91,-1056.07 69.91,-1046.8 69.91,-1038.2"/>
<polygon fill="black" stroke="black" points="73.41,-1038.2 69.91,-1028.2 66.41,-1038.2 73.41,-1038.2"/>
</g>
<!-- GisementTitane -->
<g id="node4" class="node">
<title>GisementTitane</title>
<polygon fill="lightgrey" stroke="transparent" points="1264.91,-1100.09 1130.91,-1100.09 1130.91,-1064.09 1264.91,-1064.09 1264.91,-1100.09"/>
<text text-anchor="middle" x="1197.91" y="-1078.39" font-family="Times,serif" font-size="14.00">Gisement Titane</text>
</g>
<!-- MineraiTitane -->
<g id="node15" class="node">
<title>MineraiTitane</title>
<polygon fill="lightgrey" stroke="black" points="1205.72,-992.14 1210.89,-992.24 1216,-992.39 1221.04,-992.58 1225.99,-992.83 1230.82,-993.12 1235.52,-993.46 1240.07,-993.84 1244.45,-994.27 1248.64,-994.74 1252.63,-995.25 1256.41,-995.81 1259.96,-996.4 1263.27,-997.03 1266.33,-997.7 1269.14,-998.4 1271.69,-999.13 1273.96,-999.89 1275.96,-1000.68 1277.69,-1001.5 1279.14,-1002.34 1280.31,-1003.2 1281.21,-1004.08 1281.84,-1004.98 1282.19,-1005.89 1282.29,-1006.81 1282.13,-1007.74 1281.72,-1008.68 1281.07,-1009.62 1280.19,-1010.56 1279.09,-1011.5 1277.78,-1012.44 1276.26,-1013.37 1274.56,-1014.29 1272.67,-1015.21 1270.62,-1016.1 1268.42,-1016.98 1266.07,-1017.84 1263.58,-1018.68 1260.97,-1019.5 1258.26,-1020.29 1255.44,-1021.05 1252.53,-1021.79 1249.54,-1022.49 1246.47,-1023.15 1243.35,-1023.78 1240.16,-1024.38 1236.93,-1024.93 1233.65,-1025.44 1230.34,-1025.92 1227,-1026.34 1223.63,-1026.73 1220.24,-1027.06 1216.83,-1027.36 1213.41,-1027.6 1209.97,-1027.8 1206.53,-1027.94 1203.08,-1028.04 1199.63,-1028.09 1196.18,-1028.09 1192.73,-1028.04 1189.28,-1027.94 1185.84,-1027.8 1182.41,-1027.6 1178.98,-1027.36 1175.58,-1027.06 1172.18,-1026.73 1168.82,-1026.34 1165.47,-1025.92 1162.16,-1025.44 1158.89,-1024.93 1155.65,-1024.38 1152.47,-1023.78 1149.34,-1023.15 1146.28,-1022.49 1143.29,-1021.79 1140.38,-1021.05 1137.56,-1020.29 1134.84,-1019.5 1132.23,-1018.68 1129.75,-1017.84 1127.4,-1016.98 1125.19,-1016.1 1123.14,-1015.21 1121.26,-1014.29 1119.55,-1013.37 1118.04,-1012.44 1116.72,-1011.5 1115.62,-1010.56 1114.74,-1009.62 1114.09,-1008.68 1113.68,-1007.74 1113.52,-1006.81 1113.62,-1005.89 1113.98,-1004.98 1114.61,-1004.08 1115.5,-1003.2 1116.68,-1002.34 1118.13,-1001.5 1119.85,-1000.68 1121.85,-999.89 1124.13,-999.13 1126.67,-998.4 1129.48,-997.7 1132.54,-997.03 1135.85,-996.4 1139.4,-995.81 1143.18,-995.25 1147.17,-994.74 1151.37,-994.27 1155.74,-993.84 1160.29,-993.46 1164.99,-993.12 1169.82,-992.83 1174.77,-992.58 1179.81,-992.39 1184.93,-992.24 1190.1,-992.14 1195.3,-992.09 1200.51,-992.09 1205.72,-992.14"/>
<text text-anchor="middle" x="1197.91" y="-1006.39" font-family="Times,serif" font-size="14.00">Minerai Titane</text>
</g>
<!-- GisementTitane&#45;&gt;MineraiTitane -->
<g id="edge4" class="edge">
<title>GisementTitane&#45;&gt;MineraiTitane</title>
<path fill="none" stroke="black" d="M1197.91,-1063.79C1197.91,-1056.07 1197.91,-1046.8 1197.91,-1038.2"/>
<polygon fill="black" stroke="black" points="1201.41,-1038.2 1197.91,-1028.2 1194.41,-1038.2 1201.41,-1038.2"/>
</g>
<!-- GisementSilicium -->
<g id="node5" class="node">
<title>GisementSilicium</title>
<polygon fill="lightgrey" stroke="transparent" points="1076.41,-1100.09 929.41,-1100.09 929.41,-1064.09 1076.41,-1064.09 1076.41,-1100.09"/>
<text text-anchor="middle" x="1002.91" y="-1078.39" font-family="Times,serif" font-size="14.00">Gisement Silicium</text>
</g>
<!-- MineraiSilicium -->
<g id="node16" class="node">
<title>MineraiSilicium</title>
<polygon fill="lightgrey" stroke="black" points="1011.51,-992.14 1017.21,-992.24 1022.85,-992.39 1028.41,-992.58 1033.86,-992.83 1039.18,-993.12 1044.36,-993.46 1049.37,-993.84 1054.2,-994.27 1058.82,-994.74 1063.22,-995.25 1067.38,-995.81 1071.29,-996.4 1074.94,-997.03 1078.32,-997.7 1081.41,-998.4 1084.21,-999.13 1086.72,-999.89 1088.93,-1000.68 1090.83,-1001.5 1092.43,-1002.34 1093.72,-1003.2 1094.71,-1004.08 1095.4,-1004.98 1095.8,-1005.89 1095.9,-1006.81 1095.73,-1007.74 1095.28,-1008.68 1094.56,-1009.62 1093.59,-1010.56 1092.38,-1011.5 1090.93,-1012.44 1089.26,-1013.37 1087.38,-1014.29 1085.3,-1015.21 1083.04,-1016.1 1080.61,-1016.98 1078.02,-1017.84 1075.28,-1018.68 1072.41,-1019.5 1069.42,-1020.29 1066.31,-1021.05 1063.1,-1021.79 1059.81,-1022.49 1056.43,-1023.15 1052.98,-1023.78 1049.47,-1024.38 1045.91,-1024.93 1042.3,-1025.44 1038.65,-1025.92 1034.97,-1026.34 1031.25,-1026.73 1027.52,-1027.06 1023.76,-1027.36 1019.99,-1027.6 1016.21,-1027.8 1012.41,-1027.94 1008.61,-1028.04 1004.81,-1028.09 1001,-1028.09 997.2,-1028.04 993.4,-1027.94 989.61,-1027.8 985.82,-1027.6 982.05,-1027.36 978.3,-1027.06 974.56,-1026.73 970.85,-1026.34 967.16,-1025.92 963.51,-1025.44 959.9,-1024.93 956.34,-1024.38 952.83,-1023.78 949.38,-1023.15 946.01,-1022.49 942.71,-1021.79 939.5,-1021.05 936.4,-1020.29 933.4,-1019.5 930.53,-1018.68 927.79,-1017.84 925.2,-1016.98 922.77,-1016.1 920.51,-1015.21 918.43,-1014.29 916.55,-1013.37 914.88,-1012.44 913.44,-1011.5 912.22,-1010.56 911.25,-1009.62 910.54,-1008.68 910.09,-1007.74 909.91,-1006.81 910.02,-1005.89 910.41,-1004.98 911.1,-1004.08 912.09,-1003.2 913.39,-1002.34 914.98,-1001.5 916.89,-1000.68 919.09,-999.89 921.6,-999.13 924.4,-998.4 927.5,-997.7 930.87,-997.03 934.52,-996.4 938.43,-995.81 942.6,-995.25 947,-994.74 951.62,-994.27 956.44,-993.84 961.45,-993.46 966.63,-993.12 971.96,-992.83 977.41,-992.58 982.97,-992.39 988.6,-992.24 994.3,-992.14 1000.03,-992.09 1005.78,-992.09 1011.51,-992.14"/>
<text text-anchor="middle" x="1002.91" y="-1006.39" font-family="Times,serif" font-size="14.00">Minerai Silicium</text>
</g>
<!-- GisementSilicium&#45;&gt;MineraiSilicium -->
<g id="edge5" class="edge">
<title>GisementSilicium&#45;&gt;MineraiSilicium</title>
<path fill="none" stroke="black" d="M1002.91,-1063.79C1002.91,-1056.07 1002.91,-1046.8 1002.91,-1038.2"/>
<polygon fill="black" stroke="black" points="1006.41,-1038.2 1002.91,-1028.2 999.41,-1038.2 1006.41,-1038.2"/>
</g>
<!-- GisementGlace -->
<g id="node6" class="node">
<title>GisementGlace</title>
<polygon fill="lightgrey" stroke="transparent" points="1739.41,-1100.09 1610.41,-1100.09 1610.41,-1064.09 1739.41,-1064.09 1739.41,-1100.09"/>
<text text-anchor="middle" x="1674.91" y="-1078.39" font-family="Times,serif" font-size="14.00">Gisement Glace</text>
</g>
<!-- MineraiGlace -->
<g id="node14" class="node">
<title>MineraiGlace</title>
<polygon fill="lightgrey" stroke="black" points="1682.32,-992.14 1687.22,-992.24 1692.08,-992.39 1696.86,-992.58 1701.56,-992.83 1706.14,-993.12 1710.6,-993.46 1714.92,-993.84 1719.07,-994.27 1723.05,-994.74 1726.84,-995.25 1730.42,-995.81 1733.79,-996.4 1736.94,-997.03 1739.84,-997.7 1742.51,-998.4 1744.92,-999.13 1747.08,-999.89 1748.98,-1000.68 1750.62,-1001.5 1751.99,-1002.34 1753.11,-1003.2 1753.96,-1004.08 1754.55,-1004.98 1754.89,-1005.89 1754.99,-1006.81 1754.83,-1007.74 1754.45,-1008.68 1753.83,-1009.62 1753,-1010.56 1751.95,-1011.5 1750.7,-1012.44 1749.27,-1013.37 1747.65,-1014.29 1745.86,-1015.21 1743.91,-1016.1 1741.82,-1016.98 1739.59,-1017.84 1737.23,-1018.68 1734.76,-1019.5 1732.18,-1020.29 1729.5,-1021.05 1726.74,-1021.79 1723.9,-1022.49 1721,-1023.15 1718.03,-1023.78 1715.01,-1024.38 1711.94,-1024.93 1708.83,-1025.44 1705.69,-1025.92 1702.51,-1026.34 1699.32,-1026.73 1696.1,-1027.06 1692.86,-1027.36 1689.62,-1027.6 1686.36,-1027.8 1683.09,-1027.94 1679.82,-1028.04 1676.54,-1028.09 1673.27,-1028.09 1669.99,-1028.04 1666.72,-1027.94 1663.46,-1027.8 1660.2,-1027.6 1656.95,-1027.36 1653.71,-1027.06 1650.5,-1026.73 1647.3,-1026.34 1644.13,-1025.92 1640.98,-1025.44 1637.88,-1024.93 1634.81,-1024.38 1631.79,-1023.78 1628.82,-1023.15 1625.91,-1022.49 1623.07,-1021.79 1620.31,-1021.05 1617.64,-1020.29 1615.06,-1019.5 1612.58,-1018.68 1610.23,-1017.84 1607.99,-1016.98 1605.9,-1016.1 1603.95,-1015.21 1602.17,-1014.29 1600.55,-1013.37 1599.11,-1012.44 1597.86,-1011.5 1596.82,-1010.56 1595.98,-1009.62 1595.37,-1008.68 1594.98,-1007.74 1594.83,-1006.81 1594.92,-1005.89 1595.26,-1004.98 1595.86,-1004.08 1596.71,-1003.2 1597.82,-1002.34 1599.2,-1001.5 1600.83,-1000.68 1602.73,-999.89 1604.89,-999.13 1607.31,-998.4 1609.97,-997.7 1612.88,-997.03 1616.02,-996.4 1619.39,-995.81 1622.97,-995.25 1626.76,-994.74 1630.74,-994.27 1634.89,-993.84 1639.21,-993.46 1643.67,-993.12 1648.26,-992.83 1652.95,-992.58 1657.74,-992.39 1662.59,-992.24 1667.5,-992.14 1672.43,-992.09 1677.38,-992.09 1682.32,-992.14"/>
<text text-anchor="middle" x="1674.91" y="-1006.39" font-family="Times,serif" font-size="14.00">Minerai Glace</text>
</g>
<!-- GisementGlace&#45;&gt;MineraiGlace -->
<g id="edge6" class="edge">
<title>GisementGlace&#45;&gt;MineraiGlace</title>
<path fill="none" stroke="black" d="M1674.91,-1063.79C1674.91,-1056.07 1674.91,-1046.8 1674.91,-1038.2"/>
<polygon fill="black" stroke="black" points="1678.41,-1038.2 1674.91,-1028.2 1671.41,-1038.2 1678.41,-1038.2"/>
</g>
<!-- GisementAluminium -->
<g id="node7" class="node">
<title>GisementAluminium</title>
<polygon fill="lightgrey" stroke="transparent" points="347.41,-1100.09 180.41,-1100.09 180.41,-1064.09 347.41,-1064.09 347.41,-1100.09"/>
<text text-anchor="middle" x="263.91" y="-1078.39" font-family="Times,serif" font-size="14.00">Gisement Aluminium</text>
</g>
<!-- MineraiAluminium -->
<g id="node19" class="node">
<title>MineraiAluminium</title>
<polygon fill="lightgrey" stroke="black" points="273.78,-992.14 280.31,-992.24 286.78,-992.39 293.16,-992.58 299.41,-992.83 305.52,-993.12 311.46,-993.46 317.21,-993.84 322.75,-994.27 328.05,-994.74 333.09,-995.25 337.87,-995.81 342.36,-996.4 346.54,-997.03 350.42,-997.7 353.96,-998.4 357.18,-999.13 360.06,-999.89 362.59,-1000.68 364.77,-1001.5 366.6,-1002.34 368.08,-1003.2 369.22,-1004.08 370.01,-1004.98 370.47,-1005.89 370.59,-1006.81 370.39,-1007.74 369.87,-1008.68 369.05,-1009.62 367.94,-1010.56 366.54,-1011.5 364.88,-1012.44 362.97,-1013.37 360.81,-1014.29 358.43,-1015.21 355.84,-1016.1 353.05,-1016.98 350.08,-1017.84 346.93,-1018.68 343.64,-1019.5 340.2,-1020.29 336.64,-1021.05 332.96,-1021.79 329.18,-1022.49 325.31,-1023.15 321.35,-1023.78 317.33,-1024.38 313.24,-1024.93 309.1,-1025.44 304.91,-1025.92 300.69,-1026.34 296.43,-1026.73 292.14,-1027.06 287.83,-1027.36 283.5,-1027.6 279.16,-1027.8 274.81,-1027.94 270.45,-1028.04 266.09,-1028.09 261.72,-1028.09 257.36,-1028.04 253,-1027.94 248.65,-1027.8 244.31,-1027.6 239.98,-1027.36 235.67,-1027.06 231.39,-1026.73 227.13,-1026.34 222.9,-1025.92 218.72,-1025.44 214.57,-1024.93 210.49,-1024.38 206.46,-1023.78 202.51,-1023.15 198.63,-1022.49 194.85,-1021.79 191.17,-1021.05 187.61,-1020.29 184.17,-1019.5 180.88,-1018.68 177.74,-1017.84 174.77,-1016.98 171.98,-1016.1 169.38,-1015.21 167,-1014.29 164.85,-1013.37 162.93,-1012.44 161.27,-1011.5 159.88,-1010.56 158.76,-1009.62 157.94,-1008.68 157.43,-1007.74 157.23,-1006.81 157.35,-1005.89 157.8,-1004.98 158.59,-1004.08 159.73,-1003.2 161.21,-1002.34 163.05,-1001.5 165.23,-1000.68 167.76,-999.89 170.63,-999.13 173.85,-998.4 177.4,-997.7 181.27,-997.03 185.46,-996.4 189.95,-995.81 194.72,-995.25 199.77,-994.74 205.07,-994.27 210.6,-993.84 216.35,-993.46 222.29,-993.12 228.4,-992.83 234.66,-992.58 241.03,-992.39 247.5,-992.24 254.03,-992.14 260.61,-992.09 267.2,-992.09 273.78,-992.14"/>
<text text-anchor="middle" x="263.91" y="-1006.39" font-family="Times,serif" font-size="14.00">Minerai Aluminium</text>
</g>
<!-- GisementAluminium&#45;&gt;MineraiAluminium -->
<g id="edge7" class="edge">
<title>GisementAluminium&#45;&gt;MineraiAluminium</title>
<path fill="none" stroke="black" d="M263.91,-1063.79C263.91,-1056.07 263.91,-1046.8 263.91,-1038.2"/>
<polygon fill="black" stroke="black" points="267.41,-1038.2 263.91,-1028.2 260.41,-1038.2 267.41,-1038.2"/>
</g>
<!-- GisementMagnesium -->
<g id="node8" class="node">
<title>GisementMagnesium</title>
<polygon fill="lightgrey" stroke="transparent" points="1970.41,-1100.09 1797.41,-1100.09 1797.41,-1064.09 1970.41,-1064.09 1970.41,-1100.09"/>
<text text-anchor="middle" x="1883.91" y="-1078.39" font-family="Times,serif" font-size="14.00">Gisement Magnesium</text>
</g>
<!-- MineraiMagnesium -->
<g id="node20" class="node">
<title>MineraiMagnesium</title>
<polygon fill="lightgrey" stroke="black" points="1894.18,-992.14 1900.98,-992.24 1907.71,-992.39 1914.34,-992.58 1920.85,-992.83 1927.2,-993.12 1933.38,-993.46 1939.36,-993.84 1945.12,-994.27 1950.64,-994.74 1955.89,-995.25 1960.85,-995.81 1965.52,-996.4 1969.88,-997.03 1973.91,-997.7 1977.6,-998.4 1980.95,-999.13 1983.94,-999.89 1986.57,-1000.68 1988.84,-1001.5 1990.75,-1002.34 1992.29,-1003.2 1993.47,-1004.08 1994.3,-1004.98 1994.77,-1005.89 1994.89,-1006.81 1994.68,-1007.74 1994.15,-1008.68 1993.29,-1009.62 1992.14,-1010.56 1990.69,-1011.5 1988.96,-1012.44 1986.97,-1013.37 1984.72,-1014.29 1982.25,-1015.21 1979.55,-1016.1 1976.65,-1016.98 1973.55,-1017.84 1970.29,-1018.68 1966.86,-1019.5 1963.28,-1020.29 1959.58,-1021.05 1955.75,-1021.79 1951.81,-1022.49 1947.79,-1023.15 1943.67,-1023.78 1939.48,-1024.38 1935.23,-1024.93 1930.92,-1025.44 1926.57,-1025.92 1922.17,-1026.34 1917.74,-1026.73 1913.28,-1027.06 1908.8,-1027.36 1904.29,-1027.6 1899.78,-1027.8 1895.25,-1027.94 1890.72,-1028.04 1886.18,-1028.09 1881.64,-1028.09 1877.1,-1028.04 1872.56,-1027.94 1868.04,-1027.8 1863.52,-1027.6 1859.02,-1027.36 1854.53,-1027.06 1850.08,-1026.73 1845.64,-1026.34 1841.25,-1025.92 1836.89,-1025.44 1832.58,-1024.93 1828.33,-1024.38 1824.14,-1023.78 1820.03,-1023.15 1816,-1022.49 1812.07,-1021.79 1808.24,-1021.05 1804.53,-1020.29 1800.96,-1019.5 1797.53,-1018.68 1794.26,-1017.84 1791.17,-1016.98 1788.27,-1016.1 1785.57,-1015.21 1783.09,-1014.29 1780.85,-1013.37 1778.85,-1012.44 1777.13,-1011.5 1775.68,-1010.56 1774.52,-1009.62 1773.67,-1008.68 1773.13,-1007.74 1772.92,-1006.81 1773.05,-1005.89 1773.52,-1004.98 1774.34,-1004.08 1775.52,-1003.2 1777.07,-1002.34 1778.97,-1001.5 1781.24,-1000.68 1783.88,-999.89 1786.87,-999.13 1790.21,-998.4 1793.91,-997.7 1797.94,-997.03 1802.29,-996.4 1806.96,-995.81 1811.93,-995.25 1817.18,-994.74 1822.69,-994.27 1828.45,-993.84 1834.43,-993.46 1840.61,-993.12 1846.97,-992.83 1853.48,-992.58 1860.11,-992.39 1866.84,-992.24 1873.64,-992.14 1880.48,-992.09 1887.34,-992.09 1894.18,-992.14"/>
<text text-anchor="middle" x="1883.91" y="-1006.39" font-family="Times,serif" font-size="14.00">Minerai Magnesium</text>
</g>
<!-- GisementMagnesium&#45;&gt;MineraiMagnesium -->
<g id="edge8" class="edge">
<title>GisementMagnesium&#45;&gt;MineraiMagnesium</title>
<path fill="none" stroke="black" d="M1883.91,-1063.79C1883.91,-1056.07 1883.91,-1046.8 1883.91,-1038.2"/>
<polygon fill="black" stroke="black" points="1887.41,-1038.2 1883.91,-1028.2 1880.41,-1038.2 1887.41,-1038.2"/>
</g>
<!-- GisementCalcium -->
<g id="node9" class="node">
<title>GisementCalcium</title>
<polygon fill="lightgrey" stroke="transparent" points="2178.41,-1100.09 2031.41,-1100.09 2031.41,-1064.09 2178.41,-1064.09 2178.41,-1100.09"/>
<text text-anchor="middle" x="2104.91" y="-1078.39" font-family="Times,serif" font-size="14.00">Gisement Calcium</text>
</g>
<!-- MineraiCalcium -->
<g id="node21" class="node">
<title>MineraiCalcium</title>
<polygon fill="lightgrey" stroke="black" points="2113.51,-992.14 2119.21,-992.24 2124.85,-992.39 2130.41,-992.58 2135.86,-992.83 2141.18,-993.12 2146.36,-993.46 2151.37,-993.84 2156.2,-994.27 2160.82,-994.74 2165.22,-995.25 2169.38,-995.81 2173.29,-996.4 2176.94,-997.03 2180.32,-997.7 2183.41,-998.4 2186.21,-999.13 2188.72,-999.89 2190.93,-1000.68 2192.83,-1001.5 2194.43,-1002.34 2195.72,-1003.2 2196.71,-1004.08 2197.4,-1004.98 2197.8,-1005.89 2197.9,-1006.81 2197.73,-1007.74 2197.28,-1008.68 2196.56,-1009.62 2195.59,-1010.56 2194.38,-1011.5 2192.93,-1012.44 2191.26,-1013.37 2189.38,-1014.29 2187.3,-1015.21 2185.04,-1016.1 2182.61,-1016.98 2180.02,-1017.84 2177.28,-1018.68 2174.41,-1019.5 2171.42,-1020.29 2168.31,-1021.05 2165.1,-1021.79 2161.81,-1022.49 2158.43,-1023.15 2154.98,-1023.78 2151.47,-1024.38 2147.91,-1024.93 2144.3,-1025.44 2140.65,-1025.92 2136.97,-1026.34 2133.25,-1026.73 2129.52,-1027.06 2125.76,-1027.36 2121.99,-1027.6 2118.21,-1027.8 2114.41,-1027.94 2110.61,-1028.04 2106.81,-1028.09 2103,-1028.09 2099.2,-1028.04 2095.4,-1027.94 2091.61,-1027.8 2087.82,-1027.6 2084.05,-1027.36 2080.3,-1027.06 2076.56,-1026.73 2072.85,-1026.34 2069.16,-1025.92 2065.51,-1025.44 2061.9,-1024.93 2058.34,-1024.38 2054.83,-1023.78 2051.38,-1023.15 2048.01,-1022.49 2044.71,-1021.79 2041.5,-1021.05 2038.4,-1020.29 2035.4,-1019.5 2032.53,-1018.68 2029.79,-1017.84 2027.2,-1016.98 2024.77,-1016.1 2022.51,-1015.21 2020.43,-1014.29 2018.55,-1013.37 2016.88,-1012.44 2015.44,-1011.5 2014.22,-1010.56 2013.25,-1009.62 2012.54,-1008.68 2012.09,-1007.74 2011.91,-1006.81 2012.02,-1005.89 2012.41,-1004.98 2013.1,-1004.08 2014.09,-1003.2 2015.39,-1002.34 2016.98,-1001.5 2018.89,-1000.68 2021.09,-999.89 2023.6,-999.13 2026.4,-998.4 2029.5,-997.7 2032.87,-997.03 2036.52,-996.4 2040.43,-995.81 2044.6,-995.25 2049,-994.74 2053.62,-994.27 2058.44,-993.84 2063.45,-993.46 2068.63,-993.12 2073.96,-992.83 2079.41,-992.58 2084.97,-992.39 2090.6,-992.24 2096.3,-992.14 2102.03,-992.09 2107.78,-992.09 2113.51,-992.14"/>
<text text-anchor="middle" x="2104.91" y="-1006.39" font-family="Times,serif" font-size="14.00">Minerai Calcium</text>
</g>
<!-- GisementCalcium&#45;&gt;MineraiCalcium -->
<g id="edge9" class="edge">
<title>GisementCalcium&#45;&gt;MineraiCalcium</title>
<path fill="none" stroke="black" d="M2104.91,-1063.79C2104.91,-1056.07 2104.91,-1046.8 2104.91,-1038.2"/>
<polygon fill="black" stroke="black" points="2108.41,-1038.2 2104.91,-1028.2 2101.41,-1038.2 2108.41,-1038.2"/>
</g>
<!-- GisementSoduim -->
<g id="node10" class="node">
<title>GisementSoduim</title>
<polygon fill="lightgrey" stroke="transparent" points="2377.41,-1100.09 2234.41,-1100.09 2234.41,-1064.09 2377.41,-1064.09 2377.41,-1100.09"/>
<text text-anchor="middle" x="2305.91" y="-1078.39" font-family="Times,serif" font-size="14.00">Gisement Soduim</text>
</g>
<!-- MineraiSoduim -->
<g id="node22" class="node">
<title>MineraiSoduim</title>
<polygon fill="lightgrey" stroke="black" points="2314.31,-992.14 2319.88,-992.24 2325.39,-992.39 2330.82,-992.58 2336.14,-992.83 2341.34,-993.12 2346.4,-993.46 2351.3,-993.84 2356.01,-994.27 2360.52,-994.74 2364.82,-995.25 2368.89,-995.81 2372.71,-996.4 2376.27,-997.03 2379.57,-997.7 2382.59,-998.4 2385.33,-999.13 2387.78,-999.89 2389.94,-1000.68 2391.79,-1001.5 2393.35,-1002.34 2394.62,-1003.2 2395.58,-1004.08 2396.26,-1004.98 2396.65,-1005.89 2396.75,-1006.81 2396.58,-1007.74 2396.14,-1008.68 2395.44,-1009.62 2394.49,-1010.56 2393.31,-1011.5 2391.89,-1012.44 2390.26,-1013.37 2388.43,-1014.29 2386.4,-1015.21 2384.19,-1016.1 2381.81,-1016.98 2379.28,-1017.84 2376.61,-1018.68 2373.8,-1019.5 2370.88,-1020.29 2367.84,-1021.05 2364.71,-1021.79 2361.49,-1022.49 2358.19,-1023.15 2354.82,-1023.78 2351.4,-1024.38 2347.92,-1024.93 2344.39,-1025.44 2340.82,-1025.92 2337.22,-1026.34 2333.6,-1026.73 2329.95,-1027.06 2326.28,-1027.36 2322.59,-1027.6 2318.9,-1027.8 2315.19,-1027.94 2311.48,-1028.04 2307.77,-1028.09 2304.05,-1028.09 2300.33,-1028.04 2296.62,-1027.94 2292.92,-1027.8 2289.22,-1027.6 2285.54,-1027.36 2281.87,-1027.06 2278.22,-1026.73 2274.59,-1026.34 2270.99,-1025.92 2267.42,-1025.44 2263.9,-1024.93 2260.42,-1024.38 2256.99,-1023.78 2253.62,-1023.15 2250.32,-1022.49 2247.1,-1021.79 2243.97,-1021.05 2240.94,-1020.29 2238.01,-1019.5 2235.21,-1018.68 2232.53,-1017.84 2230,-1016.98 2227.62,-1016.1 2225.42,-1015.21 2223.39,-1014.29 2221.55,-1013.37 2219.92,-1012.44 2218.51,-1011.5 2217.32,-1010.56 2216.37,-1009.62 2215.68,-1008.68 2215.24,-1007.74 2215.06,-1006.81 2215.17,-1005.89 2215.55,-1004.98 2216.23,-1004.08 2217.2,-1003.2 2218.46,-1002.34 2220.02,-1001.5 2221.88,-1000.68 2224.03,-999.89 2226.48,-999.13 2229.22,-998.4 2232.24,-997.7 2235.54,-997.03 2239.1,-996.4 2242.93,-995.81 2246.99,-995.25 2251.29,-994.74 2255.8,-994.27 2260.52,-993.84 2265.41,-993.46 2270.47,-993.12 2275.67,-992.83 2281,-992.58 2286.43,-992.39 2291.93,-992.24 2297.5,-992.14 2303.1,-992.09 2308.71,-992.09 2314.31,-992.14"/>
<text text-anchor="middle" x="2305.91" y="-1006.39" font-family="Times,serif" font-size="14.00">Minerai Soduim</text>
</g>
<!-- GisementSoduim&#45;&gt;MineraiSoduim -->
<g id="edge10" class="edge">
<title>GisementSoduim&#45;&gt;MineraiSoduim</title>
<path fill="none" stroke="black" d="M2305.91,-1063.79C2305.91,-1056.07 2305.91,-1046.8 2305.91,-1038.2"/>
<polygon fill="black" stroke="black" points="2309.41,-1038.2 2305.91,-1028.2 2302.41,-1038.2 2309.41,-1038.2"/>
</g>
<!-- Montage -->
<g id="node11" class="node">
<title>Montage</title>
<polygon fill="lightgrey" stroke="transparent" points="2475.91,-1100.09 2395.91,-1100.09 2395.91,-1064.09 2475.91,-1064.09 2475.91,-1100.09"/>
<text text-anchor="middle" x="2435.91" y="-1078.39" font-family="Times,serif" font-size="14.00">Montage</text>
</g>
<!-- Trou -->
<g id="node12" class="node">
<title>Trou</title>
<polygon fill="lightgrey" stroke="transparent" points="2547.91,-1100.09 2493.91,-1100.09 2493.91,-1064.09 2547.91,-1064.09 2547.91,-1100.09"/>
<text text-anchor="middle" x="2520.91" y="-1078.39" font-family="Times,serif" font-size="14.00">Trou</text>
</g>
<!-- LingotRegolite -->
<g id="node23" class="node">
<title>LingotRegolite</title>
<polygon fill="lightgrey" stroke="black" points="486.91,-924.05 360.91,-924.05 360.91,-888.05 486.91,-888.05 486.91,-924.05"/>
<text text-anchor="middle" x="423.91" y="-902.35" font-family="Times,serif" font-size="14.00">Lingot Regolite</text>
</g>
<!-- PoussiereRegolite&#45;&gt;LingotRegolite -->
<g id="edge11" class="edge">
<title>PoussiereRegolite&#45;&gt;LingotRegolite</title>
<path fill="none" stroke="black" d="M492,-991.78C478.84,-975.41 458.95,-950.66 444.06,-932.12"/>
<polygon fill="black" stroke="black" points="446.6,-929.7 437.61,-924.1 441.15,-934.09 446.6,-929.7"/>
</g>
<!-- Helium3 -->
<g id="node33" class="node">
<title>Helium3</title>
<ellipse fill="lightgrey" stroke="black" cx="554.91" cy="-906.05" rx="50.09" ry="50.09"/>
<polyline fill="none" stroke="black" points="588.01,-943.58 521.81,-943.58 "/>
<polyline fill="none" stroke="black" points="588.01,-868.51 521.81,-868.51 "/>
<text text-anchor="middle" x="554.91" y="-902.35" font-family="Times,serif" font-size="14.00">Helium3</text>
</g>
<!-- PoussiereRegolite&#45;&gt;Helium3 -->
<g id="edge12" class="edge">
<title>PoussiereRegolite&#45;&gt;Helium3</title>
<path fill="none" stroke="black" d="M514.22,-991.78C518.4,-983.08 523.72,-972 529.12,-960.75"/>
<polygon fill="black" stroke="black" points="532.27,-962.27 533.45,-951.74 525.96,-959.24 532.27,-962.27"/>
</g>
<!-- LingotGlace -->
<g id="node24" class="node">
<title>LingotGlace</title>
<polygon fill="lightgrey" stroke="black" points="1728.41,-924.05 1621.41,-924.05 1621.41,-888.05 1728.41,-888.05 1728.41,-924.05"/>
<text text-anchor="middle" x="1674.91" y="-902.35" font-family="Times,serif" font-size="14.00">Lingot Glace</text>
</g>
<!-- MineraiGlace&#45;&gt;LingotGlace -->
<g id="edge13" class="edge">
<title>MineraiGlace&#45;&gt;LingotGlace</title>
<path fill="none" stroke="black" d="M1674.91,-991.78C1674.91,-976 1674.91,-952.43 1674.91,-934.15"/>
<polygon fill="black" stroke="black" points="1678.41,-934.1 1674.91,-924.1 1671.41,-934.1 1678.41,-934.1"/>
</g>
<!-- LingotTitane -->
<g id="node25" class="node">
<title>LingotTitane</title>
<polygon fill="lightgrey" stroke="black" points="1224.91,-924.05 1112.91,-924.05 1112.91,-888.05 1224.91,-888.05 1224.91,-924.05"/>
<text text-anchor="middle" x="1168.91" y="-902.35" font-family="Times,serif" font-size="14.00">Lingot Titane</text>
</g>
<!-- MineraiTitane&#45;&gt;LingotTitane -->
<g id="edge14" class="edge">
<title>MineraiTitane&#45;&gt;LingotTitane</title>
<path fill="none" stroke="black" d="M1192.99,-991.78C1188.48,-975.93 1181.74,-952.21 1176.54,-933.9"/>
<polygon fill="black" stroke="black" points="1179.85,-932.76 1173.75,-924.1 1173.12,-934.68 1179.85,-932.76"/>
</g>
<!-- LingotSilicium -->
<g id="node26" class="node">
<title>LingotSilicium</title>
<polygon fill="lightgrey" stroke="black" points="1079.41,-924.05 954.41,-924.05 954.41,-888.05 1079.41,-888.05 1079.41,-924.05"/>
<text text-anchor="middle" x="1016.91" y="-902.35" font-family="Times,serif" font-size="14.00">Lingot Silicium</text>
</g>
<!-- MineraiSilicium&#45;&gt;LingotSilicium -->
<g id="edge15" class="edge">
<title>MineraiSilicium&#45;&gt;LingotSilicium</title>
<path fill="none" stroke="black" d="M1005.28,-991.78C1007.45,-976 1010.68,-952.43 1013.19,-934.15"/>
<polygon fill="black" stroke="black" points="1016.68,-934.48 1014.57,-924.1 1009.74,-933.53 1016.68,-934.48"/>
</g>
<!-- LingotFer -->
<g id="node27" class="node">
<title>LingotFer</title>
<polygon fill="lightgrey" stroke="black" points="169.41,-924.05 78.41,-924.05 78.41,-888.05 169.41,-888.05 169.41,-924.05"/>
<text text-anchor="middle" x="123.91" y="-902.35" font-family="Times,serif" font-size="14.00">Lingot Fer</text>
</g>
<!-- MineraiFer&#45;&gt;LingotFer -->
<g id="edge16" class="edge">
<title>MineraiFer&#45;&gt;LingotFer</title>
<path fill="none" stroke="black" d="M79.07,-991.78C87.57,-975.7 100.36,-951.55 110.1,-933.13"/>
<polygon fill="black" stroke="black" points="113.3,-934.58 114.88,-924.1 107.11,-931.3 113.3,-934.58"/>
</g>
<!-- LingotOr -->
<g id="node28" class="node">
<title>LingotOr</title>
<polygon fill="lightgrey" stroke="black" points="742.41,-924.05 657.41,-924.05 657.41,-888.05 742.41,-888.05 742.41,-924.05"/>
<text text-anchor="middle" x="699.91" y="-902.35" font-family="Times,serif" font-size="14.00">Lingot Or</text>
</g>
<!-- MineraiOr&#45;&gt;LingotOr -->
<g id="edge17" class="edge">
<title>MineraiOr&#45;&gt;LingotOr</title>
<path fill="none" stroke="black" d="M699.91,-991.78C699.91,-976 699.91,-952.43 699.91,-934.15"/>
<polygon fill="black" stroke="black" points="703.41,-934.1 699.91,-924.1 696.41,-934.1 703.41,-934.1"/>
</g>
<!-- LingotAluminium -->
<g id="node29" class="node">
<title>LingotAluminium</title>
<polygon fill="lightgrey" stroke="black" points="331.91,-924.05 187.91,-924.05 187.91,-888.05 331.91,-888.05 331.91,-924.05"/>
<text text-anchor="middle" x="259.91" y="-902.35" font-family="Times,serif" font-size="14.00">Lingot Aluminium</text>
</g>
<!-- MineraiAluminium&#45;&gt;LingotAluminium -->
<g id="edge18" class="edge">
<title>MineraiAluminium&#45;&gt;LingotAluminium</title>
<path fill="none" stroke="black" d="M263.23,-991.78C262.61,-976 261.69,-952.43 260.97,-934.15"/>
<polygon fill="black" stroke="black" points="264.46,-933.96 260.58,-924.1 257.47,-934.23 264.46,-933.96"/>
</g>
<!-- LingotMagnesium -->
<g id="node30" class="node">
<title>LingotMagnesium</title>
<polygon fill="lightgrey" stroke="black" points="1958.91,-924.05 1808.91,-924.05 1808.91,-888.05 1958.91,-888.05 1958.91,-924.05"/>
<text text-anchor="middle" x="1883.91" y="-902.35" font-family="Times,serif" font-size="14.00">Lingot Magnesium</text>
</g>
<!-- MineraiMagnesium&#45;&gt;LingotMagnesium -->
<g id="edge19" class="edge">
<title>MineraiMagnesium&#45;&gt;LingotMagnesium</title>
<path fill="none" stroke="black" d="M1883.91,-991.78C1883.91,-976 1883.91,-952.43 1883.91,-934.15"/>
<polygon fill="black" stroke="black" points="1887.41,-934.1 1883.91,-924.1 1880.41,-934.1 1887.41,-934.1"/>
</g>
<!-- LingotCalcium -->
<g id="node31" class="node">
<title>LingotCalcium</title>
<polygon fill="lightgrey" stroke="black" points="2167.41,-924.05 2042.41,-924.05 2042.41,-888.05 2167.41,-888.05 2167.41,-924.05"/>
<text text-anchor="middle" x="2104.91" y="-902.35" font-family="Times,serif" font-size="14.00">Lingot Calcium</text>
</g>
<!-- MineraiCalcium&#45;&gt;LingotCalcium -->
<g id="edge20" class="edge">
<title>MineraiCalcium&#45;&gt;LingotCalcium</title>
<path fill="none" stroke="black" d="M2104.91,-991.78C2104.91,-976 2104.91,-952.43 2104.91,-934.15"/>
<polygon fill="black" stroke="black" points="2108.41,-934.1 2104.91,-924.1 2101.41,-934.1 2108.41,-934.1"/>
</g>
<!-- LingotSoduim -->
<g id="node32" class="node">
<title>LingotSoduim</title>
<polygon fill="lightgrey" stroke="black" points="2366.41,-924.05 2245.41,-924.05 2245.41,-888.05 2366.41,-888.05 2366.41,-924.05"/>
<text text-anchor="middle" x="2305.91" y="-902.35" font-family="Times,serif" font-size="14.00">Lingot Soduim</text>
</g>
<!-- MineraiSoduim&#45;&gt;LingotSoduim -->
<g id="edge21" class="edge">
<title>MineraiSoduim&#45;&gt;LingotSoduim</title>
<path fill="none" stroke="black" d="M2305.91,-991.78C2305.91,-976 2305.91,-952.43 2305.91,-934.15"/>
<polygon fill="black" stroke="black" points="2309.41,-934.1 2305.91,-924.1 2302.41,-934.1 2309.41,-934.1"/>
</g>
<!-- MateriauxConstruction -->
<g id="node34" class="node">
<title>MateriauxConstruction</title>
<polygon fill="lightgrey" stroke="black" points="517.41,-820 330.41,-820 330.41,-784 517.41,-784 517.41,-820"/>
<text text-anchor="middle" x="423.91" y="-798.3" font-family="Times,serif" font-size="14.00">Materiaux Construction</text>
</g>
<!-- LingotRegolite&#45;&gt;MateriauxConstruction -->
<g id="edge43" class="edge">
<title>LingotRegolite&#45;&gt;MateriauxConstruction</title>
<path fill="none" stroke="black" d="M423.91,-887.73C423.91,-871.95 423.91,-848.38 423.91,-830.11"/>
<polygon fill="black" stroke="black" points="427.41,-830.05 423.91,-820.05 420.41,-830.06 427.41,-830.05"/>
</g>
<!-- Eau -->
<g id="node37" class="node">
<title>Eau</title>
<polygon fill="lightgrey" stroke="black" points="1677.72,-784.05 1679.58,-784.15 1681.43,-784.3 1683.24,-784.49 1685.03,-784.74 1686.77,-785.03 1688.46,-785.36 1690.1,-785.75 1691.68,-786.18 1693.19,-786.65 1694.63,-787.16 1695.99,-787.71 1697.27,-788.31 1698.46,-788.94 1699.57,-789.61 1700.58,-790.31 1701.49,-791.04 1702.31,-791.8 1703.04,-792.59 1703.66,-793.41 1704.18,-794.25 1704.6,-795.11 1704.93,-795.99 1705.15,-796.89 1705.28,-797.8 1705.32,-798.72 1705.26,-799.65 1705.11,-800.59 1704.88,-801.53 1704.56,-802.47 1704.16,-803.41 1703.69,-804.35 1703.14,-805.28 1702.53,-806.2 1701.85,-807.11 1701.11,-808.01 1700.32,-808.89 1699.47,-809.75 1698.57,-810.59 1697.63,-811.41 1696.65,-812.2 1695.64,-812.96 1694.59,-813.69 1693.51,-814.39 1692.41,-815.06 1691.28,-815.69 1690.13,-816.29 1688.97,-816.84 1687.79,-817.35 1686.6,-817.82 1685.39,-818.25 1684.18,-818.64 1682.95,-818.97 1681.73,-819.26 1680.49,-819.51 1679.26,-819.7 1678.02,-819.85 1676.77,-819.95 1675.53,-820 1674.28,-820 1673.04,-819.95 1671.8,-819.85 1670.56,-819.7 1669.32,-819.51 1668.09,-819.26 1666.86,-818.97 1665.64,-818.64 1664.42,-818.25 1663.22,-817.82 1662.03,-817.35 1660.84,-816.84 1659.68,-816.29 1658.53,-815.69 1657.41,-815.06 1656.3,-814.39 1655.22,-813.69 1654.17,-812.96 1653.16,-812.2 1652.18,-811.41 1651.24,-810.59 1650.35,-809.75 1649.5,-808.89 1648.7,-808.01 1647.96,-807.11 1647.28,-806.2 1646.67,-805.28 1646.12,-804.35 1645.65,-803.41 1645.25,-802.47 1644.94,-801.53 1644.7,-800.59 1644.56,-799.65 1644.5,-798.72 1644.53,-797.8 1644.66,-796.89 1644.89,-795.99 1645.21,-795.11 1645.63,-794.25 1646.16,-793.41 1646.78,-792.59 1647.5,-791.8 1648.32,-791.04 1649.24,-790.31 1650.25,-789.61 1651.35,-788.94 1652.55,-788.31 1653.82,-787.71 1655.19,-787.16 1656.62,-786.65 1658.14,-786.18 1659.71,-785.75 1661.35,-785.36 1663.04,-785.03 1664.79,-784.74 1666.57,-784.49 1668.39,-784.3 1670.23,-784.15 1672.09,-784.05 1673.97,-784 1675.85,-784 1677.72,-784.05"/>
<text text-anchor="middle" x="1674.91" y="-798.3" font-family="Times,serif" font-size="14.00">Eau</text>
</g>
<!-- LingotGlace&#45;&gt;Eau -->
<g id="edge22" class="edge">
<title>LingotGlace&#45;&gt;Eau</title>
<path fill="none" stroke="black" d="M1674.91,-887.73C1674.91,-871.95 1674.91,-848.38 1674.91,-830.11"/>
<polygon fill="black" stroke="black" points="1678.41,-830.05 1674.91,-820.05 1671.41,-830.06 1678.41,-830.05"/>
</g>
<!-- SatelliteRobuste1 -->
<g id="node46" class="node">
<title>SatelliteRobuste1</title>
<polygon fill="lightgrey" stroke="black" points="937.55,-695.54 937.55,-710.46 876.25,-721 789.56,-721 728.27,-710.46 728.27,-695.54 789.56,-685 876.25,-685 937.55,-695.54"/>
<text text-anchor="middle" x="832.91" y="-699.3" font-family="Times,serif" font-size="14.00">Satellite Robuste1</text>
</g>
<!-- LingotTitane&#45;&gt;SatelliteRobuste1 -->
<g id="edge56" class="edge">
<title>LingotTitane&#45;&gt;SatelliteRobuste1</title>
<path fill="none" stroke="black" d="M1143.29,-887.95C1127.67,-877.93 1107.09,-865.43 1087.91,-856 1048.13,-836.45 1033.9,-841.07 994.91,-820 944.9,-792.98 892.35,-752.86 861.12,-727.58"/>
<polygon fill="black" stroke="black" points="863.23,-724.79 853.27,-721.18 858.81,-730.22 863.23,-724.79"/>
</g>
<!-- VaisseauRobuste1 -->
<g id="node48" class="node">
<title>VaisseauRobuste1</title>
<polygon fill="lightgrey" stroke="black" points="1282.36,-348.54 1282.36,-363.46 1220,-374 1131.81,-374 1069.45,-363.46 1069.45,-348.54 1131.81,-338 1220,-338 1282.36,-348.54"/>
<text text-anchor="middle" x="1175.91" y="-352.3" font-family="Times,serif" font-size="14.00">Vaisseau Robuste1</text>
</g>
<!-- LingotTitane&#45;&gt;VaisseauRobuste1 -->
<g id="edge72" class="edge">
<title>LingotTitane&#45;&gt;VaisseauRobuste1</title>
<path fill="none" stroke="black" d="M1169.12,-888.04C1170.13,-809.5 1174.32,-481.46 1175.56,-384.26"/>
<polygon fill="black" stroke="black" points="1179.06,-384.12 1175.69,-374.08 1172.06,-384.03 1179.06,-384.12"/>
</g>
<!-- PuceLuxe -->
<g id="node57" class="node">
<title>PuceLuxe</title>
<polygon fill="lightgrey" stroke="black" points="1159.91,-748 1069.91,-748 1069.91,-658 1159.91,-658 1159.91,-748"/>
<polyline fill="none" stroke="black" points="1081.91,-748 1069.91,-736 "/>
<polyline fill="none" stroke="black" points="1069.91,-670 1081.91,-658 "/>
<polyline fill="none" stroke="black" points="1147.91,-658 1159.91,-670 "/>
<polyline fill="none" stroke="black" points="1159.91,-736 1147.91,-748 "/>
<text text-anchor="middle" x="1114.91" y="-699.3" font-family="Times,serif" font-size="14.00">Puce Luxe</text>
</g>
<!-- LingotTitane&#45;&gt;PuceLuxe -->
<g id="edge46" class="edge">
<title>LingotTitane&#45;&gt;PuceLuxe</title>
<path fill="none" stroke="black" d="M1164.3,-887.9C1156.66,-859.45 1141.04,-801.31 1129.4,-757.98"/>
<polygon fill="black" stroke="black" points="1132.74,-756.89 1126.76,-748.14 1125.98,-758.71 1132.74,-756.89"/>
</g>
<!-- Puce -->
<g id="node44" class="node">
<title>Puce</title>
<polygon fill="lightgrey" stroke="black" points="1079.96,-802 1060.93,-820 1022.88,-820 1003.86,-802 1022.88,-784 1060.93,-784 1079.96,-802"/>
<text text-anchor="middle" x="1041.91" y="-798.3" font-family="Times,serif" font-size="14.00">Puce</text>
</g>
<!-- LingotSilicium&#45;&gt;Puce -->
<g id="edge44" class="edge">
<title>LingotSilicium&#45;&gt;Puce</title>
<path fill="none" stroke="black" d="M1021.15,-887.73C1025.03,-871.88 1030.84,-848.16 1035.33,-829.85"/>
<polygon fill="black" stroke="black" points="1038.75,-830.6 1037.73,-820.05 1031.95,-828.93 1038.75,-830.6"/>
</g>
<!-- SatelliteFragile1 -->
<g id="node45" class="node">
<title>SatelliteFragile1</title>
<polygon fill="lightgrey" stroke="black" points="520.29,-695.54 520.29,-710.46 462.07,-721 379.74,-721 321.52,-710.46 321.52,-695.54 379.74,-685 462.07,-685 520.29,-695.54"/>
<text text-anchor="middle" x="420.91" y="-699.3" font-family="Times,serif" font-size="14.00">Satellite Fragile1</text>
</g>
<!-- LingotFer&#45;&gt;SatelliteFragile1 -->
<g id="edge49" class="edge">
<title>LingotFer&#45;&gt;SatelliteFragile1</title>
<path fill="none" stroke="black" d="M141.59,-887.9C152.07,-878.1 165.82,-865.84 178.91,-856 246.86,-804.93 332.25,-754.13 381.31,-726.12"/>
<polygon fill="black" stroke="black" points="383.07,-729.15 390.03,-721.16 379.61,-723.06 383.07,-729.15"/>
</g>
<!-- VaisseauFragile1 -->
<g id="node47" class="node">
<title>VaisseauFragile1</title>
<polygon fill="lightgrey" stroke="black" points="463.6,-348.54 463.6,-363.46 404.61,-374 321.2,-374 262.22,-363.46 262.22,-348.54 321.2,-338 404.61,-338 463.6,-348.54"/>
<polygon fill="none" stroke="black" points="467.6,-345.2 467.6,-366.8 404.97,-378 320.84,-378 258.21,-366.8 258.21,-345.2 320.84,-334 404.97,-334 467.6,-345.2"/>
<polygon fill="none" stroke="black" points="471.61,-341.85 471.61,-370.15 405.33,-382 320.49,-382 254.21,-370.15 254.21,-341.85 320.49,-330 405.33,-330 471.61,-341.85"/>
<text text-anchor="middle" x="362.91" y="-352.3" font-family="Times,serif" font-size="14.00">Vaisseau Fragile1</text>
</g>
<!-- LingotFer&#45;&gt;VaisseauFragile1 -->
<g id="edge64" class="edge">
<title>LingotFer&#45;&gt;VaisseauFragile1</title>
<path fill="none" stroke="black" d="M132.05,-888.01C147.58,-853.91 179.91,-774.47 179.91,-704 179.91,-704 179.91,-704 179.91,-515 179.91,-470.59 174.51,-451.29 203.91,-418 220.25,-399.5 242.85,-386.58 265.88,-377.56"/>
<polygon fill="black" stroke="black" points="267.23,-380.79 275.41,-374.05 264.81,-374.22 267.23,-380.79"/>
</g>
<!-- SatelliteFragile3 -->
<g id="node53" class="node">
<title>SatelliteFragile3</title>
<polygon fill="lightgrey" stroke="black" points="524.28,-508.54 524.28,-523.46 466.07,-534 383.75,-534 325.54,-523.46 325.54,-508.54 383.75,-498 466.07,-498 524.28,-508.54"/>
<polygon fill="none" stroke="black" points="528.28,-505.2 528.28,-526.8 466.43,-538 383.39,-538 321.53,-526.8 321.53,-505.2 383.39,-494 466.43,-494 528.28,-505.2"/>
<polygon fill="none" stroke="black" points="532.29,-501.87 532.29,-530.13 466.79,-542 383.02,-542 317.52,-530.13 317.52,-501.87 383.02,-490 466.79,-490 532.29,-501.87"/>
<text text-anchor="middle" x="424.91" y="-512.3" font-family="Times,serif" font-size="14.00">Satellite Fragile3</text>
</g>
<!-- LingotOr&#45;&gt;SatelliteFragile3 -->
<g id="edge54" class="edge">
<title>LingotOr&#45;&gt;SatelliteFragile3</title>
<path fill="none" stroke="black" d="M688.6,-887.77C677.68,-870.81 660.92,-844.05 647.91,-820 591.21,-715.28 614.09,-665.12 532.91,-578 520.63,-564.83 504.86,-553.76 489.18,-544.82"/>
<polygon fill="black" stroke="black" points="490.44,-541.52 479.99,-539.8 487.09,-547.66 490.44,-541.52"/>
</g>
<!-- SatelliteRobuste3 -->
<g id="node54" class="node">
<title>SatelliteRobuste3</title>
<polygon fill="lightgrey" stroke="black" points="929.56,-508.54 929.56,-523.46 868.26,-534 781.56,-534 720.25,-523.46 720.25,-508.54 781.56,-498 868.26,-498 929.56,-508.54"/>
<polygon fill="none" stroke="black" points="933.55,-505.17 933.55,-526.83 868.6,-538 781.22,-538 716.26,-526.83 716.26,-505.17 781.22,-494 868.6,-494 933.55,-505.17"/>
<polygon fill="none" stroke="black" points="937.55,-501.8 937.55,-530.2 868.94,-542 780.88,-542 712.27,-530.2 712.27,-501.8 780.88,-490 868.94,-490 937.55,-501.8"/>
<text text-anchor="middle" x="824.91" y="-512.3" font-family="Times,serif" font-size="14.00">Satellite Robuste3</text>
</g>
<!-- LingotOr&#45;&gt;SatelliteRobuste3 -->
<g id="edge61" class="edge">
<title>LingotOr&#45;&gt;SatelliteRobuste3</title>
<path fill="none" stroke="black" d="M698.29,-887.82C693.01,-828.02 678.42,-630.22 710.91,-578 720.08,-563.26 734.11,-551.86 749.23,-543.13"/>
<polygon fill="black" stroke="black" points="751.07,-546.11 758.22,-538.29 747.76,-539.94 751.07,-546.11"/>
</g>
<!-- VaisseauFragile3 -->
<g id="node55" class="node">
<title>VaisseauFragile3</title>
<polygon fill="lightgrey" stroke="black" points="444.6,-172.54 444.6,-187.46 385.61,-198 302.2,-198 243.22,-187.46 243.22,-172.54 302.2,-162 385.61,-162 444.6,-172.54"/>
<polygon fill="none" stroke="black" points="448.6,-169.2 448.6,-190.8 385.97,-202 301.84,-202 239.21,-190.8 239.21,-169.2 301.84,-158 385.97,-158 448.6,-169.2"/>
<polygon fill="none" stroke="black" points="452.61,-165.85 452.61,-194.15 386.33,-206 301.49,-206 235.21,-194.15 235.21,-165.85 301.49,-154 386.33,-154 452.61,-165.85"/>
<text text-anchor="middle" x="343.91" y="-176.3" font-family="Times,serif" font-size="14.00">Vaisseau Fragile3</text>
</g>
<!-- LingotOr&#45;&gt;VaisseauFragile3 -->
<g id="edge69" class="edge">
<title>LingotOr&#45;&gt;VaisseauFragile3</title>
<path fill="none" stroke="black" d="M695.34,-887.73C676.36,-816.87 601.82,-549.94 540.91,-490 441.1,-391.77 336.91,-487.58 244.91,-382 203.65,-334.66 193.26,-295.64 225.91,-242 235.32,-226.54 250.04,-214.83 265.95,-206.02"/>
<polygon fill="black" stroke="black" points="267.59,-209.11 274.87,-201.42 264.38,-202.89 267.59,-209.11"/>
</g>
<!-- VaisseauRobuste3 -->
<g id="node56" class="node">
<title>VaisseauRobuste3</title>
<polygon fill="lightgrey" stroke="black" points="1265.35,-172.54 1265.35,-187.46 1203,-198 1114.82,-198 1052.47,-187.46 1052.47,-172.54 1114.82,-162 1203,-162 1265.35,-172.54"/>
<polygon fill="none" stroke="black" points="1269.35,-169.16 1269.35,-190.84 1203.33,-202 1114.48,-202 1048.46,-190.84 1048.46,-169.16 1114.48,-158 1203.33,-158 1269.35,-169.16"/>
<polygon fill="none" stroke="black" points="1273.36,-165.79 1273.36,-194.21 1203.67,-206 1114.14,-206 1044.45,-194.21 1044.45,-165.79 1114.14,-154 1203.67,-154 1273.36,-165.79"/>
<text text-anchor="middle" x="1158.91" y="-176.3" font-family="Times,serif" font-size="14.00">Vaisseau Robuste3</text>
</g>
<!-- LingotOr&#45;&gt;VaisseauRobuste3 -->
<g id="edge77" class="edge">
<title>LingotOr&#45;&gt;VaisseauRobuste3</title>
<path fill="none" stroke="black" d="M742.43,-888.07C796.87,-864.34 890.82,-816.35 946.91,-748 991.36,-693.83 1003.91,-671.07 1003.91,-601 1003.91,-601 1003.91,-601 1003.91,-355 1003.91,-302.29 1005.84,-282.22 1039.91,-242 1052.06,-227.65 1068.44,-216.28 1085.15,-207.43"/>
<polygon fill="black" stroke="black" points="1087.07,-210.38 1094.44,-202.77 1083.93,-204.12 1087.07,-210.38"/>
</g>
<!-- LingotOr&#45;&gt;PuceLuxe -->
<g id="edge47" class="edge">
<title>LingotOr&#45;&gt;PuceLuxe</title>
<path fill="none" stroke="black" d="M742.59,-896.34C842.32,-875.92 1082.7,-826.18 1088.91,-820 1105.08,-803.92 1112.13,-780.11 1114.93,-758.23"/>
<polygon fill="black" stroke="black" points="1118.43,-758.33 1115.95,-748.03 1111.47,-757.63 1118.43,-758.33"/>
</g>
<!-- SatelliteFragile2 -->
<g id="node49" class="node">
<title>SatelliteFragile2</title>
<polygon fill="lightgrey" stroke="black" points="520.28,-592.54 520.28,-607.46 462.07,-618 379.74,-618 321.53,-607.46 321.53,-592.54 379.74,-582 462.07,-582 520.28,-592.54"/>
<polygon fill="none" stroke="black" points="524.29,-589.2 524.29,-610.8 462.43,-622 379.38,-622 317.52,-610.8 317.52,-589.2 379.38,-578 462.43,-578 524.29,-589.2"/>
<text text-anchor="middle" x="420.91" y="-596.3" font-family="Times,serif" font-size="14.00">Satellite Fragile2</text>
</g>
<!-- LingotAluminium&#45;&gt;SatelliteFragile2 -->
<g id="edge52" class="edge">
<title>LingotAluminium&#45;&gt;SatelliteFragile2</title>
<path fill="none" stroke="black" d="M258.9,-887.76C257.29,-844.42 258.74,-729.51 312.91,-658 323.77,-643.66 339.29,-632.56 355.2,-624.14"/>
<polygon fill="black" stroke="black" points="357.18,-627.06 364.57,-619.48 354.06,-620.79 357.18,-627.06"/>
</g>
<!-- SatelliteRobuste2 -->
<g id="node50" class="node">
<title>SatelliteRobuste2</title>
<polygon fill="lightgrey" stroke="black" points="933.55,-592.54 933.55,-607.46 872.25,-618 785.56,-618 724.26,-607.46 724.26,-592.54 785.56,-582 872.25,-582 933.55,-592.54"/>
<polygon fill="none" stroke="black" points="937.55,-589.17 937.55,-610.83 872.59,-622 785.22,-622 720.27,-610.83 720.27,-589.17 785.22,-578 872.59,-578 937.55,-589.17"/>
<text text-anchor="middle" x="828.91" y="-596.3" font-family="Times,serif" font-size="14.00">Satellite Robuste2</text>
</g>
<!-- LingotAluminium&#45;&gt;SatelliteRobuste2 -->
<g id="edge59" class="edge">
<title>LingotAluminium&#45;&gt;SatelliteRobuste2</title>
<path fill="none" stroke="black" d="M287.13,-887.86C304.96,-877.3 329.1,-864.25 351.91,-856 426.17,-829.15 454.84,-854.43 525.91,-820 626.69,-771.17 625.74,-720.14 718.91,-658 736.2,-646.47 756.12,-635.52 774.21,-626.35"/>
<polygon fill="black" stroke="black" points="776.09,-629.32 783.48,-621.73 772.97,-623.06 776.09,-629.32"/>
</g>
<!-- VaisseauFragile2 -->
<g id="node51" class="node">
<title>VaisseauFragile2</title>
<polygon fill="lightgrey" stroke="black" points="444.6,-260.54 444.6,-275.46 385.61,-286 302.2,-286 243.22,-275.46 243.22,-260.54 302.2,-250 385.61,-250 444.6,-260.54"/>
<polygon fill="none" stroke="black" points="448.6,-257.2 448.6,-278.8 385.97,-290 301.84,-290 239.21,-278.8 239.21,-257.2 301.84,-246 385.97,-246 448.6,-257.2"/>
<polygon fill="none" stroke="black" points="452.61,-253.85 452.61,-282.15 386.33,-294 301.49,-294 235.21,-282.15 235.21,-253.85 301.49,-242 386.33,-242 452.61,-253.85"/>
<text text-anchor="middle" x="343.91" y="-264.3" font-family="Times,serif" font-size="14.00">Vaisseau Fragile2</text>
</g>
<!-- LingotAluminium&#45;&gt;VaisseauFragile2 -->
<g id="edge67" class="edge">
<title>LingotAluminium&#45;&gt;VaisseauFragile2</title>
<path fill="none" stroke="black" d="M241.21,-887.95C207.94,-855.55 141.91,-781.5 141.91,-704 141.91,-704 141.91,-704 141.91,-515 141.91,-420.89 175.4,-393.44 244.91,-330 257.75,-318.28 273.15,-307.55 287.94,-298.46"/>
<polygon fill="black" stroke="black" points="289.77,-301.44 296.55,-293.3 286.17,-295.44 289.77,-301.44"/>
</g>
<!-- VaisseauRobuste2 -->
<g id="node52" class="node">
<title>VaisseauRobuste2</title>
<polygon fill="lightgrey" stroke="black" points="1265.35,-260.54 1265.35,-275.46 1203,-286 1114.82,-286 1052.46,-275.46 1052.46,-260.54 1114.82,-250 1203,-250 1265.35,-260.54"/>
<polygon fill="none" stroke="black" points="1269.36,-257.16 1269.36,-278.84 1203.34,-290 1114.48,-290 1048.45,-278.84 1048.45,-257.16 1114.48,-246 1203.34,-246 1269.36,-257.16"/>
<text text-anchor="middle" x="1158.91" y="-264.3" font-family="Times,serif" font-size="14.00">Vaisseau Robuste2</text>
</g>
<!-- LingotAluminium&#45;&gt;VaisseauRobuste2 -->
<g id="edge75" class="edge">
<title>LingotAluminium&#45;&gt;VaisseauRobuste2</title>
<path fill="none" stroke="black" d="M253.8,-887.82C242.15,-853.37 217.91,-773.35 217.91,-704 217.91,-704 217.91,-704 217.91,-515 217.91,-428.59 819.47,-323.1 1060.64,-284.27"/>
<polygon fill="black" stroke="black" points="1061.48,-287.68 1070.8,-282.64 1060.37,-280.77 1061.48,-287.68"/>
</g>
<!-- MateriauxConstruction&#45;&gt;SatelliteFragile1 -->
<g id="edge48" class="edge">
<title>MateriauxConstruction&#45;&gt;SatelliteFragile1</title>
<path fill="none" stroke="black" d="M423.37,-783.66C422.92,-769.18 422.28,-748.26 421.76,-731.5"/>
<polygon fill="black" stroke="black" points="425.25,-731.08 421.44,-721.19 418.25,-731.29 425.25,-731.08"/>
</g>
<!-- MateriauxConstruction&#45;&gt;SatelliteRobuste1 -->
<g id="edge55" class="edge">
<title>MateriauxConstruction&#45;&gt;SatelliteRobuste1</title>
<path fill="none" stroke="black" d="M495.62,-783.99C570.93,-766.13 688.58,-738.23 763.15,-720.54"/>
<polygon fill="black" stroke="black" points="764.01,-723.94 772.93,-718.22 762.39,-717.13 764.01,-723.94"/>
</g>
<!-- MateriauxConstruction&#45;&gt;VaisseauFragile1 -->
<g id="edge63" class="edge">
<title>MateriauxConstruction&#45;&gt;VaisseauFragile1</title>
<path fill="none" stroke="black" d="M359.13,-784C341.2,-776.05 323.71,-764.54 312.91,-748 239.13,-635.04 308.64,-464.17 344.5,-391.58"/>
<polygon fill="black" stroke="black" points="347.74,-392.92 349.11,-382.41 341.49,-389.77 347.74,-392.92"/>
</g>
<!-- MateriauxConstruction&#45;&gt;VaisseauRobuste1 -->
<g id="edge71" class="edge">
<title>MateriauxConstruction&#45;&gt;VaisseauRobuste1</title>
<path fill="none" stroke="black" d="M469.91,-783.91C489.51,-775.16 511.75,-763.12 528.91,-748 632.66,-656.55 590.81,-571.01 702.91,-490 735.89,-466.16 982.54,-403.96 1105.97,-373.83"/>
<polygon fill="black" stroke="black" points="1106.83,-377.23 1115.72,-371.46 1105.18,-370.43 1106.83,-377.23"/>
</g>
<!-- GazOxygene -->
<g id="node35" class="node">
<title>GazOxygene</title>
<polygon fill="lightgrey" stroke="black" points="1772.96,-685.05 1777.64,-685.15 1782.26,-685.3 1786.82,-685.49 1791.29,-685.74 1795.66,-686.03 1799.91,-686.36 1804.02,-686.75 1807.97,-687.18 1811.76,-687.65 1815.37,-688.16 1818.79,-688.71 1821.99,-689.31 1824.99,-689.94 1827.76,-690.61 1830.29,-691.31 1832.59,-692.04 1834.65,-692.8 1836.46,-693.59 1838.02,-694.41 1839.33,-695.25 1840.39,-696.11 1841.2,-696.99 1841.77,-697.89 1842.09,-698.8 1842.18,-699.72 1842.04,-700.65 1841.67,-701.59 1841.08,-702.53 1840.28,-703.47 1839.29,-704.41 1838.1,-705.35 1836.73,-706.28 1835.19,-707.2 1833.49,-708.11 1831.63,-709.01 1829.64,-709.89 1827.51,-710.75 1825.27,-711.59 1822.91,-712.41 1820.46,-713.2 1817.91,-713.96 1815.28,-714.69 1812.57,-715.39 1809.81,-716.06 1806.98,-716.69 1804.1,-717.29 1801.18,-717.84 1798.22,-718.35 1795.22,-718.82 1792.2,-719.25 1789.16,-719.64 1786.09,-719.97 1783.01,-720.26 1779.92,-720.51 1776.81,-720.7 1773.7,-720.85 1770.59,-720.95 1767.47,-721 1764.35,-721 1761.23,-720.95 1758.11,-720.85 1755,-720.7 1751.9,-720.51 1748.8,-720.26 1745.72,-719.97 1742.66,-719.64 1739.61,-719.25 1736.59,-718.82 1733.6,-718.35 1730.64,-717.84 1727.71,-717.29 1724.84,-716.69 1722.01,-716.06 1719.24,-715.39 1716.54,-714.69 1713.91,-713.96 1711.36,-713.2 1708.9,-712.41 1706.55,-711.59 1704.3,-710.75 1702.18,-709.89 1700.18,-709.01 1698.33,-708.11 1696.62,-707.2 1695.08,-706.28 1693.71,-705.35 1692.53,-704.41 1691.53,-703.47 1690.73,-702.53 1690.15,-701.59 1689.78,-700.65 1689.63,-699.72 1689.72,-698.8 1690.05,-697.89 1690.61,-696.99 1691.42,-696.11 1692.48,-695.25 1693.8,-694.41 1695.36,-693.59 1697.16,-692.8 1699.22,-692.04 1701.52,-691.31 1704.06,-690.61 1706.83,-689.94 1709.82,-689.31 1713.03,-688.71 1716.44,-688.16 1720.05,-687.65 1723.84,-687.18 1727.8,-686.75 1731.91,-686.36 1736.15,-686.03 1740.52,-685.74 1744.99,-685.49 1749.55,-685.3 1754.18,-685.15 1758.85,-685.05 1763.55,-685 1768.26,-685 1772.96,-685.05"/>
<text text-anchor="middle" x="1765.91" y="-699.3" font-family="Times,serif" font-size="14.00">Gaz Oxygene</text>
</g>
<!-- LiquideOxygene -->
<g id="node39" class="node">
<title>LiquideOxygene</title>
<polygon fill="lightgrey" stroke="black" points="1931.67,-582.05 1937.46,-582.15 1943.2,-582.3 1948.86,-582.49 1954.41,-582.74 1959.83,-583.03 1965.1,-583.36 1970.2,-583.75 1975.11,-584.18 1979.81,-584.65 1984.29,-585.16 1988.53,-585.71 1992.51,-586.31 1996.22,-586.94 1999.66,-587.61 2002.81,-588.31 2005.66,-589.04 2008.21,-589.8 2010.46,-590.59 2012.39,-591.41 2014.02,-592.25 2015.33,-593.11 2016.34,-593.99 2017.04,-594.89 2017.45,-595.8 2017.56,-596.72 2017.38,-597.65 2016.92,-598.59 2016.19,-599.53 2015.2,-600.47 2013.97,-601.41 2012.49,-602.35 2010.79,-603.28 2008.88,-604.2 2006.77,-605.11 2004.47,-606.01 2001.99,-606.89 1999.36,-607.75 1996.57,-608.59 1993.65,-609.41 1990.6,-610.2 1987.44,-610.96 1984.17,-611.69 1980.82,-612.39 1977.38,-613.06 1973.87,-613.69 1970.3,-614.29 1966.68,-614.84 1963,-615.35 1959.29,-615.82 1955.54,-616.25 1951.76,-616.64 1947.96,-616.97 1944.13,-617.26 1940.29,-617.51 1936.44,-617.7 1932.58,-617.85 1928.71,-617.95 1924.84,-618 1920.97,-618 1917.1,-617.95 1913.23,-617.85 1909.37,-617.7 1905.52,-617.51 1901.68,-617.26 1897.86,-616.97 1894.06,-616.64 1890.28,-616.25 1886.53,-615.82 1882.81,-615.35 1879.14,-614.84 1875.51,-614.29 1871.94,-613.69 1868.43,-613.06 1865,-612.39 1861.64,-611.69 1858.38,-610.96 1855.22,-610.2 1852.17,-609.41 1849.24,-608.59 1846.46,-607.75 1843.82,-606.89 1841.35,-606.01 1839.04,-605.11 1836.93,-604.2 1835.02,-603.28 1833.32,-602.35 1831.85,-601.41 1830.61,-600.47 1829.62,-599.53 1828.89,-598.59 1828.44,-597.65 1828.26,-596.72 1828.37,-595.8 1828.77,-594.89 1829.47,-593.99 1830.48,-593.11 1831.8,-592.25 1833.42,-591.41 1835.36,-590.59 1837.6,-589.8 1840.15,-589.04 1843.01,-588.31 1846.16,-587.61 1849.59,-586.94 1853.31,-586.31 1857.29,-585.71 1861.52,-585.16 1866,-584.65 1870.7,-584.18 1875.61,-583.75 1880.71,-583.36 1885.99,-583.03 1891.41,-582.74 1896.96,-582.49 1902.61,-582.3 1908.35,-582.15 1914.15,-582.05 1919.98,-582 1925.83,-582 1931.67,-582.05"/>
<text text-anchor="middle" x="1922.91" y="-596.3" font-family="Times,serif" font-size="14.00">Liquide Oxygene</text>
</g>
<!-- GazOxygene&#45;&gt;LiquideOxygene -->
<g id="edge26" class="edge">
<title>GazOxygene&#45;&gt;LiquideOxygene</title>
<path fill="none" stroke="black" d="M1791.48,-685.55C1818.1,-668.43 1859.91,-641.53 1889.2,-622.68"/>
<polygon fill="black" stroke="black" points="1891.35,-625.46 1897.86,-617.11 1887.56,-619.58 1891.35,-625.46"/>
</g>
<!-- PeroxydeHydrogene -->
<g id="node40" class="node">
<title>PeroxydeHydrogene</title>
<polygon fill="lightgrey" stroke="black" points="1475.53,-582.05 1482.56,-582.15 1489.52,-582.3 1496.38,-582.49 1503.11,-582.74 1509.69,-583.03 1516.08,-583.36 1522.26,-583.75 1528.22,-584.18 1533.92,-584.65 1539.35,-585.16 1544.49,-585.71 1549.32,-586.31 1553.83,-586.94 1557.99,-587.61 1561.81,-588.31 1565.27,-589.04 1568.37,-589.8 1571.09,-590.59 1573.44,-591.41 1575.41,-592.25 1577.01,-593.11 1578.23,-593.99 1579.08,-594.89 1579.57,-595.8 1579.7,-596.72 1579.48,-597.65 1578.93,-598.59 1578.05,-599.53 1576.85,-600.47 1575.35,-601.41 1573.56,-602.35 1571.5,-603.28 1569.18,-604.2 1566.62,-605.11 1563.83,-606.01 1560.83,-606.89 1557.63,-607.75 1554.25,-608.59 1550.7,-609.41 1547,-610.2 1543.17,-610.96 1539.21,-611.69 1535.14,-612.39 1530.98,-613.06 1526.72,-613.69 1522.39,-614.29 1517.99,-614.84 1513.53,-615.35 1509.03,-615.82 1504.48,-616.25 1499.9,-616.64 1495.29,-616.97 1490.65,-617.26 1485.99,-617.51 1481.32,-617.7 1476.64,-617.85 1471.95,-617.95 1467.26,-618 1462.56,-618 1457.86,-617.95 1453.17,-617.85 1448.49,-617.7 1443.82,-617.51 1439.16,-617.26 1434.53,-616.97 1429.92,-616.64 1425.33,-616.25 1420.78,-615.82 1416.28,-615.35 1411.82,-614.84 1407.42,-614.29 1403.09,-613.69 1398.84,-613.06 1394.67,-612.39 1390.6,-611.69 1386.64,-610.96 1382.81,-610.2 1379.11,-609.41 1375.57,-608.59 1372.19,-607.75 1368.99,-606.89 1365.99,-606.01 1363.2,-605.11 1360.63,-604.2 1358.31,-603.28 1356.25,-602.35 1354.47,-601.41 1352.97,-600.47 1351.77,-599.53 1350.89,-598.59 1350.33,-597.65 1350.11,-596.72 1350.25,-595.8 1350.73,-594.89 1351.59,-593.99 1352.81,-593.11 1354.4,-592.25 1356.38,-591.41 1358.72,-590.59 1361.45,-589.8 1364.54,-589.04 1368,-588.31 1371.82,-587.61 1375.99,-586.94 1380.49,-586.31 1385.32,-585.71 1390.46,-585.16 1395.89,-584.65 1401.59,-584.18 1407.55,-583.75 1413.74,-583.36 1420.13,-583.03 1426.7,-582.74 1433.43,-582.49 1440.29,-582.3 1447.25,-582.15 1454.28,-582.05 1461.36,-582 1468.45,-582 1475.53,-582.05"/>
<text text-anchor="middle" x="1464.91" y="-596.3" font-family="Times,serif" font-size="14.00">Peroxyde Hydrogene</text>
</g>
<!-- GazOxygene&#45;&gt;PeroxydeHydrogene -->
<g id="edge28" class="edge">
<title>GazOxygene&#45;&gt;PeroxydeHydrogene</title>
<path fill="none" stroke="black" d="M1738.29,-685.74C1722,-676.65 1700.75,-665.65 1680.91,-658 1634.34,-640.05 1580.01,-625.75 1537.49,-615.95"/>
<polygon fill="black" stroke="black" points="1538.02,-612.49 1527.5,-613.69 1536.47,-619.31 1538.02,-612.49"/>
</g>
<!-- GazHydrogene -->
<g id="node36" class="node">
<title>GazHydrogene</title>
<polygon fill="lightgrey" stroke="black" points="1592.03,-685.05 1597.41,-685.15 1602.74,-685.3 1607.98,-685.49 1613.13,-685.74 1618.16,-686.03 1623.05,-686.36 1627.78,-686.75 1632.34,-687.18 1636.7,-687.65 1640.85,-688.16 1644.78,-688.71 1648.48,-689.31 1651.92,-689.94 1655.11,-690.61 1658.03,-691.31 1660.68,-692.04 1663.04,-692.8 1665.13,-693.59 1666.92,-694.41 1668.43,-695.25 1669.65,-696.11 1670.59,-696.99 1671.24,-697.89 1671.61,-698.8 1671.71,-699.72 1671.55,-700.65 1671.12,-701.59 1670.45,-702.53 1669.53,-703.47 1668.38,-704.41 1667.02,-705.35 1665.44,-706.28 1663.67,-707.2 1661.71,-708.11 1659.57,-709.01 1657.28,-709.89 1654.83,-710.75 1652.24,-711.59 1649.53,-712.41 1646.7,-713.2 1643.77,-713.96 1640.74,-714.69 1637.63,-715.39 1634.44,-716.06 1631.19,-716.69 1627.88,-717.29 1624.51,-717.84 1621.1,-718.35 1617.66,-718.82 1614.18,-719.25 1610.67,-719.64 1607.14,-719.97 1603.6,-720.26 1600.04,-720.51 1596.46,-720.7 1592.88,-720.85 1589.29,-720.95 1585.7,-721 1582.11,-721 1578.52,-720.95 1574.93,-720.85 1571.35,-720.7 1567.78,-720.51 1564.22,-720.26 1560.67,-719.97 1557.14,-719.64 1553.64,-719.25 1550.16,-718.82 1546.71,-718.35 1543.3,-717.84 1539.94,-717.29 1536.63,-716.69 1533.37,-716.06 1530.18,-715.39 1527.07,-714.69 1524.04,-713.96 1521.11,-713.2 1518.28,-712.41 1515.57,-711.59 1512.99,-710.75 1510.54,-709.89 1508.24,-709.01 1506.11,-708.11 1504.15,-707.2 1502.37,-706.28 1500.8,-705.35 1499.43,-704.41 1498.28,-703.47 1497.37,-702.53 1496.69,-701.59 1496.27,-700.65 1496.1,-699.72 1496.2,-698.8 1496.58,-697.89 1497.23,-696.99 1498.16,-696.11 1499.38,-695.25 1500.89,-694.41 1502.69,-693.59 1504.77,-692.8 1507.14,-692.04 1509.78,-691.31 1512.7,-690.61 1515.89,-689.94 1519.34,-689.31 1523.03,-688.71 1526.96,-688.16 1531.12,-687.65 1535.48,-687.18 1540.03,-686.75 1544.77,-686.36 1549.65,-686.03 1554.68,-685.74 1559.83,-685.49 1565.08,-685.3 1570.4,-685.15 1575.78,-685.05 1581.19,-685 1586.62,-685 1592.03,-685.05"/>
<text text-anchor="middle" x="1583.91" y="-699.3" font-family="Times,serif" font-size="14.00">Gaz Hydrogene</text>
</g>
<!-- LiquideHydrogene -->
<g id="node38" class="node">
<title>LiquideHydrogene</title>
<polygon fill="lightgrey" stroke="black" points="1713.7,-582.05 1720.18,-582.15 1726.59,-582.3 1732.92,-582.49 1739.12,-582.74 1745.18,-583.03 1751.07,-583.36 1756.77,-583.75 1762.26,-584.18 1767.51,-584.65 1772.52,-585.16 1777.25,-585.71 1781.71,-586.31 1785.86,-586.94 1789.7,-587.61 1793.22,-588.31 1796.41,-589.04 1799.26,-589.8 1801.77,-590.59 1803.93,-591.41 1805.75,-592.25 1807.22,-593.11 1808.35,-593.99 1809.13,-594.89 1809.58,-595.8 1809.7,-596.72 1809.5,-597.65 1808.99,-598.59 1808.18,-599.53 1807.08,-600.47 1805.69,-601.41 1804.05,-602.35 1802.15,-603.28 1800.01,-604.2 1797.65,-605.11 1795.08,-606.01 1792.31,-606.89 1789.36,-607.75 1786.25,-608.59 1782.98,-609.41 1779.57,-610.2 1776.04,-610.96 1772.39,-611.69 1768.64,-612.39 1764.8,-613.06 1760.88,-613.69 1756.88,-614.29 1752.83,-614.84 1748.72,-615.35 1744.57,-615.82 1740.38,-616.25 1736.16,-616.64 1731.91,-616.97 1727.63,-617.26 1723.34,-617.51 1719.04,-617.7 1714.72,-617.85 1710.4,-617.95 1706.07,-618 1701.74,-618 1697.42,-617.95 1693.09,-617.85 1688.78,-617.7 1684.47,-617.51 1680.18,-617.26 1675.91,-616.97 1671.66,-616.64 1667.43,-616.25 1663.24,-615.82 1659.09,-615.35 1654.98,-614.84 1650.93,-614.29 1646.94,-613.69 1643.02,-613.06 1639.18,-612.39 1635.42,-611.69 1631.78,-610.96 1628.24,-610.2 1624.84,-609.41 1621.57,-608.59 1618.45,-607.75 1615.51,-606.89 1612.74,-606.01 1610.17,-605.11 1607.8,-604.2 1605.67,-603.28 1603.77,-602.35 1602.12,-601.41 1600.74,-600.47 1599.63,-599.53 1598.82,-598.59 1598.31,-597.65 1598.11,-596.72 1598.23,-595.8 1598.68,-594.89 1599.47,-593.99 1600.59,-593.11 1602.06,-592.25 1603.88,-591.41 1606.05,-590.59 1608.55,-589.8 1611.41,-589.04 1614.6,-588.31 1618.12,-587.61 1621.96,-586.94 1626.11,-586.31 1630.56,-585.71 1635.29,-585.16 1640.3,-584.65 1645.56,-584.18 1651.04,-583.75 1656.75,-583.36 1662.64,-583.03 1668.7,-582.74 1674.9,-582.49 1681.22,-582.3 1687.63,-582.15 1694.12,-582.05 1700.64,-582 1707.17,-582 1713.7,-582.05"/>
<text text-anchor="middle" x="1703.91" y="-596.3" font-family="Times,serif" font-size="14.00">Liquide Hydrogene</text>
</g>
<!-- GazHydrogene&#45;&gt;LiquideHydrogene -->
<g id="edge25" class="edge">
<title>GazHydrogene&#45;&gt;LiquideHydrogene</title>
<path fill="none" stroke="black" d="M1603.72,-685.32C1623.52,-668.66 1654.13,-642.89 1676.31,-624.23"/>
<polygon fill="black" stroke="black" points="1678.66,-626.82 1684.06,-617.7 1674.16,-621.46 1678.66,-626.82"/>
</g>
<!-- GazHydrogene&#45;&gt;PeroxydeHydrogene -->
<g id="edge27" class="edge">
<title>GazHydrogene&#45;&gt;PeroxydeHydrogene</title>
<path fill="none" stroke="black" d="M1564.26,-685.32C1544.62,-668.66 1514.26,-642.89 1492.27,-624.23"/>
<polygon fill="black" stroke="black" points="1494.48,-621.51 1484.59,-617.7 1489.95,-626.84 1494.48,-621.51"/>
</g>
<!-- Eau&#45;&gt;GazOxygene -->
<g id="edge24" class="edge">
<title>Eau&#45;&gt;GazOxygene</title>
<path fill="none" stroke="black" d="M1689.53,-785.42C1703.99,-770 1726.34,-746.17 1743.13,-728.28"/>
<polygon fill="black" stroke="black" points="1746.12,-730.21 1750.41,-720.52 1741.01,-725.42 1746.12,-730.21"/>
</g>
<!-- Eau&#45;&gt;GazHydrogene -->
<g id="edge23" class="edge">
<title>Eau&#45;&gt;GazHydrogene</title>
<path fill="none" stroke="black" d="M1660.29,-785.42C1645.91,-770.09 1623.74,-746.46 1606.99,-728.6"/>
<polygon fill="black" stroke="black" points="1609.11,-725.75 1599.71,-720.85 1604,-730.54 1609.11,-725.75"/>
</g>
<!-- Carburant1 -->
<g id="node42" class="node">
<title>Carburant1</title>
<path fill="lightgrey" stroke="black" d="M1753.41,-530.73C1753.41,-532.53 1731.22,-534 1703.91,-534 1676.59,-534 1654.41,-532.53 1654.41,-530.73 1654.41,-530.73 1654.41,-501.27 1654.41,-501.27 1654.41,-499.47 1676.59,-498 1703.91,-498 1731.22,-498 1753.41,-499.47 1753.41,-501.27 1753.41,-501.27 1753.41,-530.73 1753.41,-530.73"/>
<path fill="none" stroke="black" d="M1753.41,-530.73C1753.41,-528.92 1731.22,-527.45 1703.91,-527.45 1676.59,-527.45 1654.41,-528.92 1654.41,-530.73"/>
<text text-anchor="middle" x="1703.91" y="-512.3" font-family="Times,serif" font-size="14.00">Carburant1</text>
</g>
<!-- LiquideHydrogene&#45;&gt;Carburant1 -->
<g id="edge29" class="edge">
<title>LiquideHydrogene&#45;&gt;Carburant1</title>
<path fill="none" stroke="black" d="M1703.91,-581.61C1703.91,-570.77 1703.91,-556.6 1703.91,-544.29"/>
<polygon fill="black" stroke="black" points="1707.41,-544.08 1703.91,-534.08 1700.41,-544.08 1707.41,-544.08"/>
</g>
<!-- LiquideOxygene&#45;&gt;Carburant1 -->
<g id="edge30" class="edge">
<title>LiquideOxygene&#45;&gt;Carburant1</title>
<path fill="none" stroke="black" d="M1880.94,-583.29C1845.45,-570 1794.42,-550.89 1756.26,-536.6"/>
<polygon fill="black" stroke="black" points="1757.45,-533.31 1746.85,-533.08 1754.99,-539.86 1757.45,-533.31"/>
</g>
<!-- Carburant2 -->
<g id="node43" class="node">
<title>Carburant2</title>
<path fill="lightgrey" stroke="black" d="M1482.41,-530.73C1482.41,-532.53 1460.22,-534 1432.91,-534 1405.59,-534 1383.41,-532.53 1383.41,-530.73 1383.41,-530.73 1383.41,-501.27 1383.41,-501.27 1383.41,-499.47 1405.59,-498 1432.91,-498 1460.22,-498 1482.41,-499.47 1482.41,-501.27 1482.41,-501.27 1482.41,-530.73 1482.41,-530.73"/>
<path fill="none" stroke="black" d="M1482.41,-530.73C1482.41,-528.92 1460.22,-527.45 1432.91,-527.45 1405.59,-527.45 1383.41,-528.92 1383.41,-530.73"/>
<text text-anchor="middle" x="1432.91" y="-512.3" font-family="Times,serif" font-size="14.00">Carburant2</text>
</g>
<!-- PeroxydeHydrogene&#45;&gt;Carburant2 -->
<g id="edge31" class="edge">
<title>PeroxydeHydrogene&#45;&gt;Carburant2</title>
<path fill="none" stroke="black" d="M1458.28,-582.01C1453.97,-570.98 1448.27,-556.37 1443.36,-543.79"/>
<polygon fill="black" stroke="black" points="1446.53,-542.29 1439.64,-534.25 1440.01,-544.84 1446.53,-542.29"/>
</g>
<!-- Carburant -->
<g id="node41" class="node">
<title>Carburant</title>
<path fill="lightgrey" stroke="black" d="M1293.91,-450.73C1293.91,-452.53 1273.74,-454 1248.91,-454 1224.08,-454 1203.91,-452.53 1203.91,-450.73 1203.91,-450.73 1203.91,-421.27 1203.91,-421.27 1203.91,-419.47 1224.08,-418 1248.91,-418 1273.74,-418 1293.91,-419.47 1293.91,-421.27 1293.91,-421.27 1293.91,-450.73 1293.91,-450.73"/>
<path fill="none" stroke="black" d="M1293.91,-450.73C1293.91,-448.92 1273.74,-447.45 1248.91,-447.45 1224.08,-447.45 1203.91,-448.92 1203.91,-450.73"/>
<text text-anchor="middle" x="1248.91" y="-432.3" font-family="Times,serif" font-size="14.00">Carburant</text>
</g>
<!-- Carburant&#45;&gt;VaisseauFragile1 -->
<g id="edge62" class="edge">
<title>Carburant&#45;&gt;VaisseauFragile1</title>
<path fill="none" stroke="black" d="M1203.75,-431.02C1071.26,-419.36 680.43,-384.95 481.75,-367.46"/>
<polygon fill="black" stroke="black" points="481.84,-363.96 471.57,-366.57 481.22,-370.93 481.84,-363.96"/>
</g>
<!-- Carburant&#45;&gt;VaisseauRobuste1 -->
<g id="edge70" class="edge">
<title>Carburant&#45;&gt;VaisseauRobuste1</title>
<path fill="none" stroke="black" d="M1232.71,-417.69C1222.78,-407.09 1209.92,-393.35 1198.95,-381.62"/>
<polygon fill="black" stroke="black" points="1201.45,-379.17 1192.06,-374.26 1196.34,-383.96 1201.45,-379.17"/>
</g>
<!-- Carburant1&#45;&gt;Carburant -->
<g id="edge32" class="edge">
<title>Carburant1&#45;&gt;Carburant</title>
<path fill="none" stroke="black" d="M1654.35,-506.5C1568.63,-491.81 1393.31,-461.76 1303.94,-446.43"/>
<polygon fill="black" stroke="black" points="1304.45,-442.97 1294,-444.73 1303.26,-449.87 1304.45,-442.97"/>
</g>
<!-- Carburant2&#45;&gt;Carburant -->
<g id="edge33" class="edge">
<title>Carburant2&#45;&gt;Carburant</title>
<path fill="none" stroke="black" d="M1394.33,-498.65C1365.81,-486.56 1326.79,-470.02 1296.36,-457.11"/>
<polygon fill="black" stroke="black" points="1297.37,-453.74 1286.8,-453.06 1294.64,-460.19 1297.37,-453.74"/>
</g>
<!-- Puce&#45;&gt;SatelliteFragile1 -->
<g id="edge50" class="edge">
<title>Puce&#45;&gt;SatelliteFragile1</title>
<path fill="none" stroke="black" d="M1009.83,-795.99C916.42,-781.4 642.48,-738.61 503.62,-716.92"/>
<polygon fill="black" stroke="black" points="503.88,-713.42 493.46,-715.33 502.8,-720.33 503.88,-713.42"/>
</g>
<!-- Puce&#45;&gt;SatelliteRobuste1 -->
<g id="edge57" class="edge">
<title>Puce&#45;&gt;SatelliteRobuste1</title>
<path fill="none" stroke="black" d="M1016.7,-789.3C982.68,-773.51 921.48,-745.11 879.09,-725.44"/>
<polygon fill="black" stroke="black" points="880.36,-722.17 869.82,-721.13 877.42,-728.52 880.36,-722.17"/>
</g>
<!-- Puce&#45;&gt;VaisseauFragile1 -->
<g id="edge65" class="edge">
<title>Puce&#45;&gt;VaisseauFragile1</title>
<path fill="none" stroke="black" d="M1038.94,-783.64C1028.49,-724.38 991.56,-531.52 946.91,-490 880.38,-428.13 632.59,-388.76 481.98,-369.99"/>
<polygon fill="black" stroke="black" points="482.11,-366.48 471.76,-368.73 481.25,-373.43 482.11,-366.48"/>
</g>
<!-- Puce&#45;&gt;VaisseauRobuste1 -->
<g id="edge73" class="edge">
<title>Puce&#45;&gt;VaisseauRobuste1</title>
<path fill="none" stroke="black" d="M1041.91,-783.88C1041.91,-749.31 1041.91,-668.71 1041.91,-601 1041.91,-601 1041.91,-601 1041.91,-515 1041.91,-455.31 1098.22,-406.61 1137.83,-379.74"/>
<polygon fill="black" stroke="black" points="1140.08,-382.45 1146.5,-374.02 1136.23,-376.61 1140.08,-382.45"/>
</g>
<!-- Puce&#45;&gt;PuceLuxe -->
<!-- Puce&#45;&gt;PuceLuxe -->
<g id="edge45" class="edge">
<title>Puce&#45;&gt;PuceLuxe</title>
<path fill="none" stroke="black" d="M1060.27,-783.66C1066.95,-775.91 1074.63,-766.32 1082.12,-756.51"/>
<polygon fill="black" stroke="black" points="1085.11,-758.35 1088.33,-748.26 1079.52,-754.14 1085.11,-758.35"/>
</g>
<!-- SatelliteFragile1&#45;&gt;SatelliteFragile2 -->
<!-- SatelliteFragile1&#45;&gt;SatelliteFragile2 -->
<g id="edge51" class="edge">
<title>SatelliteFragile1&#45;&gt;SatelliteFragile2</title>
<path fill="none" stroke="black" d="M426.12,-684.87C427.7,-670.51 428.06,-649.65 427.2,-632.32"/>
<polygon fill="black" stroke="black" points="430.68,-631.82 426.51,-622.08 423.69,-632.29 430.68,-631.82"/>
</g>
<!-- SatelliteRobuste1&#45;&gt;SatelliteRobuste2 -->
<!-- SatelliteRobuste1&#45;&gt;SatelliteRobuste2 -->
<g id="edge58" class="edge">
<title>SatelliteRobuste1&#45;&gt;SatelliteRobuste2</title>
<path fill="none" stroke="black" d="M837.45,-684.87C838.45,-670.51 837.99,-649.65 836.44,-632.32"/>
<polygon fill="black" stroke="black" points="839.89,-631.65 835.35,-622.08 832.93,-632.39 839.89,-631.65"/>
</g>
<!-- VaisseauFragile1&#45;&gt;VaisseauFragile2 -->
<!-- VaisseauFragile1&#45;&gt;VaisseauFragile2 -->
<g id="edge66" class="edge">
<title>VaisseauFragile1&#45;&gt;VaisseauFragile2</title>
<path fill="none" stroke="black" d="M363.53,-329.66C362.26,-321.61 360.41,-312.57 358.28,-303.96"/>
<polygon fill="black" stroke="black" points="361.62,-302.92 355.67,-294.16 354.86,-304.72 361.62,-302.92"/>
</g>
<!-- VaisseauRobuste1&#45;&gt;VaisseauRobuste2 -->
<!-- VaisseauRobuste1&#45;&gt;VaisseauRobuste2 -->
<g id="edge74" class="edge">
<title>VaisseauRobuste1&#45;&gt;VaisseauRobuste2</title>
<path fill="none" stroke="black" d="M1178.02,-337.6C1177.04,-326.75 1174.54,-312.49 1171.49,-299.79"/>
<polygon fill="black" stroke="black" points="1174.86,-298.82 1168.96,-290.02 1168.09,-300.58 1174.86,-298.82"/>
</g>
<!-- SatelliteFragile2&#45;&gt;SatelliteFragile3 -->
<!-- SatelliteFragile2&#45;&gt;SatelliteFragile3 -->
<g id="edge53" class="edge">
<title>SatelliteFragile2&#45;&gt;SatelliteFragile3</title>
<path fill="none" stroke="black" d="M427.93,-577.88C428.96,-570.04 429.64,-560.91 429.88,-552.15"/>
<polygon fill="black" stroke="black" points="433.38,-552.16 429.96,-542.13 426.38,-552.1 433.38,-552.16"/>
</g>
<!-- SatelliteRobuste2&#45;&gt;SatelliteRobuste3 -->
<!-- SatelliteRobuste2&#45;&gt;SatelliteRobuste3 -->
<g id="edge60" class="edge">
<title>SatelliteRobuste2&#45;&gt;SatelliteRobuste3</title>
<path fill="none" stroke="black" d="M833.87,-577.88C834.13,-570.04 833.92,-560.91 833.31,-552.15"/>
<polygon fill="black" stroke="black" points="836.79,-551.78 832.41,-542.13 829.82,-552.4 836.79,-551.78"/>
</g>
<!-- VaisseauFragile2&#45;&gt;VaisseauFragile3 -->
<!-- VaisseauFragile2&#45;&gt;VaisseauFragile3 -->
<g id="edge68" class="edge">
<title>VaisseauFragile2&#45;&gt;VaisseauFragile3</title>
<path fill="none" stroke="black" d="M350.12,-241.66C350.63,-233.7 350.78,-224.76 350.56,-216.24"/>
<polygon fill="black" stroke="black" points="354.05,-215.99 350.11,-206.16 347.06,-216.3 354.05,-215.99"/>
</g>
<!-- VaisseauRobuste2&#45;&gt;VaisseauRobuste3 -->
<!-- VaisseauRobuste2&#45;&gt;VaisseauRobuste3 -->
<g id="edge76" class="edge">
<title>VaisseauRobuste2&#45;&gt;VaisseauRobuste3</title>
<path fill="none" stroke="black" d="M1164.82,-245.74C1165.57,-236.88 1165.81,-226.35 1165.56,-216.38"/>
<polygon fill="black" stroke="black" points="1169.05,-216.13 1165.12,-206.29 1162.06,-216.44 1169.05,-216.13"/>
</g>
<!-- VaisseauLuxe -->
<g id="node58" class="node">
<title>VaisseauLuxe</title>
<polygon fill="lightgrey" stroke="black" points="1217.91,-118 1099.91,-118 1099.91,0 1217.91,0 1217.91,-118"/>
<polyline fill="none" stroke="black" points="1111.91,-118 1099.91,-106 "/>
<polyline fill="none" stroke="black" points="1099.91,-12 1111.91,0 "/>
<polyline fill="none" stroke="black" points="1205.91,0 1217.91,-12 "/>
<polyline fill="none" stroke="black" points="1217.91,-106 1205.91,-118 "/>
<text text-anchor="middle" x="1158.91" y="-55.3" font-family="Times,serif" font-size="14.00">Vaisseau Luxe</text>
</g>
<!-- SatelliteRobuste3&#45;&gt;VaisseauLuxe -->
<g id="edge79" class="edge">
<title>SatelliteRobuste3&#45;&gt;VaisseauLuxe</title>
<path fill="none" stroke="black" d="M869.52,-489.82C910.83,-462.84 965.91,-415.82 965.91,-357 965.91,-357 965.91,-357 965.91,-267 965.91,-191.56 1035.33,-132.15 1090.9,-96.68"/>
<polygon fill="black" stroke="black" points="1093.06,-99.46 1099.69,-91.2 1089.35,-93.52 1093.06,-99.46"/>
</g>
<!-- VaisseauRobuste3&#45;&gt;VaisseauLuxe -->
<g id="edge78" class="edge">
<title>VaisseauRobuste3&#45;&gt;VaisseauLuxe</title>
<path fill="none" stroke="black" d="M1158.91,-153.76C1158.91,-146.05 1158.91,-137.17 1158.91,-128.01"/>
<polygon fill="black" stroke="black" points="1162.41,-128.01 1158.91,-118.01 1155.41,-128.01 1162.41,-128.01"/>
</g>
<!-- PuceLuxe&#45;&gt;VaisseauLuxe -->
<g id="edge80" class="edge">
<title>PuceLuxe&#45;&gt;VaisseauLuxe</title>
<path fill="none" stroke="black" d="M1160.08,-685.16C1220.99,-659.19 1321.91,-603.15 1321.91,-517 1321.91,-517 1321.91,-517 1321.91,-267 1321.91,-213.72 1313.26,-197.07 1281.91,-154 1267.03,-133.57 1246.49,-115.46 1226.44,-100.73"/>
<polygon fill="black" stroke="black" points="1228.38,-97.81 1218.21,-94.83 1224.3,-103.5 1228.38,-97.81"/>
</g>
</g>
</svg>
