<?xml version="1.0" encoding="UTF-8" standalone="no"?>
<!DOCTYPE svg PUBLIC "-//W3C//DTD SVG 1.1//EN"
 "http://www.w3.org/Graphics/SVG/1.1/DTD/svg11.dtd">
<!-- Generated by graphviz version 2.43.0 (0)
 -->
<!-- Title: %3 Pages: 1 -->
<svg width="2676pt" height="1124pt"
 viewBox="0.00 0.00 2675.60 1124.09" xmlns="http://www.w3.org/2000/svg" xmlns:xlink="http://www.w3.org/1999/xlink">
<g id="graph0" class="graph" transform="scale(1 1) rotate(0) translate(4 1120.09)">
<title>%3</title>
<polygon fill="white" stroke="transparent" points="-4,4 -4,-1120.09 2671.6,-1120.09 2671.6,4 -4,4"/>
<!-- Vierge -->
<g id="node1" class="node">
<title>Vierge</title>
<text text-anchor="middle" x="1130.6" y="-1094.39" font-family="Times,serif" font-size="14.00">Vierge</text>
</g>
<!-- PoussiereRegolite -->
<g id="node13" class="node">
<title>PoussiereRegolite</title>
<polygon fill="lightgrey" stroke="black" points="1140.15,-993.14 1146.48,-993.24 1152.74,-993.39 1158.91,-993.58 1164.97,-993.83 1170.88,-994.12 1176.63,-994.46 1182.19,-994.84 1187.55,-995.27 1192.68,-995.74 1197.57,-996.25 1202.19,-996.81 1206.53,-997.4 1210.59,-998.03 1214.33,-998.7 1217.77,-999.4 1220.88,-1000.13 1223.66,-1000.89 1226.11,-1001.68 1228.23,-1002.5 1230,-1003.34 1231.44,-1004.2 1232.54,-1005.08 1233.3,-1005.98 1233.74,-1006.89 1233.86,-1007.81 1233.66,-1008.74 1233.16,-1009.68 1232.37,-1010.62 1231.29,-1011.56 1229.94,-1012.5 1228.34,-1013.44 1226.48,-1014.37 1224.4,-1015.29 1222.09,-1016.21 1219.58,-1017.1 1216.88,-1017.98 1214,-1018.84 1210.96,-1019.68 1207.77,-1020.5 1204.45,-1021.29 1201,-1022.05 1197.44,-1022.79 1193.78,-1023.49 1190.03,-1024.15 1186.2,-1024.78 1182.31,-1025.38 1178.35,-1025.93 1174.34,-1026.44 1170.29,-1026.92 1166.2,-1027.34 1162.08,-1027.73 1157.93,-1028.06 1153.76,-1028.36 1149.57,-1028.6 1145.37,-1028.8 1141.15,-1028.94 1136.93,-1029.04 1132.71,-1029.09 1128.49,-1029.09 1124.26,-1029.04 1120.05,-1028.94 1115.83,-1028.8 1111.63,-1028.6 1107.44,-1028.36 1103.27,-1028.06 1099.12,-1027.73 1095,-1027.34 1090.91,-1026.92 1086.86,-1026.44 1082.85,-1025.93 1078.89,-1025.38 1075,-1024.78 1071.17,-1024.15 1067.42,-1023.49 1063.76,-1022.79 1060.2,-1022.05 1056.75,-1021.29 1053.42,-1020.5 1050.23,-1019.68 1047.19,-1018.84 1044.32,-1017.98 1041.62,-1017.1 1039.11,-1016.21 1036.8,-1015.29 1034.72,-1014.37 1032.86,-1013.44 1031.25,-1012.5 1029.91,-1011.56 1028.83,-1010.62 1028.03,-1009.68 1027.53,-1008.74 1027.34,-1007.81 1027.46,-1006.89 1027.9,-1005.98 1028.66,-1005.08 1029.76,-1004.2 1031.2,-1003.34 1032.97,-1002.5 1035.08,-1001.68 1037.53,-1000.89 1040.32,-1000.13 1043.43,-999.4 1046.86,-998.7 1050.61,-998.03 1054.67,-997.4 1059.01,-996.81 1063.63,-996.25 1068.52,-995.74 1073.65,-995.27 1079,-994.84 1084.57,-994.46 1090.32,-994.12 1096.23,-993.83 1102.29,-993.58 1108.46,-993.39 1114.72,-993.24 1121.04,-993.14 1127.41,-993.09 1133.79,-993.09 1140.15,-993.14"/>
<text text-anchor="middle" x="1130.6" y="-1007.39" font-family="Times,serif" font-size="14.00">Poussiere Regolite</text>
</g>
<!-- Vierge&#45;&gt;PoussiereRegolite -->
<g id="edge1" class="edge">
<title>Vierge&#45;&gt;PoussiereRegolite</title>
<path fill="none" stroke="black" d="M1130.6,-1079.89C1130.6,-1068.25 1130.6,-1052.64 1130.6,-1039.33"/>
<polygon fill="black" stroke="black" points="1134.1,-1039.27 1130.6,-1029.27 1127.1,-1039.27 1134.1,-1039.27"/>
</g>
<!-- GisementOr -->
<g id="node2" class="node">
<title>GisementOr</title>
<polygon fill="lightgrey" stroke="transparent" points="1613.1,-1116.09 1506.1,-1116.09 1506.1,-1080.09 1613.1,-1080.09 1613.1,-1116.09"/>
<text text-anchor="middle" x="1559.6" y="-1094.39" font-family="Times,serif" font-size="14.00">Gisement Or</text>
</g>
<!-- MineraiOr -->
<g id="node18" class="node">
<title>MineraiOr</title>
<polygon fill="lightgrey" stroke="black" points="1565.66,-993.14 1569.67,-993.24 1573.65,-993.39 1577.56,-993.58 1581.4,-993.83 1585.15,-994.12 1588.8,-994.46 1592.33,-994.84 1595.73,-995.27 1598.98,-995.74 1602.08,-996.25 1605.02,-996.81 1607.77,-997.4 1610.34,-998.03 1612.72,-998.7 1614.9,-999.4 1616.87,-1000.13 1618.64,-1000.89 1620.19,-1001.68 1621.53,-1002.5 1622.66,-1003.34 1623.57,-1004.2 1624.27,-1005.08 1624.75,-1005.98 1625.03,-1006.89 1625.11,-1007.81 1624.98,-1008.74 1624.67,-1009.68 1624.16,-1010.62 1623.48,-1011.56 1622.62,-1012.5 1621.6,-1013.44 1620.43,-1014.37 1619.11,-1015.29 1617.64,-1016.21 1616.05,-1017.1 1614.34,-1017.98 1612.51,-1018.84 1610.58,-1019.68 1608.56,-1020.5 1606.45,-1021.29 1604.26,-1022.05 1602,-1022.79 1599.68,-1023.49 1597.3,-1024.15 1594.87,-1024.78 1592.4,-1025.38 1589.89,-1025.93 1587.35,-1026.44 1584.78,-1026.92 1582.18,-1027.34 1579.57,-1027.73 1576.94,-1028.06 1574.29,-1028.36 1571.63,-1028.6 1568.97,-1028.8 1566.3,-1028.94 1563.62,-1029.04 1560.94,-1029.09 1558.26,-1029.09 1555.58,-1029.04 1552.9,-1028.94 1550.23,-1028.8 1547.57,-1028.6 1544.91,-1028.36 1542.26,-1028.06 1539.63,-1027.73 1537.02,-1027.34 1534.42,-1026.92 1531.85,-1026.44 1529.31,-1025.93 1526.8,-1025.38 1524.32,-1024.78 1521.9,-1024.15 1519.52,-1023.49 1517.2,-1022.79 1514.94,-1022.05 1512.75,-1021.29 1510.64,-1020.5 1508.62,-1019.68 1506.69,-1018.84 1504.86,-1017.98 1503.15,-1017.1 1501.56,-1016.21 1500.09,-1015.29 1498.77,-1014.37 1497.59,-1013.44 1496.57,-1012.5 1495.72,-1011.56 1495.03,-1010.62 1494.53,-1009.68 1494.21,-1008.74 1494.09,-1007.81 1494.17,-1006.89 1494.44,-1005.98 1494.93,-1005.08 1495.63,-1004.2 1496.54,-1003.34 1497.66,-1002.5 1499,-1001.68 1500.56,-1000.89 1502.32,-1000.13 1504.3,-999.4 1506.48,-998.7 1508.86,-998.03 1511.43,-997.4 1514.18,-996.81 1517.12,-996.25 1520.21,-995.74 1523.47,-995.27 1526.87,-994.84 1530.4,-994.46 1534.05,-994.12 1537.8,-993.83 1541.64,-993.58 1545.55,-993.39 1549.52,-993.24 1553.54,-993.14 1557.58,-993.09 1561.62,-993.09 1565.66,-993.14"/>
<text text-anchor="middle" x="1559.6" y="-1007.39" font-family="Times,serif" font-size="14.00">Minerai Or</text>
</g>
<!-- GisementOr&#45;&gt;MineraiOr -->
<g id="edge2" class="edge">
<title>GisementOr&#45;&gt;MineraiOr</title>
<path fill="none" stroke="grey" stroke-dasharray="1,5" d="M1559.6,-1079.89C1559.6,-1068.25 1559.6,-1052.64 1559.6,-1039.33"/>
<polygon fill="grey" stroke="grey" points="1563.1,-1039.27 1559.6,-1029.27 1556.1,-1039.27 1563.1,-1039.27"/>
<text text-anchor="middle" x="1578.1" y="-1050.89" font-family="Times,serif" font-size="14.00" fill="grey">Mine</text>
</g>
<!-- GisementFer -->
<g id="node3" class="node">
<title>GisementFer</title>
<polygon fill="lightgrey" stroke="transparent" points="130.1,-1116.09 17.1,-1116.09 17.1,-1080.09 130.1,-1080.09 130.1,-1116.09"/>
<text text-anchor="middle" x="73.6" y="-1094.39" font-family="Times,serif" font-size="14.00">Gisement Fer</text>
</g>
<!-- MineraiFer -->
<g id="node17" class="node">
<title>MineraiFer</title>
<polygon fill="lightgrey" stroke="black" points="80.06,-993.14 84.34,-993.24 88.57,-993.39 92.74,-993.58 96.83,-993.83 100.83,-994.12 104.72,-994.46 108.48,-994.84 112.1,-995.27 115.57,-995.74 118.88,-996.25 122,-996.81 124.94,-997.4 127.68,-998.03 130.21,-998.7 132.53,-999.4 134.64,-1000.13 136.52,-1000.89 138.18,-1001.68 139.6,-1002.5 140.8,-1003.34 141.77,-1004.2 142.52,-1005.08 143.04,-1005.98 143.33,-1006.89 143.41,-1007.81 143.28,-1008.74 142.94,-1009.68 142.41,-1010.62 141.68,-1011.56 140.77,-1012.5 139.68,-1013.44 138.43,-1014.37 137.02,-1015.29 135.46,-1016.21 133.76,-1017.1 131.93,-1017.98 129.99,-1018.84 127.93,-1019.68 125.78,-1020.5 123.53,-1021.29 121.2,-1022.05 118.79,-1022.79 116.31,-1023.49 113.78,-1024.15 111.19,-1024.78 108.56,-1025.38 105.88,-1025.93 103.17,-1026.44 100.43,-1026.92 97.67,-1027.34 94.88,-1027.73 92.08,-1028.06 89.26,-1028.36 86.42,-1028.6 83.58,-1028.8 80.74,-1028.94 77.88,-1029.04 75.03,-1029.09 72.17,-1029.09 69.32,-1029.04 66.46,-1028.94 63.62,-1028.8 60.78,-1028.6 57.94,-1028.36 55.12,-1028.06 52.32,-1027.73 49.53,-1027.34 46.77,-1026.92 44.03,-1026.44 41.32,-1025.93 38.64,-1025.38 36.01,-1024.78 33.42,-1024.15 30.88,-1023.49 28.41,-1022.79 26,-1022.05 23.67,-1021.29 21.42,-1020.5 19.27,-1019.68 17.21,-1018.84 15.26,-1017.98 13.44,-1017.1 11.74,-1016.21 10.18,-1015.29 8.77,-1014.37 7.52,-1013.44 6.43,-1012.5 5.52,-1011.56 4.79,-1010.62 4.26,-1009.68 3.92,-1008.74 3.79,-1007.81 3.87,-1006.89 4.16,-1005.98 4.68,-1005.08 5.42,-1004.2 6.39,-1003.34 7.59,-1002.5 9.02,-1001.68 10.68,-1000.89 12.56,-1000.13 14.66,-999.4 16.99,-998.7 19.52,-998.03 22.26,-997.4 25.2,-996.81 28.32,-996.25 31.63,-995.74 35.09,-995.27 38.72,-994.84 42.48,-994.46 46.37,-994.12 50.36,-993.83 54.46,-993.58 58.63,-993.39 62.86,-993.24 67.14,-993.14 71.44,-993.09 75.76,-993.09 80.06,-993.14"/>
<text text-anchor="middle" x="73.6" y="-1007.39" font-family="Times,serif" font-size="14.00">Minerai Fer</text>
</g>
<!-- GisementFer&#45;&gt;MineraiFer -->
<g id="edge3" class="edge">
<title>GisementFer&#45;&gt;MineraiFer</title>
<path fill="none" stroke="grey" stroke-dasharray="1,5" d="M73.6,-1079.89C73.6,-1068.25 73.6,-1052.64 73.6,-1039.33"/>
<polygon fill="grey" stroke="grey" points="77.1,-1039.27 73.6,-1029.27 70.1,-1039.27 77.1,-1039.27"/>
<text text-anchor="middle" x="92.1" y="-1050.89" font-family="Times,serif" font-size="14.00" fill="grey">Mine</text>
</g>
<!-- GisementTitane -->
<g id="node4" class="node">
<title>GisementTitane</title>
<polygon fill="lightgrey" stroke="transparent" points="1857.6,-1116.09 1723.6,-1116.09 1723.6,-1080.09 1857.6,-1080.09 1857.6,-1116.09"/>
<text text-anchor="middle" x="1790.6" y="-1094.39" font-family="Times,serif" font-size="14.00">Gisement Titane</text>
</g>
<!-- MineraiTitane -->
<g id="node15" class="node">
<title>MineraiTitane</title>
<polygon fill="lightgrey" stroke="black" points="1798.41,-993.14 1803.58,-993.24 1808.69,-993.39 1813.74,-993.58 1818.68,-993.83 1823.52,-994.12 1828.22,-994.46 1832.76,-994.84 1837.14,-995.27 1841.33,-995.74 1845.32,-996.25 1849.1,-996.81 1852.65,-997.4 1855.96,-998.03 1859.03,-998.7 1861.83,-999.4 1864.38,-1000.13 1866.65,-1000.89 1868.65,-1001.68 1870.38,-1002.5 1871.83,-1003.34 1873,-1004.2 1873.9,-1005.08 1874.53,-1005.98 1874.89,-1006.89 1874.98,-1007.81 1874.82,-1008.74 1874.42,-1009.68 1873.77,-1010.62 1872.89,-1011.56 1871.78,-1012.5 1870.47,-1013.44 1868.96,-1014.37 1867.25,-1015.29 1865.37,-1016.21 1863.32,-1017.1 1861.11,-1017.98 1858.76,-1018.84 1856.27,-1019.68 1853.67,-1020.5 1850.95,-1021.29 1848.13,-1022.05 1845.22,-1022.79 1842.23,-1023.49 1839.17,-1024.15 1836.04,-1024.78 1832.85,-1025.38 1829.62,-1025.93 1826.35,-1026.44 1823.03,-1026.92 1819.69,-1027.34 1816.32,-1027.73 1812.93,-1028.06 1809.52,-1028.36 1806.1,-1028.6 1802.67,-1028.8 1799.22,-1028.94 1795.78,-1029.04 1792.33,-1029.09 1788.87,-1029.09 1785.42,-1029.04 1781.97,-1028.94 1778.53,-1028.8 1775.1,-1028.6 1771.68,-1028.36 1768.27,-1028.06 1764.88,-1027.73 1761.51,-1027.34 1758.17,-1026.92 1754.85,-1026.44 1751.58,-1025.93 1748.34,-1025.38 1745.16,-1024.78 1742.03,-1024.15 1738.97,-1023.49 1735.98,-1022.79 1733.07,-1022.05 1730.25,-1021.29 1727.53,-1020.5 1724.93,-1019.68 1722.44,-1018.84 1720.09,-1017.98 1717.88,-1017.1 1715.83,-1016.21 1713.95,-1015.29 1712.24,-1014.37 1710.73,-1013.44 1709.41,-1012.5 1708.31,-1011.56 1707.43,-1010.62 1706.78,-1009.68 1706.37,-1008.74 1706.22,-1007.81 1706.31,-1006.89 1706.67,-1005.98 1707.3,-1005.08 1708.2,-1004.2 1709.37,-1003.34 1710.82,-1002.5 1712.54,-1001.68 1714.55,-1000.89 1716.82,-1000.13 1719.36,-999.4 1722.17,-998.7 1725.24,-998.03 1728.55,-997.4 1732.1,-996.81 1735.87,-996.25 1739.87,-995.74 1744.06,-995.27 1748.44,-994.84 1752.98,-994.46 1757.68,-994.12 1762.51,-993.83 1767.46,-993.58 1772.5,-993.39 1777.62,-993.24 1782.79,-993.14 1787.99,-993.09 1793.21,-993.09 1798.41,-993.14"/>
<text text-anchor="middle" x="1790.6" y="-1007.39" font-family="Times,serif" font-size="14.00">Minerai Titane</text>
</g>
<!-- GisementTitane&#45;&gt;MineraiTitane -->
<g id="edge4" class="edge">
<title>GisementTitane&#45;&gt;MineraiTitane</title>
<path fill="none" stroke="grey" stroke-dasharray="1,5" d="M1790.6,-1079.89C1790.6,-1068.25 1790.6,-1052.64 1790.6,-1039.33"/>
<polygon fill="grey" stroke="grey" points="1794.1,-1039.27 1790.6,-1029.27 1787.1,-1039.27 1794.1,-1039.27"/>
<text text-anchor="middle" x="1809.1" y="-1050.89" font-family="Times,serif" font-size="14.00" fill="grey">Mine</text>
</g>
<!-- GisementSilicium -->
<g id="node5" class="node">
<title>GisementSilicium</title>
<polygon fill="lightgrey" stroke="transparent" points="1456.1,-1116.09 1309.1,-1116.09 1309.1,-1080.09 1456.1,-1080.09 1456.1,-1116.09"/>
<text text-anchor="middle" x="1382.6" y="-1094.39" font-family="Times,serif" font-size="14.00">Gisement Silicium</text>
</g>
<!-- MineraiSilicium -->
<g id="node16" class="node">
<title>MineraiSilicium</title>
<polygon fill="lightgrey" stroke="black" points="1391.2,-993.14 1396.9,-993.24 1402.54,-993.39 1408.1,-993.58 1413.55,-993.83 1418.88,-994.12 1424.05,-994.46 1429.07,-994.84 1433.89,-995.27 1438.51,-995.74 1442.91,-996.25 1447.07,-996.81 1450.98,-997.4 1454.63,-998.03 1458.01,-998.7 1461.1,-999.4 1463.91,-1000.13 1466.41,-1000.89 1468.62,-1001.68 1470.52,-1002.5 1472.12,-1003.34 1473.41,-1004.2 1474.4,-1005.08 1475.09,-1005.98 1475.49,-1006.89 1475.6,-1007.81 1475.42,-1008.74 1474.97,-1009.68 1474.26,-1010.62 1473.28,-1011.56 1472.07,-1012.5 1470.62,-1013.44 1468.95,-1014.37 1467.07,-1015.29 1465,-1016.21 1462.74,-1017.1 1460.31,-1017.98 1457.71,-1018.84 1454.98,-1019.68 1452.1,-1020.5 1449.11,-1021.29 1446,-1022.05 1442.8,-1022.79 1439.5,-1023.49 1436.12,-1024.15 1432.68,-1024.78 1429.17,-1025.38 1425.6,-1025.93 1421.99,-1026.44 1418.34,-1026.92 1414.66,-1027.34 1410.95,-1027.73 1407.21,-1028.06 1403.45,-1028.36 1399.68,-1028.6 1395.9,-1028.8 1392.1,-1028.94 1388.31,-1029.04 1384.5,-1029.09 1380.7,-1029.09 1376.89,-1029.04 1373.09,-1028.94 1369.3,-1028.8 1365.52,-1028.6 1361.74,-1028.36 1357.99,-1028.06 1354.25,-1027.73 1350.54,-1027.34 1346.86,-1026.92 1343.21,-1026.44 1339.6,-1025.93 1336.03,-1025.38 1332.52,-1024.78 1329.08,-1024.15 1325.7,-1023.49 1322.4,-1022.79 1319.2,-1022.05 1316.09,-1021.29 1313.1,-1020.5 1310.22,-1019.68 1307.49,-1018.84 1304.89,-1017.98 1302.46,-1017.1 1300.2,-1016.21 1298.13,-1015.29 1296.25,-1014.37 1294.58,-1013.44 1293.13,-1012.5 1291.91,-1011.56 1290.94,-1010.62 1290.23,-1009.68 1289.78,-1008.74 1289.6,-1007.81 1289.71,-1006.89 1290.11,-1005.98 1290.8,-1005.08 1291.79,-1004.2 1293.08,-1003.34 1294.68,-1002.5 1296.58,-1001.68 1298.78,-1000.89 1301.29,-1000.13 1304.09,-999.4 1307.19,-998.7 1310.56,-998.03 1314.21,-997.4 1318.13,-996.81 1322.29,-996.25 1326.69,-995.74 1331.31,-995.27 1336.13,-994.84 1341.14,-994.46 1346.32,-994.12 1351.65,-993.83 1357.1,-993.58 1362.66,-993.39 1368.3,-993.24 1373.99,-993.14 1379.73,-993.09 1385.47,-993.09 1391.2,-993.14"/>
<text text-anchor="middle" x="1382.6" y="-1007.39" font-family="Times,serif" font-size="14.00">Minerai Silicium</text>
</g>
<!-- GisementSilicium&#45;&gt;MineraiSilicium -->
<g id="edge5" class="edge">
<title>GisementSilicium&#45;&gt;MineraiSilicium</title>
<path fill="none" stroke="grey" stroke-dasharray="1,5" d="M1382.6,-1079.89C1382.6,-1068.25 1382.6,-1052.64 1382.6,-1039.33"/>
<polygon fill="grey" stroke="grey" points="1386.1,-1039.27 1382.6,-1029.27 1379.1,-1039.27 1386.1,-1039.27"/>
<text text-anchor="middle" x="1401.1" y="-1050.89" font-family="Times,serif" font-size="14.00" fill="grey">Mine</text>
</g>
<!-- GisementGlace -->
<g id="node6" class="node">
<title>GisementGlace</title>
<polygon fill="lightgrey" stroke="transparent" points="443.1,-1116.09 314.1,-1116.09 314.1,-1080.09 443.1,-1080.09 443.1,-1116.09"/>
<text text-anchor="middle" x="378.6" y="-1094.39" font-family="Times,serif" font-size="14.00">Gisement Glace</text>
</g>
<!-- MineraiGlace -->
<g id="node14" class="node">
<title>MineraiGlace</title>
<polygon fill="lightgrey" stroke="black" points="386.01,-993.14 390.92,-993.24 395.77,-993.39 400.56,-993.58 405.25,-993.83 409.84,-994.12 414.3,-994.46 418.61,-994.84 422.77,-995.27 426.74,-995.74 430.53,-996.25 434.12,-996.81 437.49,-997.4 440.63,-998.03 443.54,-998.7 446.2,-999.4 448.61,-1000.13 450.77,-1000.89 452.67,-1001.68 454.31,-1002.5 455.69,-1003.34 456.8,-1004.2 457.65,-1005.08 458.25,-1005.98 458.59,-1006.89 458.68,-1007.81 458.53,-1008.74 458.14,-1009.68 457.52,-1010.62 456.69,-1011.56 455.64,-1012.5 454.4,-1013.44 452.96,-1014.37 451.34,-1015.29 449.55,-1016.21 447.61,-1017.1 445.51,-1017.98 443.28,-1018.84 440.92,-1019.68 438.45,-1020.5 435.87,-1021.29 433.2,-1022.05 430.43,-1022.79 427.6,-1023.49 424.69,-1024.15 421.72,-1024.78 418.7,-1025.38 415.63,-1025.93 412.52,-1026.44 409.38,-1026.92 406.21,-1027.34 403.01,-1027.73 399.79,-1028.06 396.56,-1028.36 393.31,-1028.6 390.05,-1028.8 386.78,-1028.94 383.51,-1029.04 380.24,-1029.09 376.96,-1029.09 373.69,-1029.04 370.41,-1028.94 367.15,-1028.8 363.89,-1028.6 360.64,-1028.36 357.41,-1028.06 354.19,-1027.73 350.99,-1027.34 347.82,-1026.92 344.68,-1026.44 341.57,-1025.93 338.5,-1025.38 335.48,-1024.78 332.51,-1024.15 329.6,-1023.49 326.76,-1022.79 324,-1022.05 321.33,-1021.29 318.75,-1020.5 316.28,-1019.68 313.92,-1018.84 311.69,-1017.98 309.59,-1017.1 307.65,-1016.21 305.86,-1015.29 304.24,-1014.37 302.8,-1013.44 301.56,-1012.5 300.51,-1011.56 299.68,-1010.62 299.06,-1009.68 298.67,-1008.74 298.52,-1007.81 298.61,-1006.89 298.95,-1005.98 299.55,-1005.08 300.4,-1004.2 301.51,-1003.34 302.89,-1002.5 304.53,-1001.68 306.43,-1000.89 308.59,-1000.13 311,-999.4 313.66,-998.7 316.57,-998.03 319.71,-997.4 323.08,-996.81 326.67,-996.25 330.45,-995.74 334.43,-995.27 338.59,-994.84 342.9,-994.46 347.36,-994.12 351.95,-993.83 356.64,-993.58 361.43,-993.39 366.28,-993.24 371.19,-993.14 376.13,-993.09 381.07,-993.09 386.01,-993.14"/>
<text text-anchor="middle" x="378.6" y="-1007.39" font-family="Times,serif" font-size="14.00">Minerai Glace</text>
</g>
<!-- GisementGlace&#45;&gt;MineraiGlace -->
<g id="edge10" class="edge">
<title>GisementGlace&#45;&gt;MineraiGlace</title>
<path fill="none" stroke="grey" stroke-dasharray="1,5" d="M378.6,-1079.89C378.6,-1068.25 378.6,-1052.64 378.6,-1039.33"/>
<polygon fill="grey" stroke="grey" points="382.1,-1039.27 378.6,-1029.27 375.1,-1039.27 382.1,-1039.27"/>
<text text-anchor="middle" x="397.1" y="-1050.89" font-family="Times,serif" font-size="14.00" fill="grey">Mine</text>
</g>
<!-- GisementAluminium -->
<g id="node7" class="node">
<title>GisementAluminium</title>
<polygon fill="lightgrey" stroke="transparent" points="913.1,-1116.09 746.1,-1116.09 746.1,-1080.09 913.1,-1080.09 913.1,-1116.09"/>
<text text-anchor="middle" x="829.6" y="-1094.39" font-family="Times,serif" font-size="14.00">Gisement Aluminium</text>
</g>
<!-- MineraiAluminium -->
<g id="node19" class="node">
<title>MineraiAluminium</title>
<polygon fill="lightgrey" stroke="black" points="839.47,-993.14 846.01,-993.24 852.48,-993.39 858.85,-993.58 865.1,-993.83 871.21,-994.12 877.16,-994.46 882.9,-994.84 888.44,-995.27 893.74,-995.74 898.78,-996.25 903.56,-996.81 908.05,-997.4 912.24,-998.03 916.11,-998.7 919.66,-999.4 922.87,-1000.13 925.75,-1000.89 928.28,-1001.68 930.46,-1002.5 932.29,-1003.34 933.78,-1004.2 934.91,-1005.08 935.71,-1005.98 936.16,-1006.89 936.28,-1007.81 936.08,-1008.74 935.56,-1009.68 934.74,-1010.62 933.63,-1011.56 932.24,-1012.5 930.58,-1013.44 928.66,-1014.37 926.5,-1015.29 924.12,-1016.21 921.53,-1017.1 918.74,-1017.98 915.77,-1018.84 912.63,-1019.68 909.33,-1020.5 905.9,-1021.29 902.33,-1022.05 898.65,-1022.79 894.87,-1023.49 891,-1024.15 887.04,-1024.78 883.02,-1025.38 878.93,-1025.93 874.79,-1026.44 870.6,-1026.92 866.38,-1027.34 862.12,-1027.73 857.83,-1028.06 853.52,-1028.36 849.2,-1028.6 844.86,-1028.8 840.5,-1028.94 836.14,-1029.04 831.78,-1029.09 827.42,-1029.09 823.05,-1029.04 818.7,-1028.94 814.34,-1028.8 810,-1028.6 805.68,-1028.36 801.37,-1028.06 797.08,-1027.73 792.82,-1027.34 788.59,-1026.92 784.41,-1026.44 780.27,-1025.93 776.18,-1025.38 772.15,-1024.78 768.2,-1024.15 764.33,-1023.49 760.55,-1022.79 756.87,-1022.05 753.3,-1021.29 749.87,-1020.5 746.57,-1019.68 743.43,-1018.84 740.46,-1017.98 737.67,-1017.1 735.08,-1016.21 732.69,-1015.29 730.54,-1014.37 728.62,-1013.44 726.96,-1012.5 725.57,-1011.56 724.46,-1010.62 723.64,-1009.68 723.12,-1008.74 722.92,-1007.81 723.04,-1006.89 723.49,-1005.98 724.29,-1005.08 725.42,-1004.2 726.91,-1003.34 728.74,-1002.5 730.92,-1001.68 733.45,-1000.89 736.33,-1000.13 739.54,-999.4 743.09,-998.7 746.96,-998.03 751.15,-997.4 755.64,-996.81 760.41,-996.25 765.46,-995.74 770.76,-995.27 776.29,-994.84 782.04,-994.46 787.98,-994.12 794.09,-993.83 800.35,-993.58 806.72,-993.39 813.19,-993.24 819.73,-993.14 826.3,-993.09 832.89,-993.09 839.47,-993.14"/>
<text text-anchor="middle" x="829.6" y="-1007.39" font-family="Times,serif" font-size="14.00">Minerai Aluminium</text>
</g>
<!-- GisementAluminium&#45;&gt;MineraiAluminium -->
<g id="edge6" class="edge">
<title>GisementAluminium&#45;&gt;MineraiAluminium</title>
<path fill="none" stroke="grey" stroke-dasharray="1,5" d="M829.6,-1079.89C829.6,-1068.25 829.6,-1052.64 829.6,-1039.33"/>
<polygon fill="grey" stroke="grey" points="833.1,-1039.27 829.6,-1029.27 826.1,-1039.27 833.1,-1039.27"/>
<text text-anchor="middle" x="848.1" y="-1050.89" font-family="Times,serif" font-size="14.00" fill="grey">Mine</text>
</g>
<!-- GisementMagnesium -->
<g id="node8" class="node">
<title>GisementMagnesium</title>
<polygon fill="lightgrey" stroke="transparent" points="2090.1,-1116.09 1917.1,-1116.09 1917.1,-1080.09 2090.1,-1080.09 2090.1,-1116.09"/>
<text text-anchor="middle" x="2003.6" y="-1094.39" font-family="Times,serif" font-size="14.00">Gisement Magnesium</text>
</g>
<!-- MineraiMagnesium -->
<g id="node20" class="node">
<title>MineraiMagnesium</title>
<polygon fill="lightgrey" stroke="black" points="2013.87,-993.14 2020.67,-993.24 2027.4,-993.39 2034.03,-993.58 2040.54,-993.83 2046.89,-994.12 2053.07,-994.46 2059.06,-994.84 2064.81,-995.27 2070.33,-995.74 2075.58,-996.25 2080.55,-996.81 2085.21,-997.4 2089.57,-998.03 2093.6,-998.7 2097.29,-999.4 2100.64,-1000.13 2103.63,-1000.89 2106.26,-1001.68 2108.53,-1002.5 2110.44,-1003.34 2111.98,-1004.2 2113.16,-1005.08 2113.99,-1005.98 2114.46,-1006.89 2114.59,-1007.81 2114.38,-1008.74 2113.84,-1009.68 2112.99,-1010.62 2111.83,-1011.56 2110.38,-1012.5 2108.65,-1013.44 2106.66,-1014.37 2104.42,-1015.29 2101.94,-1016.21 2099.24,-1017.1 2096.34,-1017.98 2093.25,-1018.84 2089.98,-1019.68 2086.55,-1020.5 2082.98,-1021.29 2079.27,-1022.05 2075.44,-1022.79 2071.51,-1023.49 2067.48,-1024.15 2063.36,-1024.78 2059.18,-1025.38 2054.92,-1025.93 2050.62,-1026.44 2046.26,-1026.92 2041.86,-1027.34 2037.43,-1027.73 2032.97,-1028.06 2028.49,-1028.36 2023.99,-1028.6 2019.47,-1028.8 2014.94,-1028.94 2010.41,-1029.04 2005.87,-1029.09 2001.33,-1029.09 1996.79,-1029.04 1992.26,-1028.94 1987.73,-1028.8 1983.21,-1028.6 1978.71,-1028.36 1974.23,-1028.06 1969.77,-1027.73 1965.34,-1027.34 1960.94,-1026.92 1956.58,-1026.44 1952.28,-1025.93 1948.02,-1025.38 1943.84,-1024.78 1939.72,-1024.15 1935.69,-1023.49 1931.76,-1022.79 1927.93,-1022.05 1924.22,-1021.29 1920.65,-1020.5 1917.22,-1019.68 1913.95,-1018.84 1910.86,-1017.98 1907.96,-1017.1 1905.26,-1016.21 1902.78,-1015.29 1900.54,-1014.37 1898.55,-1013.44 1896.82,-1012.5 1895.37,-1011.56 1894.21,-1010.62 1893.36,-1009.68 1892.82,-1008.74 1892.61,-1007.81 1892.74,-1006.89 1893.21,-1005.98 1894.04,-1005.08 1895.22,-1004.2 1896.76,-1003.34 1898.67,-1002.5 1900.94,-1001.68 1903.57,-1000.89 1906.56,-1000.13 1909.91,-999.4 1913.6,-998.7 1917.63,-998.03 1921.98,-997.4 1926.65,-996.81 1931.62,-996.25 1936.87,-995.74 1942.39,-995.27 1948.14,-994.84 1954.12,-994.46 1960.3,-994.12 1966.66,-993.83 1973.17,-993.58 1979.8,-993.39 1986.53,-993.24 1993.33,-993.14 2000.17,-993.09 2007.03,-993.09 2013.87,-993.14"/>
<text text-anchor="middle" x="2003.6" y="-1007.39" font-family="Times,serif" font-size="14.00">Minerai Magnesium</text>
</g>
<!-- GisementMagnesium&#45;&gt;MineraiMagnesium -->
<g id="edge7" class="edge">
<title>GisementMagnesium&#45;&gt;MineraiMagnesium</title>
<path fill="none" stroke="grey" stroke-dasharray="1,5" d="M2003.6,-1079.89C2003.6,-1068.25 2003.6,-1052.64 2003.6,-1039.33"/>
<polygon fill="grey" stroke="grey" points="2007.1,-1039.27 2003.6,-1029.27 2000.1,-1039.27 2007.1,-1039.27"/>
<text text-anchor="middle" x="2022.1" y="-1050.89" font-family="Times,serif" font-size="14.00" fill="grey">Mine</text>
</g>
<!-- GisementCalcium -->
<g id="node9" class="node">
<title>GisementCalcium</title>
<polygon fill="lightgrey" stroke="transparent" points="2298.1,-1116.09 2151.1,-1116.09 2151.1,-1080.09 2298.1,-1080.09 2298.1,-1116.09"/>
<text text-anchor="middle" x="2224.6" y="-1094.39" font-family="Times,serif" font-size="14.00">Gisement Calcium</text>
</g>
<!-- MineraiCalcium -->
<g id="node21" class="node">
<title>MineraiCalcium</title>
<polygon fill="lightgrey" stroke="black" points="2233.2,-993.14 2238.9,-993.24 2244.54,-993.39 2250.1,-993.58 2255.55,-993.83 2260.88,-994.12 2266.05,-994.46 2271.07,-994.84 2275.89,-995.27 2280.51,-995.74 2284.91,-996.25 2289.07,-996.81 2292.98,-997.4 2296.63,-998.03 2300.01,-998.7 2303.1,-999.4 2305.91,-1000.13 2308.41,-1000.89 2310.62,-1001.68 2312.52,-1002.5 2314.12,-1003.34 2315.41,-1004.2 2316.4,-1005.08 2317.09,-1005.98 2317.49,-1006.89 2317.6,-1007.81 2317.42,-1008.74 2316.97,-1009.68 2316.26,-1010.62 2315.28,-1011.56 2314.07,-1012.5 2312.62,-1013.44 2310.95,-1014.37 2309.07,-1015.29 2307,-1016.21 2304.74,-1017.1 2302.31,-1017.98 2299.71,-1018.84 2296.98,-1019.68 2294.1,-1020.5 2291.11,-1021.29 2288,-1022.05 2284.8,-1022.79 2281.5,-1023.49 2278.12,-1024.15 2274.68,-1024.78 2271.17,-1025.38 2267.6,-1025.93 2263.99,-1026.44 2260.34,-1026.92 2256.66,-1027.34 2252.95,-1027.73 2249.21,-1028.06 2245.45,-1028.36 2241.68,-1028.6 2237.9,-1028.8 2234.1,-1028.94 2230.31,-1029.04 2226.5,-1029.09 2222.7,-1029.09 2218.89,-1029.04 2215.09,-1028.94 2211.3,-1028.8 2207.52,-1028.6 2203.74,-1028.36 2199.99,-1028.06 2196.25,-1027.73 2192.54,-1027.34 2188.86,-1026.92 2185.21,-1026.44 2181.6,-1025.93 2178.03,-1025.38 2174.52,-1024.78 2171.08,-1024.15 2167.7,-1023.49 2164.4,-1022.79 2161.2,-1022.05 2158.09,-1021.29 2155.1,-1020.5 2152.22,-1019.68 2149.49,-1018.84 2146.89,-1017.98 2144.46,-1017.1 2142.2,-1016.21 2140.13,-1015.29 2138.25,-1014.37 2136.58,-1013.44 2135.13,-1012.5 2133.91,-1011.56 2132.94,-1010.62 2132.23,-1009.68 2131.78,-1008.74 2131.6,-1007.81 2131.71,-1006.89 2132.11,-1005.98 2132.8,-1005.08 2133.79,-1004.2 2135.08,-1003.34 2136.68,-1002.5 2138.58,-1001.68 2140.78,-1000.89 2143.29,-1000.13 2146.09,-999.4 2149.19,-998.7 2152.56,-998.03 2156.21,-997.4 2160.13,-996.81 2164.29,-996.25 2168.69,-995.74 2173.31,-995.27 2178.13,-994.84 2183.14,-994.46 2188.32,-994.12 2193.65,-993.83 2199.1,-993.58 2204.66,-993.39 2210.3,-993.24 2215.99,-993.14 2221.73,-993.09 2227.47,-993.09 2233.2,-993.14"/>
<text text-anchor="middle" x="2224.6" y="-1007.39" font-family="Times,serif" font-size="14.00">Minerai Calcium</text>
</g>
<!-- GisementCalcium&#45;&gt;MineraiCalcium -->
<g id="edge8" class="edge">
<title>GisementCalcium&#45;&gt;MineraiCalcium</title>
<path fill="none" stroke="grey" stroke-dasharray="1,5" d="M2224.6,-1079.89C2224.6,-1068.25 2224.6,-1052.64 2224.6,-1039.33"/>
<polygon fill="grey" stroke="grey" points="2228.1,-1039.27 2224.6,-1029.27 2221.1,-1039.27 2228.1,-1039.27"/>
<text text-anchor="middle" x="2243.1" y="-1050.89" font-family="Times,serif" font-size="14.00" fill="grey">Mine</text>
</g>
<!-- GisementSoduim -->
<g id="node10" class="node">
<title>GisementSoduim</title>
<polygon fill="lightgrey" stroke="transparent" points="2497.1,-1116.09 2354.1,-1116.09 2354.1,-1080.09 2497.1,-1080.09 2497.1,-1116.09"/>
<text text-anchor="middle" x="2425.6" y="-1094.39" font-family="Times,serif" font-size="14.00">Gisement Soduim</text>
</g>
<!-- MineraiSoduim -->
<g id="node22" class="node">
<title>MineraiSoduim</title>
<polygon fill="lightgrey" stroke="black" points="2434.01,-993.14 2439.57,-993.24 2445.08,-993.39 2450.51,-993.58 2455.83,-993.83 2461.04,-994.12 2466.09,-994.46 2470.99,-994.84 2475.7,-995.27 2480.22,-995.74 2484.51,-996.25 2488.58,-996.81 2492.4,-997.4 2495.97,-998.03 2499.26,-998.7 2502.29,-999.4 2505.02,-1000.13 2507.47,-1000.89 2509.63,-1001.68 2511.49,-1002.5 2513.05,-1003.34 2514.31,-1004.2 2515.28,-1005.08 2515.95,-1005.98 2516.34,-1006.89 2516.44,-1007.81 2516.27,-1008.74 2515.83,-1009.68 2515.13,-1010.62 2514.19,-1011.56 2513,-1012.5 2511.58,-1013.44 2509.95,-1014.37 2508.12,-1015.29 2506.09,-1016.21 2503.88,-1017.1 2501.51,-1017.98 2498.97,-1018.84 2496.3,-1019.68 2493.49,-1020.5 2490.57,-1021.29 2487.53,-1022.05 2484.4,-1022.79 2481.18,-1023.49 2477.88,-1024.15 2474.52,-1024.78 2471.09,-1025.38 2467.61,-1025.93 2464.08,-1026.44 2460.52,-1026.92 2456.92,-1027.34 2453.29,-1027.73 2449.64,-1028.06 2445.97,-1028.36 2442.29,-1028.6 2438.59,-1028.8 2434.88,-1028.94 2431.17,-1029.04 2427.46,-1029.09 2423.74,-1029.09 2420.03,-1029.04 2416.31,-1028.94 2412.61,-1028.8 2408.91,-1028.6 2405.23,-1028.36 2401.56,-1028.06 2397.91,-1027.73 2394.28,-1027.34 2390.68,-1026.92 2387.12,-1026.44 2383.59,-1025.93 2380.11,-1025.38 2376.68,-1024.78 2373.32,-1024.15 2370.02,-1023.49 2366.8,-1022.79 2363.66,-1022.05 2360.63,-1021.29 2357.7,-1020.5 2354.9,-1019.68 2352.22,-1018.84 2349.69,-1017.98 2347.32,-1017.1 2345.11,-1016.21 2343.08,-1015.29 2341.25,-1014.37 2339.61,-1013.44 2338.2,-1012.5 2337.01,-1011.56 2336.07,-1010.62 2335.37,-1009.68 2334.93,-1008.74 2334.76,-1007.81 2334.86,-1006.89 2335.25,-1005.98 2335.92,-1005.08 2336.89,-1004.2 2338.15,-1003.34 2339.71,-1002.5 2341.57,-1001.68 2343.73,-1000.89 2346.17,-1000.13 2348.91,-999.4 2351.93,-998.7 2355.23,-998.03 2358.8,-997.4 2362.62,-996.81 2366.69,-996.25 2370.98,-995.74 2375.5,-995.27 2380.21,-994.84 2385.1,-994.46 2390.16,-994.12 2395.37,-993.83 2400.69,-993.58 2406.12,-993.39 2411.63,-993.24 2417.19,-993.14 2422.79,-993.09 2428.41,-993.09 2434.01,-993.14"/>
<text text-anchor="middle" x="2425.6" y="-1007.39" font-family="Times,serif" font-size="14.00">Minerai Soduim</text>
</g>
<!-- GisementSoduim&#45;&gt;MineraiSoduim -->
<g id="edge9" class="edge">
<title>GisementSoduim&#45;&gt;MineraiSoduim</title>
<path fill="none" stroke="grey" stroke-dasharray="1,5" d="M2425.6,-1079.89C2425.6,-1068.25 2425.6,-1052.64 2425.6,-1039.33"/>
<polygon fill="grey" stroke="grey" points="2429.1,-1039.27 2425.6,-1029.27 2422.1,-1039.27 2429.1,-1039.27"/>
<text text-anchor="middle" x="2444.1" y="-1050.89" font-family="Times,serif" font-size="14.00" fill="grey">Mine</text>
</g>
<!-- Montage -->
<g id="node11" class="node">
<title>Montage</title>
<polygon fill="lightgrey" stroke="transparent" points="2595.6,-1116.09 2515.6,-1116.09 2515.6,-1080.09 2595.6,-1080.09 2595.6,-1116.09"/>
<text text-anchor="middle" x="2555.6" y="-1094.39" font-family="Times,serif" font-size="14.00">Montage</text>
</g>
<!-- Trou -->
<g id="node12" class="node">
<title>Trou</title>
<polygon fill="lightgrey" stroke="transparent" points="2667.6,-1116.09 2613.6,-1116.09 2613.6,-1080.09 2667.6,-1080.09 2667.6,-1116.09"/>
<text text-anchor="middle" x="2640.6" y="-1094.39" font-family="Times,serif" font-size="14.00">Trou</text>
</g>
<!-- LingotRegolite -->
<g id="node23" class="node">
<title>LingotRegolite</title>
<polygon fill="lightgrey" stroke="black" points="1171.6,-631 1045.6,-631 1045.6,-595 1171.6,-595 1171.6,-631"/>
<text text-anchor="middle" x="1108.6" y="-609.3" font-family="Times,serif" font-size="14.00">Lingot Regolite</text>
</g>
<!-- PoussiereRegolite&#45;&gt;LingotRegolite -->
<g id="edge11" class="edge">
<title>PoussiereRegolite&#45;&gt;LingotRegolite</title>
<path fill="none" stroke="blue" stroke-dasharray="5,2" d="M1124.59,-992.83C1118.07,-972.55 1108.6,-937.78 1108.6,-907.05 1108.6,-907.05 1108.6,-907.05 1108.6,-699 1108.6,-679.75 1108.6,-658.05 1108.6,-641.4"/>
<polygon fill="blue" stroke="blue" points="1112.1,-641.26 1108.6,-631.26 1105.1,-641.26 1112.1,-641.26"/>
<text text-anchor="middle" x="1140.6" y="-783.3" font-family="Times,serif" font-size="14.00" fill="blue">Fonderie</text>
</g>
<!-- Helium3 -->
<g id="node32" class="node">
<title>Helium3</title>
<ellipse fill="lightgrey" stroke="black" cx="1186.6" cy="-906.05" rx="50.09" ry="50.09"/>
<polyline fill="none" stroke="black" points="1219.7,-943.58 1153.5,-943.58 "/>
<polyline fill="none" stroke="black" points="1219.7,-868.51 1153.5,-868.51 "/>
<text text-anchor="middle" x="1186.6" y="-902.35" font-family="Times,serif" font-size="14.00">Helium3</text>
</g>
<!-- PoussiereRegolite&#45;&gt;Helium3 -->
<g id="edge12" class="edge">
<title>PoussiereRegolite&#45;&gt;Helium3</title>
<path fill="none" stroke="black" d="M1139.85,-993.08C1144.95,-983.69 1151.58,-971.48 1158.24,-959.22"/>
<polygon fill="black" stroke="black" points="1161.38,-960.78 1163.08,-950.33 1155.23,-957.44 1161.38,-960.78"/>
</g>
<!-- Eau -->
<g id="node36" class="node">
<title>Eau</title>
<ellipse fill="none" stroke="black" cx="378.6" cy="-906.05" rx="28.7" ry="18"/>
<text text-anchor="middle" x="378.6" y="-902.35" font-family="Times,serif" font-size="14.00">Eau</text>
</g>
<!-- MineraiGlace&#45;&gt;Eau -->
<g id="edge21" class="edge">
<title>MineraiGlace&#45;&gt;Eau</title>
<path fill="none" stroke="black" d="M378.6,-993.08C378.6,-977.11 378.6,-952.98 378.6,-934.33"/>
<polygon fill="black" stroke="black" points="382.1,-934.09 378.6,-924.09 375.1,-934.09 382.1,-934.09"/>
</g>
<!-- LingotTitane -->
<g id="node24" class="node">
<title>LingotTitane</title>
<polygon fill="lightgrey" stroke="black" points="1846.6,-631 1734.6,-631 1734.6,-595 1846.6,-595 1846.6,-631"/>
<text text-anchor="middle" x="1790.6" y="-609.3" font-family="Times,serif" font-size="14.00">Lingot Titane</text>
</g>
<!-- MineraiTitane&#45;&gt;LingotTitane -->
<g id="edge13" class="edge">
<title>MineraiTitane&#45;&gt;LingotTitane</title>
<path fill="none" stroke="blue" stroke-dasharray="5,2" d="M1790.6,-992.95C1790.6,-972.5 1790.6,-937.28 1790.6,-907.05 1790.6,-907.05 1790.6,-907.05 1790.6,-699 1790.6,-679.75 1790.6,-658.05 1790.6,-641.4"/>
<polygon fill="blue" stroke="blue" points="1794.1,-641.26 1790.6,-631.26 1787.1,-641.26 1794.1,-641.26"/>
<text text-anchor="middle" x="1822.6" y="-783.3" font-family="Times,serif" font-size="14.00" fill="blue">Fonderie</text>
</g>
<!-- LingotSilicium -->
<g id="node25" class="node">
<title>LingotSilicium</title>
<polygon fill="lightgrey" stroke="black" points="1450.1,-631 1325.1,-631 1325.1,-595 1450.1,-595 1450.1,-631"/>
<text text-anchor="middle" x="1387.6" y="-609.3" font-family="Times,serif" font-size="14.00">Lingot Silicium</text>
</g>
<!-- MineraiSilicium&#45;&gt;LingotSilicium -->
<g id="edge14" class="edge">
<title>MineraiSilicium&#45;&gt;LingotSilicium</title>
<path fill="none" stroke="blue" stroke-dasharray="5,2" d="M1382.6,-992.95C1382.6,-972.5 1382.6,-937.28 1382.6,-907.05 1382.6,-907.05 1382.6,-907.05 1382.6,-699 1382.6,-679.72 1383.9,-658.02 1385.17,-641.37"/>
<polygon fill="blue" stroke="blue" points="1388.67,-641.49 1385.99,-631.24 1381.7,-640.92 1388.67,-641.49"/>
<text text-anchor="middle" x="1414.6" y="-783.3" font-family="Times,serif" font-size="14.00" fill="blue">Fonderie</text>
</g>
<!-- LingotFer -->
<g id="node26" class="node">
<title>LingotFer</title>
<polygon fill="lightgrey" stroke="black" points="119.1,-631 28.1,-631 28.1,-595 119.1,-595 119.1,-631"/>
<text text-anchor="middle" x="73.6" y="-609.3" font-family="Times,serif" font-size="14.00">Lingot Fer</text>
</g>
<!-- MineraiFer&#45;&gt;LingotFer -->
<g id="edge15" class="edge">
<title>MineraiFer&#45;&gt;LingotFer</title>
<path fill="none" stroke="blue" stroke-dasharray="5,2" d="M73.6,-992.95C73.6,-972.5 73.6,-937.28 73.6,-907.05 73.6,-907.05 73.6,-907.05 73.6,-699 73.6,-679.75 73.6,-658.05 73.6,-641.4"/>
<polygon fill="blue" stroke="blue" points="77.1,-641.26 73.6,-631.26 70.1,-641.26 77.1,-641.26"/>
<text text-anchor="middle" x="105.6" y="-783.3" font-family="Times,serif" font-size="14.00" fill="blue">Fonderie</text>
</g>
<!-- LingotOr -->
<g id="node27" class="node">
<title>LingotOr</title>
<polygon fill="lightgrey" stroke="black" points="1599.1,-631 1514.1,-631 1514.1,-595 1599.1,-595 1599.1,-631"/>
<text text-anchor="middle" x="1556.6" y="-609.3" font-family="Times,serif" font-size="14.00">Lingot Or</text>
</g>
<!-- MineraiOr&#45;&gt;LingotOr -->
<g id="edge16" class="edge">
<title>MineraiOr&#45;&gt;LingotOr</title>
<path fill="none" stroke="blue" stroke-dasharray="5,2" d="M1558.8,-992.96C1557.91,-972.51 1556.6,-937.29 1556.6,-907.05 1556.6,-907.05 1556.6,-907.05 1556.6,-699 1556.6,-679.75 1556.6,-658.05 1556.6,-641.4"/>
<polygon fill="blue" stroke="blue" points="1560.1,-641.26 1556.6,-631.26 1553.1,-641.26 1560.1,-641.26"/>
<text text-anchor="middle" x="1588.6" y="-783.3" font-family="Times,serif" font-size="14.00" fill="blue">Fonderie</text>
</g>
<!-- LingotAluminium -->
<g id="node28" class="node">
<title>LingotAluminium</title>
<polygon fill="lightgrey" stroke="black" points="901.6,-631 757.6,-631 757.6,-595 901.6,-595 901.6,-631"/>
<text text-anchor="middle" x="829.6" y="-609.3" font-family="Times,serif" font-size="14.00">Lingot Aluminium</text>
</g>
<!-- MineraiAluminium&#45;&gt;LingotAluminium -->
<g id="edge17" class="edge">
<title>MineraiAluminium&#45;&gt;LingotAluminium</title>
<path fill="none" stroke="blue" stroke-dasharray="5,2" d="M829.6,-992.95C829.6,-972.5 829.6,-937.28 829.6,-907.05 829.6,-907.05 829.6,-907.05 829.6,-699 829.6,-679.75 829.6,-658.05 829.6,-641.4"/>
<polygon fill="blue" stroke="blue" points="833.1,-641.26 829.6,-631.26 826.1,-641.26 833.1,-641.26"/>
<text text-anchor="middle" x="861.6" y="-783.3" font-family="Times,serif" font-size="14.00" fill="blue">Fonderie</text>
</g>
<!-- LingotMagnesium -->
<g id="node29" class="node">
<title>LingotMagnesium</title>
<polygon fill="lightgrey" stroke="black" points="2078.6,-631 1928.6,-631 1928.6,-595 2078.6,-595 2078.6,-631"/>
<text text-anchor="middle" x="2003.6" y="-609.3" font-family="Times,serif" font-size="14.00">Lingot Magnesium</text>
</g>
<!-- MineraiMagnesium&#45;&gt;LingotMagnesium -->
<g id="edge18" class="edge">
<title>MineraiMagnesium&#45;&gt;LingotMagnesium</title>
<path fill="none" stroke="blue" stroke-dasharray="5,2" d="M2003.6,-992.95C2003.6,-972.5 2003.6,-937.28 2003.6,-907.05 2003.6,-907.05 2003.6,-907.05 2003.6,-699 2003.6,-679.75 2003.6,-658.05 2003.6,-641.4"/>
<polygon fill="blue" stroke="blue" points="2007.1,-641.26 2003.6,-631.26 2000.1,-641.26 2007.1,-641.26"/>
<text text-anchor="middle" x="2035.6" y="-783.3" font-family="Times,serif" font-size="14.00" fill="blue">Fonderie</text>
</g>
<!-- LingotCalcium -->
<g id="node30" class="node">
<title>LingotCalcium</title>
<polygon fill="lightgrey" stroke="black" points="2287.1,-631 2162.1,-631 2162.1,-595 2287.1,-595 2287.1,-631"/>
<text text-anchor="middle" x="2224.6" y="-609.3" font-family="Times,serif" font-size="14.00">Lingot Calcium</text>
</g>
<!-- MineraiCalcium&#45;&gt;LingotCalcium -->
<g id="edge19" class="edge">
<title>MineraiCalcium&#45;&gt;LingotCalcium</title>
<path fill="none" stroke="blue" stroke-dasharray="5,2" d="M2224.6,-992.95C2224.6,-972.5 2224.6,-937.28 2224.6,-907.05 2224.6,-907.05 2224.6,-907.05 2224.6,-699 2224.6,-679.75 2224.6,-658.05 2224.6,-641.4"/>
<polygon fill="blue" stroke="blue" points="2228.1,-641.26 2224.6,-631.26 2221.1,-641.26 2228.1,-641.26"/>
<text text-anchor="middle" x="2256.6" y="-783.3" font-family="Times,serif" font-size="14.00" fill="blue">Fonderie</text>
</g>
<!-- LingotSoduim -->
<g id="node31" class="node">
<title>LingotSoduim</title>
<polygon fill="lightgrey" stroke="black" points="2486.1,-631 2365.1,-631 2365.1,-595 2486.1,-595 2486.1,-631"/>
<text text-anchor="middle" x="2425.6" y="-609.3" font-family="Times,serif" font-size="14.00">Lingot Soduim</text>
</g>
<!-- MineraiSoduim&#45;&gt;LingotSoduim -->
<g id="edge20" class="edge">
<title>MineraiSoduim&#45;&gt;LingotSoduim</title>
<path fill="none" stroke="blue" stroke-dasharray="5,2" d="M2425.6,-992.95C2425.6,-972.5 2425.6,-937.28 2425.6,-907.05 2425.6,-907.05 2425.6,-907.05 2425.6,-699 2425.6,-679.75 2425.6,-658.05 2425.6,-641.4"/>
<polygon fill="blue" stroke="blue" points="2429.1,-641.26 2425.6,-631.26 2422.1,-641.26 2429.1,-641.26"/>
<text text-anchor="middle" x="2457.6" y="-783.3" font-family="Times,serif" font-size="14.00" fill="blue">Fonderie</text>
</g>
<!-- MateriauxConstruction -->
<g id="node33" class="node">
<title>MateriauxConstruction</title>
<polygon fill="lightgrey" stroke="black" points="1202.1,-544 1015.1,-544 1015.1,-508 1202.1,-508 1202.1,-544"/>
<text text-anchor="middle" x="1108.6" y="-522.3" font-family="Times,serif" font-size="14.00">Materiaux Construction</text>
</g>
<!-- LingotRegolite&#45;&gt;MateriauxConstruction -->
<g id="edge42" class="edge">
<title>LingotRegolite&#45;&gt;MateriauxConstruction</title>
<path fill="none" stroke="green" d="M1108.6,-594.8C1108.6,-583.16 1108.6,-567.55 1108.6,-554.24"/>
<polygon fill="green" stroke="green" points="1112.1,-554.18 1108.6,-544.18 1105.1,-554.18 1112.1,-554.18"/>
<text text-anchor="middle" x="1140.6" y="-565.8" font-family="Times,serif" font-size="14.00" fill="green">Fabrique</text>
</g>
<!-- SatelliteRobuste1 -->
<g id="node45" class="node">
<title>SatelliteRobuste1</title>
<polygon fill="lightgrey" stroke="black" points="1858.24,-404.54 1858.24,-419.46 1796.94,-430 1710.26,-430 1648.96,-419.46 1648.96,-404.54 1710.26,-394 1796.94,-394 1858.24,-404.54"/>
<text text-anchor="middle" x="1753.6" y="-408.3" font-family="Times,serif" font-size="14.00">Satellite Robuste1</text>
</g>
<!-- LingotTitane&#45;&gt;SatelliteRobuste1 -->
<g id="edge55" class="edge">
<title>LingotTitane&#45;&gt;SatelliteRobuste1</title>
<path fill="none" stroke="orange" d="M1786.27,-594.9C1782.65,-568.82 1775.21,-518.04 1766.64,-475.39 1764.32,-463.86 1761.32,-451.14 1758.63,-440.28"/>
<path fill="none" stroke="yellow" d="M1788.25,-594.62C1784.63,-568.53 1777.19,-517.75 1768.6,-475 1766.27,-463.4 1763.27,-450.68 1760.57,-439.8"/>
<path fill="none" stroke="orange" d="M1790.23,-594.35C1786.61,-568.24 1779.17,-517.46 1770.56,-474.61 1768.21,-462.94 1765.22,-450.22 1762.51,-439.32"/>
<polygon fill="orange" stroke="orange" points="1763.94,-438.86 1758.1,-430.03 1757.15,-440.58 1763.94,-438.86"/>
<text text-anchor="middle" x="1806.1" y="-522.3" font-family="Times,serif" font-size="14.00" fill="orange">Atelier</text>
</g>
<!-- VaisseauRobuste1 -->
<g id="node47" class="node">
<title>VaisseauRobuste1</title>
<polygon fill="lightgrey" stroke="black" points="1313.05,-404.54 1313.05,-419.46 1250.69,-430 1162.5,-430 1100.14,-419.46 1100.14,-404.54 1162.5,-394 1250.69,-394 1313.05,-404.54"/>
<text text-anchor="middle" x="1206.6" y="-408.3" font-family="Times,serif" font-size="14.00">Vaisseau Robuste1</text>
</g>
<!-- LingotTitane&#45;&gt;VaisseauRobuste1 -->
<g id="edge71" class="edge">
<title>LingotTitane&#45;&gt;VaisseauRobuste1</title>
<path fill="none" stroke="red" d="M1755.99,-596.77C1686.84,-561.94 1533.22,-485.11 1507.98,-476.9 1466.37,-462.87 1453.6,-467.68 1408.21,-458.96 1364.87,-450.34 1316.55,-439.85 1278.01,-431.27"/>
<path fill="none" stroke="orange" d="M1756.89,-594.98C1687.73,-560.15 1534.12,-483.32 1508.6,-475 1465.66,-461 1452.89,-465.81 1408.6,-457 1365.3,-448.39 1316.97,-437.9 1278.45,-429.32"/>
<path fill="none" stroke="red" d="M1757.79,-593.19C1688.63,-558.36 1535.01,-481.53 1509.22,-473.1 1464.96,-459.13 1452.19,-463.94 1408.99,-455.04 1365.72,-446.44 1317.4,-435.94 1278.88,-427.36"/>
<polygon fill="red" stroke="red" points="1278.89,-425.83 1268.36,-427.06 1277.36,-432.66 1278.89,-425.83"/>
<text text-anchor="middle" x="1711.1" y="-522.3" font-family="Times,serif" font-size="14.00" fill="red">Chantier spatial</text>
</g>
<!-- PuceLuxe -->
<g id="node56" class="node">
<title>PuceLuxe</title>
<polygon fill="lightgrey" stroke="black" points="2051.6,-457 1961.6,-457 1961.6,-367 2051.6,-367 2051.6,-457"/>
<polyline fill="none" stroke="black" points="1973.6,-457 1961.6,-445 "/>
<polyline fill="none" stroke="black" points="1961.6,-379 1973.6,-367 "/>
<polyline fill="none" stroke="black" points="2039.6,-367 2051.6,-379 "/>
<polyline fill="none" stroke="black" points="2051.6,-445 2039.6,-457 "/>
<text text-anchor="middle" x="2006.6" y="-408.3" font-family="Times,serif" font-size="14.00">Puce Luxe</text>
</g>
<!-- LingotTitane&#45;&gt;PuceLuxe -->
<g id="edge45" class="edge">
<title>LingotTitane&#45;&gt;PuceLuxe</title>
<path fill="none" stroke="green" d="M1846.73,-610.18C1893.54,-605.27 1957.32,-589.91 1987.6,-544 2002.34,-521.66 2007.6,-492.54 2008.95,-467.42"/>
<polygon fill="green" stroke="green" points="2012.46,-467.42 2009.31,-457.3 2005.46,-467.17 2012.46,-467.42"/>
<text text-anchor="middle" x="2034.6" y="-522.3" font-family="Times,serif" font-size="14.00" fill="green">Fabrique</text>
</g>
<!-- Puce -->
<g id="node43" class="node">
<title>Puce</title>
<polygon fill="lightgrey" stroke="black" points="1437.65,-526 1418.63,-544 1380.57,-544 1361.55,-526 1380.57,-508 1418.63,-508 1437.65,-526"/>
<text text-anchor="middle" x="1399.6" y="-522.3" font-family="Times,serif" font-size="14.00">Puce</text>
</g>
<!-- LingotSilicium&#45;&gt;Puce -->
<g id="edge43" class="edge">
<title>LingotSilicium&#45;&gt;Puce</title>
<path fill="none" stroke="green" d="M1390.03,-594.8C1391.67,-583.16 1393.88,-567.55 1395.75,-554.24"/>
<polygon fill="green" stroke="green" points="1399.24,-554.57 1397.17,-544.18 1392.31,-553.59 1399.24,-554.57"/>
<text text-anchor="middle" x="1426.6" y="-565.8" font-family="Times,serif" font-size="14.00" fill="green">Fabrique</text>
</g>
<!-- SatelliteFragile1 -->
<g id="node44" class="node">
<title>SatelliteFragile1</title>
<polygon fill="lightgrey" stroke="black" points="952.98,-404.54 952.98,-419.46 894.77,-430 812.43,-430 754.21,-419.46 754.21,-404.54 812.43,-394 894.77,-394 952.98,-404.54"/>
<text text-anchor="middle" x="853.6" y="-408.3" font-family="Times,serif" font-size="14.00">Satellite Fragile1</text>
</g>
<!-- LingotFer&#45;&gt;SatelliteFragile1 -->
<g id="edge48" class="edge">
<title>LingotFer&#45;&gt;SatelliteFragile1</title>
<path fill="none" stroke="orange" d="M106.48,-593.15C132.49,-579.79 169.22,-560.48 200.6,-542.27 225.61,-528.34 228.85,-518.44 257.86,-506.14 298.58,-491.06 312.61,-502.44 349.93,-488.12 361.93,-484.92 363.03,-478.46 378.06,-473.07 526.69,-432.74 572.5,-483.82 720.23,-455.03 747.63,-449.89 777.44,-440.41 801.75,-431.6"/>
<path fill="none" stroke="yellow" d="M107.4,-594.92C133.42,-581.56 170.15,-562.25 201.6,-544 227.51,-528.96 230.75,-519.07 258.6,-508 297.32,-492.61 311.36,-503.99 350.6,-490 363.9,-485.26 365,-478.8 378.6,-475 525.21,-434.08 571.02,-485.15 720.6,-457 748.24,-451.8 778.05,-442.32 802.43,-433.48"/>
<path fill="none" stroke="orange" d="M108.31,-596.7C134.35,-583.33 171.08,-564.02 202.6,-545.73 229.42,-529.58 232.66,-519.69 259.34,-509.86 296.06,-494.17 310.1,-505.55 351.27,-491.88 365.87,-485.6 366.97,-479.13 379.14,-476.93 523.72,-435.41 569.53,-486.49 720.97,-458.97 748.85,-453.7 778.66,-444.22 803.11,-435.36"/>
<polygon fill="orange" stroke="orange" points="803.66,-436.76 811.83,-430.01 801.24,-430.19 803.66,-436.76"/>
<text text-anchor="middle" x="283.1" y="-522.3" font-family="Times,serif" font-size="14.00" fill="orange">Atelier</text>
</g>
<!-- VaisseauFragile1 -->
<g id="node46" class="node">
<title>VaisseauFragile1</title>
<polygon fill="lightgrey" stroke="black" points="201.3,-404.54 201.3,-419.46 142.31,-430 58.89,-430 -0.1,-419.46 -0.1,-404.54 58.89,-394 142.31,-394 201.3,-404.54"/>
<text text-anchor="middle" x="100.6" y="-408.3" font-family="Times,serif" font-size="14.00">Vaisseau Fragile1</text>
</g>
<!-- LingotFer&#45;&gt;VaisseauFragile1 -->
<g id="edge63" class="edge">
<title>LingotFer&#45;&gt;VaisseauFragile1</title>
<path fill="none" stroke="red" d="M72.54,-594.49C74.11,-568.36 77.79,-517.56 84.62,-474.68 86.49,-463.02 89.21,-450.39 91.77,-439.53"/>
<path fill="none" stroke="orange" d="M74.54,-594.61C76.11,-568.51 79.78,-517.7 86.6,-475 88.45,-463.44 91.17,-450.81 93.72,-439.99"/>
<path fill="none" stroke="red" d="M76.53,-594.73C78.1,-568.65 81.78,-517.85 88.57,-475.32 90.4,-463.86 93.12,-451.23 95.67,-440.45"/>
<polygon fill="red" stroke="red" points="97.12,-440.8 96.08,-430.26 90.32,-439.15 97.12,-440.8"/>
<text text-anchor="middle" x="140.1" y="-522.3" font-family="Times,serif" font-size="14.00" fill="red">Chantier spatial</text>
</g>
<!-- SatelliteFragile3 -->
<g id="node52" class="node">
<title>SatelliteFragile3</title>
<polygon fill="lightgrey" stroke="black" points="985.97,-187.54 985.97,-202.46 927.76,-213 845.44,-213 787.23,-202.46 787.23,-187.54 845.44,-177 927.76,-177 985.97,-187.54"/>
<polygon fill="none" stroke="black" points="989.98,-184.2 989.98,-205.8 928.12,-217 845.08,-217 783.22,-205.8 783.22,-184.2 845.08,-173 928.12,-173 989.98,-184.2"/>
<polygon fill="none" stroke="black" points="993.98,-180.87 993.98,-209.13 928.48,-221 844.72,-221 779.21,-209.13 779.21,-180.87 844.72,-169 928.48,-169 993.98,-180.87"/>
<text text-anchor="middle" x="886.6" y="-191.3" font-family="Times,serif" font-size="14.00">Satellite Fragile3</text>
</g>
<!-- LingotOr&#45;&gt;SatelliteFragile3 -->
<g id="edge53" class="edge">
<title>LingotOr&#45;&gt;SatelliteFragile3</title>
<path fill="none" stroke="orange" d="M1553.5,-594.75C1550.72,-565.86 1540.92,-507.66 1507.23,-476.46 1488.87,-456.39 1467.28,-479.32 1444.16,-458.39 1374.95,-383.69 1466.2,-302.3 1390.3,-240.52 1362.69,-216.41 1144.16,-205.44 1004.21,-200.9"/>
<path fill="none" stroke="yellow" d="M1555.49,-594.55C1552.7,-565.53 1542.89,-507.33 1508.6,-475 1487.41,-455.02 1465.82,-477.95 1445.6,-457 1376.28,-385.18 1467.53,-303.8 1391.6,-239 1362.79,-214.41 1144.26,-203.45 1004.27,-198.9"/>
<path fill="none" stroke="orange" d="M1557.48,-594.36C1554.67,-565.2 1544.86,-507 1509.97,-473.54 1485.96,-453.65 1464.37,-476.58 1447.04,-455.61 1377.61,-386.67 1468.86,-305.29 1392.9,-237.48 1362.89,-212.41 1144.36,-201.45 1004.34,-196.9"/>
<polygon fill="orange" stroke="orange" points="1004.02,-195.39 993.91,-198.57 1003.8,-202.39 1004.02,-195.39"/>
<text text-anchor="middle" x="1470.1" y="-408.3" font-family="Times,serif" font-size="14.00" fill="orange">Atelier</text>
</g>
<!-- SatelliteRobuste3 -->
<g id="node53" class="node">
<title>SatelliteRobuste3</title>
<polygon fill="lightgrey" stroke="black" points="1894.25,-187.54 1894.25,-202.46 1832.95,-213 1746.25,-213 1684.95,-202.46 1684.95,-187.54 1746.25,-177 1832.95,-177 1894.25,-187.54"/>
<polygon fill="none" stroke="black" points="1898.25,-184.17 1898.25,-205.83 1833.29,-217 1745.91,-217 1680.95,-205.83 1680.95,-184.17 1745.91,-173 1833.29,-173 1898.25,-184.17"/>
<polygon fill="none" stroke="black" points="1902.24,-180.8 1902.24,-209.2 1833.63,-221 1745.57,-221 1676.96,-209.2 1676.96,-180.8 1745.57,-169 1833.63,-169 1902.24,-180.8"/>
<text text-anchor="middle" x="1789.6" y="-191.3" font-family="Times,serif" font-size="14.00">Satellite Robuste3</text>
</g>
<!-- LingotOr&#45;&gt;SatelliteRobuste3 -->
<g id="edge60" class="edge">
<title>LingotOr&#45;&gt;SatelliteRobuste3</title>
<path fill="none" stroke="orange" d="M1598.69,-598C1635.06,-586.66 1688.08,-567.57 1729.56,-542.29 1749.33,-531.65 1747.7,-518.62 1770.74,-506.19 1817.53,-485.73 1850.39,-526.18 1879.07,-488.71 1910.5,-453.2 1862.31,-317.28 1841.78,-272.84 1835.03,-258.15 1825.09,-243.09 1815.67,-230.45"/>
<path fill="none" stroke="yellow" d="M1599.29,-599.91C1635.74,-588.54 1688.76,-569.45 1730.6,-544 1751.32,-531.4 1749.68,-518.38 1771.6,-508 1815.98,-486.99 1848.83,-527.44 1880.6,-490 1912.39,-452.53 1864.2,-316.61 1843.6,-272 1836.7,-257.05 1826.75,-241.98 1817.28,-229.25"/>
<path fill="none" stroke="orange" d="M1599.88,-601.82C1636.42,-590.42 1689.44,-571.34 1731.64,-545.71 1753.3,-531.15 1751.67,-518.13 1772.46,-509.81 1814.43,-488.25 1847.28,-528.7 1882.12,-491.29 1914.27,-451.86 1866.08,-315.94 1845.42,-271.16 1838.37,-255.95 1828.42,-240.88 1818.88,-228.06"/>
<polygon fill="orange" stroke="orange" points="1820.01,-227.06 1811.15,-221.25 1814.45,-231.32 1820.01,-227.06"/>
<text text-anchor="middle" x="1916.1" y="-408.3" font-family="Times,serif" font-size="14.00" fill="orange">Atelier</text>
</g>
<!-- VaisseauFragile3 -->
<g id="node54" class="node">
<title>VaisseauFragile3</title>
<polygon fill="lightgrey" stroke="black" points="303.29,-187.54 303.29,-202.46 244.31,-213 160.89,-213 101.91,-202.46 101.91,-187.54 160.89,-177 244.31,-177 303.29,-187.54"/>
<polygon fill="none" stroke="black" points="307.29,-184.2 307.29,-205.8 244.66,-217 160.54,-217 97.9,-205.8 97.9,-184.2 160.54,-173 244.66,-173 307.29,-184.2"/>
<polygon fill="none" stroke="black" points="311.3,-180.85 311.3,-209.15 245.02,-221 160.18,-221 93.9,-209.15 93.9,-180.85 160.18,-169 245.02,-169 311.3,-180.85"/>
<text text-anchor="middle" x="202.6" y="-191.3" font-family="Times,serif" font-size="14.00">Vaisseau Fragile3</text>
</g>
<!-- LingotOr&#45;&gt;VaisseauFragile3 -->
<g id="edge68" class="edge">
<title>LingotOr&#45;&gt;VaisseauFragile3</title>
<path fill="none" stroke="red" d="M1513.47,-605.39C1496.4,-602.27 1476.47,-599.01 1458.38,-596.99 1302.99,-579.27 1261.4,-601.71 1104.31,-578.98 944.48,-555.44 902.18,-549.92 750.88,-491.87 736.5,-485.5 734.98,-480.29 722.93,-476.88 685.22,-462.43 670.8,-474.6 629.84,-458.85 468.21,-391.04 457.58,-321.31 305.65,-240.76 294.61,-234.84 282.46,-229.14 270.57,-223.98"/>
<path fill="none" stroke="orange" d="M1513.83,-603.42C1496.72,-600.3 1476.79,-597.03 1458.6,-595 1302.04,-577.51 1260.45,-599.95 1104.6,-577 944.74,-553.46 902.44,-547.94 751.6,-490 738.42,-484.94 736.9,-479.73 723.6,-475 683.93,-460.9 669.51,-473.07 630.6,-457 470.19,-390.74 459.56,-321.01 306.6,-239 295.46,-233.03 283.31,-227.33 271.36,-222.14"/>
<path fill="none" stroke="red" d="M1514.19,-601.46C1497.04,-598.32 1477.11,-595.06 1458.82,-593.01 1301.09,-575.75 1259.5,-598.19 1104.89,-575.02 945,-551.47 902.7,-545.95 752.32,-488.13 740.34,-484.38 738.82,-479.17 724.27,-473.12 682.64,-459.37 668.22,-471.54 631.36,-455.15 472.16,-390.44 461.54,-320.71 307.54,-237.24 296.31,-231.22 284.15,-225.51 272.16,-220.31"/>
<polygon fill="red" stroke="red" points="272.43,-218.79 261.86,-218.1 269.69,-225.23 272.43,-218.79"/>
<text text-anchor="middle" x="688.1" y="-408.3" font-family="Times,serif" font-size="14.00" fill="red">Chantier spatial</text>
</g>
<!-- VaisseauRobuste3 -->
<g id="node55" class="node">
<title>VaisseauRobuste3</title>
<polygon fill="lightgrey" stroke="black" points="1600.04,-187.54 1600.04,-202.46 1537.69,-213 1449.51,-213 1387.16,-202.46 1387.16,-187.54 1449.51,-177 1537.69,-177 1600.04,-187.54"/>
<polygon fill="none" stroke="black" points="1604.05,-184.16 1604.05,-205.84 1538.03,-217 1449.17,-217 1383.15,-205.84 1383.15,-184.16 1449.17,-173 1538.03,-173 1604.05,-184.16"/>
<polygon fill="none" stroke="black" points="1608.05,-180.79 1608.05,-209.21 1538.36,-221 1448.84,-221 1379.14,-209.21 1379.14,-180.79 1448.84,-169 1538.36,-169 1608.05,-180.79"/>
<text text-anchor="middle" x="1493.6" y="-191.3" font-family="Times,serif" font-size="14.00">Vaisseau Robuste3</text>
</g>
<!-- LingotOr&#45;&gt;VaisseauRobuste3 -->
<g id="edge76" class="edge">
<title>LingotOr&#45;&gt;VaisseauRobuste3</title>
<path fill="none" stroke="red" d="M1556.12,-594.51C1557.74,-567.67 1557.97,-514.74 1539.78,-475.84 1537.47,-466.95 1529.75,-468.91 1522.79,-457.85 1487.69,-382.39 1486.6,-283.2 1489,-231.1"/>
<path fill="none" stroke="orange" d="M1558.12,-594.63C1559.74,-567.67 1559.97,-514.75 1541.6,-475 1536.98,-465.01 1529.26,-466.97 1524.6,-457 1489.69,-382.37 1488.6,-283.18 1490.99,-231.19"/>
<path fill="none" stroke="red" d="M1560.11,-594.75C1561.74,-567.68 1561.97,-514.75 1543.41,-474.16 1536.49,-463.07 1528.77,-465.03 1526.41,-456.15 1491.69,-382.35 1490.6,-283.15 1492.99,-231.29"/>
<polygon fill="red" stroke="red" points="1494.49,-231.32 1491.53,-221.15 1487.5,-230.95 1494.49,-231.32"/>
<text text-anchor="middle" x="1582.1" y="-408.3" font-family="Times,serif" font-size="14.00" fill="red">Chantier spatial</text>
</g>
<!-- LingotOr&#45;&gt;PuceLuxe -->
<g id="edge46" class="edge">
<title>LingotOr&#45;&gt;PuceLuxe</title>
<path fill="none" stroke="green" d="M1599.39,-607.06C1655.6,-599.36 1756.34,-581.33 1834.6,-544 1870.38,-526.93 1874.06,-514.02 1905.6,-490 1920.99,-478.28 1937.7,-465.55 1953.01,-453.87"/>
<polygon fill="green" stroke="green" points="1955.53,-456.35 1961.36,-447.51 1951.28,-450.79 1955.53,-456.35"/>
<text text-anchor="middle" x="1916.6" y="-522.3" font-family="Times,serif" font-size="14.00" fill="green">Fabrique</text>
</g>
<!-- SatelliteFragile2 -->
<g id="node48" class="node">
<title>SatelliteFragile2</title>
<polygon fill="lightgrey" stroke="black" points="952.98,-286.54 952.98,-301.46 894.76,-312 812.44,-312 754.22,-301.46 754.22,-286.54 812.44,-276 894.76,-276 952.98,-286.54"/>
<polygon fill="none" stroke="black" points="956.98,-283.2 956.98,-304.8 895.12,-316 812.08,-316 750.21,-304.8 750.21,-283.2 812.08,-272 895.12,-272 956.98,-283.2"/>
<text text-anchor="middle" x="853.6" y="-290.3" font-family="Times,serif" font-size="14.00">Satellite Fragile2</text>
</g>
<!-- LingotAluminium&#45;&gt;SatelliteFragile2 -->
<g id="edge51" class="edge">
<title>LingotAluminium&#45;&gt;SatelliteFragile2</title>
<path fill="none" stroke="orange" d="M757.39,-611.12C662.85,-603.42 511.67,-575.78 530.64,-474.59 541.29,-424.05 537.88,-401.37 578.3,-365.48 623.42,-327.04 685.65,-308.8 739.84,-300.12"/>
<path fill="none" stroke="yellow" d="M757.55,-609.12C663.21,-601.46 512.03,-573.82 532.6,-475 543.27,-423.75 539.85,-401.07 579.6,-367 623.98,-328.96 686.21,-310.72 740.15,-302.1"/>
<path fill="none" stroke="orange" d="M757.71,-607.13C663.57,-599.49 512.39,-571.85 534.56,-475.41 545.25,-423.45 541.83,-400.77 580.9,-368.52 624.54,-330.88 686.78,-312.64 740.47,-304.07"/>
<polygon fill="orange" stroke="orange" points="740.75,-305.54 750.12,-300.59 739.71,-298.62 740.75,-305.54"/>
<text text-anchor="middle" x="557.1" y="-478.8" font-family="Times,serif" font-size="14.00" fill="orange">Atelier</text>
</g>
<!-- SatelliteRobuste2 -->
<g id="node49" class="node">
<title>SatelliteRobuste2</title>
<polygon fill="lightgrey" stroke="black" points="1830.25,-286.54 1830.25,-301.46 1768.95,-312 1682.25,-312 1620.95,-301.46 1620.95,-286.54 1682.25,-276 1768.95,-276 1830.25,-286.54"/>
<polygon fill="none" stroke="black" points="1834.24,-283.17 1834.24,-304.83 1769.29,-316 1681.91,-316 1616.96,-304.83 1616.96,-283.17 1681.91,-272 1769.29,-272 1834.24,-283.17"/>
<text text-anchor="middle" x="1725.6" y="-290.3" font-family="Times,serif" font-size="14.00">Satellite Robuste2</text>
</g>
<!-- LingotAluminium&#45;&gt;SatelliteRobuste2 -->
<g id="edge58" class="edge">
<title>LingotAluminium&#45;&gt;SatelliteRobuste2</title>
<path fill="none" stroke="orange" d="M901.68,-603.67C999.59,-594.93 1163.74,-579.75 1175.9,-575.13 1237.56,-552.57 1247.98,-533.72 1298.26,-488.51 1352.05,-441.69 1343.79,-404.64 1407.58,-365.28 1468.07,-329.58 1543.87,-311.57 1606.5,-302.41"/>
<path fill="none" stroke="yellow" d="M901.86,-605.66C999.78,-596.93 1163.93,-581.74 1176.6,-577 1239.31,-553.53 1249.73,-534.69 1299.6,-490 1354,-441.25 1345.74,-404.21 1408.6,-367 1468.53,-331.52 1544.34,-313.52 1606.79,-304.39"/>
<path fill="none" stroke="orange" d="M902.04,-607.65C999.96,-598.92 1164.11,-583.73 1177.3,-578.87 1241.06,-554.5 1251.48,-535.65 1300.93,-491.49 1355.95,-440.82 1347.7,-403.77 1409.62,-368.72 1468.99,-333.47 1544.8,-315.46 1607.08,-306.36"/>
<polygon fill="orange" stroke="orange" points="1607.28,-307.85 1616.7,-302.99 1606.31,-300.92 1607.28,-307.85"/>
<text text-anchor="middle" x="1339.1" y="-478.8" font-family="Times,serif" font-size="14.00" fill="orange">Atelier</text>
</g>
<!-- VaisseauFragile2 -->
<g id="node50" class="node">
<title>VaisseauFragile2</title>
<polygon fill="lightgrey" stroke="black" points="270.29,-286.54 270.29,-301.46 211.31,-312 127.89,-312 68.9,-301.46 68.9,-286.54 127.89,-276 211.31,-276 270.29,-286.54"/>
<polygon fill="none" stroke="black" points="274.3,-283.2 274.3,-304.8 211.66,-316 127.53,-316 64.9,-304.8 64.9,-283.2 127.53,-272 211.66,-272 274.3,-283.2"/>
<text text-anchor="middle" x="169.6" y="-290.3" font-family="Times,serif" font-size="14.00">Vaisseau Fragile2</text>
</g>
<!-- LingotAluminium&#45;&gt;VaisseauFragile2 -->
<g id="edge66" class="edge">
<title>LingotAluminium&#45;&gt;VaisseauFragile2</title>
<path fill="none" stroke="red" d="M757.42,-609.67C704.98,-605.22 632.79,-596.36 571.06,-578.92 496.75,-557 487.01,-527.96 415.09,-509.93 376.88,-499.66 263.41,-520.69 233.18,-491.41 184.51,-438.87 253.09,-393.3 218.85,-334.97 216.82,-331.25 214.06,-327.58 211.08,-324.34"/>
<path fill="none" stroke="orange" d="M757.59,-607.68C705.22,-603.23 633.04,-594.38 571.6,-577 498.65,-556.37 488.91,-527.33 415.6,-508 376.51,-497.7 263.04,-518.72 234.6,-490 185.61,-440.54 254.2,-394.97 220.6,-334 218.42,-330.05 215.66,-326.37 212.55,-322.98"/>
<path fill="none" stroke="red" d="M757.76,-605.69C705.47,-601.25 633.28,-592.39 572.14,-575.08 500.54,-555.73 490.8,-526.69 416.11,-506.07 376.15,-495.73 262.68,-516.75 236.02,-488.59 186.72,-442.21 255.31,-396.63 222.35,-333.03 220.02,-328.85 217.26,-325.17 214.02,-321.63"/>
<polygon fill="red" stroke="red" points="214.92,-320.41 205.28,-316.03 210.08,-325.47 214.92,-320.41"/>
<text text-anchor="middle" x="292.1" y="-478.8" font-family="Times,serif" font-size="14.00" fill="red">Chantier spatial</text>
</g>
<!-- VaisseauRobuste2 -->
<g id="node51" class="node">
<title>VaisseauRobuste2</title>
<polygon fill="lightgrey" stroke="black" points="1382.05,-286.54 1382.05,-301.46 1319.69,-312 1231.51,-312 1169.15,-301.46 1169.15,-286.54 1231.51,-276 1319.69,-276 1382.05,-286.54"/>
<polygon fill="none" stroke="black" points="1386.05,-283.16 1386.05,-304.84 1320.03,-316 1231.17,-316 1165.14,-304.84 1165.14,-283.16 1231.17,-272 1320.03,-272 1386.05,-283.16"/>
<text text-anchor="middle" x="1275.6" y="-290.3" font-family="Times,serif" font-size="14.00">Vaisseau Robuste2</text>
</g>
<!-- LingotAluminium&#45;&gt;VaisseauRobuste2 -->
<g id="edge74" class="edge">
<title>LingotAluminium&#45;&gt;VaisseauRobuste2</title>
<path fill="none" stroke="red" d="M846.52,-593.31C904.91,-538.32 1083.41,-370.32 1090.45,-365.36 1117.68,-346.47 1126.22,-344.47 1155.83,-332.15 1171.14,-325.81 1187.77,-319.81 1203.7,-314.49"/>
<path fill="none" stroke="orange" d="M847.89,-594.77C906.28,-539.77 1084.78,-371.78 1091.6,-367 1118.14,-348.42 1126.67,-346.41 1156.6,-334 1171.82,-327.69 1188.45,-321.7 1204.33,-316.39"/>
<path fill="none" stroke="red" d="M849.26,-596.22C907.65,-541.23 1086.15,-373.23 1092.75,-368.64 1118.6,-350.36 1127.13,-348.36 1157.37,-335.85 1172.49,-329.57 1189.13,-323.58 1204.96,-318.28"/>
<polygon fill="red" stroke="red" points="1205.69,-319.62 1214.1,-313.17 1203.51,-312.97 1205.69,-319.62"/>
<text text-anchor="middle" x="1030.1" y="-478.8" font-family="Times,serif" font-size="14.00" fill="red">Chantier spatial</text>
</g>
<!-- MateriauxConstruction&#45;&gt;SatelliteFragile1 -->
<g id="edge47" class="edge">
<title>MateriauxConstruction&#45;&gt;SatelliteFragile1</title>
<path fill="none" stroke="orange" d="M1014.63,-517.28C971.93,-511.5 927.09,-503.11 908.54,-491.7 888.55,-479.02 873.76,-457.51 864.16,-440.12"/>
<path fill="none" stroke="yellow" d="M1014.9,-515.3C972.3,-509.53 927.45,-501.15 909.6,-490 890.2,-477.89 875.41,-456.37 865.91,-439.16"/>
<path fill="none" stroke="orange" d="M1015.17,-513.32C972.66,-507.57 927.82,-499.18 910.66,-488.3 891.84,-476.76 877.06,-455.24 867.67,-438.19"/>
<polygon fill="orange" stroke="orange" points="868.92,-437.36 861.19,-430.12 862.72,-440.61 868.92,-437.36"/>
<text text-anchor="middle" x="934.1" y="-478.8" font-family="Times,serif" font-size="14.00" fill="orange">Atelier</text>
</g>
<!-- MateriauxConstruction&#45;&gt;SatelliteRobuste1 -->
<g id="edge54" class="edge">
<title>MateriauxConstruction&#45;&gt;SatelliteRobuste1</title>
<path fill="none" stroke="orange" d="M1202.22,-516.64C1301.54,-509.57 1451.69,-497.85 1508.26,-488.03 1564.87,-478.26 1578.62,-472.55 1634,-455.09 1655.96,-448.18 1679.91,-439.54 1700.49,-431.77"/>
<path fill="none" stroke="yellow" d="M1202.36,-518.63C1301.69,-511.56 1451.85,-499.84 1508.6,-490 1565.64,-480.11 1579.39,-474.39 1634.6,-457 1656.64,-450.06 1680.59,-441.42 1701.19,-433.64"/>
<path fill="none" stroke="orange" d="M1202.51,-520.63C1301.85,-513.56 1452,-501.84 1508.94,-491.97 1566.4,-481.96 1580.15,-476.24 1635.2,-458.91 1657.31,-451.94 1681.27,-443.3 1701.9,-435.51"/>
<polygon fill="orange" stroke="orange" points="1702.61,-436.84 1710.71,-430.02 1700.12,-430.3 1702.61,-436.84"/>
<text text-anchor="middle" x="1601.1" y="-478.8" font-family="Times,serif" font-size="14.00" fill="orange">Atelier</text>
</g>
<!-- MateriauxConstruction&#45;&gt;VaisseauFragile1 -->
<g id="edge62" class="edge">
<title>MateriauxConstruction&#45;&gt;VaisseauFragile1</title>
<path fill="none" stroke="red" d="M1014.95,-525.54C849.94,-522.45 513.93,-513.65 398.23,-491.97 376.29,-487.33 372.27,-482.06 353.04,-476.92 292.23,-459.36 222.18,-442.45 171.28,-430.75"/>
<path fill="none" stroke="orange" d="M1014.99,-523.54C850,-520.45 513.98,-511.65 398.6,-490 377.88,-486.11 373.85,-480.85 353.6,-475 292.7,-457.42 222.65,-440.51 171.72,-428.8"/>
<path fill="none" stroke="red" d="M1015.02,-521.54C850.05,-518.45 514.03,-509.65 398.97,-488.03 379.47,-484.9 375.44,-479.63 354.15,-473.08 293.17,-455.48 223.12,-438.56 172.17,-426.85"/>
<polygon fill="red" stroke="red" points="172.33,-425.35 161.8,-426.53 170.77,-432.17 172.33,-425.35"/>
<text text-anchor="middle" x="456.1" y="-478.8" font-family="Times,serif" font-size="14.00" fill="red">Chantier spatial</text>
</g>
<!-- MateriauxConstruction&#45;&gt;VaisseauRobuste1 -->
<g id="edge70" class="edge">
<title>MateriauxConstruction&#45;&gt;VaisseauRobuste1</title>
<path fill="none" stroke="red" d="M1144.63,-506.22C1152.72,-501.35 1160.92,-495.35 1167.14,-488.64 1180.15,-474.82 1189.8,-454.94 1195.97,-439.11"/>
<path fill="none" stroke="orange" d="M1145.67,-507.93C1153.9,-502.97 1162.1,-496.97 1168.6,-490 1181.94,-475.69 1191.59,-455.81 1197.83,-439.84"/>
<path fill="none" stroke="red" d="M1146.7,-509.65C1155.08,-504.58 1163.28,-498.58 1170.06,-491.36 1183.74,-476.57 1193.39,-456.69 1199.69,-440.57"/>
<polygon fill="red" stroke="red" points="1201.28,-440.6 1201.44,-430 1194.71,-438.19 1201.28,-440.6"/>
<text text-anchor="middle" x="1238.1" y="-478.8" font-family="Times,serif" font-size="14.00" fill="red">Chantier spatial</text>
</g>
<!-- GazOxygene -->
<g id="node34" class="node">
<title>GazOxygene</title>
<polygon fill="lightgrey" stroke="black" points="477.66,-769.05 482.33,-769.15 486.96,-769.3 491.51,-769.49 495.98,-769.74 500.35,-770.03 504.6,-770.36 508.71,-770.75 512.67,-771.18 516.46,-771.65 520.06,-772.16 523.48,-772.71 526.69,-773.31 529.68,-773.94 532.45,-774.61 534.99,-775.31 537.29,-776.04 539.34,-776.8 541.15,-777.59 542.71,-778.41 544.02,-779.25 545.08,-780.11 545.89,-780.99 546.46,-781.89 546.78,-782.8 546.87,-783.72 546.73,-784.65 546.36,-785.59 545.77,-786.53 544.98,-787.47 543.98,-788.41 542.79,-789.35 541.42,-790.28 539.88,-791.2 538.18,-792.11 536.33,-793.01 534.33,-793.89 532.21,-794.75 529.96,-795.59 527.6,-796.41 525.15,-797.2 522.6,-797.96 519.97,-798.69 517.27,-799.39 514.5,-800.06 511.67,-800.69 508.79,-801.29 505.87,-801.84 502.91,-802.35 499.92,-802.82 496.89,-803.25 493.85,-803.64 490.78,-803.97 487.7,-804.26 484.61,-804.51 481.51,-804.7 478.4,-804.85 475.28,-804.95 472.16,-805 469.04,-805 465.92,-804.95 462.8,-804.85 459.69,-804.7 456.59,-804.51 453.5,-804.26 450.41,-803.97 447.35,-803.64 444.3,-803.25 441.28,-802.82 438.29,-802.35 435.33,-801.84 432.41,-801.29 429.53,-800.69 426.7,-800.06 423.93,-799.39 421.23,-798.69 418.6,-797.96 416.05,-797.2 413.59,-796.41 411.24,-795.59 408.99,-794.75 406.87,-793.89 404.87,-793.01 403.02,-792.11 401.32,-791.2 399.78,-790.28 398.41,-789.35 397.22,-788.41 396.22,-787.47 395.43,-786.53 394.84,-785.59 394.47,-784.65 394.33,-783.72 394.41,-782.8 394.74,-781.89 395.3,-780.99 396.12,-780.11 397.18,-779.25 398.49,-778.41 400.05,-777.59 401.86,-776.8 403.91,-776.04 406.21,-775.31 408.75,-774.61 411.52,-773.94 414.51,-773.31 417.72,-772.71 421.13,-772.16 424.74,-771.65 428.53,-771.18 432.49,-770.75 436.6,-770.36 440.85,-770.03 445.21,-769.74 449.69,-769.49 454.24,-769.3 458.87,-769.15 463.54,-769.05 468.24,-769 472.96,-769 477.66,-769.05"/>
<text text-anchor="middle" x="470.6" y="-783.3" font-family="Times,serif" font-size="14.00">Gaz Oxygene</text>
</g>
<!-- LiquideOxygene -->
<g id="node38" class="node">
<title>LiquideOxygene</title>
<polygon fill="lightgrey" stroke="black" points="704.36,-682.05 710.16,-682.15 715.9,-682.3 721.55,-682.49 727.1,-682.74 732.52,-683.03 737.79,-683.36 742.89,-683.75 747.8,-684.18 752.5,-684.65 756.98,-685.16 761.22,-685.71 765.2,-686.31 768.91,-686.94 772.35,-687.61 775.5,-688.31 778.35,-689.04 780.9,-689.8 783.15,-690.59 785.08,-691.41 786.71,-692.25 788.03,-693.11 789.03,-693.99 789.74,-694.89 790.14,-695.8 790.25,-696.72 790.07,-697.65 789.61,-698.59 788.88,-699.53 787.9,-700.47 786.66,-701.41 785.19,-702.35 783.49,-703.28 781.57,-704.2 779.46,-705.11 777.16,-706.01 774.69,-706.89 772.05,-707.75 769.26,-708.59 766.34,-709.41 763.29,-710.2 760.13,-710.96 756.87,-711.69 753.51,-712.39 750.07,-713.06 746.57,-713.69 742.99,-714.29 739.37,-714.84 735.69,-715.35 731.98,-715.82 728.23,-716.25 724.45,-716.64 720.65,-716.97 716.82,-717.26 712.99,-717.51 709.13,-717.7 705.27,-717.85 701.41,-717.95 697.54,-718 693.66,-718 689.79,-717.95 685.93,-717.85 682.06,-717.7 678.21,-717.51 674.37,-717.26 670.55,-716.97 666.75,-716.64 662.97,-716.25 659.22,-715.82 655.5,-715.35 651.83,-714.84 648.2,-714.29 644.63,-713.69 641.13,-713.06 637.69,-712.39 634.33,-711.69 631.07,-710.96 627.91,-710.2 624.86,-709.41 621.94,-708.59 619.15,-707.75 616.51,-706.89 614.04,-706.01 611.74,-705.11 609.62,-704.2 607.71,-703.28 606.01,-702.35 604.54,-701.41 603.3,-700.47 602.32,-699.53 601.59,-698.59 601.13,-697.65 600.95,-696.72 601.06,-695.8 601.46,-694.89 602.16,-693.99 603.17,-693.11 604.49,-692.25 606.11,-691.41 608.05,-690.59 610.3,-689.8 612.85,-689.04 615.7,-688.31 618.85,-687.61 622.28,-686.94 626,-686.31 629.98,-685.71 634.22,-685.16 638.69,-684.65 643.4,-684.18 648.31,-683.75 653.41,-683.36 658.68,-683.03 664.1,-682.74 669.65,-682.49 675.3,-682.3 681.04,-682.15 686.84,-682.05 692.68,-682 698.52,-682 704.36,-682.05"/>
<text text-anchor="middle" x="695.6" y="-696.3" font-family="Times,serif" font-size="14.00">Liquide Oxygene</text>
</g>
<!-- GazOxygene&#45;&gt;LiquideOxygene -->
<g id="edge25" class="edge">
<title>GazOxygene&#45;&gt;LiquideOxygene</title>
<path fill="none" stroke="lightskyblue" stroke-dasharray="5,2" d="M510.57,-770.9C548.79,-756.46 606.5,-734.66 647.29,-719.25"/>
<polygon fill="lightskyblue" stroke="lightskyblue" points="648.64,-722.48 656.76,-715.67 646.17,-715.93 648.64,-722.48"/>
<text text-anchor="middle" x="615.1" y="-739.8" font-family="Times,serif" font-size="14.00" fill="lightskyblue">Cuve</text>
</g>
<!-- PeroxydeHydrogene -->
<g id="node39" class="node">
<title>PeroxydeHydrogene</title>
<polygon fill="lightgrey" stroke="black" points="248.22,-682.05 255.25,-682.15 262.22,-682.3 269.07,-682.49 275.8,-682.74 282.38,-683.03 288.77,-683.36 294.96,-683.75 300.91,-684.18 306.62,-684.65 312.05,-685.16 317.18,-685.71 322.01,-686.31 326.52,-686.94 330.69,-687.61 334.5,-688.31 337.96,-689.04 341.06,-689.8 343.78,-690.59 346.13,-691.41 348.1,-692.25 349.7,-693.11 350.92,-693.99 351.77,-694.89 352.26,-695.8 352.39,-696.72 352.18,-697.65 351.62,-698.59 350.74,-699.53 349.54,-700.47 348.04,-701.41 346.25,-702.35 344.19,-703.28 341.87,-704.2 339.31,-705.11 336.52,-706.01 333.52,-706.89 330.32,-707.75 326.94,-708.59 323.39,-709.41 319.7,-710.2 315.86,-710.96 311.9,-711.69 307.84,-712.39 303.67,-713.06 299.41,-713.69 295.08,-714.29 290.68,-714.84 286.23,-715.35 281.72,-715.82 277.17,-716.25 272.59,-716.64 267.98,-716.97 263.34,-717.26 258.69,-717.51 254.02,-717.7 249.33,-717.85 244.64,-717.95 239.95,-718 235.25,-718 230.56,-717.95 225.87,-717.85 221.18,-717.7 216.51,-717.51 211.86,-717.26 207.22,-716.97 202.61,-716.64 198.02,-716.25 193.48,-715.82 188.97,-715.35 184.52,-714.84 180.12,-714.29 175.79,-713.69 171.53,-713.06 167.36,-712.39 163.29,-711.69 159.34,-710.96 155.5,-710.2 151.8,-709.41 148.26,-708.59 144.88,-707.75 141.68,-706.89 138.68,-706.01 135.89,-705.11 133.33,-704.2 131.01,-703.28 128.95,-702.35 127.16,-701.41 125.66,-700.47 124.46,-699.53 123.58,-698.59 123.02,-697.65 122.81,-696.72 122.94,-695.8 123.43,-694.89 124.28,-693.99 125.5,-693.11 127.1,-692.25 129.07,-691.41 131.42,-690.59 134.14,-689.8 137.23,-689.04 140.69,-688.31 144.51,-687.61 148.68,-686.94 153.19,-686.31 158.02,-685.71 163.15,-685.16 168.58,-684.65 174.29,-684.18 180.24,-683.75 186.43,-683.36 192.82,-683.03 199.39,-682.74 206.12,-682.49 212.98,-682.3 219.94,-682.15 226.98,-682.05 234.05,-682 241.15,-682 248.22,-682.05"/>
<text text-anchor="middle" x="237.6" y="-696.3" font-family="Times,serif" font-size="14.00">Peroxyde Hydrogene</text>
</g>
<!-- GazOxygene&#45;&gt;PeroxydeHydrogene -->
<g id="edge27" class="edge">
<title>GazOxygene&#45;&gt;PeroxydeHydrogene</title>
<path fill="none" stroke="lightskyblue" stroke-dasharray="5,2" d="M447.66,-769.49C431.55,-758.58 409.11,-744.73 387.6,-736 365.38,-726.98 340.32,-719.98 317.13,-714.7"/>
<polygon fill="lightskyblue" stroke="lightskyblue" points="317.84,-711.27 307.32,-712.54 316.34,-718.11 317.84,-711.27"/>
<text text-anchor="middle" x="435.1" y="-739.8" font-family="Times,serif" font-size="14.00" fill="lightskyblue">Cuve</text>
</g>
<!-- GazHydrogene -->
<g id="node35" class="node">
<title>GazHydrogene</title>
<polygon fill="lightgrey" stroke="black" points="296.72,-769.05 302.1,-769.15 307.43,-769.3 312.67,-769.49 317.82,-769.74 322.85,-770.03 327.74,-770.36 332.47,-770.75 337.03,-771.18 341.39,-771.65 345.54,-772.16 349.47,-772.71 353.17,-773.31 356.61,-773.94 359.8,-774.61 362.72,-775.31 365.37,-776.04 367.74,-776.8 369.82,-777.59 371.62,-778.41 373.12,-779.25 374.34,-780.11 375.28,-780.99 375.93,-781.89 376.3,-782.8 376.41,-783.72 376.24,-784.65 375.81,-785.59 375.14,-786.53 374.22,-787.47 373.08,-788.41 371.71,-789.35 370.13,-790.28 368.36,-791.2 366.4,-792.11 364.26,-793.01 361.97,-793.89 359.52,-794.75 356.94,-795.59 354.22,-796.41 351.4,-797.2 348.46,-797.96 345.44,-798.69 342.32,-799.39 339.14,-800.06 335.88,-800.69 332.57,-801.29 329.2,-801.84 325.8,-802.35 322.35,-802.82 318.87,-803.25 315.36,-803.64 311.84,-803.97 308.29,-804.26 304.73,-804.51 301.16,-804.7 297.57,-804.85 293.99,-804.95 290.4,-805 286.8,-805 283.21,-804.95 279.62,-804.85 276.04,-804.7 272.47,-804.51 268.91,-804.26 265.36,-803.97 261.83,-803.64 258.33,-803.25 254.85,-802.82 251.4,-802.35 248,-801.84 244.63,-801.29 241.32,-800.69 238.06,-800.06 234.88,-799.39 231.76,-798.69 228.74,-797.96 225.8,-797.2 222.97,-796.41 220.26,-795.59 217.68,-794.75 215.23,-793.89 212.93,-793.01 210.8,-792.11 208.84,-791.2 207.07,-790.28 205.49,-789.35 204.12,-788.41 202.98,-787.47 202.06,-786.53 201.38,-785.59 200.96,-784.65 200.79,-783.72 200.89,-782.8 201.27,-781.89 201.92,-780.99 202.85,-780.11 204.08,-779.25 205.58,-778.41 207.38,-777.59 209.46,-776.8 211.83,-776.04 214.48,-775.31 217.4,-774.61 220.58,-773.94 224.03,-773.31 227.73,-772.71 231.66,-772.16 235.81,-771.65 240.17,-771.18 244.73,-770.75 249.46,-770.36 254.35,-770.03 259.38,-769.74 264.52,-769.49 269.77,-769.3 275.09,-769.15 280.47,-769.05 285.89,-769 291.31,-769 296.72,-769.05"/>
<text text-anchor="middle" x="288.6" y="-783.3" font-family="Times,serif" font-size="14.00">Gaz Hydrogene</text>
</g>
<!-- LiquideHydrogene -->
<g id="node37" class="node">
<title>LiquideHydrogene</title>
<polygon fill="lightgrey" stroke="black" points="486.39,-682.05 492.87,-682.15 499.29,-682.3 505.61,-682.49 511.81,-682.74 517.87,-683.03 523.76,-683.36 529.46,-683.75 534.95,-684.18 540.21,-684.65 545.21,-685.16 549.95,-685.71 554.4,-686.31 558.55,-686.94 562.39,-687.61 565.91,-688.31 569.1,-689.04 571.95,-689.8 574.46,-690.59 576.63,-691.41 578.44,-692.25 579.91,-693.11 581.04,-693.99 581.83,-694.89 582.28,-695.8 582.4,-696.72 582.2,-697.65 581.68,-698.59 580.87,-699.53 579.77,-700.47 578.39,-701.41 576.74,-702.35 574.84,-703.28 572.7,-704.2 570.34,-705.11 567.77,-706.01 565,-706.89 562.05,-707.75 558.94,-708.59 555.67,-709.41 552.26,-710.2 548.73,-710.96 545.08,-711.69 541.33,-712.39 537.49,-713.06 533.57,-713.69 529.58,-714.29 525.52,-714.84 521.42,-715.35 517.26,-715.82 513.07,-716.25 508.85,-716.64 504.6,-716.97 500.32,-717.26 496.03,-717.51 491.73,-717.7 487.41,-717.85 483.09,-717.95 478.76,-718 474.44,-718 470.11,-717.95 465.79,-717.85 461.47,-717.7 457.17,-717.51 452.87,-717.26 448.6,-716.97 444.35,-716.64 440.13,-716.25 435.93,-715.82 431.78,-715.35 427.68,-714.84 423.62,-714.29 419.63,-713.69 415.71,-713.06 411.87,-712.39 408.12,-711.69 404.47,-710.96 400.94,-710.2 397.53,-709.41 394.26,-708.59 391.15,-707.75 388.2,-706.89 385.43,-706.01 382.86,-705.11 380.5,-704.2 378.36,-703.28 376.46,-702.35 374.81,-701.41 373.43,-700.47 372.33,-699.53 371.51,-698.59 371,-697.65 370.8,-696.72 370.92,-695.8 371.37,-694.89 372.16,-693.99 373.29,-693.11 374.76,-692.25 376.57,-691.41 378.74,-690.59 381.25,-689.8 384.1,-689.04 387.29,-688.31 390.81,-687.61 394.65,-686.94 398.8,-686.31 403.25,-685.71 407.99,-685.16 412.99,-684.65 418.25,-684.18 423.74,-683.75 429.44,-683.36 435.33,-683.03 441.39,-682.74 447.59,-682.49 453.91,-682.3 460.33,-682.15 466.81,-682.05 473.33,-682 479.87,-682 486.39,-682.05"/>
<text text-anchor="middle" x="476.6" y="-696.3" font-family="Times,serif" font-size="14.00">Liquide Hydrogene</text>
</g>
<!-- GazHydrogene&#45;&gt;LiquideHydrogene -->
<g id="edge24" class="edge">
<title>GazHydrogene&#45;&gt;LiquideHydrogene</title>
<path fill="none" stroke="lightskyblue" stroke-dasharray="5,2" d="M305.67,-769.01C317.42,-758.17 333.87,-744.6 350.6,-736 367.37,-727.38 386.53,-720.67 404.75,-715.53"/>
<polygon fill="lightskyblue" stroke="lightskyblue" points="405.72,-718.9 414.47,-712.92 403.9,-712.14 405.72,-718.9"/>
<text text-anchor="middle" x="369.1" y="-739.8" font-family="Times,serif" font-size="14.00" fill="lightskyblue">Cuve</text>
</g>
<!-- GazHydrogene&#45;&gt;PeroxydeHydrogene -->
<g id="edge26" class="edge">
<title>GazHydrogene&#45;&gt;PeroxydeHydrogene</title>
<path fill="none" stroke="lightskyblue" stroke-dasharray="5,2" d="M273.77,-769.17C269.24,-763.6 264.44,-757.22 260.6,-751 256.08,-743.68 251.9,-735.33 248.37,-727.57"/>
<polygon fill="lightskyblue" stroke="lightskyblue" points="251.49,-725.96 244.28,-718.19 245.07,-728.76 251.49,-725.96"/>
<text text-anchor="middle" x="279.1" y="-739.8" font-family="Times,serif" font-size="14.00" fill="lightskyblue">Cuve</text>
</g>
<!-- Eau&#45;&gt;GazOxygene -->
<g id="edge23" class="edge">
<title>Eau&#45;&gt;GazOxygene</title>
<path fill="none" stroke="lightskyblue" stroke-dasharray="5,2" d="M391.01,-889.26C406.47,-869.59 433.07,-835.75 451.23,-812.65"/>
<polygon fill="lightskyblue" stroke="lightskyblue" points="454.07,-814.69 457.5,-804.67 448.57,-810.37 454.07,-814.69"/>
<text text-anchor="middle" x="460.1" y="-826.8" font-family="Times,serif" font-size="14.00" fill="lightskyblue">Cuve</text>
</g>
<!-- Eau&#45;&gt;GazHydrogene -->
<g id="edge22" class="edge">
<title>Eau&#45;&gt;GazHydrogene</title>
<path fill="none" stroke="lightskyblue" stroke-dasharray="5,2" d="M366.46,-889.26C351.42,-869.7 325.61,-836.13 307.85,-813.04"/>
<polygon fill="lightskyblue" stroke="lightskyblue" points="310.58,-810.84 301.71,-805.05 305.03,-815.11 310.58,-810.84"/>
<text text-anchor="middle" x="344.1" y="-826.8" font-family="Times,serif" font-size="14.00" fill="lightskyblue">Cuve</text>
</g>
<!-- Carburant1 -->
<g id="node41" class="node">
<title>Carburant1</title>
<path fill="lightgrey" stroke="black" d="M526.1,-627.73C526.1,-629.53 503.91,-631 476.6,-631 449.29,-631 427.1,-629.53 427.1,-627.73 427.1,-627.73 427.1,-598.27 427.1,-598.27 427.1,-596.47 449.29,-595 476.6,-595 503.91,-595 526.1,-596.47 526.1,-598.27 526.1,-598.27 526.1,-627.73 526.1,-627.73"/>
<path fill="none" stroke="black" d="M526.1,-627.73C526.1,-625.92 503.91,-624.45 476.6,-624.45 449.29,-624.45 427.1,-625.92 427.1,-627.73"/>
<text text-anchor="middle" x="476.6" y="-609.3" font-family="Times,serif" font-size="14.00">Carburant1</text>
</g>
<!-- LiquideHydrogene&#45;&gt;Carburant1 -->
<g id="edge28" class="edge">
<title>LiquideHydrogene&#45;&gt;Carburant1</title>
<path fill="none" stroke="lightskyblue" stroke-dasharray="5,2" d="M476.6,-681.8C476.6,-670.16 476.6,-654.55 476.6,-641.24"/>
<polygon fill="lightskyblue" stroke="lightskyblue" points="480.1,-641.18 476.6,-631.18 473.1,-641.18 480.1,-641.18"/>
<text text-anchor="middle" x="495.1" y="-652.8" font-family="Times,serif" font-size="14.00" fill="lightskyblue">Cuve</text>
</g>
<!-- LiquideOxygene&#45;&gt;Carburant1 -->
<g id="edge29" class="edge">
<title>LiquideOxygene&#45;&gt;Carburant1</title>
<path fill="none" stroke="lightskyblue" stroke-dasharray="5,2" d="M654.92,-683.21C619,-669.27 566.46,-648.88 527.71,-633.84"/>
<polygon fill="lightskyblue" stroke="lightskyblue" points="528.77,-630.49 518.18,-630.14 526.23,-637.02 528.77,-630.49"/>
<text text-anchor="middle" x="618.1" y="-652.8" font-family="Times,serif" font-size="14.00" fill="lightskyblue">Cuve</text>
</g>
<!-- Carburant2 -->
<g id="node42" class="node">
<title>Carburant2</title>
<path fill="lightgrey" stroke="black" d="M333.1,-627.73C333.1,-629.53 310.91,-631 283.6,-631 256.29,-631 234.1,-629.53 234.1,-627.73 234.1,-627.73 234.1,-598.27 234.1,-598.27 234.1,-596.47 256.29,-595 283.6,-595 310.91,-595 333.1,-596.47 333.1,-598.27 333.1,-598.27 333.1,-627.73 333.1,-627.73"/>
<path fill="none" stroke="black" d="M333.1,-627.73C333.1,-625.92 310.91,-624.45 283.6,-624.45 256.29,-624.45 234.1,-625.92 234.1,-627.73"/>
<text text-anchor="middle" x="283.6" y="-609.3" font-family="Times,serif" font-size="14.00">Carburant2</text>
</g>
<!-- PeroxydeHydrogene&#45;&gt;Carburant2 -->
<g id="edge30" class="edge">
<title>PeroxydeHydrogene&#45;&gt;Carburant2</title>
<path fill="none" stroke="lightskyblue" stroke-dasharray="5,2" d="M246.91,-681.8C253.39,-669.82 262.16,-653.62 269.5,-640.06"/>
<polygon fill="lightskyblue" stroke="lightskyblue" points="272.62,-641.64 274.3,-631.18 266.47,-638.3 272.62,-641.64"/>
<text text-anchor="middle" x="282.1" y="-652.8" font-family="Times,serif" font-size="14.00" fill="lightskyblue">Cuve</text>
</g>
<!-- Carburant -->
<g id="node40" class="node">
<title>Carburant</title>
<path fill="lightgrey" stroke="black" d="M406.6,-540.73C406.6,-542.53 386.43,-544 361.6,-544 336.77,-544 316.6,-542.53 316.6,-540.73 316.6,-540.73 316.6,-511.27 316.6,-511.27 316.6,-509.47 336.77,-508 361.6,-508 386.43,-508 406.6,-509.47 406.6,-511.27 406.6,-511.27 406.6,-540.73 406.6,-540.73"/>
<path fill="none" stroke="black" d="M406.6,-540.73C406.6,-538.92 386.43,-537.45 361.6,-537.45 336.77,-537.45 316.6,-538.92 316.6,-540.73"/>
<text text-anchor="middle" x="361.6" y="-522.3" font-family="Times,serif" font-size="14.00">Carburant</text>
</g>
<!-- Carburant&#45;&gt;VaisseauFragile1 -->
<g id="edge61" class="edge">
<title>Carburant&#45;&gt;VaisseauFragile1</title>
<path fill="none" stroke="red" d="M315.91,-512.96C311.33,-511.83 306.67,-510.79 302.23,-509.97 280.16,-505.81 113.08,-508.86 96.12,-491.35 83.48,-476.63 84.89,-456.12 89.03,-439.25"/>
<path fill="none" stroke="orange" d="M316.39,-511.02C311.76,-509.88 307.11,-508.84 302.6,-508 280.12,-503.82 113.04,-506.86 97.6,-490 85.48,-476.77 86.88,-456.26 90.97,-439.73"/>
<path fill="none" stroke="red" d="M316.87,-509.08C312.2,-507.92 307.54,-506.89 302.97,-506.03 280.08,-501.82 113.01,-504.86 99.07,-488.65 87.47,-476.9 88.88,-456.39 92.91,-440.21"/>
<polygon fill="red" stroke="red" points="94.35,-440.64 93.76,-430.06 87.63,-438.69 94.35,-440.64"/>
<text text-anchor="middle" x="155.1" y="-478.8" font-family="Times,serif" font-size="14.00" fill="red">Chantier spatial</text>
</g>
<!-- Carburant&#45;&gt;VaisseauRobuste1 -->
<g id="edge69" class="edge">
<title>Carburant&#45;&gt;VaisseauRobuste1</title>
<path fill="none" stroke="red" d="M406.65,-521.76C476.01,-519.17 612.83,-511.31 726.2,-488.04 746.4,-484.5 750.44,-478.31 773.2,-473.04 856.66,-456.32 879.27,-466.61 961.33,-455.02 1018.2,-447.2 1082.12,-435.63 1130.37,-426.32"/>
<path fill="none" stroke="orange" d="M406.73,-523.76C476.13,-521.17 612.95,-513.31 726.6,-490 748.08,-485.6 752.12,-479.4 773.6,-475 855.83,-458.14 878.44,-468.43 961.6,-457 1018.56,-449.17 1082.48,-437.6 1130.75,-428.28"/>
<path fill="none" stroke="red" d="M406.8,-525.76C476.24,-523.16 613.06,-515.3 727,-491.96 749.75,-486.69 753.79,-480.5 774,-476.96 855,-459.96 877.62,-470.25 961.87,-458.98 1018.91,-451.14 1082.84,-439.57 1131.13,-430.25"/>
<polygon fill="red" stroke="red" points="1131.65,-431.67 1140.8,-426.33 1130.32,-424.8 1131.65,-431.67"/>
<text text-anchor="middle" x="831.1" y="-478.8" font-family="Times,serif" font-size="14.00" fill="red">Chantier spatial</text>
</g>
<!-- Carburant1&#45;&gt;Carburant -->
<g id="edge31" class="edge">
<title>Carburant1&#45;&gt;Carburant</title>
<path fill="none" stroke="lightskyblue" stroke-dasharray="5,2" d="M426.64,-601.25C411.38,-595.99 395.5,-588.27 383.6,-577 376.97,-570.72 372.21,-562.09 368.86,-553.76"/>
<polygon fill="lightskyblue" stroke="lightskyblue" points="372.15,-552.57 365.54,-544.29 365.54,-554.89 372.15,-552.57"/>
<text text-anchor="middle" x="402.1" y="-565.8" font-family="Times,serif" font-size="14.00" fill="lightskyblue">Cuve</text>
</g>
<!-- Carburant2&#45;&gt;Carburant -->
<g id="edge32" class="edge">
<title>Carburant2&#45;&gt;Carburant</title>
<path fill="none" stroke="lightskyblue" stroke-dasharray="5,2" d="M290.97,-594.56C295.84,-584.34 302.92,-571.59 311.6,-562 315.52,-557.67 320.06,-553.58 324.79,-549.84"/>
<polygon fill="lightskyblue" stroke="lightskyblue" points="326.88,-552.64 332.82,-543.86 322.71,-547.02 326.88,-552.64"/>
<text text-anchor="middle" x="330.1" y="-565.8" font-family="Times,serif" font-size="14.00" fill="lightskyblue">Cuve</text>
</g>
<!-- Puce&#45;&gt;SatelliteFragile1 -->
<g id="edge49" class="edge">
<title>Puce&#45;&gt;SatelliteFragile1</title>
<path fill="none" stroke="orange" d="M1365.51,-523.85C1295.18,-517.18 1138.06,-501.45 1114.83,-491.85 1103.68,-485.67 1104.25,-479.58 1095.71,-476.79 1046.63,-452.49 986.59,-437.05 938.68,-427.72"/>
<path fill="none" stroke="yellow" d="M1365.7,-521.86C1295.38,-515.19 1138.26,-499.46 1115.6,-490 1105.67,-485.86 1106.24,-479.77 1096.6,-475 1047.13,-450.55 987.09,-435.11 939.06,-425.76"/>
<path fill="none" stroke="orange" d="M1365.89,-519.87C1295.57,-513.2 1138.46,-497.47 1116.37,-488.15 1107.66,-486.04 1108.24,-479.95 1097.49,-473.21 1047.63,-448.61 987.59,-433.18 939.45,-423.79"/>
<polygon fill="orange" stroke="orange" points="939.48,-422.28 929.01,-423.85 938.18,-429.15 939.48,-422.28"/>
<text text-anchor="middle" x="1140.1" y="-478.8" font-family="Times,serif" font-size="14.00" fill="orange">Atelier</text>
</g>
<!-- Puce&#45;&gt;SatelliteRobuste1 -->
<g id="edge56" class="edge">
<title>Puce&#45;&gt;SatelliteRobuste1</title>
<path fill="none" stroke="orange" d="M1433.08,-519.76C1508.46,-512.4 1685.11,-494.55 1695.6,-488.27 1714.99,-477.25 1730.09,-455.49 1739.59,-438.24"/>
<path fill="none" stroke="yellow" d="M1433.27,-521.75C1508.66,-514.39 1685.31,-496.54 1696.6,-490 1716.63,-478.39 1731.73,-456.63 1741.34,-439.2"/>
<path fill="none" stroke="orange" d="M1433.47,-523.74C1508.86,-516.38 1685.52,-498.53 1697.6,-491.73 1718.27,-479.53 1733.38,-457.77 1743.09,-440.17"/>
<polygon fill="orange" stroke="orange" points="1744.59,-440.54 1746.11,-430.05 1738.39,-437.3 1744.59,-440.54"/>
<text text-anchor="middle" x="1740.1" y="-478.8" font-family="Times,serif" font-size="14.00" fill="orange">Atelier</text>
</g>
<!-- Puce&#45;&gt;VaisseauFragile1 -->
<g id="edge64" class="edge">
<title>Puce&#45;&gt;VaisseauFragile1</title>
<path fill="none" stroke="red" d="M1365.98,-523.37C1328.26,-519.44 1265,-513.26 1210.48,-510 1143.72,-506 671.38,-512.71 606.98,-491.9 594.35,-486.25 594.67,-479.11 584.89,-476.87 518.49,-451.59 329.28,-432.75 207.96,-422.85"/>
<path fill="none" stroke="orange" d="M1366.19,-521.39C1328.45,-517.45 1265.19,-511.27 1210.6,-508 1143.69,-504 671.35,-510.71 607.6,-490 596.34,-486.34 596.66,-479.2 585.6,-475 518.68,-449.6 329.47,-430.76 208.12,-420.86"/>
<path fill="none" stroke="red" d="M1366.39,-519.4C1328.65,-515.45 1265.38,-509.28 1210.72,-506 1143.66,-502 671.32,-508.71 608.22,-488.1 598.34,-486.43 598.66,-479.29 586.31,-473.13 518.88,-447.61 329.67,-428.77 208.29,-418.87"/>
<polygon fill="red" stroke="red" points="208.3,-417.36 198.05,-420.05 207.74,-424.34 208.3,-417.36"/>
<text text-anchor="middle" x="665.1" y="-478.8" font-family="Times,serif" font-size="14.00" fill="red">Chantier spatial</text>
</g>
<!-- Puce&#45;&gt;VaisseauRobuste1 -->
<g id="edge72" class="edge">
<title>Puce&#45;&gt;VaisseauRobuste1</title>
<path fill="none" stroke="red" d="M1394.14,-508.22C1391.22,-497.72 1385.89,-484.43 1377.22,-476.45 1353.4,-453.66 1319.71,-439.05 1288.84,-429.96"/>
<path fill="none" stroke="orange" d="M1396.07,-507.68C1393.07,-496.98 1387.75,-483.69 1378.6,-475 1354.2,-451.83 1320.5,-437.21 1289.4,-428.04"/>
<path fill="none" stroke="red" d="M1398,-507.14C1394.93,-496.24 1389.6,-482.94 1379.98,-473.55 1354.99,-449.99 1321.3,-435.38 1289.97,-426.12"/>
<polygon fill="red" stroke="red" points="1289.98,-424.57 1279.41,-425.25 1288.1,-431.31 1289.98,-424.57"/>
<text text-anchor="middle" x="1447.1" y="-478.8" font-family="Times,serif" font-size="14.00" fill="red">Chantier spatial</text>
</g>
<!-- Puce&#45;&gt;PuceLuxe -->
<!-- Puce&#45;&gt;PuceLuxe -->
<g id="edge44" class="edge">
<title>Puce&#45;&gt;PuceLuxe</title>
<path fill="none" stroke="green" d="M1433.43,-521.8C1524.23,-513.22 1766.53,-490.31 1768.6,-490 1801.36,-485.1 1809.04,-481.11 1841.6,-475 1888.57,-466.19 1903.67,-475.81 1947.6,-457 1949.21,-456.31 1950.83,-455.56 1952.43,-454.78"/>
<polygon fill="green" stroke="green" points="1954.41,-457.68 1961.51,-449.82 1951.05,-451.54 1954.41,-457.68"/>
<text text-anchor="middle" x="1873.6" y="-478.8" font-family="Times,serif" font-size="14.00" fill="green">Fabrique</text>
</g>
<!-- SatelliteFragile1&#45;&gt;SatelliteFragile2 -->
<!-- SatelliteFragile1&#45;&gt;SatelliteFragile2 -->
<g id="edge50" class="edge">
<title>SatelliteFragile1&#45;&gt;SatelliteFragile2</title>
<path fill="none" stroke="orange" d="M835.71,-395.09C822.92,-379.42 808.85,-356.01 816.73,-333.28 818.11,-329.74 819.81,-326.51 821.87,-323.29"/>
<path fill="none" stroke="yellow" d="M837.26,-393.83C824.64,-378.39 810.57,-354.98 818.6,-334 819.87,-330.67 821.58,-327.45 823.55,-324.37"/>
<path fill="none" stroke="orange" d="M838.81,-392.56C826.35,-377.36 812.28,-353.95 820.47,-334.72 821.64,-331.61 823.35,-328.38 825.24,-325.45"/>
<polygon fill="orange" stroke="orange" points="826.51,-326.26 829.69,-316.15 820.9,-322.07 826.51,-326.26"/>
<text text-anchor="middle" x="843.1" y="-337.8" font-family="Times,serif" font-size="14.00" fill="orange">Atelier</text>
</g>
<!-- SatelliteRobuste1&#45;&gt;SatelliteRobuste2 -->
<!-- SatelliteRobuste1&#45;&gt;SatelliteRobuste2 -->
<g id="edge57" class="edge">
<title>SatelliteRobuste1&#45;&gt;SatelliteRobuste2</title>
<path fill="none" stroke="orange" d="M1728.33,-395.38C1714.83,-384.16 1699.47,-368.45 1691.75,-349.75 1688.3,-340.23 1690.39,-331.7 1694.98,-323.43"/>
<path fill="none" stroke="yellow" d="M1729.61,-393.84C1716.26,-382.76 1700.9,-367.05 1693.6,-349 1690.24,-340.71 1692.33,-332.18 1696.72,-324.42"/>
<path fill="none" stroke="orange" d="M1730.89,-392.31C1717.69,-381.36 1702.33,-365.65 1695.45,-348.25 1692.19,-341.18 1694.27,-332.65 1698.46,-325.4"/>
<polygon fill="orange" stroke="orange" points="1699.7,-326.26 1702.48,-316.04 1693.93,-322.3 1699.7,-326.26"/>
<text text-anchor="middle" x="1718.1" y="-337.8" font-family="Times,serif" font-size="14.00" fill="orange">Atelier</text>
</g>
<!-- VaisseauFragile1&#45;&gt;VaisseauFragile2 -->
<!-- VaisseauFragile1&#45;&gt;VaisseauFragile2 -->
<g id="edge65" class="edge">
<title>VaisseauFragile1&#45;&gt;VaisseauFragile2</title>
<path fill="none" stroke="red" d="M95.44,-394C93.31,-377.25 92.64,-352.16 103.89,-332.96 106.79,-328.23 110.22,-324.19 114.25,-320.41"/>
<path fill="none" stroke="orange" d="M97.42,-393.75C95.31,-377.2 94.64,-352.11 105.6,-334 108.31,-329.52 111.75,-325.49 115.62,-321.87"/>
<path fill="none" stroke="red" d="M99.4,-393.5C97.3,-377.14 96.64,-352.06 107.31,-335.04 109.83,-330.82 113.27,-326.79 116.98,-323.33"/>
<polygon fill="red" stroke="red" points="117.99,-324.46 123.51,-315.42 113.56,-319.04 117.99,-324.46"/>
<text text-anchor="middle" x="163.1" y="-337.8" font-family="Times,serif" font-size="14.00" fill="red">Chantier spatial</text>
</g>
<!-- VaisseauRobuste1&#45;&gt;VaisseauRobuste2 -->
<!-- VaisseauRobuste1&#45;&gt;VaisseauRobuste2 -->
<g id="edge73" class="edge">
<title>VaisseauRobuste1&#45;&gt;VaisseauRobuste2</title>
<path fill="none" stroke="red" d="M1184.7,-395.24C1167.88,-378.95 1149.28,-354.6 1162.97,-332.84 1168.9,-324.57 1176.25,-318.25 1184.76,-313.01"/>
<path fill="none" stroke="orange" d="M1186.09,-393.8C1169.47,-377.74 1150.87,-353.38 1164.6,-334 1170.21,-326.08 1177.56,-319.76 1185.81,-314.72"/>
<path fill="none" stroke="red" d="M1187.48,-392.37C1171.06,-376.52 1152.46,-352.17 1166.23,-335.16 1171.51,-327.6 1178.86,-321.28 1186.85,-316.42"/>
<polygon fill="red" stroke="red" points="1187.57,-317.74 1194.7,-309.91 1184.24,-311.59 1187.57,-317.74"/>
<text text-anchor="middle" x="1222.1" y="-337.8" font-family="Times,serif" font-size="14.00" fill="red">Chantier spatial</text>
</g>
<!-- SatelliteFragile2&#45;&gt;SatelliteFragile3 -->
<!-- SatelliteFragile2&#45;&gt;SatelliteFragile3 -->
<g id="edge52" class="edge">
<title>SatelliteFragile2&#45;&gt;SatelliteFragile3</title>
<path fill="none" stroke="orange" d="M858.87,-271.31C862.95,-259.29 868.18,-243.92 872.87,-230.16"/>
<path fill="none" stroke="yellow" d="M860.76,-271.95C864.85,-259.94 870.08,-244.57 874.76,-230.8"/>
<path fill="none" stroke="orange" d="M862.65,-272.6C866.74,-260.58 871.97,-245.21 876.65,-231.45"/>
<polygon fill="orange" stroke="orange" points="878.14,-231.73 878.05,-221.13 871.51,-229.47 878.14,-231.73"/>
<text text-anchor="middle" x="896.1" y="-242.8" font-family="Times,serif" font-size="14.00" fill="orange">Atelier</text>
</g>
<!-- SatelliteRobuste2&#45;&gt;SatelliteRobuste3 -->
<!-- SatelliteRobuste2&#45;&gt;SatelliteRobuste3 -->
<g id="edge59" class="edge">
<title>SatelliteRobuste2&#45;&gt;SatelliteRobuste3</title>
<path fill="none" stroke="orange" d="M1717.42,-272.19C1715.52,-261.42 1715.2,-248.94 1720.84,-238.04 1723.41,-233.39 1726.47,-229.38 1730.11,-225.57"/>
<path fill="none" stroke="yellow" d="M1719.38,-271.84C1717.52,-261.37 1717.2,-248.89 1722.6,-239 1725,-234.61 1728.06,-230.6 1731.55,-226.95"/>
<path fill="none" stroke="orange" d="M1721.35,-271.49C1719.52,-261.32 1719.2,-248.84 1724.35,-239.96 1726.59,-235.82 1729.65,-231.81 1733,-228.33"/>
<polygon fill="orange" stroke="orange" points="1734.19,-229.28 1739.24,-219.96 1729.48,-224.1 1734.19,-229.28"/>
<text text-anchor="middle" x="1747.1" y="-242.8" font-family="Times,serif" font-size="14.00" fill="orange">Atelier</text>
</g>
<!-- VaisseauFragile2&#45;&gt;VaisseauFragile3 -->
<!-- VaisseauFragile2&#45;&gt;VaisseauFragile3 -->
<g id="edge67" class="edge">
<title>VaisseauFragile2&#45;&gt;VaisseauFragile3</title>
<path fill="none" stroke="red" d="M174.87,-271.31C178.95,-259.29 184.18,-243.92 188.87,-230.16"/>
<path fill="none" stroke="orange" d="M176.76,-271.95C180.85,-259.94 186.08,-244.57 190.76,-230.8"/>
<path fill="none" stroke="red" d="M178.65,-272.6C182.74,-260.58 187.97,-245.21 192.65,-231.45"/>
<polygon fill="red" stroke="red" points="194.14,-231.73 194.05,-221.13 187.51,-229.47 194.14,-231.73"/>
<text text-anchor="middle" x="245.1" y="-242.8" font-family="Times,serif" font-size="14.00" fill="red">Chantier spatial</text>
</g>
<!-- VaisseauRobuste2&#45;&gt;VaisseauRobuste3 -->
<!-- VaisseauRobuste2&#45;&gt;VaisseauRobuste3 -->
<g id="edge75" class="edge">
<title>VaisseauRobuste2&#45;&gt;VaisseauRobuste3</title>
<path fill="none" stroke="red" d="M1266.17,-272.34C1263.67,-261.01 1263.2,-248.06 1271.06,-237.73 1285.38,-220.97 1325.97,-210.82 1369,-204.42"/>
<path fill="none" stroke="orange" d="M1268.12,-271.9C1265.67,-260.93 1265.19,-247.98 1272.6,-239 1285.86,-222.91 1326.45,-212.76 1369.29,-206.4"/>
<path fill="none" stroke="red" d="M1270.07,-271.46C1267.67,-260.86 1267.19,-247.91 1274.14,-240.27 1286.35,-224.85 1326.94,-214.7 1369.59,-208.38"/>
<polygon fill="red" stroke="red" points="1369.92,-209.85 1379.33,-204.98 1368.94,-202.91 1369.92,-209.85"/>
<text text-anchor="middle" x="1330.1" y="-242.8" font-family="Times,serif" font-size="14.00" fill="red">Chantier spatial</text>
</g>
<!-- VaisseauLuxe -->
<g id="node57" class="node">
<title>VaisseauLuxe</title>
<polygon fill="lightgrey" stroke="black" points="1848.6,-118 1730.6,-118 1730.6,0 1848.6,0 1848.6,-118"/>
<polyline fill="none" stroke="black" points="1742.6,-118 1730.6,-106 "/>
<polyline fill="none" stroke="black" points="1730.6,-12 1742.6,0 "/>
<polyline fill="none" stroke="black" points="1836.6,0 1848.6,-12 "/>
<polyline fill="none" stroke="black" points="1848.6,-106 1836.6,-118 "/>
<text text-anchor="middle" x="1789.6" y="-55.3" font-family="Times,serif" font-size="14.00">Vaisseau Luxe</text>
</g>
<!-- SatelliteRobuste3&#45;&gt;VaisseauLuxe -->
<g id="edge78" class="edge">
<title>SatelliteRobuste3&#45;&gt;VaisseauLuxe</title>
<path fill="none" stroke="red" d="M1787.6,-168.8C1787.6,-157.15 1787.6,-142.71 1787.6,-128.19"/>
<path fill="none" stroke="orange" d="M1789.6,-168.8C1789.6,-157.15 1789.6,-142.71 1789.6,-128.19"/>
<path fill="none" stroke="red" d="M1791.6,-168.8C1791.6,-157.15 1791.6,-142.71 1791.6,-128.19"/>
<polygon fill="red" stroke="red" points="1793.1,-128.16 1789.6,-118.16 1786.1,-128.16 1793.1,-128.16"/>
<text text-anchor="middle" x="1847.1" y="-139.8" font-family="Times,serif" font-size="14.00" fill="red">Chantier spatial</text>
</g>
<!-- VaisseauRobuste3&#45;&gt;VaisseauLuxe -->
<g id="edge77" class="edge">
<title>VaisseauRobuste3&#45;&gt;VaisseauLuxe</title>
<path fill="none" stroke="red" d="M1545.35,-168.38C1594.09,-146.31 1666.9,-113.35 1720.19,-89.23"/>
<path fill="none" stroke="orange" d="M1546.18,-170.2C1594.92,-148.13 1667.73,-115.17 1721.02,-91.05"/>
<path fill="none" stroke="red" d="M1547,-172.02C1595.74,-149.96 1668.55,-116.99 1721.84,-92.87"/>
<polygon fill="red" stroke="red" points="1722.73,-94.11 1730.4,-86.8 1719.84,-87.74 1722.73,-94.11"/>
<text text-anchor="middle" x="1673.1" y="-139.8" font-family="Times,serif" font-size="14.00" fill="red">Chantier spatial</text>
</g>
<!-- PuceLuxe&#45;&gt;VaisseauLuxe -->
<g id="edge79" class="edge">
<title>PuceLuxe&#45;&gt;VaisseauLuxe</title>
<path fill="none" stroke="red" d="M1998,-367.03C1987.41,-308.9 1961.9,-205.87 1907.03,-137.25 1893.67,-120.36 1874.94,-105.87 1856.56,-94.43"/>
<path fill="none" stroke="orange" d="M1999.97,-366.67C1989.35,-308.42 1963.84,-205.39 1908.6,-136 1894.89,-118.78 1876.16,-104.29 1857.62,-92.74"/>
<path fill="none" stroke="red" d="M2001.93,-366.31C1991.3,-307.94 1965.79,-204.91 1910.16,-134.75 1896.12,-117.2 1877.39,-102.71 1858.68,-91.04"/>
<polygon fill="red" stroke="red" points="1859.22,-89.62 1848.84,-87.47 1855.62,-95.62 1859.22,-89.62"/>
<text text-anchor="middle" x="2027.1" y="-242.8" font-family="Times,serif" font-size="14.00" fill="red">Chantier spatial</text>
</g>
</g>
</svg>
